G04 #@! TF.GenerationSoftware,KiCad,Pcbnew,(5.0.0-3-g5ebb6b6)*
G04 #@! TF.CreationDate,2019-02-10T22:36:41+03:00*
G04 #@! TF.ProjectId,mac,6D61632E6B696361645F706362000000,rev?*
G04 #@! TF.SameCoordinates,Original*
G04 #@! TF.FileFunction,Soldermask,Top*
G04 #@! TF.FilePolarity,Negative*
%FSLAX46Y46*%
G04 Gerber Fmt 4.6, Leading zero omitted, Abs format (unit mm)*
G04 Created by KiCad (PCBNEW (5.0.0-3-g5ebb6b6)) date *
%MOMM*%
%LPD*%
G01*
G04 APERTURE LIST*
%ADD10C,0.100000*%
G04 APERTURE END LIST*
D10*
G36*
X106180000Y-101150000D02*
X104380000Y-101150000D01*
X104380000Y-99350000D01*
X106180000Y-99350000D01*
X106180000Y-101150000D01*
X106180000Y-101150000D01*
G37*
G36*
X103640000Y-101150000D02*
X101840000Y-101150000D01*
X101840000Y-99350000D01*
X103640000Y-99350000D01*
X103640000Y-101150000D01*
X103640000Y-101150000D01*
G37*
G36*
X101100000Y-101150000D02*
X99300000Y-101150000D01*
X99300000Y-99350000D01*
X101100000Y-99350000D01*
X101100000Y-101150000D01*
X101100000Y-101150000D01*
G37*
G36*
X98560000Y-101150000D02*
X96760000Y-101150000D01*
X96760000Y-99350000D01*
X98560000Y-99350000D01*
X98560000Y-101150000D01*
X98560000Y-101150000D01*
G37*
G36*
X96020000Y-101150000D02*
X94220000Y-101150000D01*
X94220000Y-99350000D01*
X96020000Y-99350000D01*
X96020000Y-101150000D01*
X96020000Y-101150000D01*
G37*
G36*
X93480000Y-101150000D02*
X91680000Y-101150000D01*
X91680000Y-99350000D01*
X93480000Y-99350000D01*
X93480000Y-101150000D01*
X93480000Y-101150000D01*
G37*
G36*
X90940000Y-101150000D02*
X89140000Y-101150000D01*
X89140000Y-99350000D01*
X90940000Y-99350000D01*
X90940000Y-101150000D01*
X90940000Y-101150000D01*
G37*
G36*
X87762520Y-99384586D02*
X87762522Y-99384587D01*
X87762523Y-99384587D01*
X87926310Y-99452430D01*
X88073717Y-99550924D01*
X88199076Y-99676283D01*
X88297570Y-99823690D01*
X88365414Y-99987480D01*
X88385536Y-100088642D01*
X88400000Y-100161360D01*
X88400000Y-100338640D01*
X88365413Y-100512523D01*
X88310138Y-100645969D01*
X88297570Y-100676310D01*
X88199076Y-100823717D01*
X88073717Y-100949076D01*
X87926310Y-101047570D01*
X87762523Y-101115413D01*
X87762522Y-101115413D01*
X87762520Y-101115414D01*
X87588642Y-101150000D01*
X87411358Y-101150000D01*
X87237480Y-101115414D01*
X87237478Y-101115413D01*
X87237477Y-101115413D01*
X87073690Y-101047570D01*
X86926283Y-100949076D01*
X86800924Y-100823717D01*
X86702430Y-100676310D01*
X86689862Y-100645969D01*
X86634587Y-100512523D01*
X86600000Y-100338640D01*
X86600000Y-100161360D01*
X86614464Y-100088642D01*
X86634586Y-99987480D01*
X86702430Y-99823690D01*
X86800924Y-99676283D01*
X86926283Y-99550924D01*
X87073690Y-99452430D01*
X87237477Y-99384587D01*
X87237478Y-99384587D01*
X87237480Y-99384586D01*
X87411358Y-99350000D01*
X87588642Y-99350000D01*
X87762520Y-99384586D01*
X87762520Y-99384586D01*
G37*
G36*
X143535497Y-94086424D02*
X143535499Y-94086425D01*
X143535500Y-94086425D01*
X143688983Y-94150000D01*
X144181556Y-94354031D01*
X144762993Y-94742535D01*
X145257465Y-95237007D01*
X145645969Y-95818444D01*
X145913576Y-96464503D01*
X146050000Y-97150356D01*
X146050000Y-97849644D01*
X145913576Y-98535497D01*
X145645969Y-99181556D01*
X145399166Y-99550923D01*
X145257466Y-99762992D01*
X144762992Y-100257466D01*
X144641506Y-100338640D01*
X144181556Y-100645969D01*
X144053342Y-100699077D01*
X143535500Y-100913575D01*
X143535499Y-100913575D01*
X143535497Y-100913576D01*
X142849644Y-101050000D01*
X142150356Y-101050000D01*
X141464503Y-100913576D01*
X141464501Y-100913575D01*
X141464500Y-100913575D01*
X140946658Y-100699077D01*
X140818444Y-100645969D01*
X140358494Y-100338640D01*
X140237008Y-100257466D01*
X139742534Y-99762992D01*
X139600834Y-99550923D01*
X139354031Y-99181556D01*
X139086424Y-98535497D01*
X138950000Y-97849644D01*
X138950000Y-97150356D01*
X139086424Y-96464503D01*
X139354031Y-95818444D01*
X139742535Y-95237007D01*
X140237007Y-94742535D01*
X140818444Y-94354031D01*
X141311017Y-94150000D01*
X141464500Y-94086425D01*
X141464501Y-94086425D01*
X141464503Y-94086424D01*
X142150356Y-93950000D01*
X142849644Y-93950000D01*
X143535497Y-94086424D01*
X143535497Y-94086424D01*
G37*
G36*
X114762520Y-99134586D02*
X114762522Y-99134587D01*
X114762523Y-99134587D01*
X114875913Y-99181555D01*
X114926310Y-99202430D01*
X115073717Y-99300924D01*
X115199076Y-99426283D01*
X115199077Y-99426285D01*
X115297570Y-99573690D01*
X115340066Y-99676283D01*
X115365414Y-99737480D01*
X115400000Y-99911358D01*
X115400000Y-100088642D01*
X115365414Y-100262520D01*
X115297570Y-100426310D01*
X115199076Y-100573717D01*
X115073717Y-100699076D01*
X114926310Y-100797570D01*
X114762523Y-100865413D01*
X114762522Y-100865413D01*
X114762520Y-100865414D01*
X114588642Y-100900000D01*
X114411358Y-100900000D01*
X114237480Y-100865414D01*
X114237478Y-100865413D01*
X114237477Y-100865413D01*
X114073690Y-100797570D01*
X113926283Y-100699076D01*
X113800924Y-100573717D01*
X113702430Y-100426310D01*
X113634586Y-100262520D01*
X113600000Y-100088642D01*
X113600000Y-99911358D01*
X113634586Y-99737480D01*
X113659935Y-99676283D01*
X113702430Y-99573690D01*
X113800923Y-99426285D01*
X113800924Y-99426283D01*
X113926283Y-99300924D01*
X114073690Y-99202430D01*
X114124087Y-99181555D01*
X114237477Y-99134587D01*
X114237478Y-99134587D01*
X114237480Y-99134586D01*
X114411358Y-99100000D01*
X114588642Y-99100000D01*
X114762520Y-99134586D01*
X114762520Y-99134586D01*
G37*
G36*
X110262520Y-99134586D02*
X110262522Y-99134587D01*
X110262523Y-99134587D01*
X110375913Y-99181555D01*
X110426310Y-99202430D01*
X110573717Y-99300924D01*
X110699076Y-99426283D01*
X110699077Y-99426285D01*
X110797570Y-99573690D01*
X110840066Y-99676283D01*
X110865414Y-99737480D01*
X110900000Y-99911358D01*
X110900000Y-100088642D01*
X110865414Y-100262520D01*
X110797570Y-100426310D01*
X110699076Y-100573717D01*
X110573717Y-100699076D01*
X110426310Y-100797570D01*
X110262523Y-100865413D01*
X110262522Y-100865413D01*
X110262520Y-100865414D01*
X110088642Y-100900000D01*
X109911358Y-100900000D01*
X109737480Y-100865414D01*
X109737478Y-100865413D01*
X109737477Y-100865413D01*
X109573690Y-100797570D01*
X109426283Y-100699076D01*
X109300924Y-100573717D01*
X109202430Y-100426310D01*
X109134586Y-100262520D01*
X109100000Y-100088642D01*
X109100000Y-99911358D01*
X109134586Y-99737480D01*
X109159935Y-99676283D01*
X109202430Y-99573690D01*
X109300923Y-99426285D01*
X109300924Y-99426283D01*
X109426283Y-99300924D01*
X109573690Y-99202430D01*
X109624087Y-99181555D01*
X109737477Y-99134587D01*
X109737478Y-99134587D01*
X109737480Y-99134586D01*
X109911358Y-99100000D01*
X110088642Y-99100000D01*
X110262520Y-99134586D01*
X110262520Y-99134586D01*
G37*
G36*
X120480000Y-100900000D02*
X118680000Y-100900000D01*
X118680000Y-99100000D01*
X120480000Y-99100000D01*
X120480000Y-100900000D01*
X120480000Y-100900000D01*
G37*
G36*
X123020000Y-100900000D02*
X121220000Y-100900000D01*
X121220000Y-99100000D01*
X123020000Y-99100000D01*
X123020000Y-100900000D01*
X123020000Y-100900000D01*
G37*
G36*
X138260000Y-100900000D02*
X136460000Y-100900000D01*
X136460000Y-99100000D01*
X138260000Y-99100000D01*
X138260000Y-100900000D01*
X138260000Y-100900000D01*
G37*
G36*
X135720000Y-100900000D02*
X133920000Y-100900000D01*
X133920000Y-99100000D01*
X135720000Y-99100000D01*
X135720000Y-100900000D01*
X135720000Y-100900000D01*
G37*
G36*
X133180000Y-100900000D02*
X131380000Y-100900000D01*
X131380000Y-99100000D01*
X133180000Y-99100000D01*
X133180000Y-100900000D01*
X133180000Y-100900000D01*
G37*
G36*
X130640000Y-100900000D02*
X128840000Y-100900000D01*
X128840000Y-99100000D01*
X130640000Y-99100000D01*
X130640000Y-100900000D01*
X130640000Y-100900000D01*
G37*
G36*
X128100000Y-100900000D02*
X126300000Y-100900000D01*
X126300000Y-99100000D01*
X128100000Y-99100000D01*
X128100000Y-100900000D01*
X128100000Y-100900000D01*
G37*
G36*
X125560000Y-100900000D02*
X123760000Y-100900000D01*
X123760000Y-99100000D01*
X125560000Y-99100000D01*
X125560000Y-100900000D01*
X125560000Y-100900000D01*
G37*
G36*
X117940000Y-100900000D02*
X116140000Y-100900000D01*
X116140000Y-99100000D01*
X117940000Y-99100000D01*
X117940000Y-100900000D01*
X117940000Y-100900000D01*
G37*
G36*
X103550000Y-98550000D02*
X101950000Y-98550000D01*
X101950000Y-97450000D01*
X103550000Y-97450000D01*
X103550000Y-98550000D01*
X103550000Y-98550000D01*
G37*
G36*
X101050000Y-98550000D02*
X99450000Y-98550000D01*
X99450000Y-97450000D01*
X101050000Y-97450000D01*
X101050000Y-98550000D01*
X101050000Y-98550000D01*
G37*
G36*
X96050000Y-98550000D02*
X94450000Y-98550000D01*
X94450000Y-97450000D01*
X96050000Y-97450000D01*
X96050000Y-98550000D01*
X96050000Y-98550000D01*
G37*
G36*
X98550000Y-98550000D02*
X96950000Y-98550000D01*
X96950000Y-97450000D01*
X98550000Y-97450000D01*
X98550000Y-98550000D01*
X98550000Y-98550000D01*
G37*
G36*
X110900000Y-98360000D02*
X109100000Y-98360000D01*
X109100000Y-96560000D01*
X110900000Y-96560000D01*
X110900000Y-98360000D01*
X110900000Y-98360000D01*
G37*
G36*
X133050000Y-98050000D02*
X131450000Y-98050000D01*
X131450000Y-96950000D01*
X133050000Y-96950000D01*
X133050000Y-98050000D01*
X133050000Y-98050000D01*
G37*
G36*
X135550000Y-98050000D02*
X133950000Y-98050000D01*
X133950000Y-96950000D01*
X135550000Y-96950000D01*
X135550000Y-98050000D01*
X135550000Y-98050000D01*
G37*
G36*
X138050000Y-98050000D02*
X136450000Y-98050000D01*
X136450000Y-96950000D01*
X138050000Y-96950000D01*
X138050000Y-98050000D01*
X138050000Y-98050000D01*
G37*
G36*
X130550000Y-98050000D02*
X128950000Y-98050000D01*
X128950000Y-96950000D01*
X130550000Y-96950000D01*
X130550000Y-98050000D01*
X130550000Y-98050000D01*
G37*
G36*
X128050000Y-98050000D02*
X126450000Y-98050000D01*
X126450000Y-96950000D01*
X128050000Y-96950000D01*
X128050000Y-98050000D01*
X128050000Y-98050000D01*
G37*
G36*
X125300000Y-98050000D02*
X123700000Y-98050000D01*
X123700000Y-96950000D01*
X125300000Y-96950000D01*
X125300000Y-98050000D01*
X125300000Y-98050000D01*
G37*
G36*
X122800000Y-98050000D02*
X121200000Y-98050000D01*
X121200000Y-96950000D01*
X122800000Y-96950000D01*
X122800000Y-98050000D01*
X122800000Y-98050000D01*
G37*
G36*
X115300000Y-98050000D02*
X113700000Y-98050000D01*
X113700000Y-96950000D01*
X115300000Y-96950000D01*
X115300000Y-98050000D01*
X115300000Y-98050000D01*
G37*
G36*
X120300000Y-98050000D02*
X118700000Y-98050000D01*
X118700000Y-96950000D01*
X120300000Y-96950000D01*
X120300000Y-98050000D01*
X120300000Y-98050000D01*
G37*
G36*
X117800000Y-98049998D02*
X116200000Y-98049998D01*
X116200000Y-96949998D01*
X117800000Y-96949998D01*
X117800000Y-98049998D01*
X117800000Y-98049998D01*
G37*
G36*
X91100000Y-96950000D02*
X89900000Y-96950000D01*
X89900000Y-96050000D01*
X91100000Y-96050000D01*
X91100000Y-96950000D01*
X91100000Y-96950000D01*
G37*
G36*
X98550000Y-96550000D02*
X96950000Y-96550000D01*
X96950000Y-95450000D01*
X98550000Y-95450000D01*
X98550000Y-96550000D01*
X98550000Y-96550000D01*
G37*
G36*
X96050000Y-96550000D02*
X94450000Y-96550000D01*
X94450000Y-95450000D01*
X96050000Y-95450000D01*
X96050000Y-96550000D01*
X96050000Y-96550000D01*
G37*
G36*
X101050000Y-96550000D02*
X99450000Y-96550000D01*
X99450000Y-95450000D01*
X101050000Y-95450000D01*
X101050000Y-96550000D01*
X101050000Y-96550000D01*
G37*
G36*
X103550000Y-96550000D02*
X101950000Y-96550000D01*
X101950000Y-95450000D01*
X103550000Y-95450000D01*
X103550000Y-96550000D01*
X103550000Y-96550000D01*
G37*
G36*
X138050000Y-96050000D02*
X136450000Y-96050000D01*
X136450000Y-94950000D01*
X138050000Y-94950000D01*
X138050000Y-96050000D01*
X138050000Y-96050000D01*
G37*
G36*
X115300000Y-96050000D02*
X113700000Y-96050000D01*
X113700000Y-94950000D01*
X115300000Y-94950000D01*
X115300000Y-96050000D01*
X115300000Y-96050000D01*
G37*
G36*
X135550000Y-96050000D02*
X133950000Y-96050000D01*
X133950000Y-94950000D01*
X135550000Y-94950000D01*
X135550000Y-96050000D01*
X135550000Y-96050000D01*
G37*
G36*
X133050000Y-96050000D02*
X131450000Y-96050000D01*
X131450000Y-94950000D01*
X133050000Y-94950000D01*
X133050000Y-96050000D01*
X133050000Y-96050000D01*
G37*
G36*
X130550000Y-96050000D02*
X128950000Y-96050000D01*
X128950000Y-94950000D01*
X130550000Y-94950000D01*
X130550000Y-96050000D01*
X130550000Y-96050000D01*
G37*
G36*
X128050000Y-96050000D02*
X126450000Y-96050000D01*
X126450000Y-94950000D01*
X128050000Y-94950000D01*
X128050000Y-96050000D01*
X128050000Y-96050000D01*
G37*
G36*
X120300000Y-96050000D02*
X118700000Y-96050000D01*
X118700000Y-94950000D01*
X120300000Y-94950000D01*
X120300000Y-96050000D01*
X120300000Y-96050000D01*
G37*
G36*
X125300000Y-96050000D02*
X123700000Y-96050000D01*
X123700000Y-94950000D01*
X125300000Y-94950000D01*
X125300000Y-96050000D01*
X125300000Y-96050000D01*
G37*
G36*
X122800000Y-96050000D02*
X121200000Y-96050000D01*
X121200000Y-94950000D01*
X122800000Y-94950000D01*
X122800000Y-96050000D01*
X122800000Y-96050000D01*
G37*
G36*
X117800000Y-96049998D02*
X116200000Y-96049998D01*
X116200000Y-94949998D01*
X117800000Y-94949998D01*
X117800000Y-96049998D01*
X117800000Y-96049998D01*
G37*
G36*
X88900000Y-96000000D02*
X87700000Y-96000000D01*
X87700000Y-95100000D01*
X88900000Y-95100000D01*
X88900000Y-96000000D01*
X88900000Y-96000000D01*
G37*
G36*
X110900000Y-95820000D02*
X109100000Y-95820000D01*
X109100000Y-94020000D01*
X110900000Y-94020000D01*
X110900000Y-95820000D01*
X110900000Y-95820000D01*
G37*
G36*
X91100000Y-95050000D02*
X89900000Y-95050000D01*
X89900000Y-94150000D01*
X91100000Y-94150000D01*
X91100000Y-95050000D01*
X91100000Y-95050000D01*
G37*
G36*
X117550000Y-93800000D02*
X116450000Y-93800000D01*
X116450000Y-92700000D01*
X117550000Y-92700000D01*
X117550000Y-93800000D01*
X117550000Y-93800000D01*
G37*
G36*
X115050000Y-93800000D02*
X113950000Y-93800000D01*
X113950000Y-92700000D01*
X115050000Y-92700000D01*
X115050000Y-93800000D01*
X115050000Y-93800000D01*
G37*
G36*
X122550000Y-93800000D02*
X121450000Y-93800000D01*
X121450000Y-92700000D01*
X122550000Y-92700000D01*
X122550000Y-93800000D01*
X122550000Y-93800000D01*
G37*
G36*
X137800000Y-93800000D02*
X136700000Y-93800000D01*
X136700000Y-92700000D01*
X137800000Y-92700000D01*
X137800000Y-93800000D01*
X137800000Y-93800000D01*
G37*
G36*
X135300000Y-93800000D02*
X134200000Y-93800000D01*
X134200000Y-92700000D01*
X135300000Y-92700000D01*
X135300000Y-93800000D01*
X135300000Y-93800000D01*
G37*
G36*
X132800000Y-93800000D02*
X131700000Y-93800000D01*
X131700000Y-92700000D01*
X132800000Y-92700000D01*
X132800000Y-93800000D01*
X132800000Y-93800000D01*
G37*
G36*
X130300000Y-93800000D02*
X129200000Y-93800000D01*
X129200000Y-92700000D01*
X130300000Y-92700000D01*
X130300000Y-93800000D01*
X130300000Y-93800000D01*
G37*
G36*
X127800000Y-93800000D02*
X126700000Y-93800000D01*
X126700000Y-92700000D01*
X127800000Y-92700000D01*
X127800000Y-93800000D01*
X127800000Y-93800000D01*
G37*
G36*
X120050000Y-93800000D02*
X118950000Y-93800000D01*
X118950000Y-92700000D01*
X120050000Y-92700000D01*
X120050000Y-93800000D01*
X120050000Y-93800000D01*
G37*
G36*
X125050000Y-93800000D02*
X123950000Y-93800000D01*
X123950000Y-92700000D01*
X125050000Y-92700000D01*
X125050000Y-93800000D01*
X125050000Y-93800000D01*
G37*
G36*
X117550000Y-92300000D02*
X116450000Y-92300000D01*
X116450000Y-91200000D01*
X117550000Y-91200000D01*
X117550000Y-92300000D01*
X117550000Y-92300000D01*
G37*
G36*
X122550000Y-92300000D02*
X121450000Y-92300000D01*
X121450000Y-91200000D01*
X122550000Y-91200000D01*
X122550000Y-92300000D01*
X122550000Y-92300000D01*
G37*
G36*
X125050000Y-92300000D02*
X123950000Y-92300000D01*
X123950000Y-91200000D01*
X125050000Y-91200000D01*
X125050000Y-92300000D01*
X125050000Y-92300000D01*
G37*
G36*
X137800000Y-92300000D02*
X136700000Y-92300000D01*
X136700000Y-91200000D01*
X137800000Y-91200000D01*
X137800000Y-92300000D01*
X137800000Y-92300000D01*
G37*
G36*
X135300000Y-92300000D02*
X134200000Y-92300000D01*
X134200000Y-91200000D01*
X135300000Y-91200000D01*
X135300000Y-92300000D01*
X135300000Y-92300000D01*
G37*
G36*
X132800000Y-92300000D02*
X131700000Y-92300000D01*
X131700000Y-91200000D01*
X132800000Y-91200000D01*
X132800000Y-92300000D01*
X132800000Y-92300000D01*
G37*
G36*
X130300000Y-92300000D02*
X129200000Y-92300000D01*
X129200000Y-91200000D01*
X130300000Y-91200000D01*
X130300000Y-92300000D01*
X130300000Y-92300000D01*
G37*
G36*
X127800000Y-92300000D02*
X126700000Y-92300000D01*
X126700000Y-91200000D01*
X127800000Y-91200000D01*
X127800000Y-92300000D01*
X127800000Y-92300000D01*
G37*
G36*
X120050000Y-92300000D02*
X118950000Y-92300000D01*
X118950000Y-91200000D01*
X120050000Y-91200000D01*
X120050000Y-92300000D01*
X120050000Y-92300000D01*
G37*
G36*
X115050000Y-92300000D02*
X113950000Y-92300000D01*
X113950000Y-91200000D01*
X115050000Y-91200000D01*
X115050000Y-92300000D01*
X115050000Y-92300000D01*
G37*
G36*
X95800000Y-92050000D02*
X92700000Y-92050000D01*
X92700000Y-90450000D01*
X95800000Y-90450000D01*
X95800000Y-92050000D01*
X95800000Y-92050000D01*
G37*
G36*
X98698600Y-91854800D02*
X97125400Y-91854800D01*
X97125400Y-91145200D01*
X98698600Y-91145200D01*
X98698600Y-91854800D01*
X98698600Y-91854800D01*
G37*
G36*
X104286600Y-91854800D02*
X102713400Y-91854800D01*
X102713400Y-91145200D01*
X104286600Y-91145200D01*
X104286600Y-91854800D01*
X104286600Y-91854800D01*
G37*
G36*
X80262520Y-89134586D02*
X80262522Y-89134587D01*
X80262523Y-89134587D01*
X80426310Y-89202430D01*
X80573717Y-89300924D01*
X80699076Y-89426283D01*
X80797570Y-89573690D01*
X80865414Y-89737480D01*
X80900000Y-89911358D01*
X80900000Y-90088642D01*
X80865414Y-90262520D01*
X80797570Y-90426310D01*
X80699076Y-90573717D01*
X80573717Y-90699076D01*
X80426310Y-90797570D01*
X80262523Y-90865413D01*
X80262522Y-90865413D01*
X80262520Y-90865414D01*
X80088642Y-90900000D01*
X79911358Y-90900000D01*
X79737480Y-90865414D01*
X79737478Y-90865413D01*
X79737477Y-90865413D01*
X79573690Y-90797570D01*
X79426283Y-90699076D01*
X79300924Y-90573717D01*
X79202430Y-90426310D01*
X79134586Y-90262520D01*
X79100000Y-90088642D01*
X79100000Y-89911358D01*
X79134586Y-89737480D01*
X79202430Y-89573690D01*
X79300924Y-89426283D01*
X79426283Y-89300924D01*
X79573690Y-89202430D01*
X79737477Y-89134587D01*
X79737478Y-89134587D01*
X79737480Y-89134586D01*
X79911358Y-89100000D01*
X80088642Y-89100000D01*
X80262520Y-89134586D01*
X80262520Y-89134586D01*
G37*
G36*
X104286600Y-90584800D02*
X102713400Y-90584800D01*
X102713400Y-89875200D01*
X104286600Y-89875200D01*
X104286600Y-90584800D01*
X104286600Y-90584800D01*
G37*
G36*
X98698600Y-90584800D02*
X97125400Y-90584800D01*
X97125400Y-89875200D01*
X98698600Y-89875200D01*
X98698600Y-90584800D01*
X98698600Y-90584800D01*
G37*
G36*
X98698600Y-89314800D02*
X97125400Y-89314800D01*
X97125400Y-88605200D01*
X98698600Y-88605200D01*
X98698600Y-89314800D01*
X98698600Y-89314800D01*
G37*
G36*
X104286600Y-89314800D02*
X102713400Y-89314800D01*
X102713400Y-88605200D01*
X104286600Y-88605200D01*
X104286600Y-89314800D01*
X104286600Y-89314800D01*
G37*
G36*
X138050000Y-89300000D02*
X134950000Y-89300000D01*
X134950000Y-87700000D01*
X138050000Y-87700000D01*
X138050000Y-89300000D01*
X138050000Y-89300000D01*
G37*
G36*
X141300000Y-89300000D02*
X139700000Y-89300000D01*
X139700000Y-88200000D01*
X141300000Y-88200000D01*
X141300000Y-89300000D01*
X141300000Y-89300000D01*
G37*
G36*
X114300000Y-89300000D02*
X111200000Y-89300000D01*
X111200000Y-87700000D01*
X114300000Y-87700000D01*
X114300000Y-89300000D01*
X114300000Y-89300000D01*
G37*
G36*
X95800000Y-88550000D02*
X92700000Y-88550000D01*
X92700000Y-86950000D01*
X95800000Y-86950000D01*
X95800000Y-88550000D01*
X95800000Y-88550000D01*
G37*
G36*
X80900000Y-88360000D02*
X79100000Y-88360000D01*
X79100000Y-86560000D01*
X80900000Y-86560000D01*
X80900000Y-88360000D01*
X80900000Y-88360000D01*
G37*
G36*
X104286600Y-88044800D02*
X102713400Y-88044800D01*
X102713400Y-87335200D01*
X104286600Y-87335200D01*
X104286600Y-88044800D01*
X104286600Y-88044800D01*
G37*
G36*
X98698600Y-88044800D02*
X97125400Y-88044800D01*
X97125400Y-87335200D01*
X98698600Y-87335200D01*
X98698600Y-88044800D01*
X98698600Y-88044800D01*
G37*
G36*
X141300000Y-87300000D02*
X139700000Y-87300000D01*
X139700000Y-86200000D01*
X141300000Y-86200000D01*
X141300000Y-87300000D01*
X141300000Y-87300000D01*
G37*
G36*
X129675000Y-86300000D02*
X121825000Y-86300000D01*
X121825000Y-84700000D01*
X129675000Y-84700000D01*
X129675000Y-86300000D01*
X129675000Y-86300000D01*
G37*
G36*
X80900000Y-85820000D02*
X79100000Y-85820000D01*
X79100000Y-84020000D01*
X80900000Y-84020000D01*
X80900000Y-85820000D01*
X80900000Y-85820000D01*
G37*
G36*
X114300000Y-85800000D02*
X111200000Y-85800000D01*
X111200000Y-84200000D01*
X114300000Y-84200000D01*
X114300000Y-85800000D01*
X114300000Y-85800000D01*
G37*
G36*
X138050000Y-85800000D02*
X134950000Y-85800000D01*
X134950000Y-84200000D01*
X138050000Y-84200000D01*
X138050000Y-85800000D01*
X138050000Y-85800000D01*
G37*
G36*
X91700000Y-85450000D02*
X90800000Y-85450000D01*
X90800000Y-84250000D01*
X91700000Y-84250000D01*
X91700000Y-85450000D01*
X91700000Y-85450000D01*
G37*
G36*
X146012520Y-82424586D02*
X146012522Y-82424587D01*
X146012523Y-82424587D01*
X146176310Y-82492430D01*
X146323717Y-82590924D01*
X146449076Y-82716283D01*
X146449077Y-82716285D01*
X146547570Y-82863690D01*
X146615413Y-83027477D01*
X146650000Y-83201360D01*
X146650000Y-83378640D01*
X146615413Y-83552523D01*
X146547570Y-83716310D01*
X146449076Y-83863717D01*
X146323717Y-83989076D01*
X146277436Y-84020000D01*
X146176310Y-84087570D01*
X146012523Y-84155413D01*
X146012522Y-84155413D01*
X146012520Y-84155414D01*
X145838642Y-84190000D01*
X145661358Y-84190000D01*
X145487480Y-84155414D01*
X145487478Y-84155413D01*
X145487477Y-84155413D01*
X145323690Y-84087570D01*
X145222564Y-84020000D01*
X145176283Y-83989076D01*
X145050924Y-83863717D01*
X144952430Y-83716310D01*
X144884587Y-83552523D01*
X144850000Y-83378640D01*
X144850000Y-83201360D01*
X144884587Y-83027477D01*
X144952430Y-82863690D01*
X145050923Y-82716285D01*
X145050924Y-82716283D01*
X145176283Y-82590924D01*
X145323690Y-82492430D01*
X145487477Y-82424587D01*
X145487478Y-82424587D01*
X145487480Y-82424586D01*
X145661358Y-82390000D01*
X145838642Y-82390000D01*
X146012520Y-82424586D01*
X146012520Y-82424586D01*
G37*
G36*
X132050000Y-83925000D02*
X130450000Y-83925000D01*
X130450000Y-76075000D01*
X132050000Y-76075000D01*
X132050000Y-83925000D01*
X132050000Y-83925000D01*
G37*
G36*
X121050000Y-83925000D02*
X119450000Y-83925000D01*
X119450000Y-76075000D01*
X121050000Y-76075000D01*
X121050000Y-83925000D01*
X121050000Y-83925000D01*
G37*
G36*
X101300000Y-83550000D02*
X100200000Y-83550000D01*
X100200000Y-81950000D01*
X101300000Y-81950000D01*
X101300000Y-83550000D01*
X101300000Y-83550000D01*
G37*
G36*
X99300000Y-83550000D02*
X98200000Y-83550000D01*
X98200000Y-81950000D01*
X99300000Y-81950000D01*
X99300000Y-83550000D01*
X99300000Y-83550000D01*
G37*
G36*
X96800000Y-83300000D02*
X93700000Y-83300000D01*
X93700000Y-81700000D01*
X96800000Y-81700000D01*
X96800000Y-83300000D01*
X96800000Y-83300000D01*
G37*
G36*
X80900000Y-83280000D02*
X79100000Y-83280000D01*
X79100000Y-81480000D01*
X80900000Y-81480000D01*
X80900000Y-83280000D01*
X80900000Y-83280000D01*
G37*
G36*
X92650000Y-83250000D02*
X91750000Y-83250000D01*
X91750000Y-82050000D01*
X92650000Y-82050000D01*
X92650000Y-83250000D01*
X92650000Y-83250000D01*
G37*
G36*
X90750000Y-83250000D02*
X89850000Y-83250000D01*
X89850000Y-82050000D01*
X90750000Y-82050000D01*
X90750000Y-83250000D01*
X90750000Y-83250000D01*
G37*
G36*
X114300000Y-82300000D02*
X111200000Y-82300000D01*
X111200000Y-80700000D01*
X114300000Y-80700000D01*
X114300000Y-82300000D01*
X114300000Y-82300000D01*
G37*
G36*
X88512520Y-80384586D02*
X88512522Y-80384587D01*
X88512523Y-80384587D01*
X88610088Y-80425000D01*
X88676310Y-80452430D01*
X88823717Y-80550924D01*
X88949076Y-80676283D01*
X89047570Y-80823690D01*
X89115414Y-80987480D01*
X89150000Y-81161358D01*
X89150000Y-81338642D01*
X89115414Y-81512520D01*
X89047570Y-81676310D01*
X88949076Y-81823717D01*
X88823717Y-81949076D01*
X88822334Y-81950000D01*
X88676310Y-82047570D01*
X88512523Y-82115413D01*
X88512522Y-82115413D01*
X88512520Y-82115414D01*
X88338642Y-82150000D01*
X88161358Y-82150000D01*
X87987480Y-82115414D01*
X87987478Y-82115413D01*
X87987477Y-82115413D01*
X87823690Y-82047570D01*
X87677666Y-81950000D01*
X87676283Y-81949076D01*
X87550924Y-81823717D01*
X87452430Y-81676310D01*
X87384586Y-81512520D01*
X87350000Y-81338642D01*
X87350000Y-81161358D01*
X87384586Y-80987480D01*
X87452430Y-80823690D01*
X87550924Y-80676283D01*
X87676283Y-80550924D01*
X87823690Y-80452430D01*
X87889912Y-80425000D01*
X87987477Y-80384587D01*
X87987478Y-80384587D01*
X87987480Y-80384586D01*
X88161358Y-80350000D01*
X88338642Y-80350000D01*
X88512520Y-80384586D01*
X88512520Y-80384586D01*
G37*
G36*
X86650000Y-82150000D02*
X84850000Y-82150000D01*
X84850000Y-80350000D01*
X86650000Y-80350000D01*
X86650000Y-82150000D01*
X86650000Y-82150000D01*
G37*
G36*
X84150000Y-82150000D02*
X82350000Y-82150000D01*
X82350000Y-80350000D01*
X84150000Y-80350000D01*
X84150000Y-82150000D01*
X84150000Y-82150000D01*
G37*
G36*
X146650000Y-81650000D02*
X144850000Y-81650000D01*
X144850000Y-79850000D01*
X146650000Y-79850000D01*
X146650000Y-81650000D01*
X146650000Y-81650000D01*
G37*
G36*
X143800000Y-81550000D02*
X142700000Y-81550000D01*
X142700000Y-79950000D01*
X143800000Y-79950000D01*
X143800000Y-81550000D01*
X143800000Y-81550000D01*
G37*
G36*
X141800000Y-81550000D02*
X140700000Y-81550000D01*
X140700000Y-79950000D01*
X141800000Y-79950000D01*
X141800000Y-81550000D01*
X141800000Y-81550000D01*
G37*
G36*
X91700000Y-81450000D02*
X90800000Y-81450000D01*
X90800000Y-80250000D01*
X91700000Y-80250000D01*
X91700000Y-81450000D01*
X91700000Y-81450000D01*
G37*
G36*
X80900000Y-80740000D02*
X79100000Y-80740000D01*
X79100000Y-78940000D01*
X80900000Y-78940000D01*
X80900000Y-80740000D01*
X80900000Y-80740000D01*
G37*
G36*
X96800000Y-79800000D02*
X93700000Y-79800000D01*
X93700000Y-78200000D01*
X96800000Y-78200000D01*
X96800000Y-79800000D01*
X96800000Y-79800000D01*
G37*
G36*
X101300000Y-79550000D02*
X100200000Y-79550000D01*
X100200000Y-77950000D01*
X101300000Y-77950000D01*
X101300000Y-79550000D01*
X101300000Y-79550000D01*
G37*
G36*
X99300000Y-79550000D02*
X98200000Y-79550000D01*
X98200000Y-77950000D01*
X99300000Y-77950000D01*
X99300000Y-79550000D01*
X99300000Y-79550000D01*
G37*
G36*
X138050000Y-79550000D02*
X134950000Y-79550000D01*
X134950000Y-77950000D01*
X138050000Y-77950000D01*
X138050000Y-79550000D01*
X138050000Y-79550000D01*
G37*
G36*
X92650000Y-79250000D02*
X91750000Y-79250000D01*
X91750000Y-78050000D01*
X92650000Y-78050000D01*
X92650000Y-79250000D01*
X92650000Y-79250000D01*
G37*
G36*
X90750000Y-79250000D02*
X89850000Y-79250000D01*
X89850000Y-78050000D01*
X90750000Y-78050000D01*
X90750000Y-79250000D01*
X90750000Y-79250000D01*
G37*
G36*
X146650000Y-79110000D02*
X144850000Y-79110000D01*
X144850000Y-77310000D01*
X146650000Y-77310000D01*
X146650000Y-79110000D01*
X146650000Y-79110000D01*
G37*
G36*
X141800000Y-78800000D02*
X140700000Y-78800000D01*
X140700000Y-77200000D01*
X141800000Y-77200000D01*
X141800000Y-78800000D01*
X141800000Y-78800000D01*
G37*
G36*
X143800000Y-78800000D02*
X142700000Y-78800000D01*
X142700000Y-77200000D01*
X143800000Y-77200000D01*
X143800000Y-78800000D01*
X143800000Y-78800000D01*
G37*
G36*
X114300000Y-78800000D02*
X111200000Y-78800000D01*
X111200000Y-77200000D01*
X114300000Y-77200000D01*
X114300000Y-78800000D01*
X114300000Y-78800000D01*
G37*
G36*
X80900000Y-78200000D02*
X79100000Y-78200000D01*
X79100000Y-76400000D01*
X80900000Y-76400000D01*
X80900000Y-78200000D01*
X80900000Y-78200000D01*
G37*
G36*
X84300000Y-78050000D02*
X82700000Y-78050000D01*
X82700000Y-73950000D01*
X84300000Y-73950000D01*
X84300000Y-78050000D01*
X84300000Y-78050000D01*
G37*
G36*
X88800000Y-78050000D02*
X87200000Y-78050000D01*
X87200000Y-73950000D01*
X88800000Y-73950000D01*
X88800000Y-78050000D01*
X88800000Y-78050000D01*
G37*
G36*
X138050000Y-76050000D02*
X134950000Y-76050000D01*
X134950000Y-74450000D01*
X138050000Y-74450000D01*
X138050000Y-76050000D01*
X138050000Y-76050000D01*
G37*
G36*
X80900000Y-75660000D02*
X79100000Y-75660000D01*
X79100000Y-73860000D01*
X80900000Y-73860000D01*
X80900000Y-75660000D01*
X80900000Y-75660000D01*
G37*
G36*
X129675000Y-75300000D02*
X121825000Y-75300000D01*
X121825000Y-73700000D01*
X129675000Y-73700000D01*
X129675000Y-75300000D01*
X129675000Y-75300000D01*
G37*
G36*
X96300000Y-75300000D02*
X95200000Y-75300000D01*
X95200000Y-73700000D01*
X96300000Y-73700000D01*
X96300000Y-75300000D01*
X96300000Y-75300000D01*
G37*
G36*
X140800000Y-75300000D02*
X139200000Y-75300000D01*
X139200000Y-74200000D01*
X140800000Y-74200000D01*
X140800000Y-75300000D01*
X140800000Y-75300000D01*
G37*
G36*
X133800000Y-75300000D02*
X132200000Y-75300000D01*
X132200000Y-74200000D01*
X133800000Y-74200000D01*
X133800000Y-75300000D01*
X133800000Y-75300000D01*
G37*
G36*
X94300000Y-75300000D02*
X93200000Y-75300000D01*
X93200000Y-73700000D01*
X94300000Y-73700000D01*
X94300000Y-75300000D01*
X94300000Y-75300000D01*
G37*
G36*
X114300000Y-75300000D02*
X111200000Y-75300000D01*
X111200000Y-73700000D01*
X114300000Y-73700000D01*
X114300000Y-75300000D01*
X114300000Y-75300000D01*
G37*
G36*
X144762520Y-72134586D02*
X144762522Y-72134587D01*
X144762523Y-72134587D01*
X144920443Y-72200000D01*
X144926310Y-72202430D01*
X145073717Y-72300924D01*
X145199076Y-72426283D01*
X145297570Y-72573690D01*
X145365414Y-72737480D01*
X145400000Y-72911358D01*
X145400000Y-73088642D01*
X145365414Y-73262520D01*
X145297570Y-73426310D01*
X145199076Y-73573717D01*
X145073717Y-73699076D01*
X145072334Y-73700000D01*
X144926310Y-73797570D01*
X144762523Y-73865413D01*
X144762522Y-73865413D01*
X144762520Y-73865414D01*
X144588642Y-73900000D01*
X144411358Y-73900000D01*
X144237480Y-73865414D01*
X144237478Y-73865413D01*
X144237477Y-73865413D01*
X144073690Y-73797570D01*
X143927666Y-73700000D01*
X143926283Y-73699076D01*
X143800924Y-73573717D01*
X143702430Y-73426310D01*
X143634586Y-73262520D01*
X143600000Y-73088642D01*
X143600000Y-72911358D01*
X143634586Y-72737480D01*
X143702430Y-72573690D01*
X143800924Y-72426283D01*
X143926283Y-72300924D01*
X144073690Y-72202430D01*
X144079557Y-72200000D01*
X144237477Y-72134587D01*
X144237478Y-72134587D01*
X144237480Y-72134586D01*
X144411358Y-72100000D01*
X144588642Y-72100000D01*
X144762520Y-72134586D01*
X144762520Y-72134586D01*
G37*
G36*
X140800000Y-73300000D02*
X139200000Y-73300000D01*
X139200000Y-72200000D01*
X140800000Y-72200000D01*
X140800000Y-73300000D01*
X140800000Y-73300000D01*
G37*
G36*
X133800000Y-73300000D02*
X132200000Y-73300000D01*
X132200000Y-72200000D01*
X133800000Y-72200000D01*
X133800000Y-73300000D01*
X133800000Y-73300000D01*
G37*
G36*
X80900000Y-73120000D02*
X79100000Y-73120000D01*
X79100000Y-71320000D01*
X80900000Y-71320000D01*
X80900000Y-73120000D01*
X80900000Y-73120000D01*
G37*
G36*
X82850000Y-72700000D02*
X81650000Y-72700000D01*
X81650000Y-71800000D01*
X82850000Y-71800000D01*
X82850000Y-72700000D01*
X82850000Y-72700000D01*
G37*
G36*
X87050000Y-71800000D02*
X85950000Y-71800000D01*
X85950000Y-70200000D01*
X87050000Y-70200000D01*
X87050000Y-71800000D01*
X87050000Y-71800000D01*
G37*
G36*
X114300000Y-71800000D02*
X111200000Y-71800000D01*
X111200000Y-70200000D01*
X114300000Y-70200000D01*
X114300000Y-71800000D01*
X114300000Y-71800000D01*
G37*
G36*
X89050000Y-71800000D02*
X87950000Y-71800000D01*
X87950000Y-70200000D01*
X89050000Y-70200000D01*
X89050000Y-71800000D01*
X89050000Y-71800000D01*
G37*
G36*
X85050000Y-71750000D02*
X83850000Y-71750000D01*
X83850000Y-70850000D01*
X85050000Y-70850000D01*
X85050000Y-71750000D01*
X85050000Y-71750000D01*
G37*
G36*
X91300000Y-71550000D02*
X90200000Y-71550000D01*
X90200000Y-70450000D01*
X91300000Y-70450000D01*
X91300000Y-71550000D01*
X91300000Y-71550000D01*
G37*
G36*
X92800000Y-71550000D02*
X91700000Y-71550000D01*
X91700000Y-70450000D01*
X92800000Y-70450000D01*
X92800000Y-71550000D01*
X92800000Y-71550000D01*
G37*
G36*
X102036600Y-71354800D02*
X100463400Y-71354800D01*
X100463400Y-70645200D01*
X102036600Y-70645200D01*
X102036600Y-71354800D01*
X102036600Y-71354800D01*
G37*
G36*
X96448600Y-71354800D02*
X94875400Y-71354800D01*
X94875400Y-70645200D01*
X96448600Y-70645200D01*
X96448600Y-71354800D01*
X96448600Y-71354800D01*
G37*
G36*
X82850000Y-70800000D02*
X81650000Y-70800000D01*
X81650000Y-69900000D01*
X82850000Y-69900000D01*
X82850000Y-70800000D01*
X82850000Y-70800000D01*
G37*
G36*
X107800000Y-70550000D02*
X104700000Y-70550000D01*
X104700000Y-68950000D01*
X107800000Y-68950000D01*
X107800000Y-70550000D01*
X107800000Y-70550000D01*
G37*
G36*
X96448600Y-70084800D02*
X94875400Y-70084800D01*
X94875400Y-69375200D01*
X96448600Y-69375200D01*
X96448600Y-70084800D01*
X96448600Y-70084800D01*
G37*
G36*
X102036600Y-70084800D02*
X100463400Y-70084800D01*
X100463400Y-69375200D01*
X102036600Y-69375200D01*
X102036600Y-70084800D01*
X102036600Y-70084800D01*
G37*
G36*
X144762520Y-67234586D02*
X144762522Y-67234587D01*
X144762523Y-67234587D01*
X144920443Y-67300000D01*
X144926310Y-67302430D01*
X145073717Y-67400924D01*
X145199076Y-67526283D01*
X145297570Y-67673690D01*
X145365414Y-67837480D01*
X145400000Y-68011358D01*
X145400000Y-68188642D01*
X145365414Y-68362520D01*
X145297570Y-68526310D01*
X145199076Y-68673717D01*
X145073717Y-68799076D01*
X145072334Y-68800000D01*
X144926310Y-68897570D01*
X144762523Y-68965413D01*
X144762522Y-68965413D01*
X144762520Y-68965414D01*
X144588642Y-69000000D01*
X144411358Y-69000000D01*
X144237480Y-68965414D01*
X144237478Y-68965413D01*
X144237477Y-68965413D01*
X144073690Y-68897570D01*
X143927666Y-68800000D01*
X143926283Y-68799076D01*
X143800924Y-68673717D01*
X143702430Y-68526310D01*
X143634586Y-68362520D01*
X143600000Y-68188642D01*
X143600000Y-68011358D01*
X143634586Y-67837480D01*
X143702430Y-67673690D01*
X143800924Y-67526283D01*
X143926283Y-67400924D01*
X144073690Y-67302430D01*
X144079557Y-67300000D01*
X144237477Y-67234587D01*
X144237478Y-67234587D01*
X144237480Y-67234586D01*
X144411358Y-67200000D01*
X144588642Y-67200000D01*
X144762520Y-67234586D01*
X144762520Y-67234586D01*
G37*
G36*
X96448600Y-68814800D02*
X94875400Y-68814800D01*
X94875400Y-68105200D01*
X96448600Y-68105200D01*
X96448600Y-68814800D01*
X96448600Y-68814800D01*
G37*
G36*
X102036600Y-68814800D02*
X100463400Y-68814800D01*
X100463400Y-68105200D01*
X102036600Y-68105200D01*
X102036600Y-68814800D01*
X102036600Y-68814800D01*
G37*
G36*
X127800000Y-68800000D02*
X126700000Y-68800000D01*
X126700000Y-67700000D01*
X127800000Y-67700000D01*
X127800000Y-68800000D01*
X127800000Y-68800000D01*
G37*
G36*
X130300000Y-68800000D02*
X129200000Y-68800000D01*
X129200000Y-67700000D01*
X130300000Y-67700000D01*
X130300000Y-68800000D01*
X130300000Y-68800000D01*
G37*
G36*
X132800000Y-68800000D02*
X131700000Y-68800000D01*
X131700000Y-67700000D01*
X132800000Y-67700000D01*
X132800000Y-68800000D01*
X132800000Y-68800000D01*
G37*
G36*
X125050000Y-68800000D02*
X123950000Y-68800000D01*
X123950000Y-67700000D01*
X125050000Y-67700000D01*
X125050000Y-68800000D01*
X125050000Y-68800000D01*
G37*
G36*
X135300000Y-68800000D02*
X134200000Y-68800000D01*
X134200000Y-67700000D01*
X135300000Y-67700000D01*
X135300000Y-68800000D01*
X135300000Y-68800000D01*
G37*
G36*
X137800000Y-68800000D02*
X136700000Y-68800000D01*
X136700000Y-67700000D01*
X137800000Y-67700000D01*
X137800000Y-68800000D01*
X137800000Y-68800000D01*
G37*
G36*
X120050000Y-68800000D02*
X118950000Y-68800000D01*
X118950000Y-67700000D01*
X120050000Y-67700000D01*
X120050000Y-68800000D01*
X120050000Y-68800000D01*
G37*
G36*
X117550000Y-68800000D02*
X116450000Y-68800000D01*
X116450000Y-67700000D01*
X117550000Y-67700000D01*
X117550000Y-68800000D01*
X117550000Y-68800000D01*
G37*
G36*
X115050000Y-68800000D02*
X113950000Y-68800000D01*
X113950000Y-67700000D01*
X115050000Y-67700000D01*
X115050000Y-68800000D01*
X115050000Y-68800000D01*
G37*
G36*
X122550000Y-68800000D02*
X121450000Y-68800000D01*
X121450000Y-67700000D01*
X122550000Y-67700000D01*
X122550000Y-68800000D01*
X122550000Y-68800000D01*
G37*
G36*
X93050000Y-68050000D02*
X91950000Y-68050000D01*
X91950000Y-66450000D01*
X93050000Y-66450000D01*
X93050000Y-68050000D01*
X93050000Y-68050000D01*
G37*
G36*
X91050000Y-68050000D02*
X89950000Y-68050000D01*
X89950000Y-66450000D01*
X91050000Y-66450000D01*
X91050000Y-68050000D01*
X91050000Y-68050000D01*
G37*
G36*
X102036600Y-67544800D02*
X100463400Y-67544800D01*
X100463400Y-66835200D01*
X102036600Y-66835200D01*
X102036600Y-67544800D01*
X102036600Y-67544800D01*
G37*
G36*
X96448600Y-67544800D02*
X94875400Y-67544800D01*
X94875400Y-66835200D01*
X96448600Y-66835200D01*
X96448600Y-67544800D01*
X96448600Y-67544800D01*
G37*
G36*
X137800000Y-67300000D02*
X136700000Y-67300000D01*
X136700000Y-66200000D01*
X137800000Y-66200000D01*
X137800000Y-67300000D01*
X137800000Y-67300000D01*
G37*
G36*
X135300000Y-67300000D02*
X134200000Y-67300000D01*
X134200000Y-66200000D01*
X135300000Y-66200000D01*
X135300000Y-67300000D01*
X135300000Y-67300000D01*
G37*
G36*
X132800000Y-67300000D02*
X131700000Y-67300000D01*
X131700000Y-66200000D01*
X132800000Y-66200000D01*
X132800000Y-67300000D01*
X132800000Y-67300000D01*
G37*
G36*
X130300000Y-67300000D02*
X129200000Y-67300000D01*
X129200000Y-66200000D01*
X130300000Y-66200000D01*
X130300000Y-67300000D01*
X130300000Y-67300000D01*
G37*
G36*
X127800000Y-67300000D02*
X126700000Y-67300000D01*
X126700000Y-66200000D01*
X127800000Y-66200000D01*
X127800000Y-67300000D01*
X127800000Y-67300000D01*
G37*
G36*
X125050000Y-67300000D02*
X123950000Y-67300000D01*
X123950000Y-66200000D01*
X125050000Y-66200000D01*
X125050000Y-67300000D01*
X125050000Y-67300000D01*
G37*
G36*
X122550000Y-67300000D02*
X121450000Y-67300000D01*
X121450000Y-66200000D01*
X122550000Y-66200000D01*
X122550000Y-67300000D01*
X122550000Y-67300000D01*
G37*
G36*
X120050000Y-67300000D02*
X118950000Y-67300000D01*
X118950000Y-66200000D01*
X120050000Y-66200000D01*
X120050000Y-67300000D01*
X120050000Y-67300000D01*
G37*
G36*
X117550000Y-67300000D02*
X116450000Y-67300000D01*
X116450000Y-66200000D01*
X117550000Y-66200000D01*
X117550000Y-67300000D01*
X117550000Y-67300000D01*
G37*
G36*
X115050000Y-67300000D02*
X113950000Y-67300000D01*
X113950000Y-66200000D01*
X115050000Y-66200000D01*
X115050000Y-67300000D01*
X115050000Y-67300000D01*
G37*
G36*
X107800000Y-67050000D02*
X104700000Y-67050000D01*
X104700000Y-65450000D01*
X107800000Y-65450000D01*
X107800000Y-67050000D01*
X107800000Y-67050000D01*
G37*
G36*
X110900000Y-65980000D02*
X109100000Y-65980000D01*
X109100000Y-64180000D01*
X110900000Y-64180000D01*
X110900000Y-65980000D01*
X110900000Y-65980000D01*
G37*
G36*
X83535497Y-58836424D02*
X83535499Y-58836425D01*
X83535500Y-58836425D01*
X83774153Y-58935279D01*
X84181556Y-59104031D01*
X84476227Y-59300924D01*
X84762992Y-59492534D01*
X85257466Y-59987008D01*
X85386379Y-60179941D01*
X85645969Y-60568444D01*
X85913576Y-61214503D01*
X86050000Y-61900356D01*
X86050000Y-62599644D01*
X85913576Y-63285497D01*
X85645969Y-63931556D01*
X85257465Y-64512993D01*
X84762993Y-65007465D01*
X84181556Y-65395969D01*
X83774153Y-65564721D01*
X83535500Y-65663575D01*
X83535499Y-65663575D01*
X83535497Y-65663576D01*
X82849644Y-65800000D01*
X82150356Y-65800000D01*
X81464503Y-65663576D01*
X81464501Y-65663575D01*
X81464500Y-65663575D01*
X81225847Y-65564721D01*
X80818444Y-65395969D01*
X80237007Y-65007465D01*
X79742535Y-64512993D01*
X79354031Y-63931556D01*
X79086424Y-63285497D01*
X78950000Y-62599644D01*
X78950000Y-61900356D01*
X79086424Y-61214503D01*
X79354031Y-60568444D01*
X79613621Y-60179941D01*
X79742534Y-59987008D01*
X80237008Y-59492534D01*
X80523773Y-59300924D01*
X80818444Y-59104031D01*
X81225847Y-58935279D01*
X81464500Y-58836425D01*
X81464501Y-58836425D01*
X81464503Y-58836424D01*
X82150356Y-58700000D01*
X82849644Y-58700000D01*
X83535497Y-58836424D01*
X83535497Y-58836424D01*
G37*
G36*
X120300000Y-65050000D02*
X118700000Y-65050000D01*
X118700000Y-63950000D01*
X120300000Y-63950000D01*
X120300000Y-65050000D01*
X120300000Y-65050000D01*
G37*
G36*
X122800000Y-65050000D02*
X121200000Y-65050000D01*
X121200000Y-63950000D01*
X122800000Y-63950000D01*
X122800000Y-65050000D01*
X122800000Y-65050000D01*
G37*
G36*
X128050000Y-65050000D02*
X126450000Y-65050000D01*
X126450000Y-63950000D01*
X128050000Y-63950000D01*
X128050000Y-65050000D01*
X128050000Y-65050000D01*
G37*
G36*
X125300000Y-65050000D02*
X123700000Y-65050000D01*
X123700000Y-63950000D01*
X125300000Y-63950000D01*
X125300000Y-65050000D01*
X125300000Y-65050000D01*
G37*
G36*
X117800001Y-65050000D02*
X116200001Y-65050000D01*
X116200001Y-63950000D01*
X117800001Y-63950000D01*
X117800001Y-65050000D01*
X117800001Y-65050000D01*
G37*
G36*
X130550000Y-65050000D02*
X128950000Y-65050000D01*
X128950000Y-63950000D01*
X130550000Y-63950000D01*
X130550000Y-65050000D01*
X130550000Y-65050000D01*
G37*
G36*
X115300000Y-65050000D02*
X113700000Y-65050000D01*
X113700000Y-63950000D01*
X115300000Y-63950000D01*
X115300000Y-65050000D01*
X115300000Y-65050000D01*
G37*
G36*
X133050000Y-65050000D02*
X131450000Y-65050000D01*
X131450000Y-63950000D01*
X133050000Y-63950000D01*
X133050000Y-65050000D01*
X133050000Y-65050000D01*
G37*
G36*
X135550000Y-65050000D02*
X133950000Y-65050000D01*
X133950000Y-63950000D01*
X135550000Y-63950000D01*
X135550000Y-65050000D01*
X135550000Y-65050000D01*
G37*
G36*
X138050000Y-65050000D02*
X136450000Y-65050000D01*
X136450000Y-63950000D01*
X138050000Y-63950000D01*
X138050000Y-65050000D01*
X138050000Y-65050000D01*
G37*
G36*
X110900000Y-63440000D02*
X109100000Y-63440000D01*
X109100000Y-61640000D01*
X110900000Y-61640000D01*
X110900000Y-63440000D01*
X110900000Y-63440000D01*
G37*
G36*
X138050000Y-63050000D02*
X136450000Y-63050000D01*
X136450000Y-61950000D01*
X138050000Y-61950000D01*
X138050000Y-63050000D01*
X138050000Y-63050000D01*
G37*
G36*
X135550000Y-63050000D02*
X133950000Y-63050000D01*
X133950000Y-61950000D01*
X135550000Y-61950000D01*
X135550000Y-63050000D01*
X135550000Y-63050000D01*
G37*
G36*
X133050000Y-63050000D02*
X131450000Y-63050000D01*
X131450000Y-61950000D01*
X133050000Y-61950000D01*
X133050000Y-63050000D01*
X133050000Y-63050000D01*
G37*
G36*
X130550000Y-63050000D02*
X128950000Y-63050000D01*
X128950000Y-61950000D01*
X130550000Y-61950000D01*
X130550000Y-63050000D01*
X130550000Y-63050000D01*
G37*
G36*
X128050000Y-63050000D02*
X126450000Y-63050000D01*
X126450000Y-61950000D01*
X128050000Y-61950000D01*
X128050000Y-63050000D01*
X128050000Y-63050000D01*
G37*
G36*
X125300000Y-63050000D02*
X123700000Y-63050000D01*
X123700000Y-61950000D01*
X125300000Y-61950000D01*
X125300000Y-63050000D01*
X125300000Y-63050000D01*
G37*
G36*
X122800000Y-63050000D02*
X121200000Y-63050000D01*
X121200000Y-61950000D01*
X122800000Y-61950000D01*
X122800000Y-63050000D01*
X122800000Y-63050000D01*
G37*
G36*
X120300000Y-63050000D02*
X118700000Y-63050000D01*
X118700000Y-61950000D01*
X120300000Y-61950000D01*
X120300000Y-63050000D01*
X120300000Y-63050000D01*
G37*
G36*
X115300000Y-63050000D02*
X113700000Y-63050000D01*
X113700000Y-61950000D01*
X115300000Y-61950000D01*
X115300000Y-63050000D01*
X115300000Y-63050000D01*
G37*
G36*
X117800001Y-63050000D02*
X116200001Y-63050000D01*
X116200001Y-61950000D01*
X117800001Y-61950000D01*
X117800001Y-63050000D01*
X117800001Y-63050000D01*
G37*
G36*
X146550000Y-62300000D02*
X144950000Y-62300000D01*
X144950000Y-61200000D01*
X146550000Y-61200000D01*
X146550000Y-62300000D01*
X146550000Y-62300000D01*
G37*
G36*
X143800000Y-62300000D02*
X142200000Y-62300000D01*
X142200000Y-61200000D01*
X143800000Y-61200000D01*
X143800000Y-62300000D01*
X143800000Y-62300000D01*
G37*
G36*
X135720000Y-60900000D02*
X133920000Y-60900000D01*
X133920000Y-59100000D01*
X135720000Y-59100000D01*
X135720000Y-60900000D01*
X135720000Y-60900000D01*
G37*
G36*
X133180000Y-60900000D02*
X131380000Y-60900000D01*
X131380000Y-59100000D01*
X133180000Y-59100000D01*
X133180000Y-60900000D01*
X133180000Y-60900000D01*
G37*
G36*
X130640000Y-60900000D02*
X128840000Y-60900000D01*
X128840000Y-59100000D01*
X130640000Y-59100000D01*
X130640000Y-60900000D01*
X130640000Y-60900000D01*
G37*
G36*
X103100000Y-60900000D02*
X101300000Y-60900000D01*
X101300000Y-59100000D01*
X103100000Y-59100000D01*
X103100000Y-60900000D01*
X103100000Y-60900000D01*
G37*
G36*
X128100000Y-60900000D02*
X126300000Y-60900000D01*
X126300000Y-59100000D01*
X128100000Y-59100000D01*
X128100000Y-60900000D01*
X128100000Y-60900000D01*
G37*
G36*
X125560000Y-60900000D02*
X123760000Y-60900000D01*
X123760000Y-59100000D01*
X125560000Y-59100000D01*
X125560000Y-60900000D01*
X125560000Y-60900000D01*
G37*
G36*
X123020000Y-60900000D02*
X121220000Y-60900000D01*
X121220000Y-59100000D01*
X123020000Y-59100000D01*
X123020000Y-60900000D01*
X123020000Y-60900000D01*
G37*
G36*
X100560000Y-60900000D02*
X98760000Y-60900000D01*
X98760000Y-59100000D01*
X100560000Y-59100000D01*
X100560000Y-60900000D01*
X100560000Y-60900000D01*
G37*
G36*
X98020000Y-60900000D02*
X96220000Y-60900000D01*
X96220000Y-59100000D01*
X98020000Y-59100000D01*
X98020000Y-60900000D01*
X98020000Y-60900000D01*
G37*
G36*
X110262520Y-59134586D02*
X110262522Y-59134587D01*
X110262523Y-59134587D01*
X110426310Y-59202430D01*
X110573717Y-59300924D01*
X110699076Y-59426283D01*
X110797570Y-59573690D01*
X110865414Y-59737480D01*
X110900000Y-59911358D01*
X110900000Y-60088642D01*
X110865414Y-60262520D01*
X110797570Y-60426310D01*
X110699076Y-60573717D01*
X110573717Y-60699076D01*
X110426310Y-60797570D01*
X110262523Y-60865413D01*
X110262522Y-60865413D01*
X110262520Y-60865414D01*
X110088642Y-60900000D01*
X109911358Y-60900000D01*
X109737480Y-60865414D01*
X109737478Y-60865413D01*
X109737477Y-60865413D01*
X109573690Y-60797570D01*
X109426283Y-60699076D01*
X109300924Y-60573717D01*
X109202430Y-60426310D01*
X109134586Y-60262520D01*
X109100000Y-60088642D01*
X109100000Y-59911358D01*
X109134586Y-59737480D01*
X109202430Y-59573690D01*
X109300924Y-59426283D01*
X109426283Y-59300924D01*
X109573690Y-59202430D01*
X109737477Y-59134587D01*
X109737478Y-59134587D01*
X109737480Y-59134586D01*
X109911358Y-59100000D01*
X110088642Y-59100000D01*
X110262520Y-59134586D01*
X110262520Y-59134586D01*
G37*
G36*
X114762520Y-59134586D02*
X114762522Y-59134587D01*
X114762523Y-59134587D01*
X114926310Y-59202430D01*
X115073717Y-59300924D01*
X115199076Y-59426283D01*
X115297570Y-59573690D01*
X115365414Y-59737480D01*
X115400000Y-59911358D01*
X115400000Y-60088642D01*
X115365414Y-60262520D01*
X115297570Y-60426310D01*
X115199076Y-60573717D01*
X115073717Y-60699076D01*
X114926310Y-60797570D01*
X114762523Y-60865413D01*
X114762522Y-60865413D01*
X114762520Y-60865414D01*
X114588642Y-60900000D01*
X114411358Y-60900000D01*
X114237480Y-60865414D01*
X114237478Y-60865413D01*
X114237477Y-60865413D01*
X114073690Y-60797570D01*
X113926283Y-60699076D01*
X113800924Y-60573717D01*
X113702430Y-60426310D01*
X113634586Y-60262520D01*
X113600000Y-60088642D01*
X113600000Y-59911358D01*
X113634586Y-59737480D01*
X113702430Y-59573690D01*
X113800924Y-59426283D01*
X113926283Y-59300924D01*
X114073690Y-59202430D01*
X114237477Y-59134587D01*
X114237478Y-59134587D01*
X114237480Y-59134586D01*
X114411358Y-59100000D01*
X114588642Y-59100000D01*
X114762520Y-59134586D01*
X114762520Y-59134586D01*
G37*
G36*
X117940000Y-60900000D02*
X116140000Y-60900000D01*
X116140000Y-59100000D01*
X117940000Y-59100000D01*
X117940000Y-60900000D01*
X117940000Y-60900000D01*
G37*
G36*
X120480000Y-60900000D02*
X118680000Y-60900000D01*
X118680000Y-59100000D01*
X120480000Y-59100000D01*
X120480000Y-60900000D01*
X120480000Y-60900000D01*
G37*
G36*
X138260000Y-60900000D02*
X136460000Y-60900000D01*
X136460000Y-59100000D01*
X138260000Y-59100000D01*
X138260000Y-60900000D01*
X138260000Y-60900000D01*
G37*
G36*
X95480000Y-60900000D02*
X93680000Y-60900000D01*
X93680000Y-59100000D01*
X95480000Y-59100000D01*
X95480000Y-60900000D01*
X95480000Y-60900000D01*
G37*
G36*
X92940000Y-60900000D02*
X91140000Y-60900000D01*
X91140000Y-59100000D01*
X92940000Y-59100000D01*
X92940000Y-60900000D01*
X92940000Y-60900000D01*
G37*
G36*
X89762520Y-59134586D02*
X89762522Y-59134587D01*
X89762523Y-59134587D01*
X89926310Y-59202430D01*
X90073717Y-59300924D01*
X90199076Y-59426283D01*
X90297570Y-59573690D01*
X90365414Y-59737480D01*
X90400000Y-59911358D01*
X90400000Y-60088642D01*
X90365414Y-60262520D01*
X90297570Y-60426310D01*
X90199076Y-60573717D01*
X90073717Y-60699076D01*
X89926310Y-60797570D01*
X89762523Y-60865413D01*
X89762522Y-60865413D01*
X89762520Y-60865414D01*
X89588642Y-60900000D01*
X89411358Y-60900000D01*
X89237480Y-60865414D01*
X89237478Y-60865413D01*
X89237477Y-60865413D01*
X89073690Y-60797570D01*
X88926283Y-60699076D01*
X88800924Y-60573717D01*
X88702430Y-60426310D01*
X88634586Y-60262520D01*
X88600000Y-60088642D01*
X88600000Y-59911358D01*
X88634586Y-59737480D01*
X88702430Y-59573690D01*
X88800924Y-59426283D01*
X88926283Y-59300924D01*
X89073690Y-59202430D01*
X89237477Y-59134587D01*
X89237478Y-59134587D01*
X89237480Y-59134586D01*
X89411358Y-59100000D01*
X89588642Y-59100000D01*
X89762520Y-59134586D01*
X89762520Y-59134586D01*
G37*
G36*
X146550000Y-60800000D02*
X144950000Y-60800000D01*
X144950000Y-59700000D01*
X146550000Y-59700000D01*
X146550000Y-60800000D01*
X146550000Y-60800000D01*
G37*
G36*
X143800000Y-60800000D02*
X142200000Y-60800000D01*
X142200000Y-59700000D01*
X143800000Y-59700000D01*
X143800000Y-60800000D01*
X143800000Y-60800000D01*
G37*
M02*
