G04 #@! TF.GenerationSoftware,KiCad,Pcbnew,(5.0.0-3-g5ebb6b6)*
G04 #@! TF.CreationDate,2019-02-10T22:36:41+03:00*
G04 #@! TF.ProjectId,mac,6D61632E6B696361645F706362000000,rev?*
G04 #@! TF.SameCoordinates,Original*
G04 #@! TF.FileFunction,Copper,L2,Bot,Signal*
G04 #@! TF.FilePolarity,Positive*
%FSLAX46Y46*%
G04 Gerber Fmt 4.6, Leading zero omitted, Abs format (unit mm)*
G04 Created by KiCad (PCBNEW (5.0.0-3-g5ebb6b6)) date *
%MOMM*%
%LPD*%
G01*
G04 APERTURE LIST*
G04 #@! TA.AperFunction,NonConductor*
%ADD10C,0.250000*%
G04 #@! TD*
G04 #@! TA.AperFunction,ComponentPad*
%ADD11C,1.700000*%
G04 #@! TD*
G04 #@! TA.AperFunction,ComponentPad*
%ADD12R,1.700000X1.700000*%
G04 #@! TD*
G04 #@! TA.AperFunction,ComponentPad*
%ADD13C,7.000000*%
G04 #@! TD*
G04 #@! TA.AperFunction,ViaPad*
%ADD14C,0.800000*%
G04 #@! TD*
G04 #@! TA.AperFunction,Conductor*
%ADD15C,0.250000*%
G04 #@! TD*
G04 APERTURE END LIST*
D10*
X84178571Y-67792857D02*
X84178571Y-66992857D01*
X84178571Y-67107142D02*
X84121428Y-67050000D01*
X84007142Y-66992857D01*
X83835714Y-66992857D01*
X83721428Y-67050000D01*
X83664285Y-67164285D01*
X83664285Y-67792857D01*
X83664285Y-67164285D02*
X83607142Y-67050000D01*
X83492857Y-66992857D01*
X83321428Y-66992857D01*
X83207142Y-67050000D01*
X83150000Y-67164285D01*
X83150000Y-67792857D01*
X82064285Y-67792857D02*
X82064285Y-67164285D01*
X82121428Y-67050000D01*
X82235714Y-66992857D01*
X82464285Y-66992857D01*
X82578571Y-67050000D01*
X82064285Y-67735714D02*
X82178571Y-67792857D01*
X82464285Y-67792857D01*
X82578571Y-67735714D01*
X82635714Y-67621428D01*
X82635714Y-67507142D01*
X82578571Y-67392857D01*
X82464285Y-67335714D01*
X82178571Y-67335714D01*
X82064285Y-67278571D01*
X80978571Y-67735714D02*
X81092857Y-67792857D01*
X81321428Y-67792857D01*
X81435714Y-67735714D01*
X81492857Y-67678571D01*
X81550000Y-67564285D01*
X81550000Y-67221428D01*
X81492857Y-67107142D01*
X81435714Y-67050000D01*
X81321428Y-66992857D01*
X81092857Y-66992857D01*
X80978571Y-67050000D01*
X80464285Y-67678571D02*
X80407142Y-67735714D01*
X80464285Y-67792857D01*
X80521428Y-67735714D01*
X80464285Y-67678571D01*
X80464285Y-67792857D01*
X79664285Y-66592857D02*
X79550000Y-66592857D01*
X79435714Y-66650000D01*
X79378571Y-66707142D01*
X79321428Y-66821428D01*
X79264285Y-67050000D01*
X79264285Y-67335714D01*
X79321428Y-67564285D01*
X79378571Y-67678571D01*
X79435714Y-67735714D01*
X79550000Y-67792857D01*
X79664285Y-67792857D01*
X79778571Y-67735714D01*
X79835714Y-67678571D01*
X79892857Y-67564285D01*
X79950000Y-67335714D01*
X79950000Y-67050000D01*
X79892857Y-66821428D01*
X79835714Y-66707142D01*
X79778571Y-66650000D01*
X79664285Y-66592857D01*
D11*
G04 #@! TO.P,G1,1*
G04 #@! TO.N,/VCC*
X88250000Y-81250000D03*
D12*
G04 #@! TO.P,G1,2*
G04 #@! TO.N,/GND*
X85750000Y-81250000D03*
G04 #@! TO.P,G1,3*
G04 #@! TO.N,/+4...30*
X83250000Y-81250000D03*
G04 #@! TD*
D11*
G04 #@! TO.P,XP3,1*
G04 #@! TO.N,/GND_MC*
X145750000Y-83290000D03*
D12*
G04 #@! TO.P,XP3,2*
G04 #@! TO.N,/MODE*
X145750000Y-80750000D03*
G04 #@! TO.P,XP3,3*
G04 #@! TO.N,/VCC_MC*
X145750000Y-78210000D03*
G04 #@! TD*
D13*
G04 #@! TO.P,M3,*
G04 #@! TO.N,*
X142500000Y-97500000D03*
G04 #@! TD*
G04 #@! TO.P,M3,*
G04 #@! TO.N,*
X82500000Y-62250000D03*
G04 #@! TD*
D11*
G04 #@! TO.P,XP1,1*
G04 #@! TO.N,/GND*
X80000000Y-90000000D03*
D12*
G04 #@! TO.P,XP1,2*
G04 #@! TO.N,/USB_D+*
X80000000Y-87460000D03*
G04 #@! TO.P,XP1,3*
G04 #@! TO.N,/USB_D-*
X80000000Y-84920000D03*
G04 #@! TO.P,XP1,4*
G04 #@! TO.N,/+4...30*
X80000000Y-82380000D03*
G04 #@! TO.P,XP1,5*
X80000000Y-79840000D03*
G04 #@! TO.P,XP1,6*
G04 #@! TO.N,/GND*
X80000000Y-77300000D03*
G04 #@! TO.P,XP1,7*
X80000000Y-74760000D03*
G04 #@! TO.P,XP1,8*
G04 #@! TO.N,/+3\002C3*
X80000000Y-72220000D03*
G04 #@! TD*
D11*
G04 #@! TO.P,XP4,1*
G04 #@! TO.N,/RS_A*
X89500000Y-60000000D03*
D12*
G04 #@! TO.P,XP4,2*
G04 #@! TO.N,/RS_B*
X92040000Y-60000000D03*
G04 #@! TO.P,XP4,3*
G04 #@! TO.N,Net-(R8-Pad2)*
X94580000Y-60000000D03*
G04 #@! TO.P,XP4,4*
X97120000Y-60000000D03*
G04 #@! TO.P,XP4,5*
G04 #@! TO.N,/CAN_H*
X99660000Y-60000000D03*
G04 #@! TO.P,XP4,6*
G04 #@! TO.N,/CAN_L*
X102200000Y-60000000D03*
G04 #@! TD*
D11*
G04 #@! TO.P,XP5,1*
G04 #@! TO.N,Net-(XP5-Pad1)*
X110000000Y-100000000D03*
D12*
G04 #@! TO.P,XP5,2*
G04 #@! TO.N,/GND_MC*
X110000000Y-97460000D03*
G04 #@! TO.P,XP5,3*
G04 #@! TO.N,/GND_LED1*
X110000000Y-94920000D03*
G04 #@! TD*
G04 #@! TO.P,XP6,10*
G04 #@! TO.N,/PA4*
X137360000Y-100000000D03*
G04 #@! TO.P,XP6,9*
G04 #@! TO.N,/PA5*
X134820000Y-100000000D03*
G04 #@! TO.P,XP6,8*
G04 #@! TO.N,/PA6*
X132280000Y-100000000D03*
G04 #@! TO.P,XP6,7*
G04 #@! TO.N,/PA7*
X129740000Y-100000000D03*
G04 #@! TO.P,XP6,6*
G04 #@! TO.N,/PB10*
X127200000Y-100000000D03*
G04 #@! TO.P,XP6,5*
G04 #@! TO.N,/PB9*
X124660000Y-100000000D03*
G04 #@! TO.P,XP6,4*
G04 #@! TO.N,/PB8*
X122120000Y-100000000D03*
G04 #@! TO.P,XP6,3*
G04 #@! TO.N,/PB7*
X119580000Y-100000000D03*
G04 #@! TO.P,XP6,2*
G04 #@! TO.N,/PB6*
X117040000Y-100000000D03*
D11*
G04 #@! TO.P,XP6,1*
G04 #@! TO.N,/PB5*
X114500000Y-100000000D03*
G04 #@! TD*
D12*
G04 #@! TO.P,XP7,3*
G04 #@! TO.N,/GND_LED2*
X110000000Y-65080000D03*
G04 #@! TO.P,XP7,2*
G04 #@! TO.N,/GND_MC*
X110000000Y-62540000D03*
D11*
G04 #@! TO.P,XP7,1*
G04 #@! TO.N,Net-(XP7-Pad1)*
X110000000Y-60000000D03*
G04 #@! TD*
G04 #@! TO.P,XP8,1*
G04 #@! TO.N,/PD5_ADC5*
X114500000Y-60000000D03*
D12*
G04 #@! TO.P,XP8,2*
G04 #@! TO.N,/PD6_ADC6*
X117040000Y-60000000D03*
G04 #@! TO.P,XP8,3*
G04 #@! TO.N,/PC2*
X119580000Y-60000000D03*
G04 #@! TO.P,XP8,4*
G04 #@! TO.N,/PC1_SDA1*
X122120000Y-60000000D03*
G04 #@! TO.P,XP8,5*
G04 #@! TO.N,/PC0_SCL1*
X124660000Y-60000000D03*
G04 #@! TO.P,XP8,6*
G04 #@! TO.N,/PD7_ADC7*
X127200000Y-60000000D03*
G04 #@! TO.P,XP8,7*
G04 #@! TO.N,/PE0_T2C1_DAC*
X129740000Y-60000000D03*
G04 #@! TO.P,XP8,8*
G04 #@! TO.N,/PE1_T2nC1*
X132280000Y-60000000D03*
G04 #@! TO.P,XP8,9*
G04 #@! TO.N,/PE2_T2C3*
X134820000Y-60000000D03*
G04 #@! TO.P,XP8,10*
G04 #@! TO.N,/PE3_T2nC3*
X137360000Y-60000000D03*
G04 #@! TD*
D11*
G04 #@! TO.P,ZQ1,2*
G04 #@! TO.N,Net-(C2-Pad1)*
X144500000Y-68100000D03*
G04 #@! TO.P,ZQ1,1*
G04 #@! TO.N,Net-(C1-Pad1)*
X144500000Y-73000000D03*
G04 #@! TD*
G04 #@! TO.P,XP2,1*
G04 #@! TO.N,/+4...30*
X87500000Y-100250000D03*
D12*
G04 #@! TO.P,XP2,2*
G04 #@! TO.N,/+3\002C3_prog*
X90040000Y-100250000D03*
G04 #@! TO.P,XP2,3*
G04 #@! TO.N,/GND*
X92580000Y-100250000D03*
G04 #@! TO.P,XP2,4*
G04 #@! TO.N,/TCK_CLK_TX*
X95120000Y-100250000D03*
G04 #@! TO.P,XP2,5*
G04 #@! TO.N,/TMS_DIO_RX*
X97660000Y-100250000D03*
G04 #@! TO.P,XP2,6*
G04 #@! TO.N,/TDO_SWO*
X100200000Y-100250000D03*
G04 #@! TO.P,XP2,7*
G04 #@! TO.N,/RES*
X102740000Y-100250000D03*
G04 #@! TO.P,XP2,8*
G04 #@! TO.N,/GND*
X105280000Y-100250000D03*
G04 #@! TD*
D14*
G04 #@! TO.N,/GND_MC*
X122750000Y-79750000D03*
X123500000Y-83000000D03*
X128750000Y-79000000D03*
X141500000Y-74750000D03*
X143250000Y-82500000D03*
X147250000Y-60250000D03*
X141500000Y-60250000D03*
X128000000Y-82250000D03*
G04 #@! TO.N,/GND*
X103500000Y-69750000D03*
X90500000Y-65500000D03*
X92250000Y-72250000D03*
X82000000Y-76000000D03*
X91500000Y-87750000D03*
X83000000Y-101000000D03*
G04 #@! TO.N,/A_VCC_MC*
X126250000Y-72000000D03*
X123750000Y-72250000D03*
X122250000Y-71000000D03*
X134750000Y-72750000D03*
G04 #@! TO.N,/A_GND_MC*
X126250000Y-71000000D03*
X124250000Y-71000000D03*
X122250000Y-70000000D03*
X141750000Y-72750000D03*
G04 #@! TO.N,/PF0_U2-RX*
X105750000Y-91500000D03*
X133750000Y-84250000D03*
G04 #@! TO.N,/PF1_U2-TX*
X133750000Y-83250000D03*
X105750000Y-87500000D03*
G04 #@! TO.N,/PF2_U2-En*
X133750000Y-82250000D03*
X105750000Y-90250000D03*
G04 #@! TO.N,/PC0_SCL1*
X117497835Y-82165712D03*
G04 #@! TO.N,/PC1_SDA1*
X117510899Y-81165796D03*
G04 #@! TO.N,/USB_D+*
X133750000Y-80250000D03*
X100750000Y-91750000D03*
G04 #@! TO.N,/PC2*
X117445299Y-80167948D03*
G04 #@! TO.N,/USB_D-*
X133750000Y-79250000D03*
X100750000Y-92750000D03*
G04 #@! TO.N,/PD6_ADC6*
X118012653Y-77737347D03*
G04 #@! TO.N,/PD5_ADC5*
X117999839Y-76737428D03*
G04 #@! TO.N,/PE6_C2-TX*
X133750000Y-77250000D03*
X109500000Y-85000000D03*
G04 #@! TO.N,/PE6_C2-RX*
X103500000Y-71000000D03*
X133750000Y-76250000D03*
X109500000Y-82250000D03*
G04 #@! TO.N,Net-(DD1-Pad17)*
X131000000Y-72250000D03*
X142250000Y-88750000D03*
G04 #@! TO.N,/RES*
X130000000Y-72225000D03*
G04 #@! TO.N,/PE3_T2nC3*
X128250000Y-70250000D03*
G04 #@! TO.N,/PE2_T2C3*
X127250000Y-70250000D03*
G04 #@! TO.N,/PE1_T2nC1*
X125500000Y-70000000D03*
G04 #@! TO.N,/PE0_T2C1_DAC*
X124500000Y-70000000D03*
G04 #@! TO.N,/PD7_ADC7*
X123500000Y-70000000D03*
G04 #@! TO.N,/PB9*
X124329742Y-89771479D03*
G04 #@! TO.N,/PB8*
X123307330Y-89768586D03*
G04 #@! TO.N,/PB7*
X122281672Y-89768939D03*
G04 #@! TO.N,/PB6*
X121262653Y-89762653D03*
G04 #@! TO.N,/PB5*
X120250000Y-89750000D03*
G04 #@! TO.N,/RS_A*
X96500000Y-89500000D03*
G04 #@! TO.N,/RS_B*
X96500000Y-90500000D03*
G04 #@! TO.N,/PA4*
X129329475Y-89750000D03*
G04 #@! TO.N,/PA5*
X128329474Y-89750001D03*
G04 #@! TO.N,/PA6*
X127329473Y-89749987D03*
G04 #@! TO.N,/PA7*
X126329472Y-89750160D03*
G04 #@! TO.N,/PB10*
X125329472Y-89748146D03*
G04 #@! TO.N,Net-(DD1-Pad34)*
X118000002Y-75737427D03*
G04 #@! TO.N,Net-(DD1-Pad33)*
X118000000Y-74737426D03*
G04 #@! TO.N,/TDO_SWO*
X116250000Y-74750000D03*
G04 #@! TO.N,/TMS_DIO_RX*
X116250000Y-73500000D03*
G04 #@! TO.N,/TCK_CLK_TX*
X116250000Y-76000000D03*
X107000000Y-87500000D03*
G04 #@! TD*
D15*
G04 #@! TO.N,/GND_MC*
X141500000Y-74750000D02*
X141899999Y-75149999D01*
X143250000Y-76500000D02*
X143250000Y-82500000D01*
X141899999Y-75149999D02*
X143250000Y-76500000D01*
X146250000Y-61250000D02*
X147250000Y-60250000D01*
X146250000Y-74750000D02*
X146250000Y-61250000D01*
X145750000Y-75250000D02*
X146250000Y-74750000D01*
G04 #@! TO.N,/GND*
X90500000Y-68500000D02*
X90500000Y-65500000D01*
X92250000Y-70250000D02*
X90500000Y-68500000D01*
X92250000Y-72250000D02*
X92250000Y-70250000D01*
X94750000Y-69750000D02*
X92250000Y-72250000D01*
X103500000Y-69750000D02*
X94750000Y-69750000D01*
X88500000Y-76000000D02*
X92250000Y-72250000D01*
X82000000Y-76000000D02*
X88500000Y-76000000D01*
X85750000Y-79750000D02*
X85750000Y-81250000D01*
X82000000Y-76000000D02*
X85750000Y-79750000D01*
X85750000Y-87750000D02*
X85750000Y-81250000D01*
X91500000Y-87750000D02*
X85750000Y-87750000D01*
X84500000Y-102500000D02*
X83000000Y-101000000D01*
X104130000Y-102500000D02*
X84500000Y-102500000D01*
X105280000Y-101350000D02*
X104130000Y-102500000D01*
X105280000Y-100250000D02*
X105280000Y-101350000D01*
G04 #@! TO.N,/A_VCC_MC*
X124000000Y-72000000D02*
X123750000Y-72250000D01*
X126250000Y-72000000D02*
X124000000Y-72000000D01*
X123500000Y-72250000D02*
X122250000Y-71000000D01*
X123750000Y-72250000D02*
X123500000Y-72250000D01*
X126250000Y-72000000D02*
X126815685Y-72000000D01*
X126815685Y-72000000D02*
X127315685Y-71500000D01*
X127315685Y-71500000D02*
X131000000Y-71500000D01*
X131000000Y-71500000D02*
X133500000Y-71500000D01*
X131000000Y-71500000D02*
X131750000Y-71500000D01*
X133500000Y-71500000D02*
X134750000Y-72750000D01*
G04 #@! TO.N,/A_GND_MC*
X124500000Y-71000000D02*
X126250000Y-71000000D01*
X124250000Y-71000000D02*
X124500000Y-71000000D01*
X122323002Y-70000000D02*
X122250000Y-70000000D01*
X123323002Y-71000000D02*
X122323002Y-70000000D01*
X124250000Y-71000000D02*
X123323002Y-71000000D01*
X126250000Y-71000000D02*
X136250000Y-71000000D01*
X136250000Y-71000000D02*
X137500000Y-71000000D01*
X140000000Y-71000000D02*
X141750000Y-72750000D01*
X137500000Y-71000000D02*
X140000000Y-71000000D01*
G04 #@! TO.N,/PF0_U2-RX*
X130250000Y-85750000D02*
X131750000Y-84250000D01*
X110886410Y-85750000D02*
X130250000Y-85750000D01*
X107861411Y-88774999D02*
X110886410Y-85750000D01*
X105225001Y-88774999D02*
X107861411Y-88774999D01*
X104750000Y-89250000D02*
X105225001Y-88774999D01*
X131750000Y-84250000D02*
X133750000Y-84250000D01*
X104750000Y-90500000D02*
X104750000Y-89250000D01*
X105750000Y-91500000D02*
X104750000Y-90500000D01*
G04 #@! TO.N,/PF1_U2-TX*
X106475001Y-88225001D02*
X105750000Y-87500000D01*
X133750000Y-83250000D02*
X132022820Y-83250000D01*
X107774999Y-88225001D02*
X106475001Y-88225001D01*
X110849980Y-85150020D02*
X107774999Y-88225001D01*
X132022820Y-83250000D02*
X130122801Y-85150019D01*
X130122801Y-85150019D02*
X110849980Y-85150020D01*
G04 #@! TO.N,/PF2_U2-En*
X111022820Y-86250000D02*
X107022820Y-90250000D01*
X107022820Y-90250000D02*
X105750000Y-90250000D01*
X133250000Y-86250000D02*
X111022820Y-86250000D01*
X134750000Y-84750000D02*
X133250000Y-86250000D01*
X133750000Y-82250000D02*
X134315685Y-82250000D01*
X134750000Y-82684315D02*
X134750000Y-84750000D01*
X134315685Y-82250000D02*
X134750000Y-82684315D01*
G04 #@! TO.N,/PC0_SCL1*
X124660000Y-62096410D02*
X124660000Y-61500000D01*
X121000000Y-65756410D02*
X124660000Y-62096410D01*
X121000000Y-79229232D02*
X121000000Y-65756410D01*
X124660000Y-61500000D02*
X124660000Y-60000000D01*
X118063520Y-82165712D02*
X121000000Y-79229232D01*
X117497835Y-82165712D02*
X118063520Y-82165712D01*
G04 #@! TO.N,/PC1_SDA1*
X122120000Y-64000000D02*
X122120000Y-60000000D01*
X120500000Y-65620000D02*
X122120000Y-64000000D01*
X120500000Y-78186249D02*
X120500000Y-65620000D01*
X117520453Y-81165796D02*
X120500000Y-78186249D01*
X117510899Y-81165796D02*
X117520453Y-81165796D01*
G04 #@! TO.N,/USB_D+*
X135250000Y-81750000D02*
X133750000Y-80250000D01*
X135250000Y-84886410D02*
X135250000Y-81750000D01*
X133386410Y-86750000D02*
X135250000Y-84886410D01*
X112250000Y-86750000D02*
X133386410Y-86750000D01*
X106750000Y-92250000D02*
X112250000Y-86750000D01*
X102000000Y-92250000D02*
X106750000Y-92250000D01*
X101500000Y-91750000D02*
X102000000Y-92250000D01*
X101500000Y-91750000D02*
X100750000Y-91750000D01*
G04 #@! TO.N,/PC2*
X120000000Y-77613247D02*
X120000000Y-65500000D01*
X119580000Y-65080000D02*
X119580000Y-60000000D01*
X120000000Y-65500000D02*
X119580000Y-65080000D01*
X117445299Y-80167948D02*
X120000000Y-77613247D01*
G04 #@! TO.N,/USB_D-*
X134315685Y-79250000D02*
X135750000Y-80684315D01*
X133750000Y-79250000D02*
X134315685Y-79250000D01*
X135750010Y-85093520D02*
X133593530Y-87250000D01*
X135750010Y-80684325D02*
X135750010Y-85093520D01*
X135750000Y-80684315D02*
X135750010Y-80684325D01*
X133593530Y-87250000D02*
X132957120Y-87250000D01*
X132957120Y-87250000D02*
X132957110Y-87250010D01*
X132957110Y-87250010D02*
X114500000Y-87250010D01*
X114500000Y-87250010D02*
X114250010Y-87250010D01*
X102999990Y-92750000D02*
X103000000Y-92750010D01*
X112499990Y-87250010D02*
X114500000Y-87250010D01*
X103000000Y-92750010D02*
X106957110Y-92750010D01*
X107500000Y-92250000D02*
X112499990Y-87250010D01*
X106957110Y-92750010D02*
X107457120Y-92250000D01*
X107457120Y-92250000D02*
X107500000Y-92250000D01*
X101750000Y-92750000D02*
X100750000Y-92750000D01*
X101750000Y-92750000D02*
X102999990Y-92750000D01*
G04 #@! TO.N,/PD6_ADC6*
X119450010Y-65700010D02*
X117040000Y-63290000D01*
X119450010Y-66950010D02*
X119450010Y-65700010D01*
X119500000Y-67000000D02*
X119450010Y-66950010D01*
X117040000Y-63290000D02*
X117040000Y-61100000D01*
X119500000Y-76724694D02*
X119500000Y-67000000D01*
X118487347Y-77737347D02*
X119500000Y-76724694D01*
X117040000Y-61100000D02*
X117040000Y-60000000D01*
X118012653Y-77737347D02*
X118487347Y-77737347D01*
G04 #@! TO.N,/PD5_ADC5*
X114500000Y-61500000D02*
X114500000Y-60000000D01*
X119000000Y-66000000D02*
X114500000Y-61500000D01*
X119000000Y-76302952D02*
X119000000Y-66000000D01*
X118565524Y-76737428D02*
X119000000Y-76302952D01*
X117999839Y-76737428D02*
X118565524Y-76737428D01*
G04 #@! TO.N,/PE6_C2-TX*
X130450009Y-84186401D02*
X130450010Y-78049990D01*
X130450010Y-78049990D02*
X131250000Y-77250000D01*
X129936400Y-84700010D02*
X130450009Y-84186401D01*
X109799990Y-84700010D02*
X129936400Y-84700010D01*
X131250000Y-77250000D02*
X133750000Y-77250000D01*
X109500000Y-85000000D02*
X109799990Y-84700010D01*
G04 #@! TO.N,/PE6_C2-RX*
X111500000Y-84250000D02*
X109500000Y-82250000D01*
X129750000Y-84250000D02*
X111500000Y-84250000D01*
X130000000Y-84000000D02*
X129750000Y-84250000D01*
X130000000Y-77750000D02*
X130000000Y-84000000D01*
X131500000Y-76250000D02*
X130000000Y-77750000D01*
X133750000Y-76250000D02*
X131500000Y-76250000D01*
G04 #@! TO.N,Net-(DD1-Pad17)*
X131000000Y-73000000D02*
X131000000Y-72250000D01*
X133000000Y-75000000D02*
X131000000Y-73000000D01*
X136700010Y-77200010D02*
X134500000Y-75000000D01*
X136700010Y-87700010D02*
X136700010Y-77200010D01*
X134500000Y-75000000D02*
X133000000Y-75000000D01*
X137750000Y-88750000D02*
X136700010Y-87700010D01*
X142250000Y-88750000D02*
X137750000Y-88750000D01*
G04 #@! TO.N,/RES*
X130000000Y-72790685D02*
X132709315Y-75500000D01*
X130000000Y-72225000D02*
X130000000Y-72790685D01*
X132709315Y-75500000D02*
X134250000Y-75500000D01*
X134250000Y-75500000D02*
X136250000Y-77500000D01*
X136250000Y-77500000D02*
X136250000Y-82000000D01*
X136250000Y-82000000D02*
X136250000Y-82250000D01*
X102740000Y-97760000D02*
X102740000Y-100250000D01*
X112750000Y-87750000D02*
X102740000Y-97760000D01*
X136250000Y-85229940D02*
X133729940Y-87750000D01*
X133729940Y-87750000D02*
X112750000Y-87750000D01*
X136250000Y-82000000D02*
X136250000Y-85229940D01*
G04 #@! TO.N,/PE3_T2nC3*
X137360000Y-61100000D02*
X137360000Y-60000000D01*
X137360000Y-61250000D02*
X137360000Y-61100000D01*
X128360000Y-70250000D02*
X137360000Y-61250000D01*
X128250000Y-70250000D02*
X128360000Y-70250000D01*
G04 #@! TO.N,/PE2_T2C3*
X134820000Y-61364315D02*
X134820000Y-60000000D01*
X127250000Y-68934315D02*
X134820000Y-61364315D01*
X127250000Y-70250000D02*
X127250000Y-68934315D01*
G04 #@! TO.N,/PE1_T2nC1*
X132280000Y-61500000D02*
X132280000Y-60000000D01*
X125500000Y-68280000D02*
X132280000Y-61500000D01*
X125500000Y-70000000D02*
X125500000Y-68280000D01*
G04 #@! TO.N,/PE0_T2C1_DAC*
X129740000Y-61100000D02*
X129740000Y-60000000D01*
X124500000Y-66740000D02*
X129740000Y-61500000D01*
X124500000Y-70000000D02*
X124500000Y-66740000D01*
X129740000Y-61500000D02*
X129740000Y-61100000D01*
G04 #@! TO.N,/PD7_ADC7*
X123500000Y-65200000D02*
X127200000Y-61500000D01*
X123500000Y-70000000D02*
X123500000Y-65200000D01*
X127200000Y-61500000D02*
X127200000Y-60000000D01*
G04 #@! TO.N,/PB9*
X124660000Y-90667422D02*
X124660000Y-92250000D01*
X124329742Y-90337164D02*
X124660000Y-90667422D01*
X124329742Y-89771479D02*
X124329742Y-90337164D01*
X124660000Y-100000000D02*
X124660000Y-92250000D01*
G04 #@! TO.N,/PB8*
X122120000Y-91687330D02*
X123307330Y-90500000D01*
X122120000Y-100000000D02*
X122120000Y-91687330D01*
X123307330Y-89768586D02*
X123307330Y-90500000D01*
G04 #@! TO.N,/PB7*
X119580000Y-92470611D02*
X122281672Y-89768939D01*
X119580000Y-100000000D02*
X119580000Y-92470611D01*
G04 #@! TO.N,/PB6*
X117040000Y-93985306D02*
X121262653Y-89762653D01*
X117040000Y-100000000D02*
X117040000Y-93985306D01*
G04 #@! TO.N,/PB5*
X114500000Y-95500000D02*
X120250000Y-89750000D01*
X114500000Y-100000000D02*
X114500000Y-95500000D01*
G04 #@! TO.N,/RS_A*
X96400000Y-98750000D02*
X96400000Y-96000000D01*
X96400000Y-96250000D02*
X96400000Y-96000000D01*
X96400000Y-98750000D02*
X96400000Y-98250000D01*
X96400000Y-101255002D02*
X96400000Y-98750000D01*
X86113590Y-102000000D02*
X95655002Y-102000000D01*
X78000000Y-93886410D02*
X86113590Y-102000000D01*
X78000000Y-71250000D02*
X78000000Y-93886410D01*
X95655002Y-102000000D02*
X96400000Y-101255002D01*
X84750000Y-68750000D02*
X80500000Y-68750000D01*
X89500000Y-64000000D02*
X84750000Y-68750000D01*
X80500000Y-68750000D02*
X78000000Y-71250000D01*
X89500000Y-60000000D02*
X89500000Y-64000000D01*
X97065685Y-89500000D02*
X96500000Y-89500000D01*
X97250000Y-89684315D02*
X97065685Y-89500000D01*
X97250000Y-91000000D02*
X97250000Y-89684315D01*
X96400000Y-91850000D02*
X97250000Y-91000000D01*
X96400000Y-96000000D02*
X96400000Y-91850000D01*
G04 #@! TO.N,/RS_B*
X93200000Y-101500000D02*
X93505001Y-101500000D01*
X93615002Y-101500000D02*
X93800000Y-101315002D01*
X93200000Y-101500000D02*
X93615002Y-101500000D01*
X93800000Y-101315002D02*
X93800000Y-98500000D01*
X93800000Y-98500000D02*
X93800000Y-96250000D01*
X93800000Y-96250000D02*
X93800000Y-94950000D01*
X86250000Y-101500000D02*
X93200000Y-101500000D01*
X78500000Y-93750000D02*
X86250000Y-101500000D01*
X78500000Y-71434998D02*
X78500000Y-93750000D01*
X80684998Y-69250000D02*
X78500000Y-71434998D01*
X92040000Y-62210000D02*
X85000000Y-69250000D01*
X85000000Y-69250000D02*
X80684998Y-69250000D01*
X92040000Y-60000000D02*
X92040000Y-62210000D01*
X93800000Y-93200000D02*
X96500000Y-90500000D01*
X93800000Y-96250000D02*
X93800000Y-93200000D01*
G04 #@! TO.N,/PA4*
X137360000Y-98900000D02*
X129250000Y-90790000D01*
X137360000Y-100000000D02*
X137360000Y-98900000D01*
X129329475Y-90710525D02*
X129329475Y-89750000D01*
X129250000Y-90790000D02*
X129329475Y-90710525D01*
G04 #@! TO.N,/PA5*
X128329474Y-89750001D02*
X128329474Y-90579474D01*
X134820000Y-97070000D02*
X134820000Y-100000000D01*
X128329474Y-90579474D02*
X134820000Y-97070000D01*
G04 #@! TO.N,/PA6*
X132280000Y-95266199D02*
X132280000Y-98900000D01*
X132280000Y-98900000D02*
X132280000Y-100000000D01*
X127329473Y-90315672D02*
X132280000Y-95266199D01*
X127329473Y-89749987D02*
X127329473Y-90315672D01*
G04 #@! TO.N,/PA7*
X129740000Y-98900000D02*
X129740000Y-100000000D01*
X126329472Y-90315845D02*
X129740000Y-93726373D01*
X129740000Y-93726373D02*
X129740000Y-98900000D01*
X126329472Y-89750160D02*
X126329472Y-90315845D01*
G04 #@! TO.N,/PB10*
X125329472Y-90313831D02*
X125329472Y-89748146D01*
X127200000Y-92184359D02*
X125329472Y-90313831D01*
X127200000Y-100000000D02*
X127200000Y-92184359D01*
G04 #@! TO.N,/TDO_SWO*
X98250000Y-91386410D02*
X114886410Y-74750000D01*
X100200000Y-98450000D02*
X98250000Y-96500000D01*
X114886410Y-74750000D02*
X116250000Y-74750000D01*
X98250000Y-96500000D02*
X98250000Y-91386410D01*
X100200000Y-100250000D02*
X100200000Y-98450000D01*
G04 #@! TO.N,/TMS_DIO_RX*
X115500000Y-73500000D02*
X116250000Y-73500000D01*
X97660000Y-91340000D02*
X115500000Y-73500000D01*
X97660000Y-100250000D02*
X97660000Y-91340000D01*
G04 #@! TO.N,/TCK_CLK_TX*
X114272820Y-76000000D02*
X116250000Y-76000000D01*
X107000000Y-83272820D02*
X114272820Y-76000000D01*
X107000000Y-87500000D02*
X107000000Y-83272820D01*
G04 #@! TD*
G04 #@! TO.N,/GND_MC*
G36*
X147625000Y-102625000D02*
X105065659Y-102625000D01*
X105758097Y-101932563D01*
X105820720Y-101890720D01*
X105923269Y-101737244D01*
X106130000Y-101737244D01*
X106373863Y-101688737D01*
X106580600Y-101550600D01*
X106718737Y-101343863D01*
X106767244Y-101100000D01*
X106767244Y-99400000D01*
X106718737Y-99156137D01*
X106580600Y-98949400D01*
X106373863Y-98811263D01*
X106130000Y-98762756D01*
X104430000Y-98762756D01*
X104186137Y-98811263D01*
X104010000Y-98928954D01*
X103833863Y-98811263D01*
X103590000Y-98762756D01*
X103490000Y-98762756D01*
X103490000Y-98070659D01*
X103919409Y-97641250D01*
X108525000Y-97641250D01*
X108525000Y-98434320D01*
X108620150Y-98664034D01*
X108795966Y-98839849D01*
X108992697Y-98921338D01*
X108749555Y-99164480D01*
X108525000Y-99706604D01*
X108525000Y-100293396D01*
X108749555Y-100835520D01*
X109164480Y-101250445D01*
X109706604Y-101475000D01*
X110293396Y-101475000D01*
X110835520Y-101250445D01*
X111250445Y-100835520D01*
X111475000Y-100293396D01*
X111475000Y-99706604D01*
X113025000Y-99706604D01*
X113025000Y-100293396D01*
X113249555Y-100835520D01*
X113664480Y-101250445D01*
X114206604Y-101475000D01*
X114793396Y-101475000D01*
X115335520Y-101250445D01*
X115583152Y-101002813D01*
X115601263Y-101093863D01*
X115739400Y-101300600D01*
X115946137Y-101438737D01*
X116190000Y-101487244D01*
X117890000Y-101487244D01*
X118133863Y-101438737D01*
X118310000Y-101321046D01*
X118486137Y-101438737D01*
X118730000Y-101487244D01*
X120430000Y-101487244D01*
X120673863Y-101438737D01*
X120850000Y-101321046D01*
X121026137Y-101438737D01*
X121270000Y-101487244D01*
X122970000Y-101487244D01*
X123213863Y-101438737D01*
X123390000Y-101321046D01*
X123566137Y-101438737D01*
X123810000Y-101487244D01*
X125510000Y-101487244D01*
X125753863Y-101438737D01*
X125930000Y-101321046D01*
X126106137Y-101438737D01*
X126350000Y-101487244D01*
X128050000Y-101487244D01*
X128293863Y-101438737D01*
X128470000Y-101321046D01*
X128646137Y-101438737D01*
X128890000Y-101487244D01*
X130590000Y-101487244D01*
X130833863Y-101438737D01*
X131010000Y-101321046D01*
X131186137Y-101438737D01*
X131430000Y-101487244D01*
X133130000Y-101487244D01*
X133373863Y-101438737D01*
X133550000Y-101321046D01*
X133726137Y-101438737D01*
X133970000Y-101487244D01*
X135670000Y-101487244D01*
X135913863Y-101438737D01*
X136090000Y-101321046D01*
X136266137Y-101438737D01*
X136510000Y-101487244D01*
X138210000Y-101487244D01*
X138453863Y-101438737D01*
X138660600Y-101300600D01*
X138798737Y-101093863D01*
X138847244Y-100850000D01*
X138847244Y-99460613D01*
X139002993Y-99836625D01*
X140163375Y-100997007D01*
X141679486Y-101625000D01*
X143320514Y-101625000D01*
X144836625Y-100997007D01*
X145997007Y-99836625D01*
X146625000Y-98320514D01*
X146625000Y-96679486D01*
X145997007Y-95163375D01*
X144836625Y-94002993D01*
X143320514Y-93375000D01*
X141679486Y-93375000D01*
X140163375Y-94002993D01*
X139002993Y-95163375D01*
X138375000Y-96679486D01*
X138375000Y-98320514D01*
X138482704Y-98580534D01*
X138453863Y-98561263D01*
X138210000Y-98512756D01*
X138003269Y-98512756D01*
X137900720Y-98359280D01*
X137838097Y-98317437D01*
X130079475Y-90558816D01*
X130079475Y-90449569D01*
X130198428Y-90330616D01*
X130354475Y-89953885D01*
X130354475Y-89546115D01*
X130198428Y-89169384D01*
X129910091Y-88881047D01*
X129533360Y-88725000D01*
X129125590Y-88725000D01*
X128829473Y-88847655D01*
X128533359Y-88725001D01*
X128125589Y-88725001D01*
X127829490Y-88847649D01*
X127533358Y-88724987D01*
X127125588Y-88724987D01*
X126829264Y-88847728D01*
X126533357Y-88725160D01*
X126125587Y-88725160D01*
X125831903Y-88846808D01*
X125533357Y-88723146D01*
X125125587Y-88723146D01*
X124801442Y-88857411D01*
X124533627Y-88746479D01*
X124125857Y-88746479D01*
X123822028Y-88872329D01*
X123511215Y-88743586D01*
X123103445Y-88743586D01*
X122794075Y-88871731D01*
X122485557Y-88743939D01*
X122077787Y-88743939D01*
X121779750Y-88867390D01*
X121466538Y-88737653D01*
X121058768Y-88737653D01*
X120771600Y-88856602D01*
X120453885Y-88725000D01*
X120046115Y-88725000D01*
X119669384Y-88881047D01*
X119381047Y-89169384D01*
X119225000Y-89546115D01*
X119225000Y-89714340D01*
X114021904Y-94917437D01*
X113959281Y-94959280D01*
X113917439Y-95021902D01*
X113793517Y-95207365D01*
X113735307Y-95500000D01*
X113750001Y-95573870D01*
X113750000Y-98714131D01*
X113664480Y-98749555D01*
X113249555Y-99164480D01*
X113025000Y-99706604D01*
X111475000Y-99706604D01*
X111250445Y-99164480D01*
X111007303Y-98921338D01*
X111204034Y-98839849D01*
X111379850Y-98664034D01*
X111475000Y-98434320D01*
X111475000Y-97641250D01*
X111318750Y-97485000D01*
X110025000Y-97485000D01*
X110025000Y-97505000D01*
X109975000Y-97505000D01*
X109975000Y-97485000D01*
X108681250Y-97485000D01*
X108525000Y-97641250D01*
X103919409Y-97641250D01*
X107490659Y-94070000D01*
X108512756Y-94070000D01*
X108512756Y-95770000D01*
X108561263Y-96013863D01*
X108681823Y-96194294D01*
X108620150Y-96255966D01*
X108525000Y-96485680D01*
X108525000Y-97278750D01*
X108681250Y-97435000D01*
X109975000Y-97435000D01*
X109975000Y-97415000D01*
X110025000Y-97415000D01*
X110025000Y-97435000D01*
X111318750Y-97435000D01*
X111475000Y-97278750D01*
X111475000Y-96485680D01*
X111379850Y-96255966D01*
X111318177Y-96194294D01*
X111438737Y-96013863D01*
X111487244Y-95770000D01*
X111487244Y-94070000D01*
X111438737Y-93826137D01*
X111300600Y-93619400D01*
X111093863Y-93481263D01*
X110850000Y-93432756D01*
X109150000Y-93432756D01*
X108906137Y-93481263D01*
X108699400Y-93619400D01*
X108561263Y-93826137D01*
X108512756Y-94070000D01*
X107490659Y-94070000D01*
X113060660Y-88500000D01*
X133656075Y-88500000D01*
X133729940Y-88514693D01*
X133803805Y-88500000D01*
X133803806Y-88500000D01*
X134022575Y-88456484D01*
X134270660Y-88290720D01*
X134312505Y-88228094D01*
X135950010Y-86590590D01*
X135950010Y-87626145D01*
X135935317Y-87700010D01*
X135950010Y-87773875D01*
X135993526Y-87992644D01*
X136159290Y-88240730D01*
X136221916Y-88282575D01*
X137167438Y-89228099D01*
X137209280Y-89290720D01*
X137457365Y-89456484D01*
X137676134Y-89500000D01*
X137749999Y-89514693D01*
X137823864Y-89500000D01*
X141550431Y-89500000D01*
X141669384Y-89618953D01*
X142046115Y-89775000D01*
X142453885Y-89775000D01*
X142830616Y-89618953D01*
X143118953Y-89330616D01*
X143275000Y-88953885D01*
X143275000Y-88546115D01*
X143118953Y-88169384D01*
X142830616Y-87881047D01*
X142453885Y-87725000D01*
X142046115Y-87725000D01*
X141669384Y-87881047D01*
X141550431Y-88000000D01*
X138060661Y-88000000D01*
X137450010Y-87389351D01*
X137450010Y-84260444D01*
X144814911Y-84260444D01*
X144886379Y-84521204D01*
X145423280Y-84757978D01*
X146009920Y-84771265D01*
X146556991Y-84559043D01*
X146613621Y-84521204D01*
X146685089Y-84260444D01*
X145750000Y-83325355D01*
X144814911Y-84260444D01*
X137450010Y-84260444D01*
X137450010Y-83549920D01*
X144268735Y-83549920D01*
X144480957Y-84096991D01*
X144518796Y-84153621D01*
X144779556Y-84225089D01*
X145714645Y-83290000D01*
X145785355Y-83290000D01*
X146720444Y-84225089D01*
X146981204Y-84153621D01*
X147217978Y-83616720D01*
X147231265Y-83030080D01*
X147019043Y-82483009D01*
X146981204Y-82426379D01*
X146720444Y-82354911D01*
X145785355Y-83290000D01*
X145714645Y-83290000D01*
X144779556Y-82354911D01*
X144518796Y-82426379D01*
X144282022Y-82963280D01*
X144268735Y-83549920D01*
X137450010Y-83549920D01*
X137450010Y-77360000D01*
X144262756Y-77360000D01*
X144262756Y-79060000D01*
X144311263Y-79303863D01*
X144428954Y-79480000D01*
X144311263Y-79656137D01*
X144262756Y-79900000D01*
X144262756Y-81600000D01*
X144311263Y-81843863D01*
X144449400Y-82050600D01*
X144656137Y-82188737D01*
X144840703Y-82225449D01*
X144814911Y-82319556D01*
X145750000Y-83254645D01*
X146685089Y-82319556D01*
X146659297Y-82225449D01*
X146843863Y-82188737D01*
X147050600Y-82050600D01*
X147188737Y-81843863D01*
X147237244Y-81600000D01*
X147237244Y-79900000D01*
X147188737Y-79656137D01*
X147071046Y-79480000D01*
X147188737Y-79303863D01*
X147237244Y-79060000D01*
X147237244Y-77360000D01*
X147188737Y-77116137D01*
X147050600Y-76909400D01*
X146843863Y-76771263D01*
X146600000Y-76722756D01*
X144900000Y-76722756D01*
X144656137Y-76771263D01*
X144449400Y-76909400D01*
X144311263Y-77116137D01*
X144262756Y-77360000D01*
X137450010Y-77360000D01*
X137450010Y-77273875D01*
X137464703Y-77200010D01*
X137450010Y-77126144D01*
X137406494Y-76907375D01*
X137240730Y-76659290D01*
X137178107Y-76617447D01*
X135082565Y-74521906D01*
X135040720Y-74459280D01*
X134792635Y-74293516D01*
X134573866Y-74250000D01*
X134573865Y-74250000D01*
X134500000Y-74235307D01*
X134426135Y-74250000D01*
X133310661Y-74250000D01*
X131875491Y-72814832D01*
X132025000Y-72453885D01*
X132025000Y-72250000D01*
X133189341Y-72250000D01*
X133725000Y-72785660D01*
X133725000Y-72953885D01*
X133881047Y-73330616D01*
X134169384Y-73618953D01*
X134546115Y-73775000D01*
X134953885Y-73775000D01*
X135330616Y-73618953D01*
X135618953Y-73330616D01*
X135775000Y-72953885D01*
X135775000Y-72546115D01*
X135618953Y-72169384D01*
X135330616Y-71881047D01*
X135014240Y-71750000D01*
X139689341Y-71750000D01*
X140725000Y-72785660D01*
X140725000Y-72953885D01*
X140881047Y-73330616D01*
X141169384Y-73618953D01*
X141546115Y-73775000D01*
X141953885Y-73775000D01*
X142330616Y-73618953D01*
X142618953Y-73330616D01*
X142775000Y-72953885D01*
X142775000Y-72706604D01*
X143025000Y-72706604D01*
X143025000Y-73293396D01*
X143249555Y-73835520D01*
X143664480Y-74250445D01*
X144206604Y-74475000D01*
X144793396Y-74475000D01*
X145335520Y-74250445D01*
X145750445Y-73835520D01*
X145975000Y-73293396D01*
X145975000Y-72706604D01*
X145750445Y-72164480D01*
X145335520Y-71749555D01*
X144793396Y-71525000D01*
X144206604Y-71525000D01*
X143664480Y-71749555D01*
X143249555Y-72164480D01*
X143025000Y-72706604D01*
X142775000Y-72706604D01*
X142775000Y-72546115D01*
X142618953Y-72169384D01*
X142330616Y-71881047D01*
X141953885Y-71725000D01*
X141785660Y-71725000D01*
X140582565Y-70521906D01*
X140540720Y-70459280D01*
X140292635Y-70293516D01*
X140073866Y-70250000D01*
X140073865Y-70250000D01*
X140000000Y-70235307D01*
X139926135Y-70250000D01*
X129420659Y-70250000D01*
X131864055Y-67806604D01*
X143025000Y-67806604D01*
X143025000Y-68393396D01*
X143249555Y-68935520D01*
X143664480Y-69350445D01*
X144206604Y-69575000D01*
X144793396Y-69575000D01*
X145335520Y-69350445D01*
X145750445Y-68935520D01*
X145975000Y-68393396D01*
X145975000Y-67806604D01*
X145750445Y-67264480D01*
X145335520Y-66849555D01*
X144793396Y-66625000D01*
X144206604Y-66625000D01*
X143664480Y-66849555D01*
X143249555Y-67264480D01*
X143025000Y-67806604D01*
X131864055Y-67806604D01*
X137838097Y-61832563D01*
X137900720Y-61790720D01*
X138066484Y-61542635D01*
X138077502Y-61487244D01*
X138210000Y-61487244D01*
X138453863Y-61438737D01*
X138660600Y-61300600D01*
X138798737Y-61093863D01*
X138847244Y-60850000D01*
X138847244Y-59150000D01*
X138798737Y-58906137D01*
X138660600Y-58699400D01*
X138453863Y-58561263D01*
X138210000Y-58512756D01*
X136510000Y-58512756D01*
X136266137Y-58561263D01*
X136090000Y-58678954D01*
X135913863Y-58561263D01*
X135670000Y-58512756D01*
X133970000Y-58512756D01*
X133726137Y-58561263D01*
X133550000Y-58678954D01*
X133373863Y-58561263D01*
X133130000Y-58512756D01*
X131430000Y-58512756D01*
X131186137Y-58561263D01*
X131010000Y-58678954D01*
X130833863Y-58561263D01*
X130590000Y-58512756D01*
X128890000Y-58512756D01*
X128646137Y-58561263D01*
X128470000Y-58678954D01*
X128293863Y-58561263D01*
X128050000Y-58512756D01*
X126350000Y-58512756D01*
X126106137Y-58561263D01*
X125930000Y-58678954D01*
X125753863Y-58561263D01*
X125510000Y-58512756D01*
X123810000Y-58512756D01*
X123566137Y-58561263D01*
X123390000Y-58678954D01*
X123213863Y-58561263D01*
X122970000Y-58512756D01*
X121270000Y-58512756D01*
X121026137Y-58561263D01*
X120850000Y-58678954D01*
X120673863Y-58561263D01*
X120430000Y-58512756D01*
X118730000Y-58512756D01*
X118486137Y-58561263D01*
X118310000Y-58678954D01*
X118133863Y-58561263D01*
X117890000Y-58512756D01*
X116190000Y-58512756D01*
X115946137Y-58561263D01*
X115739400Y-58699400D01*
X115601263Y-58906137D01*
X115583152Y-58997187D01*
X115335520Y-58749555D01*
X114793396Y-58525000D01*
X114206604Y-58525000D01*
X113664480Y-58749555D01*
X113249555Y-59164480D01*
X113025000Y-59706604D01*
X113025000Y-60293396D01*
X113249555Y-60835520D01*
X113664480Y-61250445D01*
X113750000Y-61285869D01*
X113750000Y-61426134D01*
X113735307Y-61500000D01*
X113750000Y-61573865D01*
X113793516Y-61792634D01*
X113959280Y-62040720D01*
X114021906Y-62082565D01*
X118250001Y-66310661D01*
X118250000Y-73731528D01*
X118203885Y-73712426D01*
X117796115Y-73712426D01*
X117419384Y-73868473D01*
X117131047Y-74156810D01*
X117122396Y-74177696D01*
X117118953Y-74169384D01*
X117074569Y-74125000D01*
X117118953Y-74080616D01*
X117275000Y-73703885D01*
X117275000Y-73296115D01*
X117118953Y-72919384D01*
X116830616Y-72631047D01*
X116453885Y-72475000D01*
X116046115Y-72475000D01*
X115669384Y-72631047D01*
X115554319Y-72746112D01*
X115500000Y-72735307D01*
X115426135Y-72750000D01*
X115426134Y-72750000D01*
X115207365Y-72793516D01*
X114959280Y-72959280D01*
X114917437Y-73021903D01*
X100125000Y-87814341D01*
X100125000Y-70500000D01*
X102597655Y-70500000D01*
X102475000Y-70796115D01*
X102475000Y-71203885D01*
X102631047Y-71580616D01*
X102919384Y-71868953D01*
X103296115Y-72025000D01*
X103703885Y-72025000D01*
X104080616Y-71868953D01*
X104368953Y-71580616D01*
X104525000Y-71203885D01*
X104525000Y-70796115D01*
X104368953Y-70419384D01*
X104324569Y-70375000D01*
X104368953Y-70330616D01*
X104525000Y-69953885D01*
X104525000Y-69546115D01*
X104368953Y-69169384D01*
X104080616Y-68881047D01*
X103703885Y-68725000D01*
X103296115Y-68725000D01*
X102919384Y-68881047D01*
X102800431Y-69000000D01*
X100125000Y-69000000D01*
X100125000Y-64230000D01*
X108512756Y-64230000D01*
X108512756Y-65930000D01*
X108561263Y-66173863D01*
X108699400Y-66380600D01*
X108906137Y-66518737D01*
X109150000Y-66567244D01*
X110850000Y-66567244D01*
X111093863Y-66518737D01*
X111300600Y-66380600D01*
X111438737Y-66173863D01*
X111487244Y-65930000D01*
X111487244Y-64230000D01*
X111438737Y-63986137D01*
X111318177Y-63805706D01*
X111379850Y-63744034D01*
X111475000Y-63514320D01*
X111475000Y-62721250D01*
X111318750Y-62565000D01*
X110025000Y-62565000D01*
X110025000Y-62585000D01*
X109975000Y-62585000D01*
X109975000Y-62565000D01*
X108681250Y-62565000D01*
X108525000Y-62721250D01*
X108525000Y-63514320D01*
X108620150Y-63744034D01*
X108681823Y-63805706D01*
X108561263Y-63986137D01*
X108512756Y-64230000D01*
X100125000Y-64230000D01*
X100125000Y-61487244D01*
X100510000Y-61487244D01*
X100753863Y-61438737D01*
X100930000Y-61321046D01*
X101106137Y-61438737D01*
X101350000Y-61487244D01*
X103050000Y-61487244D01*
X103293863Y-61438737D01*
X103500600Y-61300600D01*
X103638737Y-61093863D01*
X103687244Y-60850000D01*
X103687244Y-59706604D01*
X108525000Y-59706604D01*
X108525000Y-60293396D01*
X108749555Y-60835520D01*
X108992697Y-61078662D01*
X108795966Y-61160151D01*
X108620150Y-61335966D01*
X108525000Y-61565680D01*
X108525000Y-62358750D01*
X108681250Y-62515000D01*
X109975000Y-62515000D01*
X109975000Y-62495000D01*
X110025000Y-62495000D01*
X110025000Y-62515000D01*
X111318750Y-62515000D01*
X111475000Y-62358750D01*
X111475000Y-61565680D01*
X111379850Y-61335966D01*
X111204034Y-61160151D01*
X111007303Y-61078662D01*
X111250445Y-60835520D01*
X111475000Y-60293396D01*
X111475000Y-59706604D01*
X111250445Y-59164480D01*
X110835520Y-58749555D01*
X110293396Y-58525000D01*
X109706604Y-58525000D01*
X109164480Y-58749555D01*
X108749555Y-59164480D01*
X108525000Y-59706604D01*
X103687244Y-59706604D01*
X103687244Y-59150000D01*
X103638737Y-58906137D01*
X103500600Y-58699400D01*
X103293863Y-58561263D01*
X103050000Y-58512756D01*
X101350000Y-58512756D01*
X101106137Y-58561263D01*
X100930000Y-58678954D01*
X100753863Y-58561263D01*
X100510000Y-58512756D01*
X100125000Y-58512756D01*
X100125000Y-57375000D01*
X147625000Y-57375000D01*
X147625000Y-102625000D01*
X147625000Y-102625000D01*
G37*
X147625000Y-102625000D02*
X105065659Y-102625000D01*
X105758097Y-101932563D01*
X105820720Y-101890720D01*
X105923269Y-101737244D01*
X106130000Y-101737244D01*
X106373863Y-101688737D01*
X106580600Y-101550600D01*
X106718737Y-101343863D01*
X106767244Y-101100000D01*
X106767244Y-99400000D01*
X106718737Y-99156137D01*
X106580600Y-98949400D01*
X106373863Y-98811263D01*
X106130000Y-98762756D01*
X104430000Y-98762756D01*
X104186137Y-98811263D01*
X104010000Y-98928954D01*
X103833863Y-98811263D01*
X103590000Y-98762756D01*
X103490000Y-98762756D01*
X103490000Y-98070659D01*
X103919409Y-97641250D01*
X108525000Y-97641250D01*
X108525000Y-98434320D01*
X108620150Y-98664034D01*
X108795966Y-98839849D01*
X108992697Y-98921338D01*
X108749555Y-99164480D01*
X108525000Y-99706604D01*
X108525000Y-100293396D01*
X108749555Y-100835520D01*
X109164480Y-101250445D01*
X109706604Y-101475000D01*
X110293396Y-101475000D01*
X110835520Y-101250445D01*
X111250445Y-100835520D01*
X111475000Y-100293396D01*
X111475000Y-99706604D01*
X113025000Y-99706604D01*
X113025000Y-100293396D01*
X113249555Y-100835520D01*
X113664480Y-101250445D01*
X114206604Y-101475000D01*
X114793396Y-101475000D01*
X115335520Y-101250445D01*
X115583152Y-101002813D01*
X115601263Y-101093863D01*
X115739400Y-101300600D01*
X115946137Y-101438737D01*
X116190000Y-101487244D01*
X117890000Y-101487244D01*
X118133863Y-101438737D01*
X118310000Y-101321046D01*
X118486137Y-101438737D01*
X118730000Y-101487244D01*
X120430000Y-101487244D01*
X120673863Y-101438737D01*
X120850000Y-101321046D01*
X121026137Y-101438737D01*
X121270000Y-101487244D01*
X122970000Y-101487244D01*
X123213863Y-101438737D01*
X123390000Y-101321046D01*
X123566137Y-101438737D01*
X123810000Y-101487244D01*
X125510000Y-101487244D01*
X125753863Y-101438737D01*
X125930000Y-101321046D01*
X126106137Y-101438737D01*
X126350000Y-101487244D01*
X128050000Y-101487244D01*
X128293863Y-101438737D01*
X128470000Y-101321046D01*
X128646137Y-101438737D01*
X128890000Y-101487244D01*
X130590000Y-101487244D01*
X130833863Y-101438737D01*
X131010000Y-101321046D01*
X131186137Y-101438737D01*
X131430000Y-101487244D01*
X133130000Y-101487244D01*
X133373863Y-101438737D01*
X133550000Y-101321046D01*
X133726137Y-101438737D01*
X133970000Y-101487244D01*
X135670000Y-101487244D01*
X135913863Y-101438737D01*
X136090000Y-101321046D01*
X136266137Y-101438737D01*
X136510000Y-101487244D01*
X138210000Y-101487244D01*
X138453863Y-101438737D01*
X138660600Y-101300600D01*
X138798737Y-101093863D01*
X138847244Y-100850000D01*
X138847244Y-99460613D01*
X139002993Y-99836625D01*
X140163375Y-100997007D01*
X141679486Y-101625000D01*
X143320514Y-101625000D01*
X144836625Y-100997007D01*
X145997007Y-99836625D01*
X146625000Y-98320514D01*
X146625000Y-96679486D01*
X145997007Y-95163375D01*
X144836625Y-94002993D01*
X143320514Y-93375000D01*
X141679486Y-93375000D01*
X140163375Y-94002993D01*
X139002993Y-95163375D01*
X138375000Y-96679486D01*
X138375000Y-98320514D01*
X138482704Y-98580534D01*
X138453863Y-98561263D01*
X138210000Y-98512756D01*
X138003269Y-98512756D01*
X137900720Y-98359280D01*
X137838097Y-98317437D01*
X130079475Y-90558816D01*
X130079475Y-90449569D01*
X130198428Y-90330616D01*
X130354475Y-89953885D01*
X130354475Y-89546115D01*
X130198428Y-89169384D01*
X129910091Y-88881047D01*
X129533360Y-88725000D01*
X129125590Y-88725000D01*
X128829473Y-88847655D01*
X128533359Y-88725001D01*
X128125589Y-88725001D01*
X127829490Y-88847649D01*
X127533358Y-88724987D01*
X127125588Y-88724987D01*
X126829264Y-88847728D01*
X126533357Y-88725160D01*
X126125587Y-88725160D01*
X125831903Y-88846808D01*
X125533357Y-88723146D01*
X125125587Y-88723146D01*
X124801442Y-88857411D01*
X124533627Y-88746479D01*
X124125857Y-88746479D01*
X123822028Y-88872329D01*
X123511215Y-88743586D01*
X123103445Y-88743586D01*
X122794075Y-88871731D01*
X122485557Y-88743939D01*
X122077787Y-88743939D01*
X121779750Y-88867390D01*
X121466538Y-88737653D01*
X121058768Y-88737653D01*
X120771600Y-88856602D01*
X120453885Y-88725000D01*
X120046115Y-88725000D01*
X119669384Y-88881047D01*
X119381047Y-89169384D01*
X119225000Y-89546115D01*
X119225000Y-89714340D01*
X114021904Y-94917437D01*
X113959281Y-94959280D01*
X113917439Y-95021902D01*
X113793517Y-95207365D01*
X113735307Y-95500000D01*
X113750001Y-95573870D01*
X113750000Y-98714131D01*
X113664480Y-98749555D01*
X113249555Y-99164480D01*
X113025000Y-99706604D01*
X111475000Y-99706604D01*
X111250445Y-99164480D01*
X111007303Y-98921338D01*
X111204034Y-98839849D01*
X111379850Y-98664034D01*
X111475000Y-98434320D01*
X111475000Y-97641250D01*
X111318750Y-97485000D01*
X110025000Y-97485000D01*
X110025000Y-97505000D01*
X109975000Y-97505000D01*
X109975000Y-97485000D01*
X108681250Y-97485000D01*
X108525000Y-97641250D01*
X103919409Y-97641250D01*
X107490659Y-94070000D01*
X108512756Y-94070000D01*
X108512756Y-95770000D01*
X108561263Y-96013863D01*
X108681823Y-96194294D01*
X108620150Y-96255966D01*
X108525000Y-96485680D01*
X108525000Y-97278750D01*
X108681250Y-97435000D01*
X109975000Y-97435000D01*
X109975000Y-97415000D01*
X110025000Y-97415000D01*
X110025000Y-97435000D01*
X111318750Y-97435000D01*
X111475000Y-97278750D01*
X111475000Y-96485680D01*
X111379850Y-96255966D01*
X111318177Y-96194294D01*
X111438737Y-96013863D01*
X111487244Y-95770000D01*
X111487244Y-94070000D01*
X111438737Y-93826137D01*
X111300600Y-93619400D01*
X111093863Y-93481263D01*
X110850000Y-93432756D01*
X109150000Y-93432756D01*
X108906137Y-93481263D01*
X108699400Y-93619400D01*
X108561263Y-93826137D01*
X108512756Y-94070000D01*
X107490659Y-94070000D01*
X113060660Y-88500000D01*
X133656075Y-88500000D01*
X133729940Y-88514693D01*
X133803805Y-88500000D01*
X133803806Y-88500000D01*
X134022575Y-88456484D01*
X134270660Y-88290720D01*
X134312505Y-88228094D01*
X135950010Y-86590590D01*
X135950010Y-87626145D01*
X135935317Y-87700010D01*
X135950010Y-87773875D01*
X135993526Y-87992644D01*
X136159290Y-88240730D01*
X136221916Y-88282575D01*
X137167438Y-89228099D01*
X137209280Y-89290720D01*
X137457365Y-89456484D01*
X137676134Y-89500000D01*
X137749999Y-89514693D01*
X137823864Y-89500000D01*
X141550431Y-89500000D01*
X141669384Y-89618953D01*
X142046115Y-89775000D01*
X142453885Y-89775000D01*
X142830616Y-89618953D01*
X143118953Y-89330616D01*
X143275000Y-88953885D01*
X143275000Y-88546115D01*
X143118953Y-88169384D01*
X142830616Y-87881047D01*
X142453885Y-87725000D01*
X142046115Y-87725000D01*
X141669384Y-87881047D01*
X141550431Y-88000000D01*
X138060661Y-88000000D01*
X137450010Y-87389351D01*
X137450010Y-84260444D01*
X144814911Y-84260444D01*
X144886379Y-84521204D01*
X145423280Y-84757978D01*
X146009920Y-84771265D01*
X146556991Y-84559043D01*
X146613621Y-84521204D01*
X146685089Y-84260444D01*
X145750000Y-83325355D01*
X144814911Y-84260444D01*
X137450010Y-84260444D01*
X137450010Y-83549920D01*
X144268735Y-83549920D01*
X144480957Y-84096991D01*
X144518796Y-84153621D01*
X144779556Y-84225089D01*
X145714645Y-83290000D01*
X145785355Y-83290000D01*
X146720444Y-84225089D01*
X146981204Y-84153621D01*
X147217978Y-83616720D01*
X147231265Y-83030080D01*
X147019043Y-82483009D01*
X146981204Y-82426379D01*
X146720444Y-82354911D01*
X145785355Y-83290000D01*
X145714645Y-83290000D01*
X144779556Y-82354911D01*
X144518796Y-82426379D01*
X144282022Y-82963280D01*
X144268735Y-83549920D01*
X137450010Y-83549920D01*
X137450010Y-77360000D01*
X144262756Y-77360000D01*
X144262756Y-79060000D01*
X144311263Y-79303863D01*
X144428954Y-79480000D01*
X144311263Y-79656137D01*
X144262756Y-79900000D01*
X144262756Y-81600000D01*
X144311263Y-81843863D01*
X144449400Y-82050600D01*
X144656137Y-82188737D01*
X144840703Y-82225449D01*
X144814911Y-82319556D01*
X145750000Y-83254645D01*
X146685089Y-82319556D01*
X146659297Y-82225449D01*
X146843863Y-82188737D01*
X147050600Y-82050600D01*
X147188737Y-81843863D01*
X147237244Y-81600000D01*
X147237244Y-79900000D01*
X147188737Y-79656137D01*
X147071046Y-79480000D01*
X147188737Y-79303863D01*
X147237244Y-79060000D01*
X147237244Y-77360000D01*
X147188737Y-77116137D01*
X147050600Y-76909400D01*
X146843863Y-76771263D01*
X146600000Y-76722756D01*
X144900000Y-76722756D01*
X144656137Y-76771263D01*
X144449400Y-76909400D01*
X144311263Y-77116137D01*
X144262756Y-77360000D01*
X137450010Y-77360000D01*
X137450010Y-77273875D01*
X137464703Y-77200010D01*
X137450010Y-77126144D01*
X137406494Y-76907375D01*
X137240730Y-76659290D01*
X137178107Y-76617447D01*
X135082565Y-74521906D01*
X135040720Y-74459280D01*
X134792635Y-74293516D01*
X134573866Y-74250000D01*
X134573865Y-74250000D01*
X134500000Y-74235307D01*
X134426135Y-74250000D01*
X133310661Y-74250000D01*
X131875491Y-72814832D01*
X132025000Y-72453885D01*
X132025000Y-72250000D01*
X133189341Y-72250000D01*
X133725000Y-72785660D01*
X133725000Y-72953885D01*
X133881047Y-73330616D01*
X134169384Y-73618953D01*
X134546115Y-73775000D01*
X134953885Y-73775000D01*
X135330616Y-73618953D01*
X135618953Y-73330616D01*
X135775000Y-72953885D01*
X135775000Y-72546115D01*
X135618953Y-72169384D01*
X135330616Y-71881047D01*
X135014240Y-71750000D01*
X139689341Y-71750000D01*
X140725000Y-72785660D01*
X140725000Y-72953885D01*
X140881047Y-73330616D01*
X141169384Y-73618953D01*
X141546115Y-73775000D01*
X141953885Y-73775000D01*
X142330616Y-73618953D01*
X142618953Y-73330616D01*
X142775000Y-72953885D01*
X142775000Y-72706604D01*
X143025000Y-72706604D01*
X143025000Y-73293396D01*
X143249555Y-73835520D01*
X143664480Y-74250445D01*
X144206604Y-74475000D01*
X144793396Y-74475000D01*
X145335520Y-74250445D01*
X145750445Y-73835520D01*
X145975000Y-73293396D01*
X145975000Y-72706604D01*
X145750445Y-72164480D01*
X145335520Y-71749555D01*
X144793396Y-71525000D01*
X144206604Y-71525000D01*
X143664480Y-71749555D01*
X143249555Y-72164480D01*
X143025000Y-72706604D01*
X142775000Y-72706604D01*
X142775000Y-72546115D01*
X142618953Y-72169384D01*
X142330616Y-71881047D01*
X141953885Y-71725000D01*
X141785660Y-71725000D01*
X140582565Y-70521906D01*
X140540720Y-70459280D01*
X140292635Y-70293516D01*
X140073866Y-70250000D01*
X140073865Y-70250000D01*
X140000000Y-70235307D01*
X139926135Y-70250000D01*
X129420659Y-70250000D01*
X131864055Y-67806604D01*
X143025000Y-67806604D01*
X143025000Y-68393396D01*
X143249555Y-68935520D01*
X143664480Y-69350445D01*
X144206604Y-69575000D01*
X144793396Y-69575000D01*
X145335520Y-69350445D01*
X145750445Y-68935520D01*
X145975000Y-68393396D01*
X145975000Y-67806604D01*
X145750445Y-67264480D01*
X145335520Y-66849555D01*
X144793396Y-66625000D01*
X144206604Y-66625000D01*
X143664480Y-66849555D01*
X143249555Y-67264480D01*
X143025000Y-67806604D01*
X131864055Y-67806604D01*
X137838097Y-61832563D01*
X137900720Y-61790720D01*
X138066484Y-61542635D01*
X138077502Y-61487244D01*
X138210000Y-61487244D01*
X138453863Y-61438737D01*
X138660600Y-61300600D01*
X138798737Y-61093863D01*
X138847244Y-60850000D01*
X138847244Y-59150000D01*
X138798737Y-58906137D01*
X138660600Y-58699400D01*
X138453863Y-58561263D01*
X138210000Y-58512756D01*
X136510000Y-58512756D01*
X136266137Y-58561263D01*
X136090000Y-58678954D01*
X135913863Y-58561263D01*
X135670000Y-58512756D01*
X133970000Y-58512756D01*
X133726137Y-58561263D01*
X133550000Y-58678954D01*
X133373863Y-58561263D01*
X133130000Y-58512756D01*
X131430000Y-58512756D01*
X131186137Y-58561263D01*
X131010000Y-58678954D01*
X130833863Y-58561263D01*
X130590000Y-58512756D01*
X128890000Y-58512756D01*
X128646137Y-58561263D01*
X128470000Y-58678954D01*
X128293863Y-58561263D01*
X128050000Y-58512756D01*
X126350000Y-58512756D01*
X126106137Y-58561263D01*
X125930000Y-58678954D01*
X125753863Y-58561263D01*
X125510000Y-58512756D01*
X123810000Y-58512756D01*
X123566137Y-58561263D01*
X123390000Y-58678954D01*
X123213863Y-58561263D01*
X122970000Y-58512756D01*
X121270000Y-58512756D01*
X121026137Y-58561263D01*
X120850000Y-58678954D01*
X120673863Y-58561263D01*
X120430000Y-58512756D01*
X118730000Y-58512756D01*
X118486137Y-58561263D01*
X118310000Y-58678954D01*
X118133863Y-58561263D01*
X117890000Y-58512756D01*
X116190000Y-58512756D01*
X115946137Y-58561263D01*
X115739400Y-58699400D01*
X115601263Y-58906137D01*
X115583152Y-58997187D01*
X115335520Y-58749555D01*
X114793396Y-58525000D01*
X114206604Y-58525000D01*
X113664480Y-58749555D01*
X113249555Y-59164480D01*
X113025000Y-59706604D01*
X113025000Y-60293396D01*
X113249555Y-60835520D01*
X113664480Y-61250445D01*
X113750000Y-61285869D01*
X113750000Y-61426134D01*
X113735307Y-61500000D01*
X113750000Y-61573865D01*
X113793516Y-61792634D01*
X113959280Y-62040720D01*
X114021906Y-62082565D01*
X118250001Y-66310661D01*
X118250000Y-73731528D01*
X118203885Y-73712426D01*
X117796115Y-73712426D01*
X117419384Y-73868473D01*
X117131047Y-74156810D01*
X117122396Y-74177696D01*
X117118953Y-74169384D01*
X117074569Y-74125000D01*
X117118953Y-74080616D01*
X117275000Y-73703885D01*
X117275000Y-73296115D01*
X117118953Y-72919384D01*
X116830616Y-72631047D01*
X116453885Y-72475000D01*
X116046115Y-72475000D01*
X115669384Y-72631047D01*
X115554319Y-72746112D01*
X115500000Y-72735307D01*
X115426135Y-72750000D01*
X115426134Y-72750000D01*
X115207365Y-72793516D01*
X114959280Y-72959280D01*
X114917437Y-73021903D01*
X100125000Y-87814341D01*
X100125000Y-70500000D01*
X102597655Y-70500000D01*
X102475000Y-70796115D01*
X102475000Y-71203885D01*
X102631047Y-71580616D01*
X102919384Y-71868953D01*
X103296115Y-72025000D01*
X103703885Y-72025000D01*
X104080616Y-71868953D01*
X104368953Y-71580616D01*
X104525000Y-71203885D01*
X104525000Y-70796115D01*
X104368953Y-70419384D01*
X104324569Y-70375000D01*
X104368953Y-70330616D01*
X104525000Y-69953885D01*
X104525000Y-69546115D01*
X104368953Y-69169384D01*
X104080616Y-68881047D01*
X103703885Y-68725000D01*
X103296115Y-68725000D01*
X102919384Y-68881047D01*
X102800431Y-69000000D01*
X100125000Y-69000000D01*
X100125000Y-64230000D01*
X108512756Y-64230000D01*
X108512756Y-65930000D01*
X108561263Y-66173863D01*
X108699400Y-66380600D01*
X108906137Y-66518737D01*
X109150000Y-66567244D01*
X110850000Y-66567244D01*
X111093863Y-66518737D01*
X111300600Y-66380600D01*
X111438737Y-66173863D01*
X111487244Y-65930000D01*
X111487244Y-64230000D01*
X111438737Y-63986137D01*
X111318177Y-63805706D01*
X111379850Y-63744034D01*
X111475000Y-63514320D01*
X111475000Y-62721250D01*
X111318750Y-62565000D01*
X110025000Y-62565000D01*
X110025000Y-62585000D01*
X109975000Y-62585000D01*
X109975000Y-62565000D01*
X108681250Y-62565000D01*
X108525000Y-62721250D01*
X108525000Y-63514320D01*
X108620150Y-63744034D01*
X108681823Y-63805706D01*
X108561263Y-63986137D01*
X108512756Y-64230000D01*
X100125000Y-64230000D01*
X100125000Y-61487244D01*
X100510000Y-61487244D01*
X100753863Y-61438737D01*
X100930000Y-61321046D01*
X101106137Y-61438737D01*
X101350000Y-61487244D01*
X103050000Y-61487244D01*
X103293863Y-61438737D01*
X103500600Y-61300600D01*
X103638737Y-61093863D01*
X103687244Y-60850000D01*
X103687244Y-59706604D01*
X108525000Y-59706604D01*
X108525000Y-60293396D01*
X108749555Y-60835520D01*
X108992697Y-61078662D01*
X108795966Y-61160151D01*
X108620150Y-61335966D01*
X108525000Y-61565680D01*
X108525000Y-62358750D01*
X108681250Y-62515000D01*
X109975000Y-62515000D01*
X109975000Y-62495000D01*
X110025000Y-62495000D01*
X110025000Y-62515000D01*
X111318750Y-62515000D01*
X111475000Y-62358750D01*
X111475000Y-61565680D01*
X111379850Y-61335966D01*
X111204034Y-61160151D01*
X111007303Y-61078662D01*
X111250445Y-60835520D01*
X111475000Y-60293396D01*
X111475000Y-59706604D01*
X111250445Y-59164480D01*
X110835520Y-58749555D01*
X110293396Y-58525000D01*
X109706604Y-58525000D01*
X109164480Y-58749555D01*
X108749555Y-59164480D01*
X108525000Y-59706604D01*
X103687244Y-59706604D01*
X103687244Y-59150000D01*
X103638737Y-58906137D01*
X103500600Y-58699400D01*
X103293863Y-58561263D01*
X103050000Y-58512756D01*
X101350000Y-58512756D01*
X101106137Y-58561263D01*
X100930000Y-58678954D01*
X100753863Y-58561263D01*
X100510000Y-58512756D01*
X100125000Y-58512756D01*
X100125000Y-57375000D01*
X147625000Y-57375000D01*
X147625000Y-102625000D01*
G36*
X122046115Y-72025000D02*
X122214341Y-72025000D01*
X122782823Y-72593483D01*
X122881047Y-72830616D01*
X123169384Y-73118953D01*
X123546115Y-73275000D01*
X123953885Y-73275000D01*
X124330616Y-73118953D01*
X124618953Y-72830616D01*
X124652345Y-72750000D01*
X125550431Y-72750000D01*
X125669384Y-72868953D01*
X126046115Y-73025000D01*
X126453885Y-73025000D01*
X126830616Y-72868953D01*
X126964472Y-72735097D01*
X127108320Y-72706484D01*
X127356405Y-72540720D01*
X127398250Y-72478094D01*
X127626345Y-72250000D01*
X128975000Y-72250000D01*
X128975000Y-72428885D01*
X129131047Y-72805616D01*
X129264903Y-72939472D01*
X129293516Y-73083320D01*
X129459281Y-73331405D01*
X129521904Y-73373248D01*
X131648655Y-75500000D01*
X131573864Y-75500000D01*
X131499999Y-75485307D01*
X131426134Y-75500000D01*
X131207365Y-75543516D01*
X130959280Y-75709280D01*
X130917437Y-75771903D01*
X129521906Y-77167435D01*
X129459280Y-77209280D01*
X129293516Y-77457366D01*
X129264411Y-77603688D01*
X129235307Y-77750000D01*
X129250000Y-77823865D01*
X129250001Y-83500000D01*
X111810661Y-83500000D01*
X110525000Y-82214340D01*
X110525000Y-82046115D01*
X110368953Y-81669384D01*
X110080616Y-81381047D01*
X109989976Y-81343503D01*
X114583480Y-76750000D01*
X115550431Y-76750000D01*
X115669384Y-76868953D01*
X116046115Y-77025000D01*
X116453885Y-77025000D01*
X116830616Y-76868953D01*
X116974839Y-76724730D01*
X116974839Y-76941313D01*
X117103884Y-77252855D01*
X116987653Y-77533462D01*
X116987653Y-77941232D01*
X117143700Y-78317963D01*
X117432037Y-78606300D01*
X117795667Y-78756920D01*
X117409640Y-79142948D01*
X117241414Y-79142948D01*
X116864683Y-79298995D01*
X116576346Y-79587332D01*
X116420299Y-79964063D01*
X116420299Y-80371833D01*
X116575308Y-80746058D01*
X116485899Y-80961911D01*
X116485899Y-81369681D01*
X116602004Y-81649984D01*
X116472835Y-81961827D01*
X116472835Y-82369597D01*
X116628882Y-82746328D01*
X116917219Y-83034665D01*
X117293950Y-83190712D01*
X117701720Y-83190712D01*
X118078451Y-83034665D01*
X118212307Y-82900809D01*
X118356155Y-82872196D01*
X118604240Y-82706432D01*
X118646085Y-82643806D01*
X121478097Y-79811795D01*
X121540720Y-79769952D01*
X121706484Y-79521867D01*
X121750000Y-79303098D01*
X121750000Y-79303097D01*
X121764693Y-79229232D01*
X121750000Y-79155367D01*
X121750000Y-71902345D01*
X122046115Y-72025000D01*
X122046115Y-72025000D01*
G37*
X122046115Y-72025000D02*
X122214341Y-72025000D01*
X122782823Y-72593483D01*
X122881047Y-72830616D01*
X123169384Y-73118953D01*
X123546115Y-73275000D01*
X123953885Y-73275000D01*
X124330616Y-73118953D01*
X124618953Y-72830616D01*
X124652345Y-72750000D01*
X125550431Y-72750000D01*
X125669384Y-72868953D01*
X126046115Y-73025000D01*
X126453885Y-73025000D01*
X126830616Y-72868953D01*
X126964472Y-72735097D01*
X127108320Y-72706484D01*
X127356405Y-72540720D01*
X127398250Y-72478094D01*
X127626345Y-72250000D01*
X128975000Y-72250000D01*
X128975000Y-72428885D01*
X129131047Y-72805616D01*
X129264903Y-72939472D01*
X129293516Y-73083320D01*
X129459281Y-73331405D01*
X129521904Y-73373248D01*
X131648655Y-75500000D01*
X131573864Y-75500000D01*
X131499999Y-75485307D01*
X131426134Y-75500000D01*
X131207365Y-75543516D01*
X130959280Y-75709280D01*
X130917437Y-75771903D01*
X129521906Y-77167435D01*
X129459280Y-77209280D01*
X129293516Y-77457366D01*
X129264411Y-77603688D01*
X129235307Y-77750000D01*
X129250000Y-77823865D01*
X129250001Y-83500000D01*
X111810661Y-83500000D01*
X110525000Y-82214340D01*
X110525000Y-82046115D01*
X110368953Y-81669384D01*
X110080616Y-81381047D01*
X109989976Y-81343503D01*
X114583480Y-76750000D01*
X115550431Y-76750000D01*
X115669384Y-76868953D01*
X116046115Y-77025000D01*
X116453885Y-77025000D01*
X116830616Y-76868953D01*
X116974839Y-76724730D01*
X116974839Y-76941313D01*
X117103884Y-77252855D01*
X116987653Y-77533462D01*
X116987653Y-77941232D01*
X117143700Y-78317963D01*
X117432037Y-78606300D01*
X117795667Y-78756920D01*
X117409640Y-79142948D01*
X117241414Y-79142948D01*
X116864683Y-79298995D01*
X116576346Y-79587332D01*
X116420299Y-79964063D01*
X116420299Y-80371833D01*
X116575308Y-80746058D01*
X116485899Y-80961911D01*
X116485899Y-81369681D01*
X116602004Y-81649984D01*
X116472835Y-81961827D01*
X116472835Y-82369597D01*
X116628882Y-82746328D01*
X116917219Y-83034665D01*
X117293950Y-83190712D01*
X117701720Y-83190712D01*
X118078451Y-83034665D01*
X118212307Y-82900809D01*
X118356155Y-82872196D01*
X118604240Y-82706432D01*
X118646085Y-82643806D01*
X121478097Y-79811795D01*
X121540720Y-79769952D01*
X121706484Y-79521867D01*
X121750000Y-79303098D01*
X121750000Y-79303097D01*
X121764693Y-79229232D01*
X121750000Y-79155367D01*
X121750000Y-71902345D01*
X122046115Y-72025000D01*
G04 #@! TO.N,/GND*
G36*
X77459281Y-94427130D02*
X77521904Y-94468973D01*
X85531027Y-102478097D01*
X85572870Y-102540720D01*
X85699005Y-102625000D01*
X77375000Y-102625000D01*
X77375000Y-94300994D01*
X77459281Y-94427130D01*
X77459281Y-94427130D01*
G37*
X77459281Y-94427130D02*
X77521904Y-94468973D01*
X85531027Y-102478097D01*
X85572870Y-102540720D01*
X85699005Y-102625000D01*
X77375000Y-102625000D01*
X77375000Y-94300994D01*
X77459281Y-94427130D01*
G36*
X98566137Y-61438737D02*
X98810000Y-61487244D01*
X99375000Y-61487244D01*
X99375000Y-88564341D01*
X98000000Y-89939341D01*
X98000000Y-89758180D01*
X98014693Y-89684315D01*
X97973057Y-89475000D01*
X97956484Y-89391680D01*
X97790720Y-89143595D01*
X97728094Y-89101750D01*
X97648250Y-89021906D01*
X97606405Y-88959280D01*
X97358320Y-88793516D01*
X97214472Y-88764903D01*
X97080616Y-88631047D01*
X96703885Y-88475000D01*
X96296115Y-88475000D01*
X95919384Y-88631047D01*
X95631047Y-88919384D01*
X95475000Y-89296115D01*
X95475000Y-89703885D01*
X95597655Y-90000000D01*
X95475000Y-90296115D01*
X95475000Y-90464340D01*
X93321904Y-92617437D01*
X93259281Y-92659280D01*
X93217439Y-92721902D01*
X93093517Y-92907365D01*
X93035307Y-93200000D01*
X93050001Y-93273870D01*
X93050000Y-95707365D01*
X93050000Y-96323865D01*
X93050001Y-96323870D01*
X93050000Y-98573865D01*
X93050001Y-98573870D01*
X93050001Y-98775000D01*
X92761250Y-98775000D01*
X92605000Y-98931250D01*
X92605000Y-100225000D01*
X92625000Y-100225000D01*
X92625000Y-100275000D01*
X92605000Y-100275000D01*
X92605000Y-100295000D01*
X92555000Y-100295000D01*
X92555000Y-100275000D01*
X92535000Y-100275000D01*
X92535000Y-100225000D01*
X92555000Y-100225000D01*
X92555000Y-98931250D01*
X92398750Y-98775000D01*
X91605680Y-98775000D01*
X91375966Y-98870150D01*
X91314294Y-98931823D01*
X91133863Y-98811263D01*
X90890000Y-98762756D01*
X89190000Y-98762756D01*
X88946137Y-98811263D01*
X88739400Y-98949400D01*
X88601263Y-99156137D01*
X88583152Y-99247187D01*
X88335520Y-98999555D01*
X87793396Y-98775000D01*
X87206604Y-98775000D01*
X86664480Y-98999555D01*
X86249555Y-99414480D01*
X86025000Y-99956604D01*
X86025000Y-100214339D01*
X79250000Y-93439341D01*
X79250000Y-91281311D01*
X79673280Y-91467978D01*
X80259920Y-91481265D01*
X80806991Y-91269043D01*
X80863621Y-91231204D01*
X80935089Y-90970444D01*
X80000000Y-90035355D01*
X79985858Y-90049498D01*
X79950503Y-90014143D01*
X79964645Y-90000000D01*
X80035355Y-90000000D01*
X80970444Y-90935089D01*
X81231204Y-90863621D01*
X81467978Y-90326720D01*
X81481265Y-89740080D01*
X81269043Y-89193009D01*
X81231204Y-89136379D01*
X80970444Y-89064911D01*
X80035355Y-90000000D01*
X79964645Y-90000000D01*
X79950503Y-89985858D01*
X79985858Y-89950503D01*
X80000000Y-89964645D01*
X80935089Y-89029556D01*
X80909297Y-88935449D01*
X81093863Y-88898737D01*
X81300600Y-88760600D01*
X81438737Y-88553863D01*
X81487244Y-88310000D01*
X81487244Y-86610000D01*
X81438737Y-86366137D01*
X81321046Y-86190000D01*
X81438737Y-86013863D01*
X81487244Y-85770000D01*
X81487244Y-84070000D01*
X81438737Y-83826137D01*
X81321046Y-83650000D01*
X81438737Y-83473863D01*
X81487244Y-83230000D01*
X81487244Y-81530000D01*
X81438737Y-81286137D01*
X81321046Y-81110000D01*
X81438737Y-80933863D01*
X81487244Y-80690000D01*
X81487244Y-80400000D01*
X81762756Y-80400000D01*
X81762756Y-82100000D01*
X81811263Y-82343863D01*
X81949400Y-82550600D01*
X82156137Y-82688737D01*
X82400000Y-82737244D01*
X84100000Y-82737244D01*
X84343863Y-82688737D01*
X84500315Y-82584199D01*
X84545966Y-82629850D01*
X84775680Y-82725000D01*
X85568750Y-82725000D01*
X85725000Y-82568750D01*
X85725000Y-81275000D01*
X85705000Y-81275000D01*
X85705000Y-81225000D01*
X85725000Y-81225000D01*
X85725000Y-79931250D01*
X85775000Y-79931250D01*
X85775000Y-81225000D01*
X85795000Y-81225000D01*
X85795000Y-81275000D01*
X85775000Y-81275000D01*
X85775000Y-82568750D01*
X85931250Y-82725000D01*
X86724320Y-82725000D01*
X86954034Y-82629850D01*
X87129849Y-82454034D01*
X87199622Y-82285587D01*
X87414480Y-82500445D01*
X87956604Y-82725000D01*
X88543396Y-82725000D01*
X89085520Y-82500445D01*
X89500445Y-82085520D01*
X89725000Y-81543396D01*
X89725000Y-80956604D01*
X89500445Y-80414480D01*
X89085520Y-79999555D01*
X88543396Y-79775000D01*
X87956604Y-79775000D01*
X87414480Y-79999555D01*
X87199622Y-80214413D01*
X87129849Y-80045966D01*
X86954034Y-79870150D01*
X86724320Y-79775000D01*
X85931250Y-79775000D01*
X85775000Y-79931250D01*
X85725000Y-79931250D01*
X85568750Y-79775000D01*
X84775680Y-79775000D01*
X84545966Y-79870150D01*
X84500315Y-79915801D01*
X84343863Y-79811263D01*
X84100000Y-79762756D01*
X82400000Y-79762756D01*
X82156137Y-79811263D01*
X81949400Y-79949400D01*
X81811263Y-80156137D01*
X81762756Y-80400000D01*
X81487244Y-80400000D01*
X81487244Y-78990000D01*
X81438737Y-78746137D01*
X81318177Y-78565706D01*
X81379850Y-78504034D01*
X81475000Y-78274320D01*
X81475000Y-77481250D01*
X81318750Y-77325000D01*
X80025000Y-77325000D01*
X80025000Y-77345000D01*
X79975000Y-77345000D01*
X79975000Y-77325000D01*
X79955000Y-77325000D01*
X79955000Y-77275000D01*
X79975000Y-77275000D01*
X79975000Y-74785000D01*
X80025000Y-74785000D01*
X80025000Y-77275000D01*
X81318750Y-77275000D01*
X81475000Y-77118750D01*
X81475000Y-76325680D01*
X81379850Y-76095966D01*
X81313884Y-76030000D01*
X81379850Y-75964034D01*
X81475000Y-75734320D01*
X81475000Y-74941250D01*
X81318750Y-74785000D01*
X80025000Y-74785000D01*
X79975000Y-74785000D01*
X79955000Y-74785000D01*
X79955000Y-74735000D01*
X79975000Y-74735000D01*
X79975000Y-74715000D01*
X80025000Y-74715000D01*
X80025000Y-74735000D01*
X81318750Y-74735000D01*
X81475000Y-74578750D01*
X81475000Y-73785680D01*
X81379850Y-73555966D01*
X81318177Y-73494294D01*
X81438737Y-73313863D01*
X81487244Y-73070000D01*
X81487244Y-71370000D01*
X81438737Y-71126137D01*
X81300600Y-70919400D01*
X81093863Y-70781263D01*
X80850000Y-70732756D01*
X80262902Y-70732756D01*
X80995658Y-70000000D01*
X84926135Y-70000000D01*
X85000000Y-70014693D01*
X85073865Y-70000000D01*
X85073866Y-70000000D01*
X85292635Y-69956484D01*
X85540720Y-69790720D01*
X85582565Y-69728094D01*
X92518097Y-62792563D01*
X92580720Y-62750720D01*
X92746484Y-62502635D01*
X92790000Y-62283866D01*
X92804693Y-62210001D01*
X92790000Y-62136136D01*
X92790000Y-61487244D01*
X92890000Y-61487244D01*
X93133863Y-61438737D01*
X93310000Y-61321046D01*
X93486137Y-61438737D01*
X93730000Y-61487244D01*
X95430000Y-61487244D01*
X95673863Y-61438737D01*
X95850000Y-61321046D01*
X96026137Y-61438737D01*
X96270000Y-61487244D01*
X97970000Y-61487244D01*
X98213863Y-61438737D01*
X98390000Y-61321046D01*
X98566137Y-61438737D01*
X98566137Y-61438737D01*
G37*
X98566137Y-61438737D02*
X98810000Y-61487244D01*
X99375000Y-61487244D01*
X99375000Y-88564341D01*
X98000000Y-89939341D01*
X98000000Y-89758180D01*
X98014693Y-89684315D01*
X97973057Y-89475000D01*
X97956484Y-89391680D01*
X97790720Y-89143595D01*
X97728094Y-89101750D01*
X97648250Y-89021906D01*
X97606405Y-88959280D01*
X97358320Y-88793516D01*
X97214472Y-88764903D01*
X97080616Y-88631047D01*
X96703885Y-88475000D01*
X96296115Y-88475000D01*
X95919384Y-88631047D01*
X95631047Y-88919384D01*
X95475000Y-89296115D01*
X95475000Y-89703885D01*
X95597655Y-90000000D01*
X95475000Y-90296115D01*
X95475000Y-90464340D01*
X93321904Y-92617437D01*
X93259281Y-92659280D01*
X93217439Y-92721902D01*
X93093517Y-92907365D01*
X93035307Y-93200000D01*
X93050001Y-93273870D01*
X93050000Y-95707365D01*
X93050000Y-96323865D01*
X93050001Y-96323870D01*
X93050000Y-98573865D01*
X93050001Y-98573870D01*
X93050001Y-98775000D01*
X92761250Y-98775000D01*
X92605000Y-98931250D01*
X92605000Y-100225000D01*
X92625000Y-100225000D01*
X92625000Y-100275000D01*
X92605000Y-100275000D01*
X92605000Y-100295000D01*
X92555000Y-100295000D01*
X92555000Y-100275000D01*
X92535000Y-100275000D01*
X92535000Y-100225000D01*
X92555000Y-100225000D01*
X92555000Y-98931250D01*
X92398750Y-98775000D01*
X91605680Y-98775000D01*
X91375966Y-98870150D01*
X91314294Y-98931823D01*
X91133863Y-98811263D01*
X90890000Y-98762756D01*
X89190000Y-98762756D01*
X88946137Y-98811263D01*
X88739400Y-98949400D01*
X88601263Y-99156137D01*
X88583152Y-99247187D01*
X88335520Y-98999555D01*
X87793396Y-98775000D01*
X87206604Y-98775000D01*
X86664480Y-98999555D01*
X86249555Y-99414480D01*
X86025000Y-99956604D01*
X86025000Y-100214339D01*
X79250000Y-93439341D01*
X79250000Y-91281311D01*
X79673280Y-91467978D01*
X80259920Y-91481265D01*
X80806991Y-91269043D01*
X80863621Y-91231204D01*
X80935089Y-90970444D01*
X80000000Y-90035355D01*
X79985858Y-90049498D01*
X79950503Y-90014143D01*
X79964645Y-90000000D01*
X80035355Y-90000000D01*
X80970444Y-90935089D01*
X81231204Y-90863621D01*
X81467978Y-90326720D01*
X81481265Y-89740080D01*
X81269043Y-89193009D01*
X81231204Y-89136379D01*
X80970444Y-89064911D01*
X80035355Y-90000000D01*
X79964645Y-90000000D01*
X79950503Y-89985858D01*
X79985858Y-89950503D01*
X80000000Y-89964645D01*
X80935089Y-89029556D01*
X80909297Y-88935449D01*
X81093863Y-88898737D01*
X81300600Y-88760600D01*
X81438737Y-88553863D01*
X81487244Y-88310000D01*
X81487244Y-86610000D01*
X81438737Y-86366137D01*
X81321046Y-86190000D01*
X81438737Y-86013863D01*
X81487244Y-85770000D01*
X81487244Y-84070000D01*
X81438737Y-83826137D01*
X81321046Y-83650000D01*
X81438737Y-83473863D01*
X81487244Y-83230000D01*
X81487244Y-81530000D01*
X81438737Y-81286137D01*
X81321046Y-81110000D01*
X81438737Y-80933863D01*
X81487244Y-80690000D01*
X81487244Y-80400000D01*
X81762756Y-80400000D01*
X81762756Y-82100000D01*
X81811263Y-82343863D01*
X81949400Y-82550600D01*
X82156137Y-82688737D01*
X82400000Y-82737244D01*
X84100000Y-82737244D01*
X84343863Y-82688737D01*
X84500315Y-82584199D01*
X84545966Y-82629850D01*
X84775680Y-82725000D01*
X85568750Y-82725000D01*
X85725000Y-82568750D01*
X85725000Y-81275000D01*
X85705000Y-81275000D01*
X85705000Y-81225000D01*
X85725000Y-81225000D01*
X85725000Y-79931250D01*
X85775000Y-79931250D01*
X85775000Y-81225000D01*
X85795000Y-81225000D01*
X85795000Y-81275000D01*
X85775000Y-81275000D01*
X85775000Y-82568750D01*
X85931250Y-82725000D01*
X86724320Y-82725000D01*
X86954034Y-82629850D01*
X87129849Y-82454034D01*
X87199622Y-82285587D01*
X87414480Y-82500445D01*
X87956604Y-82725000D01*
X88543396Y-82725000D01*
X89085520Y-82500445D01*
X89500445Y-82085520D01*
X89725000Y-81543396D01*
X89725000Y-80956604D01*
X89500445Y-80414480D01*
X89085520Y-79999555D01*
X88543396Y-79775000D01*
X87956604Y-79775000D01*
X87414480Y-79999555D01*
X87199622Y-80214413D01*
X87129849Y-80045966D01*
X86954034Y-79870150D01*
X86724320Y-79775000D01*
X85931250Y-79775000D01*
X85775000Y-79931250D01*
X85725000Y-79931250D01*
X85568750Y-79775000D01*
X84775680Y-79775000D01*
X84545966Y-79870150D01*
X84500315Y-79915801D01*
X84343863Y-79811263D01*
X84100000Y-79762756D01*
X82400000Y-79762756D01*
X82156137Y-79811263D01*
X81949400Y-79949400D01*
X81811263Y-80156137D01*
X81762756Y-80400000D01*
X81487244Y-80400000D01*
X81487244Y-78990000D01*
X81438737Y-78746137D01*
X81318177Y-78565706D01*
X81379850Y-78504034D01*
X81475000Y-78274320D01*
X81475000Y-77481250D01*
X81318750Y-77325000D01*
X80025000Y-77325000D01*
X80025000Y-77345000D01*
X79975000Y-77345000D01*
X79975000Y-77325000D01*
X79955000Y-77325000D01*
X79955000Y-77275000D01*
X79975000Y-77275000D01*
X79975000Y-74785000D01*
X80025000Y-74785000D01*
X80025000Y-77275000D01*
X81318750Y-77275000D01*
X81475000Y-77118750D01*
X81475000Y-76325680D01*
X81379850Y-76095966D01*
X81313884Y-76030000D01*
X81379850Y-75964034D01*
X81475000Y-75734320D01*
X81475000Y-74941250D01*
X81318750Y-74785000D01*
X80025000Y-74785000D01*
X79975000Y-74785000D01*
X79955000Y-74785000D01*
X79955000Y-74735000D01*
X79975000Y-74735000D01*
X79975000Y-74715000D01*
X80025000Y-74715000D01*
X80025000Y-74735000D01*
X81318750Y-74735000D01*
X81475000Y-74578750D01*
X81475000Y-73785680D01*
X81379850Y-73555966D01*
X81318177Y-73494294D01*
X81438737Y-73313863D01*
X81487244Y-73070000D01*
X81487244Y-71370000D01*
X81438737Y-71126137D01*
X81300600Y-70919400D01*
X81093863Y-70781263D01*
X80850000Y-70732756D01*
X80262902Y-70732756D01*
X80995658Y-70000000D01*
X84926135Y-70000000D01*
X85000000Y-70014693D01*
X85073865Y-70000000D01*
X85073866Y-70000000D01*
X85292635Y-69956484D01*
X85540720Y-69790720D01*
X85582565Y-69728094D01*
X92518097Y-62792563D01*
X92580720Y-62750720D01*
X92746484Y-62502635D01*
X92790000Y-62283866D01*
X92804693Y-62210001D01*
X92790000Y-62136136D01*
X92790000Y-61487244D01*
X92890000Y-61487244D01*
X93133863Y-61438737D01*
X93310000Y-61321046D01*
X93486137Y-61438737D01*
X93730000Y-61487244D01*
X95430000Y-61487244D01*
X95673863Y-61438737D01*
X95850000Y-61321046D01*
X96026137Y-61438737D01*
X96270000Y-61487244D01*
X97970000Y-61487244D01*
X98213863Y-61438737D01*
X98390000Y-61321046D01*
X98566137Y-61438737D01*
G04 #@! TD*
M02*
