G04 #@! TF.GenerationSoftware,KiCad,Pcbnew,(5.0.0-3-g5ebb6b6)*
G04 #@! TF.CreationDate,2019-02-10T22:36:41+03:00*
G04 #@! TF.ProjectId,mac,6D61632E6B696361645F706362000000,rev?*
G04 #@! TF.SameCoordinates,Original*
G04 #@! TF.FileFunction,Legend,Bot*
G04 #@! TF.FilePolarity,Positive*
%FSLAX46Y46*%
G04 Gerber Fmt 4.6, Leading zero omitted, Abs format (unit mm)*
G04 Created by KiCad (PCBNEW (5.0.0-3-g5ebb6b6)) date *
%MOMM*%
%LPD*%
G01*
G04 APERTURE LIST*
%ADD10C,0.400000*%
%ADD11C,0.250000*%
%ADD12C,0.010000*%
G04 APERTURE END LIST*
D10*
X132726190Y-76654761D02*
X132726190Y-74654761D01*
X131583333Y-74654761D01*
X131583333Y-76654761D01*
X129869047Y-76559523D02*
X130059523Y-76654761D01*
X130440476Y-76654761D01*
X130630952Y-76559523D01*
X130726190Y-76369047D01*
X130726190Y-75607142D01*
X130630952Y-75416666D01*
X130440476Y-75321428D01*
X130059523Y-75321428D01*
X129869047Y-75416666D01*
X129773809Y-75607142D01*
X129773809Y-75797619D01*
X130726190Y-75988095D01*
X128250000Y-75321428D02*
X128250000Y-76654761D01*
X129011904Y-75321428D02*
X129011904Y-75797619D01*
X128916666Y-75988095D01*
X128726190Y-76083333D01*
X128250000Y-76083333D01*
X126345238Y-76654761D02*
X126345238Y-75607142D01*
X126440476Y-75416666D01*
X126630952Y-75321428D01*
X127011904Y-75321428D01*
X127202380Y-75416666D01*
X126345238Y-76559523D02*
X126535714Y-76654761D01*
X127011904Y-76654761D01*
X127202380Y-76559523D01*
X127297619Y-76369047D01*
X127297619Y-76178571D01*
X127202380Y-75988095D01*
X127011904Y-75892857D01*
X126535714Y-75892857D01*
X126345238Y-75797619D01*
X125678571Y-75321428D02*
X124726190Y-75321428D01*
X125202380Y-75321428D02*
X125202380Y-76654761D01*
X124059523Y-75988095D02*
X123202380Y-75988095D01*
X124059523Y-75321428D02*
X124059523Y-76654761D01*
X123202380Y-75321428D02*
X123202380Y-76654761D01*
X120916666Y-75321428D02*
X120916666Y-76654761D01*
X122250000Y-75321428D02*
X122250000Y-76654761D01*
X121773809Y-76654761D01*
X121583333Y-76559523D01*
X121488095Y-76369047D01*
X121488095Y-76083333D01*
X121583333Y-75892857D01*
X121773809Y-75797619D01*
X122250000Y-75797619D01*
X119202380Y-76559523D02*
X119392857Y-76654761D01*
X119773809Y-76654761D01*
X119964285Y-76559523D01*
X120059523Y-76369047D01*
X120059523Y-75607142D01*
X119964285Y-75416666D01*
X119773809Y-75321428D01*
X119392857Y-75321428D01*
X119202380Y-75416666D01*
X119107142Y-75607142D01*
X119107142Y-75797619D01*
X120059523Y-75988095D01*
X116726190Y-76654761D02*
X116726190Y-75321428D01*
X115869047Y-75321428D01*
X115869047Y-76654761D01*
X114154761Y-76654761D02*
X114154761Y-75321428D01*
X114440476Y-75321428D01*
X114630952Y-75416666D01*
X114726190Y-75607142D01*
X114821428Y-76369047D01*
X114916666Y-76559523D01*
X115107142Y-76654761D01*
X112345238Y-76654761D02*
X112345238Y-75607142D01*
X112440476Y-75416666D01*
X112630952Y-75321428D01*
X113011904Y-75321428D01*
X113202380Y-75416666D01*
X112345238Y-76559523D02*
X112535714Y-76654761D01*
X113011904Y-76654761D01*
X113202380Y-76559523D01*
X113297619Y-76369047D01*
X113297619Y-76178571D01*
X113202380Y-75988095D01*
X113011904Y-75892857D01*
X112535714Y-75892857D01*
X112345238Y-75797619D01*
X111678571Y-75321428D02*
X110726190Y-75321428D01*
X111202380Y-75321428D02*
X111202380Y-76654761D01*
X108726190Y-75321428D02*
X108726190Y-76654761D01*
X110059523Y-75321428D02*
X110059523Y-76654761D01*
X109583333Y-76654761D01*
X109392857Y-76559523D01*
X109297619Y-76369047D01*
X109297619Y-76083333D01*
X109392857Y-75892857D01*
X109583333Y-75797619D01*
X110059523Y-75797619D01*
X107773809Y-76464285D02*
X107678571Y-76559523D01*
X107773809Y-76654761D01*
X107869047Y-76559523D01*
X107773809Y-76464285D01*
X107773809Y-76654761D01*
X107773809Y-75416666D02*
X107678571Y-75511904D01*
X107773809Y-75607142D01*
X107869047Y-75511904D01*
X107773809Y-75416666D01*
X107773809Y-75607142D01*
D11*
X132980357Y-78607142D02*
X131837500Y-78607142D01*
X131123214Y-78178571D02*
X131123214Y-79678571D01*
X131123214Y-78250000D02*
X130980357Y-78178571D01*
X130694642Y-78178571D01*
X130551785Y-78250000D01*
X130480357Y-78321428D01*
X130408928Y-78464285D01*
X130408928Y-78892857D01*
X130480357Y-79035714D01*
X130551785Y-79107142D01*
X130694642Y-79178571D01*
X130980357Y-79178571D01*
X131123214Y-79107142D01*
X129123214Y-79178571D02*
X129123214Y-78392857D01*
X129194642Y-78250000D01*
X129337500Y-78178571D01*
X129623214Y-78178571D01*
X129766071Y-78250000D01*
X129123214Y-79107142D02*
X129266071Y-79178571D01*
X129623214Y-79178571D01*
X129766071Y-79107142D01*
X129837500Y-78964285D01*
X129837500Y-78821428D01*
X129766071Y-78678571D01*
X129623214Y-78607142D01*
X129266071Y-78607142D01*
X129123214Y-78535714D01*
X128266071Y-78678571D02*
X128123214Y-78678571D01*
X128551785Y-78250000D02*
X128408928Y-78178571D01*
X128123214Y-78178571D01*
X127980357Y-78250000D01*
X127908928Y-78392857D01*
X127908928Y-78464285D01*
X127980357Y-78607142D01*
X128123214Y-78678571D01*
X127980357Y-78750000D01*
X127908928Y-78892857D01*
X127908928Y-78964285D01*
X127980357Y-79107142D01*
X128123214Y-79178571D01*
X128408928Y-79178571D01*
X128551785Y-79107142D01*
X127266071Y-78178571D02*
X127266071Y-79678571D01*
X127266071Y-78250000D02*
X127123214Y-78178571D01*
X126837500Y-78178571D01*
X126694642Y-78250000D01*
X126623214Y-78321428D01*
X126551785Y-78464285D01*
X126551785Y-78892857D01*
X126623214Y-79035714D01*
X126694642Y-79107142D01*
X126837500Y-79178571D01*
X127123214Y-79178571D01*
X127266071Y-79107142D01*
X125266071Y-79178571D02*
X125266071Y-78392857D01*
X125337500Y-78250000D01*
X125480357Y-78178571D01*
X125766071Y-78178571D01*
X125908928Y-78250000D01*
X125266071Y-79107142D02*
X125408928Y-79178571D01*
X125766071Y-79178571D01*
X125908928Y-79107142D01*
X125980357Y-78964285D01*
X125980357Y-78821428D01*
X125908928Y-78678571D01*
X125766071Y-78607142D01*
X125408928Y-78607142D01*
X125266071Y-78535714D01*
X123837500Y-77607142D02*
X123908928Y-77678571D01*
X124051785Y-77750000D01*
X124337500Y-77750000D01*
X124480357Y-77821428D01*
X124551785Y-77892857D01*
X124623214Y-78035714D01*
X124623214Y-78892857D01*
X124551785Y-79035714D01*
X124480357Y-79107142D01*
X124337500Y-79178571D01*
X124123214Y-79178571D01*
X123980357Y-79107142D01*
X123908928Y-79035714D01*
X123837500Y-78892857D01*
X123837500Y-78464285D01*
X123908928Y-78321428D01*
X123980357Y-78250000D01*
X124123214Y-78178571D01*
X124408928Y-78178571D01*
X124551785Y-78250000D01*
X124623214Y-78321428D01*
X122980357Y-79178571D02*
X123123214Y-79107142D01*
X123194642Y-79035714D01*
X123266071Y-78892857D01*
X123266071Y-78464285D01*
X123194642Y-78321428D01*
X123123214Y-78250000D01*
X122980357Y-78178571D01*
X122766071Y-78178571D01*
X122623214Y-78250000D01*
X122551785Y-78321428D01*
X122480357Y-78464285D01*
X122480357Y-78892857D01*
X122551785Y-79035714D01*
X122623214Y-79107142D01*
X122766071Y-79178571D01*
X122980357Y-79178571D01*
X122051785Y-78178571D02*
X121337500Y-78178571D01*
X121694642Y-78178571D02*
X121694642Y-79178571D01*
X120837500Y-78178571D02*
X120837500Y-79178571D01*
X120694642Y-78607142D02*
X120266071Y-79178571D01*
X120266071Y-78178571D02*
X120837500Y-78750000D01*
X118980357Y-79178571D02*
X118980357Y-78392857D01*
X119051785Y-78250000D01*
X119194642Y-78178571D01*
X119480357Y-78178571D01*
X119623214Y-78250000D01*
X118980357Y-79107142D02*
X119123214Y-79178571D01*
X119480357Y-79178571D01*
X119623214Y-79107142D01*
X119694642Y-78964285D01*
X119694642Y-78821428D01*
X119623214Y-78678571D01*
X119480357Y-78607142D01*
X119123214Y-78607142D01*
X118980357Y-78535714D01*
X116694642Y-79750000D02*
X116766071Y-79678571D01*
X116908928Y-79464285D01*
X116980357Y-79321428D01*
X117051785Y-79107142D01*
X117123214Y-78750000D01*
X117123214Y-78464285D01*
X117051785Y-78107142D01*
X116980357Y-77892857D01*
X116908928Y-77750000D01*
X116766071Y-77535714D01*
X116694642Y-77464285D01*
X116123214Y-79178571D02*
X116123214Y-77678571D01*
X115551785Y-77678571D01*
X115408928Y-77750000D01*
X115337500Y-77821428D01*
X115266071Y-77964285D01*
X115266071Y-78178571D01*
X115337500Y-78321428D01*
X115408928Y-78392857D01*
X115551785Y-78464285D01*
X116123214Y-78464285D01*
X113766071Y-79035714D02*
X113837500Y-79107142D01*
X114051785Y-79178571D01*
X114194642Y-79178571D01*
X114408928Y-79107142D01*
X114551785Y-78964285D01*
X114623214Y-78821428D01*
X114694642Y-78535714D01*
X114694642Y-78321428D01*
X114623214Y-78035714D01*
X114551785Y-77892857D01*
X114408928Y-77750000D01*
X114194642Y-77678571D01*
X114051785Y-77678571D01*
X113837500Y-77750000D01*
X113766071Y-77821428D01*
X112623214Y-78392857D02*
X112408928Y-78464285D01*
X112337500Y-78535714D01*
X112266071Y-78678571D01*
X112266071Y-78892857D01*
X112337500Y-79035714D01*
X112408928Y-79107142D01*
X112551785Y-79178571D01*
X113123214Y-79178571D01*
X113123214Y-77678571D01*
X112623214Y-77678571D01*
X112480357Y-77750000D01*
X112408928Y-77821428D01*
X112337500Y-77964285D01*
X112337500Y-78107142D01*
X112408928Y-78250000D01*
X112480357Y-78321428D01*
X112623214Y-78392857D01*
X113123214Y-78392857D01*
X111623214Y-78607142D02*
X110480357Y-78607142D01*
X109123214Y-79178571D02*
X109123214Y-77678571D01*
X109123214Y-79107142D02*
X109266071Y-79178571D01*
X109551785Y-79178571D01*
X109694642Y-79107142D01*
X109766071Y-79035714D01*
X109837500Y-78892857D01*
X109837500Y-78464285D01*
X109766071Y-78321428D01*
X109694642Y-78250000D01*
X109551785Y-78178571D01*
X109266071Y-78178571D01*
X109123214Y-78250000D01*
X107837500Y-79107142D02*
X107980357Y-79178571D01*
X108266071Y-79178571D01*
X108408928Y-79107142D01*
X108480357Y-78964285D01*
X108480357Y-78392857D01*
X108408928Y-78250000D01*
X108266071Y-78178571D01*
X107980357Y-78178571D01*
X107837500Y-78250000D01*
X107766071Y-78392857D01*
X107766071Y-78535714D01*
X108480357Y-78678571D01*
X107194642Y-79107142D02*
X107051785Y-79178571D01*
X106766071Y-79178571D01*
X106623214Y-79107142D01*
X106551785Y-78964285D01*
X106551785Y-78892857D01*
X106623214Y-78750000D01*
X106766071Y-78678571D01*
X106980357Y-78678571D01*
X107123214Y-78607142D01*
X107194642Y-78464285D01*
X107194642Y-78392857D01*
X107123214Y-78250000D01*
X106980357Y-78178571D01*
X106766071Y-78178571D01*
X106623214Y-78250000D01*
X105908928Y-79178571D02*
X105908928Y-78178571D01*
X105908928Y-77678571D02*
X105980357Y-77750000D01*
X105908928Y-77821428D01*
X105837500Y-77750000D01*
X105908928Y-77678571D01*
X105908928Y-77821428D01*
X104551785Y-78178571D02*
X104551785Y-79392857D01*
X104623214Y-79535714D01*
X104694642Y-79607142D01*
X104837500Y-79678571D01*
X105051785Y-79678571D01*
X105194642Y-79607142D01*
X104551785Y-79107142D02*
X104694642Y-79178571D01*
X104980357Y-79178571D01*
X105123214Y-79107142D01*
X105194642Y-79035714D01*
X105266071Y-78892857D01*
X105266071Y-78464285D01*
X105194642Y-78321428D01*
X105123214Y-78250000D01*
X104980357Y-78178571D01*
X104694642Y-78178571D01*
X104551785Y-78250000D01*
X103837500Y-78178571D02*
X103837500Y-79178571D01*
X103837500Y-78321428D02*
X103766071Y-78250000D01*
X103623214Y-78178571D01*
X103408928Y-78178571D01*
X103266071Y-78250000D01*
X103194642Y-78392857D01*
X103194642Y-79178571D01*
X102623214Y-79750000D02*
X102551785Y-79678571D01*
X102408928Y-79464285D01*
X102337500Y-79321428D01*
X102266071Y-79107142D01*
X102194642Y-78750000D01*
X102194642Y-78464285D01*
X102266071Y-78107142D01*
X102337500Y-77892857D01*
X102408928Y-77750000D01*
X102551785Y-77535714D01*
X102623214Y-77464285D01*
X132980357Y-81107142D02*
X131837500Y-81107142D01*
X130908928Y-81678571D02*
X131051785Y-81607142D01*
X131123214Y-81535714D01*
X131194642Y-81392857D01*
X131194642Y-80964285D01*
X131123214Y-80821428D01*
X131051785Y-80750000D01*
X130908928Y-80678571D01*
X130694642Y-80678571D01*
X130551785Y-80750000D01*
X130480357Y-80821428D01*
X130408928Y-80964285D01*
X130408928Y-81392857D01*
X130480357Y-81535714D01*
X130551785Y-81607142D01*
X130694642Y-81678571D01*
X130908928Y-81678571D01*
X129766071Y-81678571D02*
X129766071Y-80678571D01*
X129123214Y-80678571D01*
X129123214Y-81678571D01*
X127408928Y-80678571D02*
X127408928Y-81678571D01*
X128408928Y-80678571D02*
X128408928Y-81678571D01*
X128051785Y-81678571D01*
X127908928Y-81607142D01*
X127837500Y-81464285D01*
X127837500Y-81250000D01*
X127908928Y-81107142D01*
X128051785Y-81035714D01*
X128408928Y-81035714D01*
X126908928Y-80678571D02*
X126194642Y-80678571D01*
X126551785Y-80678571D02*
X126551785Y-81678571D01*
X125694642Y-81178571D02*
X125051785Y-81178571D01*
X125694642Y-80678571D02*
X125694642Y-81678571D01*
X125051785Y-80678571D02*
X125051785Y-81678571D01*
X124123214Y-81678571D02*
X124266071Y-81607142D01*
X124337500Y-81535714D01*
X124408928Y-81392857D01*
X124408928Y-80964285D01*
X124337500Y-80821428D01*
X124266071Y-80750000D01*
X124123214Y-80678571D01*
X123908928Y-80678571D01*
X123766071Y-80750000D01*
X123694642Y-80821428D01*
X123623214Y-80964285D01*
X123623214Y-81392857D01*
X123694642Y-81535714D01*
X123766071Y-81607142D01*
X123908928Y-81678571D01*
X124123214Y-81678571D01*
X122408928Y-81607142D02*
X122551785Y-81678571D01*
X122837500Y-81678571D01*
X122980357Y-81607142D01*
X123051785Y-81464285D01*
X123051785Y-80892857D01*
X122980357Y-80750000D01*
X122837500Y-80678571D01*
X122551785Y-80678571D01*
X122408928Y-80750000D01*
X122337500Y-80892857D01*
X122337500Y-81035714D01*
X123051785Y-81178571D01*
X120551785Y-81678571D02*
X120551785Y-80678571D01*
X119908928Y-80678571D01*
X119908928Y-81678571D01*
X119194642Y-80678571D02*
X119194642Y-82178571D01*
X119194642Y-80750000D02*
X119051785Y-80678571D01*
X118766071Y-80678571D01*
X118623214Y-80750000D01*
X118551785Y-80821428D01*
X118480357Y-80964285D01*
X118480357Y-81392857D01*
X118551785Y-81535714D01*
X118623214Y-81607142D01*
X118766071Y-81678571D01*
X119051785Y-81678571D01*
X119194642Y-81607142D01*
X117623214Y-81678571D02*
X117766071Y-81607142D01*
X117837500Y-81535714D01*
X117908928Y-81392857D01*
X117908928Y-80964285D01*
X117837500Y-80821428D01*
X117766071Y-80750000D01*
X117623214Y-80678571D01*
X117408928Y-80678571D01*
X117266071Y-80750000D01*
X117194642Y-80821428D01*
X117123214Y-80964285D01*
X117123214Y-81392857D01*
X117194642Y-81535714D01*
X117266071Y-81607142D01*
X117408928Y-81678571D01*
X117623214Y-81678571D01*
X116480357Y-80678571D02*
X116480357Y-81678571D01*
X115766071Y-80678571D01*
X115766071Y-81678571D01*
X114908928Y-81178571D02*
X114766071Y-81178571D01*
X115194642Y-80750000D02*
X115051785Y-80678571D01*
X114766071Y-80678571D01*
X114623214Y-80750000D01*
X114551785Y-80892857D01*
X114551785Y-80964285D01*
X114623214Y-81107142D01*
X114766071Y-81178571D01*
X114623214Y-81250000D01*
X114551785Y-81392857D01*
X114551785Y-81464285D01*
X114623214Y-81607142D01*
X114766071Y-81678571D01*
X115051785Y-81678571D01*
X115194642Y-81607142D01*
X113551785Y-81178571D02*
X113337500Y-81250000D01*
X113266071Y-81392857D01*
X113266071Y-81464285D01*
X113337500Y-81607142D01*
X113480357Y-81678571D01*
X113908928Y-81678571D01*
X113908928Y-80678571D01*
X113551785Y-80678571D01*
X113408928Y-80750000D01*
X113337500Y-80892857D01*
X113337500Y-80964285D01*
X113408928Y-81107142D01*
X113551785Y-81178571D01*
X113908928Y-81178571D01*
X112408928Y-81678571D02*
X112551785Y-81607142D01*
X112623214Y-81535714D01*
X112694642Y-81392857D01*
X112694642Y-80964285D01*
X112623214Y-80821428D01*
X112551785Y-80750000D01*
X112408928Y-80678571D01*
X112194642Y-80678571D01*
X112051785Y-80750000D01*
X111980357Y-80821428D01*
X111908928Y-80964285D01*
X111908928Y-81392857D01*
X111980357Y-81535714D01*
X112051785Y-81607142D01*
X112194642Y-81678571D01*
X112408928Y-81678571D01*
X110551785Y-80821428D02*
X110623214Y-80750000D01*
X110766071Y-80678571D01*
X111051785Y-80678571D01*
X111194642Y-80750000D01*
X111266071Y-80821428D01*
X111337500Y-80964285D01*
X111337500Y-81392857D01*
X111266071Y-81535714D01*
X111194642Y-81607142D01*
X111051785Y-81678571D01*
X110837500Y-81678571D01*
X110694642Y-81607142D01*
X110623214Y-81535714D01*
X110551785Y-81392857D01*
X110551785Y-80464285D01*
X110623214Y-80321428D01*
X110694642Y-80250000D01*
X110837500Y-80178571D01*
X111123214Y-80178571D01*
X111266071Y-80250000D01*
X109266071Y-81607142D02*
X109408928Y-81678571D01*
X109694642Y-81678571D01*
X109837500Y-81607142D01*
X109908928Y-81535714D01*
X109980357Y-81392857D01*
X109980357Y-80964285D01*
X109908928Y-80821428D01*
X109837500Y-80750000D01*
X109694642Y-80678571D01*
X109408928Y-80678571D01*
X109266071Y-80750000D01*
X108837500Y-80678571D02*
X108123214Y-80678571D01*
X108480357Y-80678571D02*
X108480357Y-81678571D01*
X107266071Y-81178571D02*
X107051785Y-81250000D01*
X106980357Y-81392857D01*
X106980357Y-81464285D01*
X107051785Y-81607142D01*
X107194642Y-81678571D01*
X107623214Y-81678571D01*
X107623214Y-80678571D01*
X107266071Y-80678571D01*
X107123214Y-80750000D01*
X107051785Y-80892857D01*
X107051785Y-80964285D01*
X107123214Y-81107142D01*
X107266071Y-81178571D01*
X107623214Y-81178571D01*
X106123214Y-81678571D02*
X106266071Y-81607142D01*
X106337500Y-81535714D01*
X106408928Y-81392857D01*
X106408928Y-80964285D01*
X106337500Y-80821428D01*
X106266071Y-80750000D01*
X106123214Y-80678571D01*
X105908928Y-80678571D01*
X105766071Y-80750000D01*
X105694642Y-80821428D01*
X105623214Y-80964285D01*
X105623214Y-81392857D01*
X105694642Y-81535714D01*
X105766071Y-81607142D01*
X105908928Y-81678571D01*
X106123214Y-81678571D01*
X132980357Y-83607142D02*
X131837500Y-83607142D01*
X130408928Y-83321428D02*
X130480357Y-83250000D01*
X130623214Y-83178571D01*
X130908928Y-83178571D01*
X131051785Y-83250000D01*
X131123214Y-83321428D01*
X131194642Y-83464285D01*
X131194642Y-83892857D01*
X131123214Y-84035714D01*
X131051785Y-84107142D01*
X130908928Y-84178571D01*
X130694642Y-84178571D01*
X130551785Y-84107142D01*
X130480357Y-84035714D01*
X130408928Y-83892857D01*
X130408928Y-82964285D01*
X130480357Y-82821428D01*
X130551785Y-82750000D01*
X130694642Y-82678571D01*
X130980357Y-82678571D01*
X131123214Y-82750000D01*
X129551785Y-84178571D02*
X129694642Y-84107142D01*
X129766071Y-84035714D01*
X129837500Y-83892857D01*
X129837500Y-83464285D01*
X129766071Y-83321428D01*
X129694642Y-83250000D01*
X129551785Y-83178571D01*
X129337500Y-83178571D01*
X129194642Y-83250000D01*
X129123214Y-83321428D01*
X129051785Y-83464285D01*
X129051785Y-83892857D01*
X129123214Y-84035714D01*
X129194642Y-84107142D01*
X129337500Y-84178571D01*
X129551785Y-84178571D01*
X128408928Y-83178571D02*
X128408928Y-84178571D01*
X128266071Y-83607142D02*
X127837500Y-84178571D01*
X127837500Y-83178571D02*
X128408928Y-83750000D01*
X127337500Y-83178571D02*
X126980357Y-84178571D01*
X126623214Y-83178571D02*
X126980357Y-84178571D01*
X127123214Y-84535714D01*
X127194642Y-84607142D01*
X127337500Y-84678571D01*
X126051785Y-84178571D02*
X126051785Y-83178571D01*
X125623214Y-83964285D01*
X125194642Y-83178571D01*
X125194642Y-84178571D01*
X123908928Y-84107142D02*
X124051785Y-84178571D01*
X124337500Y-84178571D01*
X124480357Y-84107142D01*
X124551785Y-83964285D01*
X124551785Y-83392857D01*
X124480357Y-83250000D01*
X124337500Y-83178571D01*
X124051785Y-83178571D01*
X123908928Y-83250000D01*
X123837500Y-83392857D01*
X123837500Y-83535714D01*
X124551785Y-83678571D01*
X123194642Y-83678571D02*
X122551785Y-83678571D01*
X123194642Y-83178571D02*
X123194642Y-84178571D01*
X122551785Y-83178571D02*
X122551785Y-84178571D01*
X122051785Y-83178571D02*
X121337500Y-83178571D01*
X121694642Y-83178571D02*
X121694642Y-84178571D01*
X120194642Y-84178571D02*
X120194642Y-83392857D01*
X120266071Y-83250000D01*
X120408928Y-83178571D01*
X120694642Y-83178571D01*
X120837500Y-83250000D01*
X120194642Y-84107142D02*
X120337500Y-84178571D01*
X120694642Y-84178571D01*
X120837500Y-84107142D01*
X120908928Y-83964285D01*
X120908928Y-83821428D01*
X120837500Y-83678571D01*
X120694642Y-83607142D01*
X120337500Y-83607142D01*
X120194642Y-83535714D01*
X118837500Y-83178571D02*
X118837500Y-84178571D01*
X119480357Y-83178571D02*
X119480357Y-84178571D01*
X118694642Y-84178571D01*
X118694642Y-84535714D01*
X118123214Y-83178571D02*
X118123214Y-84178571D01*
X117408928Y-83178571D01*
X117408928Y-84178571D01*
X116408928Y-83750000D02*
X116766071Y-84178571D01*
X116123214Y-84178571D02*
X116123214Y-83178571D01*
X116551785Y-83178571D01*
X116694642Y-83250000D01*
X116766071Y-83392857D01*
X116766071Y-83535714D01*
X116694642Y-83678571D01*
X116551785Y-83750000D01*
X116123214Y-83750000D01*
X114266071Y-84178571D02*
X114266071Y-83178571D01*
X113623214Y-83178571D01*
X113623214Y-84178571D01*
X112694642Y-84178571D02*
X112837500Y-84107142D01*
X112908928Y-84035714D01*
X112980357Y-83892857D01*
X112980357Y-83464285D01*
X112908928Y-83321428D01*
X112837500Y-83250000D01*
X112694642Y-83178571D01*
X112480357Y-83178571D01*
X112337500Y-83250000D01*
X112266071Y-83321428D01*
X112194642Y-83464285D01*
X112194642Y-83892857D01*
X112266071Y-84035714D01*
X112337500Y-84107142D01*
X112480357Y-84178571D01*
X112694642Y-84178571D01*
X110408928Y-83392857D02*
X109908928Y-83392857D01*
X109694642Y-84178571D02*
X110408928Y-84178571D01*
X110408928Y-82678571D01*
X109694642Y-82678571D01*
X108194642Y-84035714D02*
X108266071Y-84107142D01*
X108480357Y-84178571D01*
X108623214Y-84178571D01*
X108837500Y-84107142D01*
X108980357Y-83964285D01*
X109051785Y-83821428D01*
X109123214Y-83535714D01*
X109123214Y-83321428D01*
X109051785Y-83035714D01*
X108980357Y-82892857D01*
X108837500Y-82750000D01*
X108623214Y-82678571D01*
X108480357Y-82678571D01*
X108266071Y-82750000D01*
X108194642Y-82821428D01*
X107551785Y-84178571D02*
X107551785Y-82678571D01*
X106694642Y-84178571D02*
X107337500Y-83321428D01*
X106694642Y-82678571D02*
X107551785Y-83535714D01*
X104908928Y-84535714D02*
X104908928Y-84178571D01*
X106194642Y-84178571D01*
X106194642Y-84535714D01*
X105194642Y-84178571D02*
X105194642Y-82678571D01*
X105551785Y-82678571D01*
X105694642Y-82750000D01*
X105766071Y-82821428D01*
X105837500Y-82964285D01*
X105980357Y-84178571D01*
X132980357Y-86107142D02*
X131837500Y-86107142D01*
X131123214Y-86678571D02*
X131123214Y-85678571D01*
X130694642Y-86464285D01*
X130266071Y-85678571D01*
X130266071Y-86678571D01*
X128980357Y-86607142D02*
X129123214Y-86678571D01*
X129408928Y-86678571D01*
X129551785Y-86607142D01*
X129623214Y-86464285D01*
X129623214Y-85892857D01*
X129551785Y-85750000D01*
X129408928Y-85678571D01*
X129123214Y-85678571D01*
X128980357Y-85750000D01*
X128908928Y-85892857D01*
X128908928Y-86035714D01*
X129623214Y-86178571D01*
X127694642Y-86678571D02*
X127694642Y-85678571D01*
X127908928Y-85678571D01*
X128051785Y-85750000D01*
X128123214Y-85892857D01*
X128194642Y-86464285D01*
X128266071Y-86607142D01*
X128408928Y-86678571D01*
X126980357Y-85678571D02*
X126980357Y-86678571D01*
X126837499Y-86107142D02*
X126408928Y-86678571D01*
X126408928Y-85678571D02*
X126980357Y-86250000D01*
X125551785Y-86678571D02*
X125694642Y-86607142D01*
X125766071Y-86535714D01*
X125837499Y-86392857D01*
X125837499Y-85964285D01*
X125766071Y-85821428D01*
X125694642Y-85750000D01*
X125551785Y-85678571D01*
X125337499Y-85678571D01*
X125194642Y-85750000D01*
X125123214Y-85821428D01*
X125051785Y-85964285D01*
X125051785Y-86392857D01*
X125123214Y-86535714D01*
X125194642Y-86607142D01*
X125337499Y-86678571D01*
X125551785Y-86678571D01*
X123766071Y-86607142D02*
X123908928Y-86678571D01*
X124194642Y-86678571D01*
X124337499Y-86607142D01*
X124408928Y-86535714D01*
X124480357Y-86392857D01*
X124480357Y-85964285D01*
X124408928Y-85821428D01*
X124337499Y-85750000D01*
X124194642Y-85678571D01*
X123908928Y-85678571D01*
X123766071Y-85750000D01*
X122551785Y-86607142D02*
X122694642Y-86678571D01*
X122980357Y-86678571D01*
X123123214Y-86607142D01*
X123194642Y-86464285D01*
X123194642Y-85892857D01*
X123123214Y-85750000D01*
X122980357Y-85678571D01*
X122694642Y-85678571D01*
X122551785Y-85750000D01*
X122480357Y-85892857D01*
X122480357Y-86035714D01*
X123194642Y-86178571D01*
X121837499Y-85678571D02*
X121837499Y-87178571D01*
X121837499Y-85750000D02*
X121694642Y-85678571D01*
X121408928Y-85678571D01*
X121266071Y-85750000D01*
X121194642Y-85821428D01*
X121123214Y-85964285D01*
X121123214Y-86392857D01*
X121194642Y-86535714D01*
X121266071Y-86607142D01*
X121408928Y-86678571D01*
X121694642Y-86678571D01*
X121837499Y-86607142D01*
X120480357Y-85678571D02*
X120480357Y-86678571D01*
X119766071Y-85678571D01*
X119766071Y-86678571D01*
X119051785Y-85678571D02*
X119051785Y-86678571D01*
X118337499Y-85678571D01*
X118337499Y-86678571D01*
X118980357Y-85107142D02*
X118908928Y-85250000D01*
X118766071Y-85321428D01*
X118623214Y-85321428D01*
X118480357Y-85250000D01*
X118408928Y-85107142D01*
X117623214Y-86178571D02*
X116980357Y-86178571D01*
X117623214Y-85678571D02*
X117623214Y-86678571D01*
X116980357Y-85678571D02*
X116980357Y-86678571D01*
X115266071Y-85678571D02*
X115266071Y-86678571D01*
X116266071Y-85678571D02*
X116266071Y-86678571D01*
X115908928Y-86678571D01*
X115766071Y-86607142D01*
X115694642Y-86464285D01*
X115694642Y-86250000D01*
X115766071Y-86107142D01*
X115908928Y-86035714D01*
X116266071Y-86035714D01*
X114551785Y-85678571D02*
X114551785Y-86678571D01*
X113837499Y-85678571D01*
X113837499Y-86678571D01*
X114480357Y-85107142D02*
X114408928Y-85250000D01*
X114266071Y-85321428D01*
X114123214Y-85321428D01*
X113980357Y-85250000D01*
X113908928Y-85107142D01*
X111980357Y-86678571D02*
X111980357Y-85678571D01*
X111551785Y-86464285D01*
X111123214Y-85678571D01*
X111123214Y-86678571D01*
X110194642Y-86678571D02*
X110337499Y-86607142D01*
X110408928Y-86535714D01*
X110480357Y-86392857D01*
X110480357Y-85964285D01*
X110408928Y-85821428D01*
X110337499Y-85750000D01*
X110194642Y-85678571D01*
X109980357Y-85678571D01*
X109837499Y-85750000D01*
X109766071Y-85821428D01*
X109694642Y-85964285D01*
X109694642Y-86392857D01*
X109766071Y-86535714D01*
X109837499Y-86607142D01*
X109980357Y-86678571D01*
X110194642Y-86678571D01*
X109051785Y-86178571D02*
X108408928Y-86178571D01*
X109051785Y-85678571D02*
X109051785Y-86678571D01*
X108408928Y-85678571D02*
X108408928Y-86678571D01*
X107908928Y-85678571D02*
X107194642Y-85678571D01*
X107551785Y-85678571D02*
X107551785Y-86678571D01*
X106051785Y-86678571D02*
X106051785Y-85892857D01*
X106123214Y-85750000D01*
X106266071Y-85678571D01*
X106551785Y-85678571D01*
X106694642Y-85750000D01*
X106051785Y-86607142D02*
X106194642Y-86678571D01*
X106551785Y-86678571D01*
X106694642Y-86607142D01*
X106766071Y-86464285D01*
X106766071Y-86321428D01*
X106694642Y-86178571D01*
X106551785Y-86107142D01*
X106194642Y-86107142D01*
X106051785Y-86035714D01*
X104908928Y-86178571D02*
X105408928Y-86678571D01*
X104837499Y-86250000D02*
X105408928Y-85678571D01*
X104837499Y-85678571D02*
X104837499Y-86678571D01*
X104266071Y-86678571D02*
X104766071Y-86178571D01*
X104266071Y-85678571D02*
X104837499Y-86250000D01*
X132980357Y-88607142D02*
X131837500Y-88607142D01*
X131123214Y-88178571D02*
X131123214Y-89178571D01*
X130408928Y-88178571D01*
X130408928Y-89178571D01*
X129694642Y-89178571D02*
X129694642Y-88178571D01*
X129266071Y-88964285D01*
X128837500Y-88178571D01*
X128837500Y-89178571D01*
X128123214Y-89178571D02*
X128123214Y-88178571D01*
X127480357Y-88178571D01*
X127480357Y-89178571D01*
X126551785Y-89178571D02*
X126694642Y-89107142D01*
X126766071Y-89035714D01*
X126837500Y-88892857D01*
X126837500Y-88464285D01*
X126766071Y-88321428D01*
X126694642Y-88250000D01*
X126551785Y-88178571D01*
X126337500Y-88178571D01*
X126194642Y-88250000D01*
X126123214Y-88321428D01*
X126051785Y-88464285D01*
X126051785Y-88892857D01*
X126123214Y-89035714D01*
X126194642Y-89107142D01*
X126337500Y-89178571D01*
X126551785Y-89178571D01*
X125408928Y-88178571D02*
X125408928Y-89678571D01*
X125408928Y-88250000D02*
X125266071Y-88178571D01*
X124980357Y-88178571D01*
X124837499Y-88250000D01*
X124766071Y-88321428D01*
X124694642Y-88464285D01*
X124694642Y-88892857D01*
X124766071Y-89035714D01*
X124837499Y-89107142D01*
X124980357Y-89178571D01*
X125266071Y-89178571D01*
X125408928Y-89107142D01*
X124266071Y-88178571D02*
X123551785Y-88178571D01*
X123908928Y-88178571D02*
X123908928Y-89178571D01*
X122837499Y-89178571D02*
X122980357Y-89107142D01*
X123051785Y-89035714D01*
X123123214Y-88892857D01*
X123123214Y-88464285D01*
X123051785Y-88321428D01*
X122980357Y-88250000D01*
X122837499Y-88178571D01*
X122623214Y-88178571D01*
X122480357Y-88250000D01*
X122408928Y-88321428D01*
X122337499Y-88464285D01*
X122337499Y-88892857D01*
X122408928Y-89035714D01*
X122480357Y-89107142D01*
X122623214Y-89178571D01*
X122837499Y-89178571D01*
X121551785Y-88678571D02*
X121408928Y-88678571D01*
X121837499Y-88250000D02*
X121694642Y-88178571D01*
X121408928Y-88178571D01*
X121266071Y-88250000D01*
X121194642Y-88392857D01*
X121194642Y-88464285D01*
X121266071Y-88607142D01*
X121408928Y-88678571D01*
X121266071Y-88750000D01*
X121194642Y-88892857D01*
X121194642Y-88964285D01*
X121266071Y-89107142D01*
X121408928Y-89178571D01*
X121694642Y-89178571D01*
X121837499Y-89107142D01*
X119908928Y-89178571D02*
X119908928Y-88392857D01*
X119980357Y-88250000D01*
X120123214Y-88178571D01*
X120408928Y-88178571D01*
X120551785Y-88250000D01*
X119908928Y-89107142D02*
X120051785Y-89178571D01*
X120408928Y-89178571D01*
X120551785Y-89107142D01*
X120623214Y-88964285D01*
X120623214Y-88821428D01*
X120551785Y-88678571D01*
X120408928Y-88607142D01*
X120051785Y-88607142D01*
X119908928Y-88535714D01*
X119194642Y-89178571D02*
X119194642Y-88178571D01*
X118766071Y-88964285D01*
X118337499Y-88178571D01*
X118337499Y-89178571D01*
X117051785Y-89107142D02*
X117194642Y-89178571D01*
X117480357Y-89178571D01*
X117623214Y-89107142D01*
X117694642Y-88964285D01*
X117694642Y-88392857D01*
X117623214Y-88250000D01*
X117480357Y-88178571D01*
X117194642Y-88178571D01*
X117051785Y-88250000D01*
X116980357Y-88392857D01*
X116980357Y-88535714D01*
X117694642Y-88678571D01*
X115837499Y-88178571D02*
X115837499Y-89178571D01*
X116337499Y-88178571D02*
X116337499Y-89178571D01*
X115337499Y-89178571D01*
X115337499Y-88178571D01*
X115337499Y-89178571D02*
X115194642Y-89178571D01*
X115194642Y-89535714D01*
X114051785Y-89107142D02*
X114194642Y-89178571D01*
X114480357Y-89178571D01*
X114623214Y-89107142D01*
X114694642Y-88964285D01*
X114694642Y-88392857D01*
X114623214Y-88250000D01*
X114480357Y-88178571D01*
X114194642Y-88178571D01*
X114051785Y-88250000D01*
X113980357Y-88392857D01*
X113980357Y-88535714D01*
X114694642Y-88678571D01*
X113337499Y-88678571D02*
X112694642Y-88678571D01*
X113337499Y-88178571D02*
X113337499Y-89178571D01*
X112694642Y-88178571D02*
X112694642Y-89178571D01*
X111980357Y-88178571D02*
X111980357Y-89178571D01*
X111266071Y-88178571D01*
X111266071Y-89178571D01*
X109980357Y-89107142D02*
X110123214Y-89178571D01*
X110408928Y-89178571D01*
X110551785Y-89107142D01*
X110623214Y-88964285D01*
X110623214Y-88392857D01*
X110551785Y-88250000D01*
X110408928Y-88178571D01*
X110123214Y-88178571D01*
X109980357Y-88250000D01*
X109908928Y-88392857D01*
X109908928Y-88535714D01*
X110623214Y-88678571D01*
X107694642Y-89750000D02*
X107766071Y-89678571D01*
X107908928Y-89464285D01*
X107980357Y-89321428D01*
X108051785Y-89107142D01*
X108123214Y-88750000D01*
X108123214Y-88464285D01*
X108051785Y-88107142D01*
X107980357Y-87892857D01*
X107908928Y-87750000D01*
X107766071Y-87535714D01*
X107694642Y-87464285D01*
X105408928Y-89107142D02*
X105551785Y-89178571D01*
X105837499Y-89178571D01*
X105980357Y-89107142D01*
X106051785Y-88964285D01*
X106051785Y-88392857D01*
X105980357Y-88250000D01*
X105837499Y-88178571D01*
X105551785Y-88178571D01*
X105408928Y-88250000D01*
X105337499Y-88392857D01*
X105337499Y-88535714D01*
X106051785Y-88678571D01*
X104051785Y-89107142D02*
X104194642Y-89178571D01*
X104480357Y-89178571D01*
X104623214Y-89107142D01*
X104694642Y-89035714D01*
X104766071Y-88892857D01*
X104766071Y-88464285D01*
X104694642Y-88321428D01*
X104623214Y-88250000D01*
X104480357Y-88178571D01*
X104194642Y-88178571D01*
X104051785Y-88250000D01*
X102837499Y-89178571D02*
X102837499Y-88178571D01*
X103051785Y-88178571D01*
X103194642Y-88250000D01*
X103266071Y-88392857D01*
X103337499Y-88964285D01*
X103408928Y-89107142D01*
X103551785Y-89178571D01*
X102123214Y-88178571D02*
X102123214Y-89178571D01*
X101408928Y-88178571D01*
X101408928Y-89178571D01*
X99551785Y-88678571D02*
X98908928Y-88678571D01*
X99551785Y-88178571D02*
X99551785Y-89178571D01*
X98908928Y-88178571D02*
X98908928Y-89178571D01*
X97551785Y-89178571D02*
X97551785Y-88392857D01*
X97623214Y-88250000D01*
X97766071Y-88178571D01*
X98051785Y-88178571D01*
X98194642Y-88250000D01*
X97551785Y-89107142D02*
X97694642Y-89178571D01*
X98051785Y-89178571D01*
X98194642Y-89107142D01*
X98266071Y-88964285D01*
X98266071Y-88821428D01*
X98194642Y-88678571D01*
X98051785Y-88607142D01*
X97694642Y-88607142D01*
X97551785Y-88535714D01*
X96123214Y-88321428D02*
X96194642Y-88250000D01*
X96337499Y-88178571D01*
X96623214Y-88178571D01*
X96766071Y-88250000D01*
X96837499Y-88321428D01*
X96908928Y-88464285D01*
X96908928Y-88892857D01*
X96837499Y-89035714D01*
X96766071Y-89107142D01*
X96623214Y-89178571D01*
X96408928Y-89178571D01*
X96266071Y-89107142D01*
X96194642Y-89035714D01*
X96123214Y-88892857D01*
X96123214Y-87964285D01*
X96194642Y-87821428D01*
X96266071Y-87750000D01*
X96408928Y-87678571D01*
X96694642Y-87678571D01*
X96837499Y-87750000D01*
X95266071Y-89178571D02*
X95408928Y-89107142D01*
X95480357Y-89035714D01*
X95551785Y-88892857D01*
X95551785Y-88464285D01*
X95480357Y-88321428D01*
X95408928Y-88250000D01*
X95266071Y-88178571D01*
X95051785Y-88178571D01*
X94908928Y-88250000D01*
X94837499Y-88321428D01*
X94766071Y-88464285D01*
X94766071Y-88892857D01*
X94837499Y-89035714D01*
X94908928Y-89107142D01*
X95051785Y-89178571D01*
X95266071Y-89178571D01*
X92980357Y-89035714D02*
X92908928Y-89107142D01*
X92980357Y-89178571D01*
X93051785Y-89107142D01*
X92980357Y-89035714D01*
X92980357Y-89178571D01*
X92980357Y-88250000D02*
X92908928Y-88321428D01*
X92980357Y-88392857D01*
X93051785Y-88321428D01*
X92980357Y-88250000D01*
X92980357Y-88392857D01*
X92408928Y-89750000D02*
X92337499Y-89678571D01*
X92194642Y-89464285D01*
X92123214Y-89321428D01*
X92051785Y-89107142D01*
X91980357Y-88750000D01*
X91980357Y-88464285D01*
X92051785Y-88107142D01*
X92123214Y-87892857D01*
X92194642Y-87750000D01*
X92337499Y-87535714D01*
X92408928Y-87464285D01*
X135230357Y-92392857D02*
X134730357Y-92392857D01*
X134516071Y-93178571D02*
X135230357Y-93178571D01*
X135230357Y-91678571D01*
X134516071Y-91678571D01*
X133658928Y-93178571D02*
X133801785Y-93107142D01*
X133873214Y-92964285D01*
X133873214Y-91678571D01*
X133087500Y-93035714D02*
X133016071Y-93107142D01*
X133087500Y-93178571D01*
X133158928Y-93107142D01*
X133087500Y-93035714D01*
X133087500Y-93178571D01*
X132373214Y-93178571D02*
X132373214Y-91678571D01*
X131516071Y-93178571D01*
X131516071Y-91678571D01*
X130801785Y-93178571D02*
X130801785Y-92178571D01*
X130801785Y-91678571D02*
X130873214Y-91750000D01*
X130801785Y-91821428D01*
X130730357Y-91750000D01*
X130801785Y-91678571D01*
X130801785Y-91821428D01*
X130087500Y-93178571D02*
X130087500Y-91678571D01*
X129944642Y-92607142D02*
X129516071Y-93178571D01*
X129516071Y-92178571D02*
X130087500Y-92750000D01*
X128873214Y-93178571D02*
X128873214Y-92178571D01*
X128873214Y-91678571D02*
X128944642Y-91750000D01*
X128873214Y-91821428D01*
X128801785Y-91750000D01*
X128873214Y-91678571D01*
X128873214Y-91821428D01*
X128373214Y-92178571D02*
X127801785Y-92178571D01*
X128158928Y-91678571D02*
X128158928Y-92964285D01*
X128087500Y-93107142D01*
X127944642Y-93178571D01*
X127801785Y-93178571D01*
X127087499Y-93178571D02*
X127230357Y-93107142D01*
X127301785Y-93035714D01*
X127373214Y-92892857D01*
X127373214Y-92464285D01*
X127301785Y-92321428D01*
X127230357Y-92250000D01*
X127087499Y-92178571D01*
X126873214Y-92178571D01*
X126730357Y-92250000D01*
X126658928Y-92321428D01*
X126587499Y-92464285D01*
X126587499Y-92892857D01*
X126658928Y-93035714D01*
X126730357Y-93107142D01*
X126873214Y-93178571D01*
X127087499Y-93178571D01*
X126016071Y-93107142D02*
X125873214Y-93178571D01*
X125587499Y-93178571D01*
X125444642Y-93107142D01*
X125373214Y-92964285D01*
X125373214Y-92892857D01*
X125444642Y-92750000D01*
X125587499Y-92678571D01*
X125801785Y-92678571D01*
X125944642Y-92607142D01*
X126016071Y-92464285D01*
X126016071Y-92392857D01*
X125944642Y-92250000D01*
X125801785Y-92178571D01*
X125587499Y-92178571D01*
X125444642Y-92250000D01*
X123801785Y-92464285D02*
X123873214Y-92392857D01*
X124016071Y-92321428D01*
X124158928Y-92321428D01*
X124301785Y-92392857D01*
X124373214Y-92464285D01*
X124444642Y-92607142D01*
X124444642Y-92750000D01*
X124373214Y-92892857D01*
X124301785Y-92964285D01*
X124158928Y-93035714D01*
X124016071Y-93035714D01*
X123873214Y-92964285D01*
X123801785Y-92892857D01*
X123801785Y-92321428D02*
X123801785Y-92892857D01*
X123730357Y-92964285D01*
X123658928Y-92964285D01*
X123516071Y-92892857D01*
X123444642Y-92750000D01*
X123444642Y-92392857D01*
X123587499Y-92178571D01*
X123801785Y-92035714D01*
X124087499Y-91964285D01*
X124373214Y-92035714D01*
X124587499Y-92178571D01*
X124730357Y-92392857D01*
X124801785Y-92678571D01*
X124730357Y-92964285D01*
X124587499Y-93178571D01*
X124373214Y-93321428D01*
X124087499Y-93392857D01*
X123801785Y-93321428D01*
X123587499Y-93178571D01*
X122801785Y-93178571D02*
X122801785Y-92178571D01*
X122801785Y-92321428D02*
X122730357Y-92250000D01*
X122587499Y-92178571D01*
X122373214Y-92178571D01*
X122230357Y-92250000D01*
X122158928Y-92392857D01*
X122158928Y-93178571D01*
X122158928Y-92392857D02*
X122087499Y-92250000D01*
X121944642Y-92178571D01*
X121730357Y-92178571D01*
X121587499Y-92250000D01*
X121516071Y-92392857D01*
X121516071Y-93178571D01*
X120158928Y-93178571D02*
X120158928Y-92392857D01*
X120230357Y-92250000D01*
X120373214Y-92178571D01*
X120658928Y-92178571D01*
X120801785Y-92250000D01*
X120158928Y-93107142D02*
X120301785Y-93178571D01*
X120658928Y-93178571D01*
X120801785Y-93107142D01*
X120873214Y-92964285D01*
X120873214Y-92821428D01*
X120801785Y-92678571D01*
X120658928Y-92607142D01*
X120301785Y-92607142D01*
X120158928Y-92535714D01*
X119444642Y-93178571D02*
X119444642Y-92178571D01*
X119444642Y-91678571D02*
X119516071Y-91750000D01*
X119444642Y-91821428D01*
X119373214Y-91750000D01*
X119444642Y-91678571D01*
X119444642Y-91821428D01*
X118516071Y-93178571D02*
X118658928Y-93107142D01*
X118730357Y-92964285D01*
X118730357Y-91678571D01*
X117944642Y-93035714D02*
X117873214Y-93107142D01*
X117944642Y-93178571D01*
X118016071Y-93107142D01*
X117944642Y-93035714D01*
X117944642Y-93178571D01*
X117230357Y-93178571D02*
X117230357Y-92178571D01*
X117230357Y-92464285D02*
X117158928Y-92321428D01*
X117087499Y-92250000D01*
X116944642Y-92178571D01*
X116801785Y-92178571D01*
X115658928Y-92178571D02*
X115658928Y-93178571D01*
X116301785Y-92178571D02*
X116301785Y-92964285D01*
X116230357Y-93107142D01*
X116087499Y-93178571D01*
X115873214Y-93178571D01*
X115730357Y-93107142D01*
X115658928Y-93035714D01*
X112730357Y-91607142D02*
X114016071Y-93535714D01*
X111087499Y-92392857D02*
X110587499Y-92392857D01*
X110373214Y-93178571D02*
X111087499Y-93178571D01*
X111087499Y-91678571D01*
X110373214Y-91678571D01*
X109516071Y-93178571D02*
X109658928Y-93107142D01*
X109730357Y-92964285D01*
X109730357Y-91678571D01*
X108944642Y-93035714D02*
X108873214Y-93107142D01*
X108944642Y-93178571D01*
X109016071Y-93107142D01*
X108944642Y-93035714D01*
X108944642Y-93178571D01*
X108301785Y-92750000D02*
X107587499Y-92750000D01*
X108444642Y-93178571D02*
X107944642Y-91678571D01*
X107444642Y-93178571D01*
X106944642Y-93035714D02*
X106873214Y-93107142D01*
X106944642Y-93178571D01*
X107016071Y-93107142D01*
X106944642Y-93035714D01*
X106944642Y-93178571D01*
X106230357Y-93178571D02*
X106230357Y-91678571D01*
X105373214Y-93178571D01*
X105373214Y-91678571D01*
X104658928Y-93178571D02*
X104658928Y-92178571D01*
X104658928Y-91678571D02*
X104730357Y-91750000D01*
X104658928Y-91821428D01*
X104587499Y-91750000D01*
X104658928Y-91678571D01*
X104658928Y-91821428D01*
X103944642Y-93178571D02*
X103944642Y-91678571D01*
X103801785Y-92607142D02*
X103373214Y-93178571D01*
X103373214Y-92178571D02*
X103944642Y-92750000D01*
X102730357Y-93178571D02*
X102730357Y-92178571D01*
X102730357Y-91678571D02*
X102801785Y-91750000D01*
X102730357Y-91821428D01*
X102658928Y-91750000D01*
X102730357Y-91678571D01*
X102730357Y-91821428D01*
X102230357Y-92178571D02*
X101658928Y-92178571D01*
X102016071Y-91678571D02*
X102016071Y-92964285D01*
X101944642Y-93107142D01*
X101801785Y-93178571D01*
X101658928Y-93178571D01*
X100944642Y-93178571D02*
X101087499Y-93107142D01*
X101158928Y-93035714D01*
X101230357Y-92892857D01*
X101230357Y-92464285D01*
X101158928Y-92321428D01*
X101087499Y-92250000D01*
X100944642Y-92178571D01*
X100730357Y-92178571D01*
X100587499Y-92250000D01*
X100516071Y-92321428D01*
X100444642Y-92464285D01*
X100444642Y-92892857D01*
X100516071Y-93035714D01*
X100587499Y-93107142D01*
X100730357Y-93178571D01*
X100944642Y-93178571D01*
X99873214Y-93107142D02*
X99730357Y-93178571D01*
X99444642Y-93178571D01*
X99301785Y-93107142D01*
X99230357Y-92964285D01*
X99230357Y-92892857D01*
X99301785Y-92750000D01*
X99444642Y-92678571D01*
X99658928Y-92678571D01*
X99801785Y-92607142D01*
X99873214Y-92464285D01*
X99873214Y-92392857D01*
X99801785Y-92250000D01*
X99658928Y-92178571D01*
X99444642Y-92178571D01*
X99301785Y-92250000D01*
X97658928Y-92464285D02*
X97730357Y-92392857D01*
X97873214Y-92321428D01*
X98016071Y-92321428D01*
X98158928Y-92392857D01*
X98230357Y-92464285D01*
X98301785Y-92607142D01*
X98301785Y-92750000D01*
X98230357Y-92892857D01*
X98158928Y-92964285D01*
X98016071Y-93035714D01*
X97873214Y-93035714D01*
X97730357Y-92964285D01*
X97658928Y-92892857D01*
X97658928Y-92321428D02*
X97658928Y-92892857D01*
X97587500Y-92964285D01*
X97516071Y-92964285D01*
X97373214Y-92892857D01*
X97301785Y-92750000D01*
X97301785Y-92392857D01*
X97444642Y-92178571D01*
X97658928Y-92035714D01*
X97944642Y-91964285D01*
X98230357Y-92035714D01*
X98444642Y-92178571D01*
X98587500Y-92392857D01*
X98658928Y-92678571D01*
X98587500Y-92964285D01*
X98444642Y-93178571D01*
X98230357Y-93321428D01*
X97944642Y-93392857D01*
X97658928Y-93321428D01*
X97444642Y-93178571D01*
X96016071Y-92178571D02*
X96016071Y-93392857D01*
X96087499Y-93535714D01*
X96158928Y-93607142D01*
X96301785Y-93678571D01*
X96516071Y-93678571D01*
X96658928Y-93607142D01*
X96016071Y-93107142D02*
X96158928Y-93178571D01*
X96444642Y-93178571D01*
X96587499Y-93107142D01*
X96658928Y-93035714D01*
X96730357Y-92892857D01*
X96730357Y-92464285D01*
X96658928Y-92321428D01*
X96587499Y-92250000D01*
X96444642Y-92178571D01*
X96158928Y-92178571D01*
X96016071Y-92250000D01*
X95301785Y-93178571D02*
X95301785Y-92178571D01*
X95301785Y-92321428D02*
X95230357Y-92250000D01*
X95087500Y-92178571D01*
X94873214Y-92178571D01*
X94730357Y-92250000D01*
X94658928Y-92392857D01*
X94658928Y-93178571D01*
X94658928Y-92392857D02*
X94587500Y-92250000D01*
X94444642Y-92178571D01*
X94230357Y-92178571D01*
X94087500Y-92250000D01*
X94016071Y-92392857D01*
X94016071Y-93178571D01*
X92658928Y-93178571D02*
X92658928Y-92392857D01*
X92730357Y-92250000D01*
X92873214Y-92178571D01*
X93158928Y-92178571D01*
X93301785Y-92250000D01*
X92658928Y-93107142D02*
X92801785Y-93178571D01*
X93158928Y-93178571D01*
X93301785Y-93107142D01*
X93373214Y-92964285D01*
X93373214Y-92821428D01*
X93301785Y-92678571D01*
X93158928Y-92607142D01*
X92801785Y-92607142D01*
X92658928Y-92535714D01*
X91944642Y-93178571D02*
X91944642Y-92178571D01*
X91944642Y-91678571D02*
X92016071Y-91750000D01*
X91944642Y-91821428D01*
X91873214Y-91750000D01*
X91944642Y-91678571D01*
X91944642Y-91821428D01*
X91016071Y-93178571D02*
X91158928Y-93107142D01*
X91230357Y-92964285D01*
X91230357Y-91678571D01*
X90444642Y-93035714D02*
X90373214Y-93107142D01*
X90444642Y-93178571D01*
X90516071Y-93107142D01*
X90444642Y-93035714D01*
X90444642Y-93178571D01*
X89087499Y-93107142D02*
X89230357Y-93178571D01*
X89516071Y-93178571D01*
X89658928Y-93107142D01*
X89730357Y-93035714D01*
X89801785Y-92892857D01*
X89801785Y-92464285D01*
X89730357Y-92321428D01*
X89658928Y-92250000D01*
X89516071Y-92178571D01*
X89230357Y-92178571D01*
X89087499Y-92250000D01*
X88230357Y-93178571D02*
X88373214Y-93107142D01*
X88444642Y-93035714D01*
X88516071Y-92892857D01*
X88516071Y-92464285D01*
X88444642Y-92321428D01*
X88373214Y-92250000D01*
X88230357Y-92178571D01*
X88016071Y-92178571D01*
X87873214Y-92250000D01*
X87801785Y-92321428D01*
X87730357Y-92464285D01*
X87730357Y-92892857D01*
X87801785Y-93035714D01*
X87873214Y-93107142D01*
X88016071Y-93178571D01*
X88230357Y-93178571D01*
X87087499Y-93178571D02*
X87087499Y-92178571D01*
X87087499Y-92321428D02*
X87016071Y-92250000D01*
X86873214Y-92178571D01*
X86658928Y-92178571D01*
X86516071Y-92250000D01*
X86444642Y-92392857D01*
X86444642Y-93178571D01*
X86444642Y-92392857D02*
X86373214Y-92250000D01*
X86230357Y-92178571D01*
X86016071Y-92178571D01*
X85873214Y-92250000D01*
X85801785Y-92392857D01*
X85801785Y-93178571D01*
X135230357Y-95107142D02*
X134087500Y-95107142D01*
X134658928Y-95678571D02*
X134658928Y-94535714D01*
X133516071Y-94178571D02*
X132516071Y-94178571D01*
X133158928Y-95678571D01*
X131516071Y-96250000D02*
X131587500Y-96178571D01*
X131730357Y-95964285D01*
X131801785Y-95821428D01*
X131873214Y-95607142D01*
X131944642Y-95250000D01*
X131944642Y-94964285D01*
X131873214Y-94607142D01*
X131801785Y-94392857D01*
X131730357Y-94250000D01*
X131587500Y-94035714D01*
X131516071Y-93964285D01*
X130873214Y-95678571D02*
X130587500Y-95678571D01*
X130444642Y-95607142D01*
X130373214Y-95535714D01*
X130230357Y-95321428D01*
X130158928Y-95035714D01*
X130158928Y-94464285D01*
X130230357Y-94321428D01*
X130301785Y-94250000D01*
X130444642Y-94178571D01*
X130730357Y-94178571D01*
X130873214Y-94250000D01*
X130944642Y-94321428D01*
X131016071Y-94464285D01*
X131016071Y-94821428D01*
X130944642Y-94964285D01*
X130873214Y-95035714D01*
X130730357Y-95107142D01*
X130444642Y-95107142D01*
X130301785Y-95035714D01*
X130230357Y-94964285D01*
X130158928Y-94821428D01*
X129444642Y-95678571D02*
X129158928Y-95678571D01*
X129016071Y-95607142D01*
X128944642Y-95535714D01*
X128801785Y-95321428D01*
X128730357Y-95035714D01*
X128730357Y-94464285D01*
X128801785Y-94321428D01*
X128873214Y-94250000D01*
X129016071Y-94178571D01*
X129301785Y-94178571D01*
X129444642Y-94250000D01*
X129516071Y-94321428D01*
X129587500Y-94464285D01*
X129587500Y-94821428D01*
X129516071Y-94964285D01*
X129444642Y-95035714D01*
X129301785Y-95107142D01*
X129016071Y-95107142D01*
X128873214Y-95035714D01*
X128801785Y-94964285D01*
X128730357Y-94821428D01*
X127373214Y-94178571D02*
X128087500Y-94178571D01*
X128158928Y-94892857D01*
X128087500Y-94821428D01*
X127944642Y-94750000D01*
X127587500Y-94750000D01*
X127444642Y-94821428D01*
X127373214Y-94892857D01*
X127301785Y-95035714D01*
X127301785Y-95392857D01*
X127373214Y-95535714D01*
X127444642Y-95607142D01*
X127587500Y-95678571D01*
X127944642Y-95678571D01*
X128087500Y-95607142D01*
X128158928Y-95535714D01*
X126801785Y-96250000D02*
X126730357Y-96178571D01*
X126587500Y-95964285D01*
X126516071Y-95821428D01*
X126444642Y-95607142D01*
X126373214Y-95250000D01*
X126373214Y-94964285D01*
X126444642Y-94607142D01*
X126516071Y-94392857D01*
X126587500Y-94250000D01*
X126730357Y-94035714D01*
X126801785Y-93964285D01*
X124873214Y-95678571D02*
X125730357Y-95678571D01*
X125301785Y-95678571D02*
X125301785Y-94178571D01*
X125444642Y-94392857D01*
X125587500Y-94535714D01*
X125730357Y-94607142D01*
X124301785Y-94321428D02*
X124230357Y-94250000D01*
X124087500Y-94178571D01*
X123730357Y-94178571D01*
X123587500Y-94250000D01*
X123516071Y-94321428D01*
X123444642Y-94464285D01*
X123444642Y-94607142D01*
X123516071Y-94821428D01*
X124373214Y-95678571D01*
X123444642Y-95678571D01*
X122516071Y-94178571D02*
X122373214Y-94178571D01*
X122230357Y-94250000D01*
X122158928Y-94321428D01*
X122087500Y-94464285D01*
X122016071Y-94750000D01*
X122016071Y-95107142D01*
X122087500Y-95392857D01*
X122158928Y-95535714D01*
X122230357Y-95607142D01*
X122373214Y-95678571D01*
X122516071Y-95678571D01*
X122658928Y-95607142D01*
X122730357Y-95535714D01*
X122801785Y-95392857D01*
X122873214Y-95107142D01*
X122873214Y-94750000D01*
X122801785Y-94464285D01*
X122730357Y-94321428D01*
X122658928Y-94250000D01*
X122516071Y-94178571D01*
X121373214Y-95107142D02*
X120230357Y-95107142D01*
X119230357Y-94178571D02*
X119087500Y-94178571D01*
X118944642Y-94250000D01*
X118873214Y-94321428D01*
X118801785Y-94464285D01*
X118730357Y-94750000D01*
X118730357Y-95107142D01*
X118801785Y-95392857D01*
X118873214Y-95535714D01*
X118944642Y-95607142D01*
X119087500Y-95678571D01*
X119230357Y-95678571D01*
X119373214Y-95607142D01*
X119444642Y-95535714D01*
X119516071Y-95392857D01*
X119587500Y-95107142D01*
X119587500Y-94750000D01*
X119516071Y-94464285D01*
X119444642Y-94321428D01*
X119373214Y-94250000D01*
X119230357Y-94178571D01*
X117373214Y-94178571D02*
X118087500Y-94178571D01*
X118158928Y-94892857D01*
X118087500Y-94821428D01*
X117944642Y-94750000D01*
X117587500Y-94750000D01*
X117444642Y-94821428D01*
X117373214Y-94892857D01*
X117301785Y-95035714D01*
X117301785Y-95392857D01*
X117373214Y-95535714D01*
X117444642Y-95607142D01*
X117587500Y-95678571D01*
X117944642Y-95678571D01*
X118087500Y-95607142D01*
X118158928Y-95535714D01*
X116658928Y-95107142D02*
X115516071Y-95107142D01*
X114873214Y-94321428D02*
X114801785Y-94250000D01*
X114658928Y-94178571D01*
X114301785Y-94178571D01*
X114158928Y-94250000D01*
X114087500Y-94321428D01*
X114016071Y-94464285D01*
X114016071Y-94607142D01*
X114087500Y-94821428D01*
X114944642Y-95678571D01*
X114016071Y-95678571D01*
X113516071Y-94178571D02*
X112587500Y-94178571D01*
X113087500Y-94750000D01*
X112873214Y-94750000D01*
X112730357Y-94821428D01*
X112658928Y-94892857D01*
X112587500Y-95035714D01*
X112587500Y-95392857D01*
X112658928Y-95535714D01*
X112730357Y-95607142D01*
X112873214Y-95678571D01*
X113301785Y-95678571D01*
X113444642Y-95607142D01*
X113516071Y-95535714D01*
X133087500Y-96678571D02*
X132730357Y-98178571D01*
X132444642Y-97107142D01*
X132158928Y-98178571D01*
X131801785Y-96678571D01*
X131230357Y-98178571D02*
X131230357Y-96678571D01*
X130587500Y-98178571D02*
X130587500Y-97392857D01*
X130658928Y-97250000D01*
X130801785Y-97178571D01*
X131016071Y-97178571D01*
X131158928Y-97250000D01*
X131230357Y-97321428D01*
X129230357Y-98178571D02*
X129230357Y-97392857D01*
X129301785Y-97250000D01*
X129444642Y-97178571D01*
X129730357Y-97178571D01*
X129873214Y-97250000D01*
X129230357Y-98107142D02*
X129373214Y-98178571D01*
X129730357Y-98178571D01*
X129873214Y-98107142D01*
X129944642Y-97964285D01*
X129944642Y-97821428D01*
X129873214Y-97678571D01*
X129730357Y-97607142D01*
X129373214Y-97607142D01*
X129230357Y-97535714D01*
X128730357Y-97178571D02*
X128158928Y-97178571D01*
X128516071Y-96678571D02*
X128516071Y-97964285D01*
X128444642Y-98107142D01*
X128301785Y-98178571D01*
X128158928Y-98178571D01*
X127730357Y-98107142D02*
X127587500Y-98178571D01*
X127301785Y-98178571D01*
X127158928Y-98107142D01*
X127087500Y-97964285D01*
X127087500Y-97892857D01*
X127158928Y-97750000D01*
X127301785Y-97678571D01*
X127516071Y-97678571D01*
X127658928Y-97607142D01*
X127730357Y-97464285D01*
X127730357Y-97392857D01*
X127658928Y-97250000D01*
X127516071Y-97178571D01*
X127301785Y-97178571D01*
X127158928Y-97250000D01*
X126516071Y-97750000D02*
X125801785Y-97750000D01*
X126658928Y-98178571D02*
X126158928Y-96678571D01*
X125658928Y-98178571D01*
X125158928Y-97178571D02*
X125158928Y-98678571D01*
X125158928Y-97250000D02*
X125016071Y-97178571D01*
X124730357Y-97178571D01*
X124587500Y-97250000D01*
X124516071Y-97321428D01*
X124444642Y-97464285D01*
X124444642Y-97892857D01*
X124516071Y-98035714D01*
X124587500Y-98107142D01*
X124730357Y-98178571D01*
X125016071Y-98178571D01*
X125158928Y-98107142D01*
X123801785Y-97178571D02*
X123801785Y-98678571D01*
X123801785Y-97250000D02*
X123658928Y-97178571D01*
X123373214Y-97178571D01*
X123230357Y-97250000D01*
X123158928Y-97321428D01*
X123087500Y-97464285D01*
X123087500Y-97892857D01*
X123158928Y-98035714D01*
X123230357Y-98107142D01*
X123373214Y-98178571D01*
X123658928Y-98178571D01*
X123801785Y-98107142D01*
X122373214Y-98107142D02*
X122373214Y-98178571D01*
X122444642Y-98321428D01*
X122516071Y-98392857D01*
X120801785Y-96678571D02*
X120301785Y-98178571D01*
X119801785Y-96678571D01*
X119301785Y-98178571D02*
X119301785Y-97178571D01*
X119301785Y-96678571D02*
X119373214Y-96750000D01*
X119301785Y-96821428D01*
X119230357Y-96750000D01*
X119301785Y-96678571D01*
X119301785Y-96821428D01*
X118587500Y-98178571D02*
X118587500Y-96678571D01*
X118587500Y-97250000D02*
X118444642Y-97178571D01*
X118158928Y-97178571D01*
X118016071Y-97250000D01*
X117944642Y-97321428D01*
X117873214Y-97464285D01*
X117873214Y-97892857D01*
X117944642Y-98035714D01*
X118016071Y-98107142D01*
X118158928Y-98178571D01*
X118444642Y-98178571D01*
X118587500Y-98107142D01*
X116658928Y-98107142D02*
X116801785Y-98178571D01*
X117087500Y-98178571D01*
X117230357Y-98107142D01*
X117301785Y-97964285D01*
X117301785Y-97392857D01*
X117230357Y-97250000D01*
X117087500Y-97178571D01*
X116801785Y-97178571D01*
X116658928Y-97250000D01*
X116587500Y-97392857D01*
X116587500Y-97535714D01*
X117301785Y-97678571D01*
X115944642Y-98178571D02*
X115944642Y-97178571D01*
X115944642Y-97464285D02*
X115873214Y-97321428D01*
X115801785Y-97250000D01*
X115658928Y-97178571D01*
X115516071Y-97178571D01*
D12*
G04 #@! TO.C,G\002A\002A\002A*
G36*
X103924919Y-67507230D02*
X103678563Y-67651912D01*
X103487826Y-67901317D01*
X103446700Y-67982863D01*
X103357763Y-68204435D01*
X103308280Y-68391970D01*
X103302626Y-68520464D01*
X103344880Y-68564941D01*
X103418783Y-68538398D01*
X103568115Y-68472465D01*
X103753095Y-68384995D01*
X103995743Y-68272304D01*
X104289530Y-68143252D01*
X104572717Y-68024931D01*
X104584707Y-68020098D01*
X104793919Y-67928292D01*
X104946245Y-67846643D01*
X105017794Y-67788585D01*
X105019056Y-67775846D01*
X104916416Y-67687002D01*
X104737517Y-67594506D01*
X104525229Y-67515633D01*
X104322422Y-67467660D01*
X104236904Y-67460657D01*
X103924919Y-67507230D01*
X103924919Y-67507230D01*
G37*
X103924919Y-67507230D02*
X103678563Y-67651912D01*
X103487826Y-67901317D01*
X103446700Y-67982863D01*
X103357763Y-68204435D01*
X103308280Y-68391970D01*
X103302626Y-68520464D01*
X103344880Y-68564941D01*
X103418783Y-68538398D01*
X103568115Y-68472465D01*
X103753095Y-68384995D01*
X103995743Y-68272304D01*
X104289530Y-68143252D01*
X104572717Y-68024931D01*
X104584707Y-68020098D01*
X104793919Y-67928292D01*
X104946245Y-67846643D01*
X105017794Y-67788585D01*
X105019056Y-67775846D01*
X104916416Y-67687002D01*
X104737517Y-67594506D01*
X104525229Y-67515633D01*
X104322422Y-67467660D01*
X104236904Y-67460657D01*
X103924919Y-67507230D01*
G36*
X110883793Y-67508275D02*
X110711064Y-67684634D01*
X110608914Y-67918836D01*
X110582244Y-68174254D01*
X110635955Y-68414263D01*
X110741468Y-68571945D01*
X110908171Y-68675074D01*
X111085281Y-68659104D01*
X111276013Y-68523711D01*
X111282585Y-68517195D01*
X111422846Y-68321317D01*
X111491227Y-68105201D01*
X111495849Y-67889398D01*
X111444836Y-67694459D01*
X111346312Y-67540933D01*
X111208398Y-67449371D01*
X111039217Y-67440323D01*
X110883793Y-67508275D01*
X110883793Y-67508275D01*
G37*
X110883793Y-67508275D02*
X110711064Y-67684634D01*
X110608914Y-67918836D01*
X110582244Y-68174254D01*
X110635955Y-68414263D01*
X110741468Y-68571945D01*
X110908171Y-68675074D01*
X111085281Y-68659104D01*
X111276013Y-68523711D01*
X111282585Y-68517195D01*
X111422846Y-68321317D01*
X111491227Y-68105201D01*
X111495849Y-67889398D01*
X111444836Y-67694459D01*
X111346312Y-67540933D01*
X111208398Y-67449371D01*
X111039217Y-67440323D01*
X110883793Y-67508275D01*
G36*
X105180855Y-68045238D02*
X105021356Y-68107489D01*
X104788911Y-68202066D01*
X104502599Y-68321230D01*
X104252023Y-68427173D01*
X103904667Y-68576152D01*
X103653605Y-68688208D01*
X103483330Y-68772563D01*
X103378331Y-68838439D01*
X103323101Y-68895058D01*
X103302130Y-68951643D01*
X103299523Y-68993558D01*
X103358350Y-69182398D01*
X103530792Y-69345437D01*
X103579233Y-69374703D01*
X103638031Y-69347232D01*
X103701043Y-69213656D01*
X103723182Y-69141933D01*
X103799088Y-68870825D01*
X103994896Y-68991841D01*
X104128135Y-69069975D01*
X104211443Y-69111032D01*
X104219351Y-69112857D01*
X104252496Y-69060867D01*
X104301739Y-68930262D01*
X104321630Y-68867093D01*
X104395262Y-68621329D01*
X104612733Y-68749640D01*
X104781301Y-68824679D01*
X104882123Y-68802481D01*
X104926696Y-68677190D01*
X104931454Y-68587260D01*
X104957565Y-68457613D01*
X105040953Y-68421280D01*
X105192913Y-68475724D01*
X105260357Y-68513369D01*
X105476666Y-68640995D01*
X105476666Y-68511066D01*
X105452633Y-68380857D01*
X105394319Y-68227000D01*
X105322401Y-68093686D01*
X105257557Y-68025108D01*
X105248327Y-68023052D01*
X105180855Y-68045238D01*
X105180855Y-68045238D01*
G37*
X105180855Y-68045238D02*
X105021356Y-68107489D01*
X104788911Y-68202066D01*
X104502599Y-68321230D01*
X104252023Y-68427173D01*
X103904667Y-68576152D01*
X103653605Y-68688208D01*
X103483330Y-68772563D01*
X103378331Y-68838439D01*
X103323101Y-68895058D01*
X103302130Y-68951643D01*
X103299523Y-68993558D01*
X103358350Y-69182398D01*
X103530792Y-69345437D01*
X103579233Y-69374703D01*
X103638031Y-69347232D01*
X103701043Y-69213656D01*
X103723182Y-69141933D01*
X103799088Y-68870825D01*
X103994896Y-68991841D01*
X104128135Y-69069975D01*
X104211443Y-69111032D01*
X104219351Y-69112857D01*
X104252496Y-69060867D01*
X104301739Y-68930262D01*
X104321630Y-68867093D01*
X104395262Y-68621329D01*
X104612733Y-68749640D01*
X104781301Y-68824679D01*
X104882123Y-68802481D01*
X104926696Y-68677190D01*
X104931454Y-68587260D01*
X104957565Y-68457613D01*
X105040953Y-68421280D01*
X105192913Y-68475724D01*
X105260357Y-68513369D01*
X105476666Y-68640995D01*
X105476666Y-68511066D01*
X105452633Y-68380857D01*
X105394319Y-68227000D01*
X105322401Y-68093686D01*
X105257557Y-68025108D01*
X105248327Y-68023052D01*
X105180855Y-68045238D01*
G36*
X105121543Y-68802721D02*
X105085392Y-68932558D01*
X105079456Y-68962335D01*
X105030010Y-69140052D01*
X104956980Y-69206503D01*
X104840188Y-69171326D01*
X104756323Y-69116681D01*
X104632575Y-69033856D01*
X104556751Y-68992857D01*
X104551799Y-68991905D01*
X104522565Y-69044534D01*
X104488610Y-69173947D01*
X104483197Y-69201450D01*
X104435270Y-69375107D01*
X104361286Y-69441800D01*
X104236104Y-69412199D01*
X104126346Y-69352882D01*
X103915789Y-69228649D01*
X103874483Y-69473134D01*
X103832620Y-69643544D01*
X103767588Y-69708356D01*
X103654501Y-69682910D01*
X103588023Y-69649714D01*
X103461140Y-69581808D01*
X103577434Y-69780930D01*
X103667493Y-69914066D01*
X103742453Y-69990344D01*
X103753649Y-69995438D01*
X103830749Y-69979228D01*
X103993031Y-69923427D01*
X104215040Y-69837319D01*
X104418333Y-69752944D01*
X104835088Y-69574443D01*
X105153014Y-69435608D01*
X105384946Y-69329627D01*
X105543718Y-69249686D01*
X105642167Y-69188973D01*
X105693129Y-69140675D01*
X105709437Y-69097978D01*
X105707301Y-69068760D01*
X105677187Y-68992983D01*
X105657267Y-68991062D01*
X105593033Y-68980518D01*
X105466538Y-68919140D01*
X105409052Y-68885229D01*
X105266295Y-68801713D01*
X105170255Y-68754173D01*
X105154768Y-68750000D01*
X105121543Y-68802721D01*
X105121543Y-68802721D01*
G37*
X105121543Y-68802721D02*
X105085392Y-68932558D01*
X105079456Y-68962335D01*
X105030010Y-69140052D01*
X104956980Y-69206503D01*
X104840188Y-69171326D01*
X104756323Y-69116681D01*
X104632575Y-69033856D01*
X104556751Y-68992857D01*
X104551799Y-68991905D01*
X104522565Y-69044534D01*
X104488610Y-69173947D01*
X104483197Y-69201450D01*
X104435270Y-69375107D01*
X104361286Y-69441800D01*
X104236104Y-69412199D01*
X104126346Y-69352882D01*
X103915789Y-69228649D01*
X103874483Y-69473134D01*
X103832620Y-69643544D01*
X103767588Y-69708356D01*
X103654501Y-69682910D01*
X103588023Y-69649714D01*
X103461140Y-69581808D01*
X103577434Y-69780930D01*
X103667493Y-69914066D01*
X103742453Y-69990344D01*
X103753649Y-69995438D01*
X103830749Y-69979228D01*
X103993031Y-69923427D01*
X104215040Y-69837319D01*
X104418333Y-69752944D01*
X104835088Y-69574443D01*
X105153014Y-69435608D01*
X105384946Y-69329627D01*
X105543718Y-69249686D01*
X105642167Y-69188973D01*
X105693129Y-69140675D01*
X105709437Y-69097978D01*
X105707301Y-69068760D01*
X105677187Y-68992983D01*
X105657267Y-68991062D01*
X105593033Y-68980518D01*
X105466538Y-68919140D01*
X105409052Y-68885229D01*
X105266295Y-68801713D01*
X105170255Y-68754173D01*
X105154768Y-68750000D01*
X105121543Y-68802721D01*
G36*
X119844097Y-70047608D02*
X119710181Y-70064023D01*
X119605000Y-70091134D01*
X119603633Y-70091593D01*
X119346069Y-70238271D01*
X119170039Y-70468884D01*
X119112445Y-70631015D01*
X119075147Y-70788458D01*
X119850550Y-70827781D01*
X120197888Y-70846002D01*
X120551509Y-70865580D01*
X120867327Y-70884020D01*
X121079523Y-70897360D01*
X121410867Y-70902897D01*
X121667780Y-70873056D01*
X121742667Y-70851784D01*
X121912637Y-70749880D01*
X122072162Y-70589539D01*
X122188316Y-70410559D01*
X122228571Y-70264471D01*
X122215764Y-70228961D01*
X122167299Y-70200079D01*
X122068108Y-70175599D01*
X121903126Y-70153295D01*
X121657285Y-70130941D01*
X121315518Y-70106310D01*
X121034166Y-70087984D01*
X120601783Y-70062077D01*
X120271545Y-70046682D01*
X120025101Y-70041843D01*
X119844097Y-70047608D01*
X119844097Y-70047608D01*
G37*
X119844097Y-70047608D02*
X119710181Y-70064023D01*
X119605000Y-70091134D01*
X119603633Y-70091593D01*
X119346069Y-70238271D01*
X119170039Y-70468884D01*
X119112445Y-70631015D01*
X119075147Y-70788458D01*
X119850550Y-70827781D01*
X120197888Y-70846002D01*
X120551509Y-70865580D01*
X120867327Y-70884020D01*
X121079523Y-70897360D01*
X121410867Y-70902897D01*
X121667780Y-70873056D01*
X121742667Y-70851784D01*
X121912637Y-70749880D01*
X122072162Y-70589539D01*
X122188316Y-70410559D01*
X122228571Y-70264471D01*
X122215764Y-70228961D01*
X122167299Y-70200079D01*
X122068108Y-70175599D01*
X121903126Y-70153295D01*
X121657285Y-70130941D01*
X121315518Y-70106310D01*
X121034166Y-70087984D01*
X120601783Y-70062077D01*
X120271545Y-70046682D01*
X120025101Y-70041843D01*
X119844097Y-70047608D01*
G36*
X105641695Y-69515262D02*
X105483322Y-69568453D01*
X105251108Y-69658120D01*
X104963003Y-69777077D01*
X104636958Y-69918136D01*
X104307271Y-70066600D01*
X103954304Y-70228666D01*
X104124643Y-70364490D01*
X104289935Y-70469410D01*
X104453825Y-70535166D01*
X104458312Y-70536187D01*
X104599528Y-70587552D01*
X104676334Y-70643768D01*
X104714092Y-70719580D01*
X104788234Y-70890273D01*
X104891352Y-71137982D01*
X105016038Y-71444840D01*
X105154886Y-71792983D01*
X105195030Y-71894762D01*
X105357257Y-72306757D01*
X105482188Y-72620809D01*
X105577031Y-72851439D01*
X105648995Y-73013171D01*
X105705286Y-73120527D01*
X105753114Y-73188031D01*
X105799687Y-73230206D01*
X105852212Y-73261574D01*
X105880905Y-73276661D01*
X105991987Y-73331628D01*
X106062742Y-73332642D01*
X106156813Y-73274618D01*
X106188924Y-73252047D01*
X106303026Y-73102841D01*
X106323333Y-72981418D01*
X106301633Y-72874056D01*
X106240967Y-72673981D01*
X106147982Y-72400502D01*
X106029328Y-72072927D01*
X105891652Y-71710565D01*
X105842249Y-71584284D01*
X105361165Y-70363635D01*
X105472564Y-70206937D01*
X105549870Y-70069691D01*
X105624604Y-69892482D01*
X105683921Y-69713529D01*
X105714972Y-69571051D01*
X105708274Y-69505734D01*
X105641695Y-69515262D01*
X105641695Y-69515262D01*
G37*
X105641695Y-69515262D02*
X105483322Y-69568453D01*
X105251108Y-69658120D01*
X104963003Y-69777077D01*
X104636958Y-69918136D01*
X104307271Y-70066600D01*
X103954304Y-70228666D01*
X104124643Y-70364490D01*
X104289935Y-70469410D01*
X104453825Y-70535166D01*
X104458312Y-70536187D01*
X104599528Y-70587552D01*
X104676334Y-70643768D01*
X104714092Y-70719580D01*
X104788234Y-70890273D01*
X104891352Y-71137982D01*
X105016038Y-71444840D01*
X105154886Y-71792983D01*
X105195030Y-71894762D01*
X105357257Y-72306757D01*
X105482188Y-72620809D01*
X105577031Y-72851439D01*
X105648995Y-73013171D01*
X105705286Y-73120527D01*
X105753114Y-73188031D01*
X105799687Y-73230206D01*
X105852212Y-73261574D01*
X105880905Y-73276661D01*
X105991987Y-73331628D01*
X106062742Y-73332642D01*
X106156813Y-73274618D01*
X106188924Y-73252047D01*
X106303026Y-73102841D01*
X106323333Y-72981418D01*
X106301633Y-72874056D01*
X106240967Y-72673981D01*
X106147982Y-72400502D01*
X106029328Y-72072927D01*
X105891652Y-71710565D01*
X105842249Y-71584284D01*
X105361165Y-70363635D01*
X105472564Y-70206937D01*
X105549870Y-70069691D01*
X105624604Y-69892482D01*
X105683921Y-69713529D01*
X105714972Y-69571051D01*
X105708274Y-69505734D01*
X105641695Y-69515262D01*
G36*
X93919997Y-68812471D02*
X93546679Y-68890780D01*
X93381169Y-68944601D01*
X93281716Y-68997948D01*
X93251748Y-69067122D01*
X93294692Y-69168420D01*
X93413975Y-69318141D01*
X93613026Y-69532584D01*
X93701037Y-69624758D01*
X93934210Y-69853582D01*
X94101677Y-69983068D01*
X94205479Y-70014074D01*
X94247659Y-69947460D01*
X94243083Y-69852799D01*
X94267124Y-69643310D01*
X94395787Y-69467998D01*
X94615422Y-69335723D01*
X94912376Y-69255349D01*
X95195714Y-69234373D01*
X95506491Y-69280884D01*
X95744148Y-69416529D01*
X95899099Y-69635049D01*
X95926768Y-69711595D01*
X95966529Y-69955033D01*
X95921782Y-70158099D01*
X95785268Y-70326910D01*
X95549728Y-70467585D01*
X95207903Y-70586242D01*
X94771280Y-70685448D01*
X94322599Y-70789083D01*
X93986821Y-70910916D01*
X93756458Y-71057518D01*
X93624021Y-71235462D01*
X93582021Y-71451320D01*
X93618890Y-71696833D01*
X93765132Y-72020726D01*
X94022418Y-72336992D01*
X94380849Y-72636479D01*
X94830526Y-72910032D01*
X95044523Y-73015130D01*
X95427582Y-73177811D01*
X95757017Y-73279262D01*
X96067571Y-73321949D01*
X96393983Y-73308337D01*
X96770994Y-73240892D01*
X97092789Y-73160514D01*
X97524047Y-73044883D01*
X97679642Y-73225775D01*
X97815346Y-73365738D01*
X97893588Y-73402089D01*
X97917142Y-73342747D01*
X97881745Y-73267263D01*
X97786336Y-73121731D01*
X97647092Y-72927025D01*
X97480187Y-72704016D01*
X97301796Y-72473577D01*
X97128095Y-72256582D01*
X96975260Y-72073901D01*
X96859465Y-71946408D01*
X96796885Y-71894975D01*
X96795018Y-71894762D01*
X96749046Y-71944698D01*
X96751254Y-72035287D01*
X96721302Y-72178618D01*
X96595497Y-72332290D01*
X96396650Y-72483225D01*
X96147572Y-72618346D01*
X95871073Y-72724575D01*
X95589965Y-72788835D01*
X95414055Y-72801905D01*
X95136083Y-72756822D01*
X94909495Y-72635754D01*
X94742859Y-72459972D01*
X94644743Y-72250747D01*
X94623718Y-72029351D01*
X94688352Y-71817054D01*
X94847213Y-71635129D01*
X94923571Y-71584343D01*
X95059831Y-71527986D01*
X95279936Y-71461058D01*
X95548555Y-71393633D01*
X95725648Y-71355662D01*
X96168001Y-71254271D01*
X96501702Y-71145527D01*
X96739049Y-71022848D01*
X96892340Y-70879647D01*
X96973872Y-70709341D01*
X96980027Y-70684028D01*
X96982611Y-70401650D01*
X96879155Y-70106020D01*
X96681718Y-69810000D01*
X96402361Y-69526453D01*
X96053143Y-69268243D01*
X95646122Y-69048233D01*
X95328183Y-68922106D01*
X94891278Y-68820106D01*
X94404381Y-68783253D01*
X93919997Y-68812471D01*
X93919997Y-68812471D01*
G37*
X93919997Y-68812471D02*
X93546679Y-68890780D01*
X93381169Y-68944601D01*
X93281716Y-68997948D01*
X93251748Y-69067122D01*
X93294692Y-69168420D01*
X93413975Y-69318141D01*
X93613026Y-69532584D01*
X93701037Y-69624758D01*
X93934210Y-69853582D01*
X94101677Y-69983068D01*
X94205479Y-70014074D01*
X94247659Y-69947460D01*
X94243083Y-69852799D01*
X94267124Y-69643310D01*
X94395787Y-69467998D01*
X94615422Y-69335723D01*
X94912376Y-69255349D01*
X95195714Y-69234373D01*
X95506491Y-69280884D01*
X95744148Y-69416529D01*
X95899099Y-69635049D01*
X95926768Y-69711595D01*
X95966529Y-69955033D01*
X95921782Y-70158099D01*
X95785268Y-70326910D01*
X95549728Y-70467585D01*
X95207903Y-70586242D01*
X94771280Y-70685448D01*
X94322599Y-70789083D01*
X93986821Y-70910916D01*
X93756458Y-71057518D01*
X93624021Y-71235462D01*
X93582021Y-71451320D01*
X93618890Y-71696833D01*
X93765132Y-72020726D01*
X94022418Y-72336992D01*
X94380849Y-72636479D01*
X94830526Y-72910032D01*
X95044523Y-73015130D01*
X95427582Y-73177811D01*
X95757017Y-73279262D01*
X96067571Y-73321949D01*
X96393983Y-73308337D01*
X96770994Y-73240892D01*
X97092789Y-73160514D01*
X97524047Y-73044883D01*
X97679642Y-73225775D01*
X97815346Y-73365738D01*
X97893588Y-73402089D01*
X97917142Y-73342747D01*
X97881745Y-73267263D01*
X97786336Y-73121731D01*
X97647092Y-72927025D01*
X97480187Y-72704016D01*
X97301796Y-72473577D01*
X97128095Y-72256582D01*
X96975260Y-72073901D01*
X96859465Y-71946408D01*
X96796885Y-71894975D01*
X96795018Y-71894762D01*
X96749046Y-71944698D01*
X96751254Y-72035287D01*
X96721302Y-72178618D01*
X96595497Y-72332290D01*
X96396650Y-72483225D01*
X96147572Y-72618346D01*
X95871073Y-72724575D01*
X95589965Y-72788835D01*
X95414055Y-72801905D01*
X95136083Y-72756822D01*
X94909495Y-72635754D01*
X94742859Y-72459972D01*
X94644743Y-72250747D01*
X94623718Y-72029351D01*
X94688352Y-71817054D01*
X94847213Y-71635129D01*
X94923571Y-71584343D01*
X95059831Y-71527986D01*
X95279936Y-71461058D01*
X95548555Y-71393633D01*
X95725648Y-71355662D01*
X96168001Y-71254271D01*
X96501702Y-71145527D01*
X96739049Y-71022848D01*
X96892340Y-70879647D01*
X96973872Y-70709341D01*
X96980027Y-70684028D01*
X96982611Y-70401650D01*
X96879155Y-70106020D01*
X96681718Y-69810000D01*
X96402361Y-69526453D01*
X96053143Y-69268243D01*
X95646122Y-69048233D01*
X95328183Y-68922106D01*
X94891278Y-68820106D01*
X94404381Y-68783253D01*
X93919997Y-68812471D01*
G36*
X100878224Y-66524303D02*
X100825916Y-66642358D01*
X100771406Y-66863717D01*
X100770424Y-67091989D01*
X100825056Y-67366900D01*
X100872505Y-67529853D01*
X100985486Y-67892863D01*
X100783571Y-67930743D01*
X100610382Y-67992187D01*
X100434872Y-68098454D01*
X100292516Y-68222607D01*
X100218790Y-68337709D01*
X100215238Y-68362281D01*
X100241369Y-68441324D01*
X100260595Y-68450743D01*
X100338622Y-68455027D01*
X100505199Y-68463608D01*
X100728069Y-68474829D01*
X100789732Y-68477899D01*
X101045885Y-68495874D01*
X101210785Y-68523914D01*
X101314108Y-68569641D01*
X101375965Y-68628453D01*
X101449443Y-68737275D01*
X101567993Y-68933725D01*
X101720806Y-69198163D01*
X101897069Y-69510950D01*
X102085972Y-69852445D01*
X102276705Y-70203007D01*
X102458457Y-70542998D01*
X102620417Y-70852776D01*
X102751774Y-71112702D01*
X102810484Y-71234595D01*
X102991856Y-71653041D01*
X103107388Y-72000820D01*
X103163693Y-72304121D01*
X103167381Y-72589130D01*
X103163652Y-72633517D01*
X103126406Y-72852714D01*
X103052557Y-73000938D01*
X102964804Y-73091194D01*
X102784595Y-73192227D01*
X102581624Y-73194696D01*
X102340323Y-73096708D01*
X102180714Y-72995910D01*
X102032778Y-72869751D01*
X101855082Y-72683969D01*
X101669547Y-72466005D01*
X101629516Y-72414007D01*
X100538544Y-72414007D01*
X100523905Y-72689022D01*
X100456349Y-72884634D01*
X100429586Y-72919894D01*
X100258092Y-73024878D01*
X100033733Y-73028266D01*
X99768035Y-72930849D01*
X99657485Y-72866840D01*
X99363150Y-72630370D01*
X99078595Y-72297480D01*
X98797271Y-71859506D01*
X98571018Y-71429445D01*
X98265540Y-70804018D01*
X98537332Y-70548080D01*
X98788663Y-70274045D01*
X98949535Y-69998902D01*
X99036697Y-69718062D01*
X99053019Y-69642372D01*
X98456112Y-69642372D01*
X98451360Y-69852106D01*
X98407700Y-70064496D01*
X98363823Y-70177170D01*
X98276049Y-70332355D01*
X98210843Y-70370802D01*
X98161115Y-70293029D01*
X98136369Y-70193869D01*
X98104689Y-69953984D01*
X98098405Y-69708045D01*
X98115663Y-69491703D01*
X98154608Y-69340607D01*
X98182878Y-69299603D01*
X98285341Y-69263911D01*
X98368262Y-69324795D01*
X98426799Y-69458776D01*
X98456112Y-69642372D01*
X99053019Y-69642372D01*
X99082247Y-69506839D01*
X99421957Y-69877787D01*
X99617465Y-70106694D01*
X99809960Y-70357425D01*
X99959322Y-70577585D01*
X99965185Y-70587260D01*
X100152045Y-70942419D01*
X100307017Y-71323797D01*
X100425894Y-71710271D01*
X100504472Y-72080715D01*
X100538544Y-72414007D01*
X101629516Y-72414007D01*
X101498094Y-72243298D01*
X101362645Y-72043286D01*
X101285120Y-71893409D01*
X101276849Y-71864524D01*
X101082092Y-71087872D01*
X100823969Y-70410797D01*
X100503219Y-69834487D01*
X100120579Y-69360133D01*
X99676787Y-68988924D01*
X99389240Y-68820126D01*
X99030227Y-68676087D01*
X98713864Y-68637398D01*
X98423239Y-68707593D01*
X98141443Y-68890205D01*
X97900858Y-69131148D01*
X97698097Y-69369137D01*
X97564217Y-69551540D01*
X97485036Y-69710698D01*
X97446378Y-69878949D01*
X97434061Y-70088633D01*
X97433333Y-70197453D01*
X97431159Y-70419893D01*
X97418448Y-70547623D01*
X97385917Y-70606878D01*
X97324284Y-70623894D01*
X97282142Y-70624762D01*
X97168430Y-70641345D01*
X97130952Y-70673143D01*
X97180531Y-70770168D01*
X97291510Y-70847985D01*
X97371233Y-70866667D01*
X97448306Y-70924464D01*
X97538985Y-71099083D01*
X97612604Y-71296196D01*
X97821716Y-71793827D01*
X98095554Y-72267820D01*
X98416312Y-72695012D01*
X98766185Y-73052239D01*
X99127365Y-73316337D01*
X99193672Y-73352965D01*
X99559205Y-73480532D01*
X99934055Y-73497390D01*
X100296378Y-73409700D01*
X100624333Y-73223623D01*
X100896076Y-72945319D01*
X100956642Y-72855702D01*
X101140915Y-72559268D01*
X101482083Y-72884686D01*
X101688197Y-73065579D01*
X101903475Y-73229696D01*
X102082044Y-73342120D01*
X102085294Y-73343790D01*
X102396732Y-73458478D01*
X102725822Y-73506041D01*
X103029404Y-73482849D01*
X103176772Y-73435555D01*
X103480070Y-73249463D01*
X103691745Y-73000922D01*
X103817820Y-72679088D01*
X103864322Y-72273116D01*
X103864763Y-72197143D01*
X103854857Y-71986318D01*
X103824479Y-71773925D01*
X103768008Y-71544790D01*
X103679825Y-71283738D01*
X103554308Y-70975594D01*
X103385838Y-70605182D01*
X103168795Y-70157329D01*
X102940529Y-69701684D01*
X102756135Y-69335102D01*
X102622377Y-69062239D01*
X102534028Y-68869534D01*
X102485864Y-68743426D01*
X102472659Y-68670353D01*
X102489187Y-68636755D01*
X102527220Y-68629048D01*
X102676724Y-68600159D01*
X102861448Y-68527670D01*
X103039198Y-68432844D01*
X103167780Y-68336943D01*
X103203601Y-68288192D01*
X103220994Y-68195194D01*
X103176606Y-68134801D01*
X103053851Y-68100659D01*
X102836144Y-68086416D01*
X102672513Y-68084762D01*
X102385527Y-68074886D01*
X102179083Y-68047041D01*
X102079903Y-68009167D01*
X102010955Y-67927020D01*
X101899769Y-67765806D01*
X101763789Y-67551656D01*
X101666151Y-67389286D01*
X101442101Y-67016225D01*
X101265476Y-66743909D01*
X101128526Y-66565449D01*
X101023501Y-66473954D01*
X100942650Y-66462535D01*
X100878224Y-66524303D01*
X100878224Y-66524303D01*
G37*
X100878224Y-66524303D02*
X100825916Y-66642358D01*
X100771406Y-66863717D01*
X100770424Y-67091989D01*
X100825056Y-67366900D01*
X100872505Y-67529853D01*
X100985486Y-67892863D01*
X100783571Y-67930743D01*
X100610382Y-67992187D01*
X100434872Y-68098454D01*
X100292516Y-68222607D01*
X100218790Y-68337709D01*
X100215238Y-68362281D01*
X100241369Y-68441324D01*
X100260595Y-68450743D01*
X100338622Y-68455027D01*
X100505199Y-68463608D01*
X100728069Y-68474829D01*
X100789732Y-68477899D01*
X101045885Y-68495874D01*
X101210785Y-68523914D01*
X101314108Y-68569641D01*
X101375965Y-68628453D01*
X101449443Y-68737275D01*
X101567993Y-68933725D01*
X101720806Y-69198163D01*
X101897069Y-69510950D01*
X102085972Y-69852445D01*
X102276705Y-70203007D01*
X102458457Y-70542998D01*
X102620417Y-70852776D01*
X102751774Y-71112702D01*
X102810484Y-71234595D01*
X102991856Y-71653041D01*
X103107388Y-72000820D01*
X103163693Y-72304121D01*
X103167381Y-72589130D01*
X103163652Y-72633517D01*
X103126406Y-72852714D01*
X103052557Y-73000938D01*
X102964804Y-73091194D01*
X102784595Y-73192227D01*
X102581624Y-73194696D01*
X102340323Y-73096708D01*
X102180714Y-72995910D01*
X102032778Y-72869751D01*
X101855082Y-72683969D01*
X101669547Y-72466005D01*
X101629516Y-72414007D01*
X100538544Y-72414007D01*
X100523905Y-72689022D01*
X100456349Y-72884634D01*
X100429586Y-72919894D01*
X100258092Y-73024878D01*
X100033733Y-73028266D01*
X99768035Y-72930849D01*
X99657485Y-72866840D01*
X99363150Y-72630370D01*
X99078595Y-72297480D01*
X98797271Y-71859506D01*
X98571018Y-71429445D01*
X98265540Y-70804018D01*
X98537332Y-70548080D01*
X98788663Y-70274045D01*
X98949535Y-69998902D01*
X99036697Y-69718062D01*
X99053019Y-69642372D01*
X98456112Y-69642372D01*
X98451360Y-69852106D01*
X98407700Y-70064496D01*
X98363823Y-70177170D01*
X98276049Y-70332355D01*
X98210843Y-70370802D01*
X98161115Y-70293029D01*
X98136369Y-70193869D01*
X98104689Y-69953984D01*
X98098405Y-69708045D01*
X98115663Y-69491703D01*
X98154608Y-69340607D01*
X98182878Y-69299603D01*
X98285341Y-69263911D01*
X98368262Y-69324795D01*
X98426799Y-69458776D01*
X98456112Y-69642372D01*
X99053019Y-69642372D01*
X99082247Y-69506839D01*
X99421957Y-69877787D01*
X99617465Y-70106694D01*
X99809960Y-70357425D01*
X99959322Y-70577585D01*
X99965185Y-70587260D01*
X100152045Y-70942419D01*
X100307017Y-71323797D01*
X100425894Y-71710271D01*
X100504472Y-72080715D01*
X100538544Y-72414007D01*
X101629516Y-72414007D01*
X101498094Y-72243298D01*
X101362645Y-72043286D01*
X101285120Y-71893409D01*
X101276849Y-71864524D01*
X101082092Y-71087872D01*
X100823969Y-70410797D01*
X100503219Y-69834487D01*
X100120579Y-69360133D01*
X99676787Y-68988924D01*
X99389240Y-68820126D01*
X99030227Y-68676087D01*
X98713864Y-68637398D01*
X98423239Y-68707593D01*
X98141443Y-68890205D01*
X97900858Y-69131148D01*
X97698097Y-69369137D01*
X97564217Y-69551540D01*
X97485036Y-69710698D01*
X97446378Y-69878949D01*
X97434061Y-70088633D01*
X97433333Y-70197453D01*
X97431159Y-70419893D01*
X97418448Y-70547623D01*
X97385917Y-70606878D01*
X97324284Y-70623894D01*
X97282142Y-70624762D01*
X97168430Y-70641345D01*
X97130952Y-70673143D01*
X97180531Y-70770168D01*
X97291510Y-70847985D01*
X97371233Y-70866667D01*
X97448306Y-70924464D01*
X97538985Y-71099083D01*
X97612604Y-71296196D01*
X97821716Y-71793827D01*
X98095554Y-72267820D01*
X98416312Y-72695012D01*
X98766185Y-73052239D01*
X99127365Y-73316337D01*
X99193672Y-73352965D01*
X99559205Y-73480532D01*
X99934055Y-73497390D01*
X100296378Y-73409700D01*
X100624333Y-73223623D01*
X100896076Y-72945319D01*
X100956642Y-72855702D01*
X101140915Y-72559268D01*
X101482083Y-72884686D01*
X101688197Y-73065579D01*
X101903475Y-73229696D01*
X102082044Y-73342120D01*
X102085294Y-73343790D01*
X102396732Y-73458478D01*
X102725822Y-73506041D01*
X103029404Y-73482849D01*
X103176772Y-73435555D01*
X103480070Y-73249463D01*
X103691745Y-73000922D01*
X103817820Y-72679088D01*
X103864322Y-72273116D01*
X103864763Y-72197143D01*
X103854857Y-71986318D01*
X103824479Y-71773925D01*
X103768008Y-71544790D01*
X103679825Y-71283738D01*
X103554308Y-70975594D01*
X103385838Y-70605182D01*
X103168795Y-70157329D01*
X102940529Y-69701684D01*
X102756135Y-69335102D01*
X102622377Y-69062239D01*
X102534028Y-68869534D01*
X102485864Y-68743426D01*
X102472659Y-68670353D01*
X102489187Y-68636755D01*
X102527220Y-68629048D01*
X102676724Y-68600159D01*
X102861448Y-68527670D01*
X103039198Y-68432844D01*
X103167780Y-68336943D01*
X103203601Y-68288192D01*
X103220994Y-68195194D01*
X103176606Y-68134801D01*
X103053851Y-68100659D01*
X102836144Y-68086416D01*
X102672513Y-68084762D01*
X102385527Y-68074886D01*
X102179083Y-68047041D01*
X102079903Y-68009167D01*
X102010955Y-67927020D01*
X101899769Y-67765806D01*
X101763789Y-67551656D01*
X101666151Y-67389286D01*
X101442101Y-67016225D01*
X101265476Y-66743909D01*
X101128526Y-66565449D01*
X101023501Y-66473954D01*
X100942650Y-66462535D01*
X100878224Y-66524303D01*
G36*
X107402553Y-65416695D02*
X107379495Y-65446789D01*
X107282018Y-65647361D01*
X107254307Y-65894620D01*
X107298515Y-66196978D01*
X107416792Y-66562851D01*
X107611289Y-67000652D01*
X107884158Y-67518794D01*
X107930278Y-67600952D01*
X108108094Y-67915561D01*
X108281612Y-68222565D01*
X108434417Y-68492918D01*
X108550092Y-68697573D01*
X108579725Y-68750000D01*
X108678872Y-68928036D01*
X108720652Y-69017324D01*
X108707859Y-69034042D01*
X108643290Y-68994371D01*
X108618985Y-68977256D01*
X108210599Y-68712474D01*
X107848756Y-68527722D01*
X107543406Y-68427164D01*
X107304501Y-68414965D01*
X107284442Y-68418811D01*
X107095611Y-68515140D01*
X106915073Y-68701087D01*
X106759423Y-68945606D01*
X106645253Y-69217647D01*
X106589160Y-69486162D01*
X106601451Y-69696705D01*
X106743180Y-70055751D01*
X106991622Y-70390306D01*
X107350667Y-70704100D01*
X107824206Y-71000861D01*
X108118389Y-71150352D01*
X108673683Y-71414753D01*
X108642840Y-71639638D01*
X108560879Y-72055195D01*
X108440088Y-72422496D01*
X108289340Y-72725939D01*
X108117505Y-72949923D01*
X107933456Y-73078847D01*
X107809974Y-73104286D01*
X107568061Y-73047830D01*
X107305991Y-72885825D01*
X107035789Y-72629316D01*
X106769480Y-72289347D01*
X106565238Y-71961011D01*
X106401607Y-71678450D01*
X106281211Y-71493508D01*
X106194314Y-71395068D01*
X106131183Y-71372012D01*
X106083583Y-71410952D01*
X106033352Y-71587230D01*
X106062355Y-71822341D01*
X106159173Y-72095044D01*
X106312391Y-72384097D01*
X106510590Y-72668260D01*
X106742353Y-72926291D01*
X106996263Y-73136949D01*
X107019891Y-73152911D01*
X107424732Y-73361487D01*
X107822645Y-73454894D01*
X108202832Y-73438858D01*
X108554496Y-73319100D01*
X108866839Y-73101344D01*
X109129063Y-72791314D01*
X109330372Y-72394731D01*
X109459966Y-71917320D01*
X109470304Y-71854094D01*
X109515046Y-71485129D01*
X109518823Y-71215903D01*
X109479759Y-71031695D01*
X109395979Y-70917782D01*
X109347142Y-70887426D01*
X109226549Y-70829230D01*
X109030249Y-70735164D01*
X108791776Y-70621283D01*
X108670689Y-70563588D01*
X108310245Y-70364338D01*
X107959315Y-70120691D01*
X107643982Y-69854600D01*
X107390334Y-69588015D01*
X107227651Y-69349225D01*
X107135641Y-69138289D01*
X107119084Y-68998071D01*
X107178061Y-68904698D01*
X107229235Y-68871616D01*
X107412555Y-68837811D01*
X107653841Y-68888601D01*
X107936346Y-69013462D01*
X108243325Y-69201870D01*
X108558034Y-69443300D01*
X108863728Y-69727227D01*
X109143662Y-70043127D01*
X109192149Y-70105360D01*
X109464309Y-70502193D01*
X109755048Y-70999251D01*
X110055059Y-71579065D01*
X110355038Y-72224166D01*
X110499697Y-72560000D01*
X110623329Y-72846409D01*
X110737853Y-73097222D01*
X110831942Y-73288613D01*
X110894268Y-73396757D01*
X110902266Y-73406667D01*
X110975878Y-73462526D01*
X111040398Y-73423430D01*
X111073641Y-73381041D01*
X111146149Y-73238431D01*
X111197685Y-73063236D01*
X111235480Y-72861771D01*
X111452405Y-73052234D01*
X111759860Y-73264765D01*
X112113862Y-73417345D01*
X112479886Y-73500675D01*
X112823408Y-73505461D01*
X112998737Y-73468584D01*
X113262062Y-73327178D01*
X113444533Y-73101605D01*
X113544538Y-72799077D01*
X113560462Y-72426809D01*
X113490691Y-71992014D01*
X113398874Y-71680024D01*
X113290152Y-71397259D01*
X113143662Y-71067611D01*
X112968799Y-70707565D01*
X112774956Y-70333606D01*
X112571528Y-69962220D01*
X112367909Y-69609891D01*
X112173495Y-69293105D01*
X111997679Y-69028347D01*
X111849857Y-68832103D01*
X111739422Y-68720856D01*
X111702011Y-68702407D01*
X111597628Y-68738474D01*
X111513562Y-68873427D01*
X111458256Y-69085783D01*
X111440153Y-69354061D01*
X111440368Y-69368130D01*
X111442995Y-69474356D01*
X111450304Y-69568762D01*
X111468100Y-69664859D01*
X111502190Y-69776157D01*
X111558380Y-69916166D01*
X111642476Y-70098397D01*
X111760283Y-70336358D01*
X111917607Y-70643560D01*
X112120256Y-71033514D01*
X112323088Y-71422140D01*
X112569149Y-71926014D01*
X112734603Y-72341574D01*
X112819611Y-72670537D01*
X112824333Y-72914622D01*
X112748933Y-73075545D01*
X112593570Y-73155026D01*
X112486898Y-73164762D01*
X112236030Y-73107735D01*
X111964894Y-72943170D01*
X111682669Y-72680843D01*
X111398537Y-72330528D01*
X111121678Y-71902000D01*
X110889285Y-71463696D01*
X110440987Y-70544930D01*
X110011493Y-69682310D01*
X109603958Y-68881561D01*
X109221534Y-68148407D01*
X108867373Y-67488573D01*
X108544628Y-66907783D01*
X108256452Y-66411762D01*
X108005998Y-66006234D01*
X107796417Y-65696924D01*
X107630863Y-65489557D01*
X107562910Y-65423656D01*
X107472698Y-65370936D01*
X107402553Y-65416695D01*
X107402553Y-65416695D01*
G37*
X107402553Y-65416695D02*
X107379495Y-65446789D01*
X107282018Y-65647361D01*
X107254307Y-65894620D01*
X107298515Y-66196978D01*
X107416792Y-66562851D01*
X107611289Y-67000652D01*
X107884158Y-67518794D01*
X107930278Y-67600952D01*
X108108094Y-67915561D01*
X108281612Y-68222565D01*
X108434417Y-68492918D01*
X108550092Y-68697573D01*
X108579725Y-68750000D01*
X108678872Y-68928036D01*
X108720652Y-69017324D01*
X108707859Y-69034042D01*
X108643290Y-68994371D01*
X108618985Y-68977256D01*
X108210599Y-68712474D01*
X107848756Y-68527722D01*
X107543406Y-68427164D01*
X107304501Y-68414965D01*
X107284442Y-68418811D01*
X107095611Y-68515140D01*
X106915073Y-68701087D01*
X106759423Y-68945606D01*
X106645253Y-69217647D01*
X106589160Y-69486162D01*
X106601451Y-69696705D01*
X106743180Y-70055751D01*
X106991622Y-70390306D01*
X107350667Y-70704100D01*
X107824206Y-71000861D01*
X108118389Y-71150352D01*
X108673683Y-71414753D01*
X108642840Y-71639638D01*
X108560879Y-72055195D01*
X108440088Y-72422496D01*
X108289340Y-72725939D01*
X108117505Y-72949923D01*
X107933456Y-73078847D01*
X107809974Y-73104286D01*
X107568061Y-73047830D01*
X107305991Y-72885825D01*
X107035789Y-72629316D01*
X106769480Y-72289347D01*
X106565238Y-71961011D01*
X106401607Y-71678450D01*
X106281211Y-71493508D01*
X106194314Y-71395068D01*
X106131183Y-71372012D01*
X106083583Y-71410952D01*
X106033352Y-71587230D01*
X106062355Y-71822341D01*
X106159173Y-72095044D01*
X106312391Y-72384097D01*
X106510590Y-72668260D01*
X106742353Y-72926291D01*
X106996263Y-73136949D01*
X107019891Y-73152911D01*
X107424732Y-73361487D01*
X107822645Y-73454894D01*
X108202832Y-73438858D01*
X108554496Y-73319100D01*
X108866839Y-73101344D01*
X109129063Y-72791314D01*
X109330372Y-72394731D01*
X109459966Y-71917320D01*
X109470304Y-71854094D01*
X109515046Y-71485129D01*
X109518823Y-71215903D01*
X109479759Y-71031695D01*
X109395979Y-70917782D01*
X109347142Y-70887426D01*
X109226549Y-70829230D01*
X109030249Y-70735164D01*
X108791776Y-70621283D01*
X108670689Y-70563588D01*
X108310245Y-70364338D01*
X107959315Y-70120691D01*
X107643982Y-69854600D01*
X107390334Y-69588015D01*
X107227651Y-69349225D01*
X107135641Y-69138289D01*
X107119084Y-68998071D01*
X107178061Y-68904698D01*
X107229235Y-68871616D01*
X107412555Y-68837811D01*
X107653841Y-68888601D01*
X107936346Y-69013462D01*
X108243325Y-69201870D01*
X108558034Y-69443300D01*
X108863728Y-69727227D01*
X109143662Y-70043127D01*
X109192149Y-70105360D01*
X109464309Y-70502193D01*
X109755048Y-70999251D01*
X110055059Y-71579065D01*
X110355038Y-72224166D01*
X110499697Y-72560000D01*
X110623329Y-72846409D01*
X110737853Y-73097222D01*
X110831942Y-73288613D01*
X110894268Y-73396757D01*
X110902266Y-73406667D01*
X110975878Y-73462526D01*
X111040398Y-73423430D01*
X111073641Y-73381041D01*
X111146149Y-73238431D01*
X111197685Y-73063236D01*
X111235480Y-72861771D01*
X111452405Y-73052234D01*
X111759860Y-73264765D01*
X112113862Y-73417345D01*
X112479886Y-73500675D01*
X112823408Y-73505461D01*
X112998737Y-73468584D01*
X113262062Y-73327178D01*
X113444533Y-73101605D01*
X113544538Y-72799077D01*
X113560462Y-72426809D01*
X113490691Y-71992014D01*
X113398874Y-71680024D01*
X113290152Y-71397259D01*
X113143662Y-71067611D01*
X112968799Y-70707565D01*
X112774956Y-70333606D01*
X112571528Y-69962220D01*
X112367909Y-69609891D01*
X112173495Y-69293105D01*
X111997679Y-69028347D01*
X111849857Y-68832103D01*
X111739422Y-68720856D01*
X111702011Y-68702407D01*
X111597628Y-68738474D01*
X111513562Y-68873427D01*
X111458256Y-69085783D01*
X111440153Y-69354061D01*
X111440368Y-69368130D01*
X111442995Y-69474356D01*
X111450304Y-69568762D01*
X111468100Y-69664859D01*
X111502190Y-69776157D01*
X111558380Y-69916166D01*
X111642476Y-70098397D01*
X111760283Y-70336358D01*
X111917607Y-70643560D01*
X112120256Y-71033514D01*
X112323088Y-71422140D01*
X112569149Y-71926014D01*
X112734603Y-72341574D01*
X112819611Y-72670537D01*
X112824333Y-72914622D01*
X112748933Y-73075545D01*
X112593570Y-73155026D01*
X112486898Y-73164762D01*
X112236030Y-73107735D01*
X111964894Y-72943170D01*
X111682669Y-72680843D01*
X111398537Y-72330528D01*
X111121678Y-71902000D01*
X110889285Y-71463696D01*
X110440987Y-70544930D01*
X110011493Y-69682310D01*
X109603958Y-68881561D01*
X109221534Y-68148407D01*
X108867373Y-67488573D01*
X108544628Y-66907783D01*
X108256452Y-66411762D01*
X108005998Y-66006234D01*
X107796417Y-65696924D01*
X107630863Y-65489557D01*
X107562910Y-65423656D01*
X107472698Y-65370936D01*
X107402553Y-65416695D01*
G36*
X112057539Y-65892727D02*
X111971116Y-66000134D01*
X111913269Y-66127457D01*
X111892045Y-66297402D01*
X111902003Y-66540954D01*
X111913203Y-66657391D01*
X111930786Y-66766923D01*
X111960589Y-66881873D01*
X112008450Y-67014563D01*
X112080203Y-67177315D01*
X112181685Y-67382452D01*
X112318734Y-67642296D01*
X112497186Y-67969170D01*
X112722876Y-68375396D01*
X113001642Y-68873295D01*
X113034248Y-68931429D01*
X113185232Y-69207431D01*
X113378033Y-69570501D01*
X113601469Y-69998981D01*
X113844360Y-70471216D01*
X114095527Y-70965548D01*
X114343787Y-71460321D01*
X114445328Y-71664718D01*
X114663844Y-72101936D01*
X114868028Y-72502676D01*
X115051212Y-72854448D01*
X115206730Y-73144761D01*
X115327913Y-73361126D01*
X115408095Y-73491051D01*
X115438014Y-73524360D01*
X115524192Y-73489078D01*
X115657785Y-73396041D01*
X115725453Y-73339770D01*
X115877738Y-73165302D01*
X115992236Y-72933775D01*
X116074768Y-72627004D01*
X116131153Y-72226803D01*
X116149232Y-72015714D01*
X116158281Y-71759526D01*
X116156953Y-71409080D01*
X116146478Y-70990512D01*
X116128085Y-70529958D01*
X116103005Y-70053554D01*
X116072466Y-69587437D01*
X116037698Y-69157742D01*
X115999932Y-68790605D01*
X115995955Y-68757667D01*
X115970270Y-68524484D01*
X115955692Y-68341903D01*
X115954350Y-68239279D01*
X115957513Y-68227566D01*
X115994480Y-68268410D01*
X116079183Y-68402462D01*
X116203865Y-68615457D01*
X116360770Y-68893131D01*
X116542144Y-69221219D01*
X116740229Y-69585458D01*
X116947271Y-69971583D01*
X117155514Y-70365330D01*
X117357202Y-70752433D01*
X117544579Y-71118629D01*
X117709890Y-71449654D01*
X117714410Y-71458857D01*
X117891010Y-71825738D01*
X118062206Y-72194229D01*
X118215179Y-72535800D01*
X118337112Y-72821924D01*
X118406123Y-72998416D01*
X118493583Y-73223561D01*
X118573797Y-73400313D01*
X118633716Y-73500979D01*
X118648870Y-73513671D01*
X118724272Y-73484305D01*
X118809755Y-73387833D01*
X118896387Y-73214403D01*
X118941632Y-73012921D01*
X118942849Y-72774230D01*
X118897398Y-72489172D01*
X118802637Y-72148590D01*
X118655926Y-71743327D01*
X118454623Y-71264225D01*
X118196089Y-70702128D01*
X117877682Y-70047877D01*
X117803821Y-69899635D01*
X117552226Y-69402884D01*
X117289605Y-68896120D01*
X117022721Y-68391429D01*
X116758340Y-67900897D01*
X116503225Y-67436610D01*
X116264141Y-67010655D01*
X116047852Y-66635118D01*
X115861122Y-66322084D01*
X115710716Y-66083641D01*
X115603398Y-65931874D01*
X115555440Y-65882314D01*
X115479257Y-65859209D01*
X115391913Y-65897822D01*
X115266223Y-66012862D01*
X115215164Y-66066405D01*
X115090927Y-66215532D01*
X115004307Y-66369781D01*
X114952989Y-66549353D01*
X114934656Y-66774449D01*
X114946991Y-67065270D01*
X114987678Y-67442017D01*
X115025324Y-67721905D01*
X115061885Y-68005212D01*
X115101453Y-68351607D01*
X115142639Y-68744575D01*
X115184057Y-69167603D01*
X115224317Y-69604177D01*
X115262032Y-70037783D01*
X115295814Y-70451907D01*
X115324275Y-70830035D01*
X115346026Y-71155654D01*
X115359680Y-71412249D01*
X115363849Y-71583307D01*
X115357144Y-71652314D01*
X115355740Y-71652967D01*
X115327596Y-71601222D01*
X115253288Y-71455984D01*
X115140317Y-71232157D01*
X114996185Y-70944643D01*
X114828396Y-70608345D01*
X114708753Y-70367738D01*
X114471019Y-69896794D01*
X114215687Y-69404809D01*
X113949304Y-68903245D01*
X113678418Y-68403563D01*
X113409574Y-67917227D01*
X113149318Y-67455696D01*
X112904198Y-67030434D01*
X112680760Y-66652901D01*
X112485550Y-66334560D01*
X112325115Y-66086873D01*
X112206002Y-65921300D01*
X112134755Y-65849304D01*
X112126779Y-65847143D01*
X112057539Y-65892727D01*
X112057539Y-65892727D01*
G37*
X112057539Y-65892727D02*
X111971116Y-66000134D01*
X111913269Y-66127457D01*
X111892045Y-66297402D01*
X111902003Y-66540954D01*
X111913203Y-66657391D01*
X111930786Y-66766923D01*
X111960589Y-66881873D01*
X112008450Y-67014563D01*
X112080203Y-67177315D01*
X112181685Y-67382452D01*
X112318734Y-67642296D01*
X112497186Y-67969170D01*
X112722876Y-68375396D01*
X113001642Y-68873295D01*
X113034248Y-68931429D01*
X113185232Y-69207431D01*
X113378033Y-69570501D01*
X113601469Y-69998981D01*
X113844360Y-70471216D01*
X114095527Y-70965548D01*
X114343787Y-71460321D01*
X114445328Y-71664718D01*
X114663844Y-72101936D01*
X114868028Y-72502676D01*
X115051212Y-72854448D01*
X115206730Y-73144761D01*
X115327913Y-73361126D01*
X115408095Y-73491051D01*
X115438014Y-73524360D01*
X115524192Y-73489078D01*
X115657785Y-73396041D01*
X115725453Y-73339770D01*
X115877738Y-73165302D01*
X115992236Y-72933775D01*
X116074768Y-72627004D01*
X116131153Y-72226803D01*
X116149232Y-72015714D01*
X116158281Y-71759526D01*
X116156953Y-71409080D01*
X116146478Y-70990512D01*
X116128085Y-70529958D01*
X116103005Y-70053554D01*
X116072466Y-69587437D01*
X116037698Y-69157742D01*
X115999932Y-68790605D01*
X115995955Y-68757667D01*
X115970270Y-68524484D01*
X115955692Y-68341903D01*
X115954350Y-68239279D01*
X115957513Y-68227566D01*
X115994480Y-68268410D01*
X116079183Y-68402462D01*
X116203865Y-68615457D01*
X116360770Y-68893131D01*
X116542144Y-69221219D01*
X116740229Y-69585458D01*
X116947271Y-69971583D01*
X117155514Y-70365330D01*
X117357202Y-70752433D01*
X117544579Y-71118629D01*
X117709890Y-71449654D01*
X117714410Y-71458857D01*
X117891010Y-71825738D01*
X118062206Y-72194229D01*
X118215179Y-72535800D01*
X118337112Y-72821924D01*
X118406123Y-72998416D01*
X118493583Y-73223561D01*
X118573797Y-73400313D01*
X118633716Y-73500979D01*
X118648870Y-73513671D01*
X118724272Y-73484305D01*
X118809755Y-73387833D01*
X118896387Y-73214403D01*
X118941632Y-73012921D01*
X118942849Y-72774230D01*
X118897398Y-72489172D01*
X118802637Y-72148590D01*
X118655926Y-71743327D01*
X118454623Y-71264225D01*
X118196089Y-70702128D01*
X117877682Y-70047877D01*
X117803821Y-69899635D01*
X117552226Y-69402884D01*
X117289605Y-68896120D01*
X117022721Y-68391429D01*
X116758340Y-67900897D01*
X116503225Y-67436610D01*
X116264141Y-67010655D01*
X116047852Y-66635118D01*
X115861122Y-66322084D01*
X115710716Y-66083641D01*
X115603398Y-65931874D01*
X115555440Y-65882314D01*
X115479257Y-65859209D01*
X115391913Y-65897822D01*
X115266223Y-66012862D01*
X115215164Y-66066405D01*
X115090927Y-66215532D01*
X115004307Y-66369781D01*
X114952989Y-66549353D01*
X114934656Y-66774449D01*
X114946991Y-67065270D01*
X114987678Y-67442017D01*
X115025324Y-67721905D01*
X115061885Y-68005212D01*
X115101453Y-68351607D01*
X115142639Y-68744575D01*
X115184057Y-69167603D01*
X115224317Y-69604177D01*
X115262032Y-70037783D01*
X115295814Y-70451907D01*
X115324275Y-70830035D01*
X115346026Y-71155654D01*
X115359680Y-71412249D01*
X115363849Y-71583307D01*
X115357144Y-71652314D01*
X115355740Y-71652967D01*
X115327596Y-71601222D01*
X115253288Y-71455984D01*
X115140317Y-71232157D01*
X114996185Y-70944643D01*
X114828396Y-70608345D01*
X114708753Y-70367738D01*
X114471019Y-69896794D01*
X114215687Y-69404809D01*
X113949304Y-68903245D01*
X113678418Y-68403563D01*
X113409574Y-67917227D01*
X113149318Y-67455696D01*
X112904198Y-67030434D01*
X112680760Y-66652901D01*
X112485550Y-66334560D01*
X112325115Y-66086873D01*
X112206002Y-65921300D01*
X112134755Y-65849304D01*
X112126779Y-65847143D01*
X112057539Y-65892727D01*
G36*
X121697427Y-65906615D02*
X121651457Y-65933993D01*
X121498628Y-66089593D01*
X121368684Y-66319807D01*
X121283541Y-66578304D01*
X121262280Y-66756699D01*
X121303173Y-67131692D01*
X121424558Y-67567703D01*
X121618218Y-68043530D01*
X121875933Y-68537973D01*
X122082293Y-68872064D01*
X122309396Y-69183029D01*
X122600705Y-69532388D01*
X122928578Y-69890854D01*
X123265369Y-70229137D01*
X123583437Y-70517950D01*
X123792571Y-70684112D01*
X123979281Y-70826498D01*
X124101341Y-70947447D01*
X124187016Y-71086742D01*
X124264568Y-71284165D01*
X124305520Y-71406133D01*
X124454410Y-71922727D01*
X124535210Y-72356228D01*
X124549375Y-72703420D01*
X124498361Y-72961087D01*
X124383620Y-73126012D01*
X124206608Y-73194980D01*
X123968779Y-73164772D01*
X123671587Y-73032174D01*
X123591692Y-72984821D01*
X123385026Y-72825732D01*
X123143889Y-72591319D01*
X122894530Y-72310867D01*
X122663198Y-72013657D01*
X122495933Y-71762420D01*
X122329341Y-71502150D01*
X122206149Y-71351467D01*
X122121545Y-71309031D01*
X122070718Y-71373501D01*
X122048857Y-71543535D01*
X122047142Y-71637332D01*
X122086658Y-71938529D01*
X122211782Y-72232179D01*
X122432383Y-72536334D01*
X122680207Y-72795487D01*
X123067587Y-73111717D01*
X123473200Y-73341014D01*
X123879559Y-73477181D01*
X124269177Y-73514023D01*
X124568078Y-73464496D01*
X124852974Y-73318541D01*
X125061775Y-73082599D01*
X125192736Y-72762078D01*
X125244115Y-72362393D01*
X125214167Y-71888953D01*
X125165039Y-71611454D01*
X124939117Y-70769207D01*
X124772862Y-70319516D01*
X123861428Y-70319516D01*
X123825172Y-70328968D01*
X123726323Y-70260529D01*
X123579758Y-70129196D01*
X123400355Y-69949962D01*
X123202990Y-69737824D01*
X123002542Y-69507777D01*
X122813888Y-69274816D01*
X122776302Y-69225794D01*
X122430421Y-68729350D01*
X122131934Y-68220836D01*
X121899788Y-67734195D01*
X121808550Y-67492054D01*
X121733912Y-67233448D01*
X121717371Y-67079338D01*
X121757405Y-67028980D01*
X121852495Y-67081630D01*
X122001122Y-67236544D01*
X122201765Y-67492979D01*
X122409338Y-67786214D01*
X122559473Y-68013965D01*
X122735605Y-68294839D01*
X122927563Y-68611093D01*
X123125177Y-68944984D01*
X123318277Y-69278768D01*
X123496693Y-69594704D01*
X123650254Y-69875047D01*
X123768790Y-70102056D01*
X123842130Y-70257987D01*
X123861428Y-70319516D01*
X124772862Y-70319516D01*
X124616093Y-69895487D01*
X124207322Y-69012354D01*
X123724159Y-68141873D01*
X123177961Y-67306105D01*
X122580084Y-66527113D01*
X122498045Y-66429863D01*
X122263374Y-66165124D01*
X122082118Y-65989884D01*
X121938135Y-65894689D01*
X121815285Y-65870084D01*
X121697427Y-65906615D01*
X121697427Y-65906615D01*
G37*
X121697427Y-65906615D02*
X121651457Y-65933993D01*
X121498628Y-66089593D01*
X121368684Y-66319807D01*
X121283541Y-66578304D01*
X121262280Y-66756699D01*
X121303173Y-67131692D01*
X121424558Y-67567703D01*
X121618218Y-68043530D01*
X121875933Y-68537973D01*
X122082293Y-68872064D01*
X122309396Y-69183029D01*
X122600705Y-69532388D01*
X122928578Y-69890854D01*
X123265369Y-70229137D01*
X123583437Y-70517950D01*
X123792571Y-70684112D01*
X123979281Y-70826498D01*
X124101341Y-70947447D01*
X124187016Y-71086742D01*
X124264568Y-71284165D01*
X124305520Y-71406133D01*
X124454410Y-71922727D01*
X124535210Y-72356228D01*
X124549375Y-72703420D01*
X124498361Y-72961087D01*
X124383620Y-73126012D01*
X124206608Y-73194980D01*
X123968779Y-73164772D01*
X123671587Y-73032174D01*
X123591692Y-72984821D01*
X123385026Y-72825732D01*
X123143889Y-72591319D01*
X122894530Y-72310867D01*
X122663198Y-72013657D01*
X122495933Y-71762420D01*
X122329341Y-71502150D01*
X122206149Y-71351467D01*
X122121545Y-71309031D01*
X122070718Y-71373501D01*
X122048857Y-71543535D01*
X122047142Y-71637332D01*
X122086658Y-71938529D01*
X122211782Y-72232179D01*
X122432383Y-72536334D01*
X122680207Y-72795487D01*
X123067587Y-73111717D01*
X123473200Y-73341014D01*
X123879559Y-73477181D01*
X124269177Y-73514023D01*
X124568078Y-73464496D01*
X124852974Y-73318541D01*
X125061775Y-73082599D01*
X125192736Y-72762078D01*
X125244115Y-72362393D01*
X125214167Y-71888953D01*
X125165039Y-71611454D01*
X124939117Y-70769207D01*
X124772862Y-70319516D01*
X123861428Y-70319516D01*
X123825172Y-70328968D01*
X123726323Y-70260529D01*
X123579758Y-70129196D01*
X123400355Y-69949962D01*
X123202990Y-69737824D01*
X123002542Y-69507777D01*
X122813888Y-69274816D01*
X122776302Y-69225794D01*
X122430421Y-68729350D01*
X122131934Y-68220836D01*
X121899788Y-67734195D01*
X121808550Y-67492054D01*
X121733912Y-67233448D01*
X121717371Y-67079338D01*
X121757405Y-67028980D01*
X121852495Y-67081630D01*
X122001122Y-67236544D01*
X122201765Y-67492979D01*
X122409338Y-67786214D01*
X122559473Y-68013965D01*
X122735605Y-68294839D01*
X122927563Y-68611093D01*
X123125177Y-68944984D01*
X123318277Y-69278768D01*
X123496693Y-69594704D01*
X123650254Y-69875047D01*
X123768790Y-70102056D01*
X123842130Y-70257987D01*
X123861428Y-70319516D01*
X124772862Y-70319516D01*
X124616093Y-69895487D01*
X124207322Y-69012354D01*
X123724159Y-68141873D01*
X123177961Y-67306105D01*
X122580084Y-66527113D01*
X122498045Y-66429863D01*
X122263374Y-66165124D01*
X122082118Y-65989884D01*
X121938135Y-65894689D01*
X121815285Y-65870084D01*
X121697427Y-65906615D01*
G36*
X126256972Y-62277810D02*
X126169378Y-62333888D01*
X125993729Y-62463298D01*
X125829301Y-62568551D01*
X125627049Y-62710632D01*
X125395144Y-62911246D01*
X125164927Y-63139164D01*
X124967738Y-63363155D01*
X124834918Y-63551990D01*
X124826171Y-63568143D01*
X124650513Y-63934012D01*
X124541300Y-64243361D01*
X124489198Y-64533941D01*
X124484873Y-64843502D01*
X124490101Y-64927443D01*
X124512607Y-65201609D01*
X124538428Y-65472279D01*
X124561970Y-65680833D01*
X124599322Y-65968095D01*
X124287848Y-65968095D01*
X123947915Y-66009679D01*
X123692633Y-66133234D01*
X123529833Y-66328973D01*
X123460112Y-66476897D01*
X123442966Y-66576475D01*
X123493443Y-66639293D01*
X123626590Y-66676941D01*
X123857456Y-66701006D01*
X124027738Y-66712413D01*
X124398276Y-66738718D01*
X124667654Y-66767705D01*
X124855632Y-66804730D01*
X124981971Y-66855145D01*
X125066434Y-66924305D01*
X125124388Y-67009535D01*
X125278918Y-67269737D01*
X125463245Y-67552624D01*
X125649102Y-67816596D01*
X125808219Y-68020055D01*
X125821474Y-68035359D01*
X126115757Y-68368300D01*
X126390602Y-68674596D01*
X126634196Y-68941448D01*
X126834721Y-69156056D01*
X126980364Y-69305620D01*
X127059310Y-69377341D01*
X127061647Y-69378876D01*
X127156084Y-69451257D01*
X127295335Y-69572061D01*
X127364631Y-69635735D01*
X127580714Y-69838242D01*
X127006190Y-69803916D01*
X126718284Y-69790823D01*
X126518057Y-69794574D01*
X126373016Y-69818307D01*
X126250666Y-69865161D01*
X126222057Y-69879676D01*
X126071287Y-69989055D01*
X125937790Y-70135895D01*
X125844836Y-70287183D01*
X125815698Y-70409907D01*
X125825877Y-70441671D01*
X125904226Y-70478141D01*
X126059795Y-70500493D01*
X126155513Y-70503809D01*
X126332311Y-70514538D01*
X126589462Y-70543464D01*
X126896356Y-70585693D01*
X127222385Y-70636333D01*
X127536940Y-70690491D01*
X127809412Y-70743275D01*
X128009193Y-70789792D01*
X128077062Y-70810957D01*
X128152643Y-70866460D01*
X128246721Y-70988819D01*
X128366890Y-71190358D01*
X128520742Y-71483399D01*
X128641626Y-71727186D01*
X128785294Y-72025619D01*
X128907868Y-72288350D01*
X129000227Y-72495172D01*
X129053246Y-72625875D01*
X129062380Y-72659165D01*
X129026762Y-72693191D01*
X128908736Y-72679381D01*
X128775119Y-72642864D01*
X128517388Y-72577206D01*
X128193148Y-72511888D01*
X127843324Y-72453436D01*
X127508841Y-72408371D01*
X127230623Y-72383220D01*
X127127142Y-72380143D01*
X126846388Y-72415769D01*
X126584938Y-72509308D01*
X126379867Y-72644075D01*
X126287559Y-72757981D01*
X126229928Y-72895038D01*
X126238110Y-72990462D01*
X126325788Y-73053970D01*
X126506644Y-73095280D01*
X126794360Y-73124107D01*
X126804119Y-73124831D01*
X127090707Y-73155203D01*
X127443986Y-73206202D01*
X127813103Y-73269945D01*
X128064523Y-73320248D01*
X128380199Y-73385266D01*
X128684985Y-73443097D01*
X128941684Y-73486963D01*
X129098087Y-73508609D01*
X129288295Y-73521411D01*
X129403534Y-73500721D01*
X129487885Y-73434392D01*
X129523634Y-73391368D01*
X129623971Y-73239332D01*
X129729072Y-73044746D01*
X129755231Y-72989157D01*
X129817303Y-72839543D01*
X129838657Y-72724058D01*
X129819949Y-72592886D01*
X129763001Y-72399897D01*
X129696265Y-72212425D01*
X129592687Y-71949856D01*
X129466343Y-71646808D01*
X129331309Y-71337894D01*
X129329389Y-71333614D01*
X129208285Y-71062610D01*
X129107410Y-70834596D01*
X129035940Y-70670486D01*
X129003051Y-70591194D01*
X129001904Y-70587233D01*
X129051206Y-70597354D01*
X129174453Y-70642996D01*
X129225467Y-70663868D01*
X129488202Y-70736404D01*
X129824591Y-70776883D01*
X130191516Y-70784770D01*
X130545859Y-70759529D01*
X130844501Y-70700621D01*
X130894091Y-70684633D01*
X131095435Y-70619497D01*
X131261197Y-70575794D01*
X131336484Y-70564286D01*
X131458233Y-70531813D01*
X131642928Y-70444748D01*
X131866939Y-70318614D01*
X132102335Y-70171623D01*
X131199620Y-70171623D01*
X131178859Y-70266945D01*
X131094931Y-70323819D01*
X130926205Y-70361192D01*
X130762218Y-70383821D01*
X130521088Y-70414496D01*
X130375716Y-70430316D01*
X130301879Y-70431702D01*
X130275350Y-70419075D01*
X130271904Y-70392853D01*
X130271904Y-70392324D01*
X130315158Y-70329835D01*
X130427641Y-70218641D01*
X130519746Y-70138730D01*
X129904794Y-70138730D01*
X129901762Y-70324562D01*
X129895170Y-70429563D01*
X129890871Y-70443333D01*
X129825546Y-70433263D01*
X129676176Y-70407105D01*
X129511940Y-70377270D01*
X129310128Y-70334562D01*
X129155321Y-70291672D01*
X129092619Y-70264656D01*
X128991954Y-70216699D01*
X128865833Y-70178377D01*
X128745603Y-70132496D01*
X128699523Y-70083442D01*
X128744258Y-70014147D01*
X128853223Y-69919406D01*
X128865833Y-69910306D01*
X128974470Y-69841337D01*
X129143847Y-69742307D01*
X129344707Y-69629282D01*
X129547795Y-69518330D01*
X129723854Y-69425516D01*
X129843627Y-69366906D01*
X129877466Y-69354762D01*
X129886520Y-69410739D01*
X129894973Y-69560679D01*
X129901526Y-69777592D01*
X129903636Y-69899048D01*
X129904794Y-70138730D01*
X130519746Y-70138730D01*
X130559166Y-70104529D01*
X130794601Y-69910859D01*
X130952939Y-69789682D01*
X131052011Y-69738535D01*
X131109647Y-69754954D01*
X131143677Y-69836476D01*
X131171930Y-69980637D01*
X131178847Y-70018905D01*
X131199620Y-70171623D01*
X132102335Y-70171623D01*
X132106634Y-70168939D01*
X132338383Y-70011250D01*
X132538556Y-69861071D01*
X132683521Y-69733929D01*
X132749648Y-69645351D01*
X132751354Y-69634669D01*
X132704010Y-69524306D01*
X132629692Y-69427912D01*
X132146666Y-69427912D01*
X132093544Y-69459908D01*
X131955542Y-69464895D01*
X131764709Y-69446804D01*
X131553096Y-69409565D01*
X131352750Y-69357109D01*
X131245215Y-69317355D01*
X130909546Y-69168413D01*
X130651486Y-69045517D01*
X130436114Y-68930368D01*
X130228510Y-68804665D01*
X130072057Y-68702557D01*
X129821097Y-68535536D01*
X128747123Y-68535536D01*
X128737813Y-68598130D01*
X128685562Y-68720306D01*
X128681028Y-68729261D01*
X128604477Y-68915725D01*
X128547927Y-69110872D01*
X128503324Y-69280513D01*
X128456420Y-69407701D01*
X128453582Y-69413253D01*
X128403976Y-69542011D01*
X128369405Y-69672262D01*
X128323699Y-69792758D01*
X128269350Y-69838571D01*
X128192020Y-69804148D01*
X128049691Y-69713568D01*
X127872102Y-69585868D01*
X127858718Y-69575726D01*
X127587231Y-69366346D01*
X127403047Y-69216691D01*
X127294649Y-69116739D01*
X127250524Y-69056469D01*
X127248095Y-69044256D01*
X127301610Y-69010022D01*
X127436293Y-68973025D01*
X127505119Y-68960145D01*
X127678817Y-68922847D01*
X127802594Y-68880795D01*
X127824018Y-68868096D01*
X127909294Y-68822835D01*
X128065174Y-68757441D01*
X128258352Y-68683915D01*
X128455521Y-68614254D01*
X128623374Y-68560459D01*
X128728603Y-68534529D01*
X128747123Y-68535536D01*
X129821097Y-68535536D01*
X129660543Y-68428683D01*
X129918227Y-68166123D01*
X130110575Y-67983969D01*
X130257967Y-67890095D01*
X130389448Y-67877106D01*
X130534063Y-67937610D01*
X130614273Y-67988953D01*
X130748220Y-68091023D01*
X130932621Y-68246413D01*
X131149745Y-68438471D01*
X131381860Y-68650546D01*
X131611232Y-68865987D01*
X131820129Y-69068142D01*
X131990820Y-69240362D01*
X132105571Y-69365993D01*
X132146666Y-69427912D01*
X132629692Y-69427912D01*
X132564110Y-69342850D01*
X132334612Y-69093415D01*
X132018474Y-68779114D01*
X131618653Y-68403061D01*
X131340286Y-68149499D01*
X130640751Y-67518760D01*
X130743590Y-67341024D01*
X130859128Y-67185928D01*
X130984652Y-67071374D01*
X131085602Y-66973975D01*
X131227528Y-66798835D01*
X131391761Y-66573443D01*
X131559636Y-66325281D01*
X131712484Y-66081837D01*
X131831639Y-65870596D01*
X131894107Y-65732285D01*
X131953537Y-65412276D01*
X131949765Y-65335553D01*
X131630719Y-65335553D01*
X131598681Y-65449262D01*
X131446413Y-65814666D01*
X131275633Y-66162298D01*
X131105471Y-66455236D01*
X131000876Y-66603095D01*
X130845679Y-66787742D01*
X130647207Y-67008752D01*
X130421721Y-67249713D01*
X130185483Y-67494216D01*
X129954754Y-67725848D01*
X129745794Y-67928200D01*
X129574867Y-68084861D01*
X129458233Y-68179419D01*
X129418657Y-68199853D01*
X129345353Y-68160003D01*
X129206568Y-68046190D01*
X129018829Y-67873357D01*
X128798665Y-67656447D01*
X128662704Y-67516413D01*
X128487901Y-67331530D01*
X127671428Y-67331530D01*
X127648032Y-67411418D01*
X127588389Y-67559697D01*
X127545029Y-67657454D01*
X127460247Y-67845401D01*
X127390513Y-68004676D01*
X127369628Y-68054524D01*
X127262711Y-68308157D01*
X127164028Y-68524006D01*
X127084979Y-68678552D01*
X127036963Y-68748273D01*
X127032572Y-68750000D01*
X126969863Y-68715318D01*
X126848059Y-68627124D01*
X126771435Y-68567045D01*
X126638587Y-68443691D01*
X126481074Y-68272968D01*
X126316471Y-68077466D01*
X126162355Y-67879772D01*
X126036302Y-67702477D01*
X125955890Y-67568170D01*
X125938693Y-67499439D01*
X125939757Y-67498179D01*
X126014179Y-67475676D01*
X126179194Y-67449329D01*
X126404732Y-67423583D01*
X126507832Y-67414222D01*
X126797519Y-67387754D01*
X127085765Y-67357959D01*
X127318458Y-67330498D01*
X127353928Y-67325734D01*
X127530254Y-67309736D01*
X127645537Y-67315473D01*
X127671428Y-67331530D01*
X128487901Y-67331530D01*
X128419589Y-67259279D01*
X128191679Y-67013313D01*
X127998955Y-66800429D01*
X127861398Y-66642541D01*
X127822619Y-66595018D01*
X127712892Y-66445080D01*
X127579378Y-66248929D01*
X127494403Y-66118427D01*
X126632509Y-66118427D01*
X126585038Y-66182003D01*
X126534771Y-66221690D01*
X126434791Y-66317354D01*
X126307435Y-66467920D01*
X126251070Y-66542619D01*
X126108875Y-66728169D01*
X125957900Y-66908199D01*
X125820242Y-67058265D01*
X125718002Y-67153926D01*
X125678969Y-67175411D01*
X125630413Y-67127475D01*
X125542599Y-67007157D01*
X125479035Y-66910341D01*
X125323915Y-66641825D01*
X125212696Y-66401406D01*
X125155182Y-66213308D01*
X125156007Y-66112226D01*
X125198278Y-66074949D01*
X125302738Y-66049929D01*
X125486553Y-66035273D01*
X125766889Y-66029094D01*
X125915721Y-66028571D01*
X126250971Y-66032623D01*
X126475501Y-66046865D01*
X126599338Y-66074423D01*
X126632509Y-66118427D01*
X127494403Y-66118427D01*
X127438606Y-66032738D01*
X127307103Y-65822682D01*
X127201397Y-65644932D01*
X127138014Y-65525662D01*
X127127157Y-65493674D01*
X127177708Y-65450709D01*
X127311686Y-65372458D01*
X127502603Y-65274108D01*
X127551249Y-65250498D01*
X127756171Y-65148165D01*
X127915026Y-65061394D01*
X127998918Y-65006154D01*
X128004234Y-65000173D01*
X128078727Y-64952563D01*
X128199795Y-64911572D01*
X128335425Y-64865058D01*
X128537817Y-64781382D01*
X128735522Y-64691439D01*
X127792717Y-64691439D01*
X127733846Y-64791112D01*
X127561008Y-64904889D01*
X127488078Y-64940900D01*
X127306110Y-65034534D01*
X127166398Y-65121546D01*
X127117816Y-65162904D01*
X127049197Y-65225786D01*
X126988902Y-65218608D01*
X126922746Y-65127814D01*
X126836541Y-64939850D01*
X126805430Y-64864405D01*
X126038321Y-64864405D01*
X125994284Y-64934554D01*
X125968112Y-64940000D01*
X125895246Y-64979531D01*
X125761015Y-65085090D01*
X125589529Y-65237126D01*
X125515054Y-65307390D01*
X125286712Y-65511430D01*
X125119298Y-65621175D01*
X125001583Y-65639403D01*
X124922338Y-65568891D01*
X124882557Y-65463832D01*
X124867748Y-65345290D01*
X124861913Y-65161781D01*
X124864078Y-64951371D01*
X124873267Y-64752129D01*
X124888505Y-64602120D01*
X124906191Y-64541023D01*
X124966876Y-64548266D01*
X125118819Y-64578270D01*
X125335648Y-64625626D01*
X125478916Y-64658485D01*
X125747841Y-64728841D01*
X125937771Y-64794587D01*
X126031457Y-64849371D01*
X126038321Y-64864405D01*
X126805430Y-64864405D01*
X126628707Y-64395322D01*
X126512657Y-63997254D01*
X126460179Y-63697733D01*
X125906265Y-63697733D01*
X125903416Y-63764979D01*
X125803270Y-63790952D01*
X125693779Y-63824501D01*
X125529744Y-63911199D01*
X125395055Y-63998920D01*
X125191985Y-64130487D01*
X125041191Y-64203875D01*
X124959616Y-64211754D01*
X124950000Y-64191433D01*
X124977290Y-64097157D01*
X125045639Y-63940286D01*
X125134767Y-63762465D01*
X125224391Y-63605343D01*
X125264540Y-63545535D01*
X125389213Y-63376906D01*
X125653416Y-63505266D01*
X125820053Y-63605675D01*
X125906265Y-63697733D01*
X126460179Y-63697733D01*
X126450237Y-63640994D01*
X126434122Y-63324846D01*
X126443109Y-63051905D01*
X126468473Y-62892213D01*
X126513428Y-62838786D01*
X126581185Y-62884640D01*
X126615833Y-62929843D01*
X126721189Y-63065884D01*
X126792602Y-63145391D01*
X126855224Y-63228404D01*
X126964049Y-63392904D01*
X127104336Y-63615901D01*
X127261342Y-63874406D01*
X127278208Y-63902690D01*
X127432697Y-64157748D01*
X127568714Y-64373981D01*
X127672740Y-64530479D01*
X127731255Y-64606329D01*
X127735048Y-64609324D01*
X127792717Y-64691439D01*
X128735522Y-64691439D01*
X128765678Y-64677720D01*
X128790010Y-64666082D01*
X129251767Y-64474220D01*
X129719368Y-64334751D01*
X130166587Y-64252594D01*
X130567196Y-64232669D01*
X130876549Y-64274730D01*
X131079435Y-64359633D01*
X131269937Y-64511116D01*
X131472315Y-64749770D01*
X131530991Y-64830208D01*
X131630659Y-65067813D01*
X131630719Y-65335553D01*
X131949765Y-65335553D01*
X131936237Y-65060468D01*
X131850255Y-64718011D01*
X131703644Y-64426053D01*
X131617753Y-64319721D01*
X131366581Y-64106723D01*
X131088897Y-63978300D01*
X130754712Y-63924030D01*
X130479971Y-63924158D01*
X130103734Y-63960554D01*
X129702085Y-64030893D01*
X129321554Y-64125138D01*
X129008673Y-64233252D01*
X128971666Y-64249492D01*
X128712169Y-64364304D01*
X128473941Y-64463908D01*
X128283728Y-64537615D01*
X128168281Y-64574736D01*
X128151787Y-64577143D01*
X128100462Y-64527616D01*
X128009278Y-64395278D01*
X127894436Y-64204498D01*
X127842921Y-64112579D01*
X127704904Y-63873710D01*
X127565562Y-63653284D01*
X127450064Y-63490631D01*
X127426874Y-63462459D01*
X127294634Y-63294728D01*
X127150443Y-63089835D01*
X127098450Y-63009512D01*
X126977780Y-62828191D01*
X126862102Y-62672508D01*
X126818149Y-62620875D01*
X126718719Y-62487880D01*
X126670232Y-62389479D01*
X126579768Y-62274514D01*
X126429582Y-62235911D01*
X126256972Y-62277810D01*
X126256972Y-62277810D01*
G37*
X126256972Y-62277810D02*
X126169378Y-62333888D01*
X125993729Y-62463298D01*
X125829301Y-62568551D01*
X125627049Y-62710632D01*
X125395144Y-62911246D01*
X125164927Y-63139164D01*
X124967738Y-63363155D01*
X124834918Y-63551990D01*
X124826171Y-63568143D01*
X124650513Y-63934012D01*
X124541300Y-64243361D01*
X124489198Y-64533941D01*
X124484873Y-64843502D01*
X124490101Y-64927443D01*
X124512607Y-65201609D01*
X124538428Y-65472279D01*
X124561970Y-65680833D01*
X124599322Y-65968095D01*
X124287848Y-65968095D01*
X123947915Y-66009679D01*
X123692633Y-66133234D01*
X123529833Y-66328973D01*
X123460112Y-66476897D01*
X123442966Y-66576475D01*
X123493443Y-66639293D01*
X123626590Y-66676941D01*
X123857456Y-66701006D01*
X124027738Y-66712413D01*
X124398276Y-66738718D01*
X124667654Y-66767705D01*
X124855632Y-66804730D01*
X124981971Y-66855145D01*
X125066434Y-66924305D01*
X125124388Y-67009535D01*
X125278918Y-67269737D01*
X125463245Y-67552624D01*
X125649102Y-67816596D01*
X125808219Y-68020055D01*
X125821474Y-68035359D01*
X126115757Y-68368300D01*
X126390602Y-68674596D01*
X126634196Y-68941448D01*
X126834721Y-69156056D01*
X126980364Y-69305620D01*
X127059310Y-69377341D01*
X127061647Y-69378876D01*
X127156084Y-69451257D01*
X127295335Y-69572061D01*
X127364631Y-69635735D01*
X127580714Y-69838242D01*
X127006190Y-69803916D01*
X126718284Y-69790823D01*
X126518057Y-69794574D01*
X126373016Y-69818307D01*
X126250666Y-69865161D01*
X126222057Y-69879676D01*
X126071287Y-69989055D01*
X125937790Y-70135895D01*
X125844836Y-70287183D01*
X125815698Y-70409907D01*
X125825877Y-70441671D01*
X125904226Y-70478141D01*
X126059795Y-70500493D01*
X126155513Y-70503809D01*
X126332311Y-70514538D01*
X126589462Y-70543464D01*
X126896356Y-70585693D01*
X127222385Y-70636333D01*
X127536940Y-70690491D01*
X127809412Y-70743275D01*
X128009193Y-70789792D01*
X128077062Y-70810957D01*
X128152643Y-70866460D01*
X128246721Y-70988819D01*
X128366890Y-71190358D01*
X128520742Y-71483399D01*
X128641626Y-71727186D01*
X128785294Y-72025619D01*
X128907868Y-72288350D01*
X129000227Y-72495172D01*
X129053246Y-72625875D01*
X129062380Y-72659165D01*
X129026762Y-72693191D01*
X128908736Y-72679381D01*
X128775119Y-72642864D01*
X128517388Y-72577206D01*
X128193148Y-72511888D01*
X127843324Y-72453436D01*
X127508841Y-72408371D01*
X127230623Y-72383220D01*
X127127142Y-72380143D01*
X126846388Y-72415769D01*
X126584938Y-72509308D01*
X126379867Y-72644075D01*
X126287559Y-72757981D01*
X126229928Y-72895038D01*
X126238110Y-72990462D01*
X126325788Y-73053970D01*
X126506644Y-73095280D01*
X126794360Y-73124107D01*
X126804119Y-73124831D01*
X127090707Y-73155203D01*
X127443986Y-73206202D01*
X127813103Y-73269945D01*
X128064523Y-73320248D01*
X128380199Y-73385266D01*
X128684985Y-73443097D01*
X128941684Y-73486963D01*
X129098087Y-73508609D01*
X129288295Y-73521411D01*
X129403534Y-73500721D01*
X129487885Y-73434392D01*
X129523634Y-73391368D01*
X129623971Y-73239332D01*
X129729072Y-73044746D01*
X129755231Y-72989157D01*
X129817303Y-72839543D01*
X129838657Y-72724058D01*
X129819949Y-72592886D01*
X129763001Y-72399897D01*
X129696265Y-72212425D01*
X129592687Y-71949856D01*
X129466343Y-71646808D01*
X129331309Y-71337894D01*
X129329389Y-71333614D01*
X129208285Y-71062610D01*
X129107410Y-70834596D01*
X129035940Y-70670486D01*
X129003051Y-70591194D01*
X129001904Y-70587233D01*
X129051206Y-70597354D01*
X129174453Y-70642996D01*
X129225467Y-70663868D01*
X129488202Y-70736404D01*
X129824591Y-70776883D01*
X130191516Y-70784770D01*
X130545859Y-70759529D01*
X130844501Y-70700621D01*
X130894091Y-70684633D01*
X131095435Y-70619497D01*
X131261197Y-70575794D01*
X131336484Y-70564286D01*
X131458233Y-70531813D01*
X131642928Y-70444748D01*
X131866939Y-70318614D01*
X132102335Y-70171623D01*
X131199620Y-70171623D01*
X131178859Y-70266945D01*
X131094931Y-70323819D01*
X130926205Y-70361192D01*
X130762218Y-70383821D01*
X130521088Y-70414496D01*
X130375716Y-70430316D01*
X130301879Y-70431702D01*
X130275350Y-70419075D01*
X130271904Y-70392853D01*
X130271904Y-70392324D01*
X130315158Y-70329835D01*
X130427641Y-70218641D01*
X130519746Y-70138730D01*
X129904794Y-70138730D01*
X129901762Y-70324562D01*
X129895170Y-70429563D01*
X129890871Y-70443333D01*
X129825546Y-70433263D01*
X129676176Y-70407105D01*
X129511940Y-70377270D01*
X129310128Y-70334562D01*
X129155321Y-70291672D01*
X129092619Y-70264656D01*
X128991954Y-70216699D01*
X128865833Y-70178377D01*
X128745603Y-70132496D01*
X128699523Y-70083442D01*
X128744258Y-70014147D01*
X128853223Y-69919406D01*
X128865833Y-69910306D01*
X128974470Y-69841337D01*
X129143847Y-69742307D01*
X129344707Y-69629282D01*
X129547795Y-69518330D01*
X129723854Y-69425516D01*
X129843627Y-69366906D01*
X129877466Y-69354762D01*
X129886520Y-69410739D01*
X129894973Y-69560679D01*
X129901526Y-69777592D01*
X129903636Y-69899048D01*
X129904794Y-70138730D01*
X130519746Y-70138730D01*
X130559166Y-70104529D01*
X130794601Y-69910859D01*
X130952939Y-69789682D01*
X131052011Y-69738535D01*
X131109647Y-69754954D01*
X131143677Y-69836476D01*
X131171930Y-69980637D01*
X131178847Y-70018905D01*
X131199620Y-70171623D01*
X132102335Y-70171623D01*
X132106634Y-70168939D01*
X132338383Y-70011250D01*
X132538556Y-69861071D01*
X132683521Y-69733929D01*
X132749648Y-69645351D01*
X132751354Y-69634669D01*
X132704010Y-69524306D01*
X132629692Y-69427912D01*
X132146666Y-69427912D01*
X132093544Y-69459908D01*
X131955542Y-69464895D01*
X131764709Y-69446804D01*
X131553096Y-69409565D01*
X131352750Y-69357109D01*
X131245215Y-69317355D01*
X130909546Y-69168413D01*
X130651486Y-69045517D01*
X130436114Y-68930368D01*
X130228510Y-68804665D01*
X130072057Y-68702557D01*
X129821097Y-68535536D01*
X128747123Y-68535536D01*
X128737813Y-68598130D01*
X128685562Y-68720306D01*
X128681028Y-68729261D01*
X128604477Y-68915725D01*
X128547927Y-69110872D01*
X128503324Y-69280513D01*
X128456420Y-69407701D01*
X128453582Y-69413253D01*
X128403976Y-69542011D01*
X128369405Y-69672262D01*
X128323699Y-69792758D01*
X128269350Y-69838571D01*
X128192020Y-69804148D01*
X128049691Y-69713568D01*
X127872102Y-69585868D01*
X127858718Y-69575726D01*
X127587231Y-69366346D01*
X127403047Y-69216691D01*
X127294649Y-69116739D01*
X127250524Y-69056469D01*
X127248095Y-69044256D01*
X127301610Y-69010022D01*
X127436293Y-68973025D01*
X127505119Y-68960145D01*
X127678817Y-68922847D01*
X127802594Y-68880795D01*
X127824018Y-68868096D01*
X127909294Y-68822835D01*
X128065174Y-68757441D01*
X128258352Y-68683915D01*
X128455521Y-68614254D01*
X128623374Y-68560459D01*
X128728603Y-68534529D01*
X128747123Y-68535536D01*
X129821097Y-68535536D01*
X129660543Y-68428683D01*
X129918227Y-68166123D01*
X130110575Y-67983969D01*
X130257967Y-67890095D01*
X130389448Y-67877106D01*
X130534063Y-67937610D01*
X130614273Y-67988953D01*
X130748220Y-68091023D01*
X130932621Y-68246413D01*
X131149745Y-68438471D01*
X131381860Y-68650546D01*
X131611232Y-68865987D01*
X131820129Y-69068142D01*
X131990820Y-69240362D01*
X132105571Y-69365993D01*
X132146666Y-69427912D01*
X132629692Y-69427912D01*
X132564110Y-69342850D01*
X132334612Y-69093415D01*
X132018474Y-68779114D01*
X131618653Y-68403061D01*
X131340286Y-68149499D01*
X130640751Y-67518760D01*
X130743590Y-67341024D01*
X130859128Y-67185928D01*
X130984652Y-67071374D01*
X131085602Y-66973975D01*
X131227528Y-66798835D01*
X131391761Y-66573443D01*
X131559636Y-66325281D01*
X131712484Y-66081837D01*
X131831639Y-65870596D01*
X131894107Y-65732285D01*
X131953537Y-65412276D01*
X131949765Y-65335553D01*
X131630719Y-65335553D01*
X131598681Y-65449262D01*
X131446413Y-65814666D01*
X131275633Y-66162298D01*
X131105471Y-66455236D01*
X131000876Y-66603095D01*
X130845679Y-66787742D01*
X130647207Y-67008752D01*
X130421721Y-67249713D01*
X130185483Y-67494216D01*
X129954754Y-67725848D01*
X129745794Y-67928200D01*
X129574867Y-68084861D01*
X129458233Y-68179419D01*
X129418657Y-68199853D01*
X129345353Y-68160003D01*
X129206568Y-68046190D01*
X129018829Y-67873357D01*
X128798665Y-67656447D01*
X128662704Y-67516413D01*
X128487901Y-67331530D01*
X127671428Y-67331530D01*
X127648032Y-67411418D01*
X127588389Y-67559697D01*
X127545029Y-67657454D01*
X127460247Y-67845401D01*
X127390513Y-68004676D01*
X127369628Y-68054524D01*
X127262711Y-68308157D01*
X127164028Y-68524006D01*
X127084979Y-68678552D01*
X127036963Y-68748273D01*
X127032572Y-68750000D01*
X126969863Y-68715318D01*
X126848059Y-68627124D01*
X126771435Y-68567045D01*
X126638587Y-68443691D01*
X126481074Y-68272968D01*
X126316471Y-68077466D01*
X126162355Y-67879772D01*
X126036302Y-67702477D01*
X125955890Y-67568170D01*
X125938693Y-67499439D01*
X125939757Y-67498179D01*
X126014179Y-67475676D01*
X126179194Y-67449329D01*
X126404732Y-67423583D01*
X126507832Y-67414222D01*
X126797519Y-67387754D01*
X127085765Y-67357959D01*
X127318458Y-67330498D01*
X127353928Y-67325734D01*
X127530254Y-67309736D01*
X127645537Y-67315473D01*
X127671428Y-67331530D01*
X128487901Y-67331530D01*
X128419589Y-67259279D01*
X128191679Y-67013313D01*
X127998955Y-66800429D01*
X127861398Y-66642541D01*
X127822619Y-66595018D01*
X127712892Y-66445080D01*
X127579378Y-66248929D01*
X127494403Y-66118427D01*
X126632509Y-66118427D01*
X126585038Y-66182003D01*
X126534771Y-66221690D01*
X126434791Y-66317354D01*
X126307435Y-66467920D01*
X126251070Y-66542619D01*
X126108875Y-66728169D01*
X125957900Y-66908199D01*
X125820242Y-67058265D01*
X125718002Y-67153926D01*
X125678969Y-67175411D01*
X125630413Y-67127475D01*
X125542599Y-67007157D01*
X125479035Y-66910341D01*
X125323915Y-66641825D01*
X125212696Y-66401406D01*
X125155182Y-66213308D01*
X125156007Y-66112226D01*
X125198278Y-66074949D01*
X125302738Y-66049929D01*
X125486553Y-66035273D01*
X125766889Y-66029094D01*
X125915721Y-66028571D01*
X126250971Y-66032623D01*
X126475501Y-66046865D01*
X126599338Y-66074423D01*
X126632509Y-66118427D01*
X127494403Y-66118427D01*
X127438606Y-66032738D01*
X127307103Y-65822682D01*
X127201397Y-65644932D01*
X127138014Y-65525662D01*
X127127157Y-65493674D01*
X127177708Y-65450709D01*
X127311686Y-65372458D01*
X127502603Y-65274108D01*
X127551249Y-65250498D01*
X127756171Y-65148165D01*
X127915026Y-65061394D01*
X127998918Y-65006154D01*
X128004234Y-65000173D01*
X128078727Y-64952563D01*
X128199795Y-64911572D01*
X128335425Y-64865058D01*
X128537817Y-64781382D01*
X128735522Y-64691439D01*
X127792717Y-64691439D01*
X127733846Y-64791112D01*
X127561008Y-64904889D01*
X127488078Y-64940900D01*
X127306110Y-65034534D01*
X127166398Y-65121546D01*
X127117816Y-65162904D01*
X127049197Y-65225786D01*
X126988902Y-65218608D01*
X126922746Y-65127814D01*
X126836541Y-64939850D01*
X126805430Y-64864405D01*
X126038321Y-64864405D01*
X125994284Y-64934554D01*
X125968112Y-64940000D01*
X125895246Y-64979531D01*
X125761015Y-65085090D01*
X125589529Y-65237126D01*
X125515054Y-65307390D01*
X125286712Y-65511430D01*
X125119298Y-65621175D01*
X125001583Y-65639403D01*
X124922338Y-65568891D01*
X124882557Y-65463832D01*
X124867748Y-65345290D01*
X124861913Y-65161781D01*
X124864078Y-64951371D01*
X124873267Y-64752129D01*
X124888505Y-64602120D01*
X124906191Y-64541023D01*
X124966876Y-64548266D01*
X125118819Y-64578270D01*
X125335648Y-64625626D01*
X125478916Y-64658485D01*
X125747841Y-64728841D01*
X125937771Y-64794587D01*
X126031457Y-64849371D01*
X126038321Y-64864405D01*
X126805430Y-64864405D01*
X126628707Y-64395322D01*
X126512657Y-63997254D01*
X126460179Y-63697733D01*
X125906265Y-63697733D01*
X125903416Y-63764979D01*
X125803270Y-63790952D01*
X125693779Y-63824501D01*
X125529744Y-63911199D01*
X125395055Y-63998920D01*
X125191985Y-64130487D01*
X125041191Y-64203875D01*
X124959616Y-64211754D01*
X124950000Y-64191433D01*
X124977290Y-64097157D01*
X125045639Y-63940286D01*
X125134767Y-63762465D01*
X125224391Y-63605343D01*
X125264540Y-63545535D01*
X125389213Y-63376906D01*
X125653416Y-63505266D01*
X125820053Y-63605675D01*
X125906265Y-63697733D01*
X126460179Y-63697733D01*
X126450237Y-63640994D01*
X126434122Y-63324846D01*
X126443109Y-63051905D01*
X126468473Y-62892213D01*
X126513428Y-62838786D01*
X126581185Y-62884640D01*
X126615833Y-62929843D01*
X126721189Y-63065884D01*
X126792602Y-63145391D01*
X126855224Y-63228404D01*
X126964049Y-63392904D01*
X127104336Y-63615901D01*
X127261342Y-63874406D01*
X127278208Y-63902690D01*
X127432697Y-64157748D01*
X127568714Y-64373981D01*
X127672740Y-64530479D01*
X127731255Y-64606329D01*
X127735048Y-64609324D01*
X127792717Y-64691439D01*
X128735522Y-64691439D01*
X128765678Y-64677720D01*
X128790010Y-64666082D01*
X129251767Y-64474220D01*
X129719368Y-64334751D01*
X130166587Y-64252594D01*
X130567196Y-64232669D01*
X130876549Y-64274730D01*
X131079435Y-64359633D01*
X131269937Y-64511116D01*
X131472315Y-64749770D01*
X131530991Y-64830208D01*
X131630659Y-65067813D01*
X131630719Y-65335553D01*
X131949765Y-65335553D01*
X131936237Y-65060468D01*
X131850255Y-64718011D01*
X131703644Y-64426053D01*
X131617753Y-64319721D01*
X131366581Y-64106723D01*
X131088897Y-63978300D01*
X130754712Y-63924030D01*
X130479971Y-63924158D01*
X130103734Y-63960554D01*
X129702085Y-64030893D01*
X129321554Y-64125138D01*
X129008673Y-64233252D01*
X128971666Y-64249492D01*
X128712169Y-64364304D01*
X128473941Y-64463908D01*
X128283728Y-64537615D01*
X128168281Y-64574736D01*
X128151787Y-64577143D01*
X128100462Y-64527616D01*
X128009278Y-64395278D01*
X127894436Y-64204498D01*
X127842921Y-64112579D01*
X127704904Y-63873710D01*
X127565562Y-63653284D01*
X127450064Y-63490631D01*
X127426874Y-63462459D01*
X127294634Y-63294728D01*
X127150443Y-63089835D01*
X127098450Y-63009512D01*
X126977780Y-62828191D01*
X126862102Y-62672508D01*
X126818149Y-62620875D01*
X126718719Y-62487880D01*
X126670232Y-62389479D01*
X126579768Y-62274514D01*
X126429582Y-62235911D01*
X126256972Y-62277810D01*
G04 #@! TD*
M02*
