M48
;DRILL file {KiCad (5.0.0-3-g5ebb6b6)} date 
;FORMAT={3:3/ absolute / metric / keep zeros}
FMAT,2
METRIC,TZ
T1C0.400
T2C1.000
T3C3.400
%
G90
G05
M71
T1
X082000Y-076000
X083000Y-101000
X090500Y-065500
X091500Y-087750
X092250Y-072250
X096500Y-089500
X096500Y-090500
X100750Y-091750
X100750Y-092750
X103500Y-069750
X103500Y-071000
X105750Y-087500
X105750Y-090250
X105750Y-091500
X107000Y-087500
X109500Y-082250
X109500Y-085000
X116250Y-073500
X116250Y-074750
X116250Y-076000
X117445Y-080168
X117498Y-082166
X117511Y-081166
X118000Y-076737
X118000Y-074737
X118000Y-075737
X118013Y-077737
X120250Y-089750
X121263Y-089763
X122250Y-070000
X122250Y-071000
X122282Y-089769
X122750Y-079750
X123307Y-089769
X123500Y-070000
X123500Y-083000
X123750Y-072250
X124250Y-071000
X124330Y-089771
X124500Y-070000
X125329Y-089748
X125500Y-070000
X126250Y-071000
X126250Y-072000
X126329Y-089750
X127250Y-070250
X127329Y-089750
X128000Y-082250
X128250Y-070250
X128329Y-089750
X128750Y-079000
X129329Y-089750
X130000Y-072225
X131000Y-072250
X133750Y-076250
X133750Y-077250
X133750Y-079250
X133750Y-080250
X133750Y-082250
X133750Y-083250
X133750Y-084250
X134750Y-072750
X141500Y-060250
X141500Y-074750
X141750Y-072750
X142250Y-088750
X143250Y-082500
X147250Y-060250
T2
X110000Y-060000
X110000Y-062540
X110000Y-065080
X145750Y-078210
X145750Y-080750
X145750Y-083290
X110000Y-094920
X110000Y-097460
X110000Y-100000
X080000Y-072220
X080000Y-074760
X080000Y-077300
X080000Y-079840
X080000Y-082380
X080000Y-084920
X080000Y-087460
X080000Y-090000
X144500Y-068100
X144500Y-073000
X087500Y-100250
X090040Y-100250
X092580Y-100250
X095120Y-100250
X097660Y-100250
X100200Y-100250
X102740Y-100250
X105280Y-100250
X114500Y-060000
X117040Y-060000
X119580Y-060000
X122120Y-060000
X124660Y-060000
X127200Y-060000
X129740Y-060000
X132280Y-060000
X134820Y-060000
X137360Y-060000
X083250Y-081250
X085750Y-081250
X088250Y-081250
X089500Y-060000
X092040Y-060000
X094580Y-060000
X097120Y-060000
X099660Y-060000
X102200Y-060000
X114500Y-100000
X117040Y-100000
X119580Y-100000
X122120Y-100000
X124660Y-100000
X127200Y-100000
X129740Y-100000
X132280Y-100000
X134820Y-100000
X137360Y-100000
T3
X082500Y-062250
X142500Y-097500
T0
M30
