G04 #@! TF.GenerationSoftware,KiCad,Pcbnew,(5.0.0-3-g5ebb6b6)*
G04 #@! TF.CreationDate,2019-02-10T22:36:41+03:00*
G04 #@! TF.ProjectId,mac,6D61632E6B696361645F706362000000,rev?*
G04 #@! TF.SameCoordinates,Original*
G04 #@! TF.FileFunction,Copper,L1,Top,Signal*
G04 #@! TF.FilePolarity,Positive*
%FSLAX46Y46*%
G04 Gerber Fmt 4.6, Leading zero omitted, Abs format (unit mm)*
G04 Created by KiCad (PCBNEW (5.0.0-3-g5ebb6b6)) date *
%MOMM*%
%LPD*%
G01*
G04 APERTURE LIST*
G04 #@! TA.AperFunction,ComponentPad*
%ADD10C,1.700000*%
G04 #@! TD*
G04 #@! TA.AperFunction,ComponentPad*
%ADD11R,1.700000X1.700000*%
G04 #@! TD*
G04 #@! TA.AperFunction,ComponentPad*
%ADD12C,7.000000*%
G04 #@! TD*
G04 #@! TA.AperFunction,SMDPad,CuDef*
%ADD13R,1.500000X1.000000*%
G04 #@! TD*
G04 #@! TA.AperFunction,SMDPad,CuDef*
%ADD14R,3.000000X1.500000*%
G04 #@! TD*
G04 #@! TA.AperFunction,SMDPad,CuDef*
%ADD15R,1.500000X0.250000*%
G04 #@! TD*
G04 #@! TA.AperFunction,SMDPad,CuDef*
%ADD16R,0.250000X1.500000*%
G04 #@! TD*
G04 #@! TA.AperFunction,SMDPad,CuDef*
%ADD17R,1.473200X0.609600*%
G04 #@! TD*
G04 #@! TA.AperFunction,SMDPad,CuDef*
%ADD18R,1.500000X4.000000*%
G04 #@! TD*
G04 #@! TA.AperFunction,SMDPad,CuDef*
%ADD19R,1.000000X1.000000*%
G04 #@! TD*
G04 #@! TA.AperFunction,SMDPad,CuDef*
%ADD20R,1.000000X1.500000*%
G04 #@! TD*
G04 #@! TA.AperFunction,SMDPad,CuDef*
%ADD21R,1.100000X0.800000*%
G04 #@! TD*
G04 #@! TA.AperFunction,SMDPad,CuDef*
%ADD22R,0.800000X1.100000*%
G04 #@! TD*
G04 #@! TA.AperFunction,ViaPad*
%ADD23C,0.800000*%
G04 #@! TD*
G04 #@! TA.AperFunction,Conductor*
%ADD24C,0.250000*%
G04 #@! TD*
G04 APERTURE END LIST*
D10*
G04 #@! TO.P,G1,1*
G04 #@! TO.N,/VCC*
X88250000Y-81250000D03*
D11*
G04 #@! TO.P,G1,2*
G04 #@! TO.N,/GND*
X85750000Y-81250000D03*
G04 #@! TO.P,G1,3*
G04 #@! TO.N,/+4...30*
X83250000Y-81250000D03*
G04 #@! TD*
D10*
G04 #@! TO.P,XP3,1*
G04 #@! TO.N,/GND_MC*
X145750000Y-83290000D03*
D11*
G04 #@! TO.P,XP3,2*
G04 #@! TO.N,/MODE*
X145750000Y-80750000D03*
G04 #@! TO.P,XP3,3*
G04 #@! TO.N,/VCC_MC*
X145750000Y-78210000D03*
G04 #@! TD*
D12*
G04 #@! TO.P,M3,*
G04 #@! TO.N,*
X142500000Y-97500000D03*
G04 #@! TD*
G04 #@! TO.P,M3,*
G04 #@! TO.N,*
X82500000Y-62250000D03*
G04 #@! TD*
D13*
G04 #@! TO.P,C1,2*
G04 #@! TO.N,/GND_MC*
X145750000Y-60250000D03*
G04 #@! TO.P,C1,1*
G04 #@! TO.N,Net-(C1-Pad1)*
X145750000Y-61750000D03*
G04 #@! TD*
G04 #@! TO.P,C2,1*
G04 #@! TO.N,Net-(C2-Pad1)*
X143000000Y-61750000D03*
G04 #@! TO.P,C2,2*
G04 #@! TO.N,/GND_MC*
X143000000Y-60250000D03*
G04 #@! TD*
D14*
G04 #@! TO.P,C3,1*
G04 #@! TO.N,/VCC*
X95250000Y-82500000D03*
G04 #@! TO.P,C3,2*
G04 #@! TO.N,Net-(C3-Pad2)*
X95250000Y-79000000D03*
G04 #@! TD*
G04 #@! TO.P,C4,2*
G04 #@! TO.N,/GND_MC*
X112750000Y-81500000D03*
G04 #@! TO.P,C4,1*
G04 #@! TO.N,/VCC_MC*
X112750000Y-78000000D03*
G04 #@! TD*
G04 #@! TO.P,C5,1*
G04 #@! TO.N,/VCC_MC*
X136500000Y-85000000D03*
G04 #@! TO.P,C5,2*
G04 #@! TO.N,/GND_MC*
X136500000Y-88500000D03*
G04 #@! TD*
G04 #@! TO.P,C6,2*
G04 #@! TO.N,/GND_MC*
X112750000Y-88500000D03*
G04 #@! TO.P,C6,1*
G04 #@! TO.N,/VCC_MC*
X112750000Y-85000000D03*
G04 #@! TD*
G04 #@! TO.P,C7,1*
G04 #@! TO.N,/VCC_MC*
X136500000Y-75250000D03*
G04 #@! TO.P,C7,2*
G04 #@! TO.N,/GND_MC*
X136500000Y-78750000D03*
G04 #@! TD*
G04 #@! TO.P,C8,2*
G04 #@! TO.N,/VCC*
X106250000Y-66250000D03*
G04 #@! TO.P,C8,1*
G04 #@! TO.N,/GND*
X106250000Y-69750000D03*
G04 #@! TD*
G04 #@! TO.P,C9,1*
G04 #@! TO.N,/A_VCC_MC*
X112750000Y-74500000D03*
G04 #@! TO.P,C9,2*
G04 #@! TO.N,/A_GND_MC*
X112750000Y-71000000D03*
G04 #@! TD*
G04 #@! TO.P,C10,2*
G04 #@! TO.N,/VCC*
X94250000Y-91250000D03*
G04 #@! TO.P,C10,1*
G04 #@! TO.N,/GND*
X94250000Y-87750000D03*
G04 #@! TD*
D15*
G04 #@! TO.P,DD1,1*
G04 #@! TO.N,/VCC_MC*
X131250000Y-83750000D03*
G04 #@! TO.P,DD1,48*
X120250000Y-83750000D03*
G04 #@! TO.P,DD1,2*
G04 #@! TO.N,/PF0_U2-RX*
X131250000Y-83250000D03*
G04 #@! TO.P,DD1,47*
G04 #@! TO.N,Net-(DD1-Pad47)*
X120250000Y-83250000D03*
G04 #@! TO.P,DD1,3*
G04 #@! TO.N,/PF1_U2-TX*
X131250000Y-82750000D03*
G04 #@! TO.P,DD1,46*
G04 #@! TO.N,Net-(DD1-Pad46)*
X120250000Y-82750000D03*
G04 #@! TO.P,DD1,4*
G04 #@! TO.N,/PF2_U2-En*
X131250000Y-82250000D03*
G04 #@! TO.P,DD1,45*
G04 #@! TO.N,Net-(DD1-Pad45)*
X120250000Y-82250000D03*
G04 #@! TO.P,DD1,5*
G04 #@! TO.N,Net-(DD1-Pad5)*
X131250000Y-81750000D03*
G04 #@! TO.P,DD1,44*
G04 #@! TO.N,Net-(DD1-Pad44)*
X120250000Y-81750000D03*
G04 #@! TO.P,DD1,6*
G04 #@! TO.N,/MODE*
X131250000Y-81250000D03*
G04 #@! TO.P,DD1,43*
G04 #@! TO.N,Net-(DD1-Pad43)*
X120250000Y-81250000D03*
G04 #@! TO.P,DD1,7*
G04 #@! TO.N,Net-(DD1-Pad7)*
X131250000Y-80750000D03*
G04 #@! TO.P,DD1,42*
G04 #@! TO.N,/PC0_SCL1*
X120250000Y-80750000D03*
G04 #@! TO.P,DD1,8*
G04 #@! TO.N,/MODE*
X131250000Y-80250000D03*
G04 #@! TO.P,DD1,41*
G04 #@! TO.N,/PC1_SDA1*
X120250000Y-80250000D03*
G04 #@! TO.P,DD1,9*
G04 #@! TO.N,/USB_D+*
X131250000Y-79750000D03*
G04 #@! TO.P,DD1,40*
G04 #@! TO.N,/PC2*
X120250000Y-79750000D03*
G04 #@! TO.P,DD1,10*
G04 #@! TO.N,/USB_D-*
X131250000Y-79250000D03*
G04 #@! TO.P,DD1,39*
G04 #@! TO.N,/GND_MC*
X120250000Y-79250000D03*
G04 #@! TO.P,DD1,11*
X131250000Y-78750000D03*
G04 #@! TO.P,DD1,38*
G04 #@! TO.N,/VCC_MC*
X120250000Y-78750000D03*
G04 #@! TO.P,DD1,12*
X131250000Y-78250000D03*
G04 #@! TO.P,DD1,37*
G04 #@! TO.N,Net-(DD1-Pad37)*
X120250000Y-78250000D03*
G04 #@! TO.P,DD1,13*
G04 #@! TO.N,/VCC_MC*
X131250000Y-77750000D03*
G04 #@! TO.P,DD1,36*
G04 #@! TO.N,/PD6_ADC6*
X120250000Y-77750000D03*
G04 #@! TO.P,DD1,14*
G04 #@! TO.N,Net-(DD1-Pad14)*
X131250000Y-77250000D03*
G04 #@! TO.P,DD1,35*
G04 #@! TO.N,/PD5_ADC5*
X120250000Y-77250000D03*
G04 #@! TO.P,DD1,15*
G04 #@! TO.N,/PE6_C2-TX*
X131250000Y-76750000D03*
G04 #@! TO.P,DD1,34*
G04 #@! TO.N,Net-(DD1-Pad34)*
X120250000Y-76750000D03*
G04 #@! TO.P,DD1,16*
G04 #@! TO.N,/PE6_C2-RX*
X131250000Y-76250000D03*
G04 #@! TO.P,DD1,33*
G04 #@! TO.N,Net-(DD1-Pad33)*
X120250000Y-76250000D03*
D16*
G04 #@! TO.P,DD1,17*
G04 #@! TO.N,Net-(DD1-Pad17)*
X129500000Y-74500000D03*
G04 #@! TO.P,DD1,18*
G04 #@! TO.N,/RES*
X129000000Y-74500000D03*
G04 #@! TO.P,DD1,19*
G04 #@! TO.N,Net-(C1-Pad1)*
X128500000Y-74500000D03*
G04 #@! TO.P,DD1,20*
G04 #@! TO.N,Net-(C2-Pad1)*
X128000000Y-74500000D03*
G04 #@! TO.P,DD1,21*
G04 #@! TO.N,/PE3_T2nC3*
X127500000Y-74500000D03*
G04 #@! TO.P,DD1,22*
G04 #@! TO.N,/PE2_T2C3*
X127000000Y-74500000D03*
G04 #@! TO.P,DD1,23*
G04 #@! TO.N,/A_GND_MC*
X126500000Y-74500000D03*
G04 #@! TO.P,DD1,24*
G04 #@! TO.N,/A_VCC_MC*
X126000000Y-74500000D03*
G04 #@! TO.P,DD1,25*
G04 #@! TO.N,/PE1_T2nC1*
X125500000Y-74500000D03*
G04 #@! TO.P,DD1,26*
G04 #@! TO.N,/PE0_T2C1_DAC*
X125000000Y-74500000D03*
G04 #@! TO.P,DD1,27*
G04 #@! TO.N,/A_GND_MC*
X124500000Y-74500000D03*
G04 #@! TO.P,DD1,28*
G04 #@! TO.N,/A_VCC_MC*
X124000000Y-74500000D03*
G04 #@! TO.P,DD1,29*
G04 #@! TO.N,/PD7_ADC7*
X123500000Y-74500000D03*
G04 #@! TO.P,DD1,30*
G04 #@! TO.N,/TDO_SWO*
X123000000Y-74500000D03*
G04 #@! TO.P,DD1,31*
G04 #@! TO.N,/TMS_DIO_RX*
X122500000Y-74500000D03*
G04 #@! TO.P,DD1,32*
G04 #@! TO.N,/TCK_CLK_TX*
X122000000Y-74500000D03*
G04 #@! TO.P,DD1,64*
G04 #@! TO.N,/GND_MC*
X129500000Y-85500000D03*
G04 #@! TO.P,DD1,63*
G04 #@! TO.N,Net-(DD1-Pad63)*
X129000000Y-85500000D03*
G04 #@! TO.P,DD1,62*
G04 #@! TO.N,Net-(DD1-Pad62)*
X128500000Y-85500000D03*
G04 #@! TO.P,DD1,61*
G04 #@! TO.N,Net-(DD1-Pad61)*
X128000000Y-85500000D03*
G04 #@! TO.P,DD1,60*
G04 #@! TO.N,Net-(DD1-Pad60)*
X127500000Y-85500000D03*
G04 #@! TO.P,DD1,59*
G04 #@! TO.N,/PA4*
X127000000Y-85500000D03*
G04 #@! TO.P,DD1,58*
G04 #@! TO.N,/PA5*
X126500000Y-85500000D03*
G04 #@! TO.P,DD1,57*
G04 #@! TO.N,/PA6*
X126000000Y-85500000D03*
G04 #@! TO.P,DD1,56*
G04 #@! TO.N,/PA7*
X125500000Y-85500000D03*
G04 #@! TO.P,DD1,55*
G04 #@! TO.N,/PB10*
X125000000Y-85500000D03*
G04 #@! TO.P,DD1,54*
G04 #@! TO.N,/PB9*
X124500000Y-85500000D03*
G04 #@! TO.P,DD1,53*
G04 #@! TO.N,/PB8*
X124000000Y-85500000D03*
G04 #@! TO.P,DD1,52*
G04 #@! TO.N,/PB7*
X123500000Y-85500000D03*
G04 #@! TO.P,DD1,51*
G04 #@! TO.N,/PB6*
X123000000Y-85500000D03*
G04 #@! TO.P,DD1,50*
G04 #@! TO.N,/PB5*
X122500000Y-85500000D03*
G04 #@! TO.P,DD1,49*
G04 #@! TO.N,/GND_MC*
X122000000Y-85500000D03*
G04 #@! TD*
D17*
G04 #@! TO.P,DD2,8*
G04 #@! TO.N,Net-(DD2-Pad8)*
X95662000Y-71000000D03*
G04 #@! TO.P,DD2,7*
G04 #@! TO.N,/CAN_H*
X95662000Y-69730000D03*
G04 #@! TO.P,DD2,6*
G04 #@! TO.N,/CAN_L*
X95662000Y-68460000D03*
G04 #@! TO.P,DD2,5*
G04 #@! TO.N,Net-(DD2-Pad5)*
X95662000Y-67190000D03*
G04 #@! TO.P,DD2,4*
G04 #@! TO.N,/PE6_C2-TX*
X101250000Y-67190000D03*
G04 #@! TO.P,DD2,3*
G04 #@! TO.N,/VCC*
X101250000Y-68460000D03*
G04 #@! TO.P,DD2,2*
G04 #@! TO.N,/GND*
X101250000Y-69730000D03*
G04 #@! TO.P,DD2,1*
G04 #@! TO.N,/PE6_C2-RX*
X101250000Y-71000000D03*
G04 #@! TD*
G04 #@! TO.P,DD3,1*
G04 #@! TO.N,/PF0_U2-RX*
X103500000Y-91500000D03*
G04 #@! TO.P,DD3,2*
G04 #@! TO.N,/PF2_U2-En*
X103500000Y-90230000D03*
G04 #@! TO.P,DD3,3*
X103500000Y-88960000D03*
G04 #@! TO.P,DD3,4*
G04 #@! TO.N,/PF1_U2-TX*
X103500000Y-87690000D03*
G04 #@! TO.P,DD3,5*
G04 #@! TO.N,/GND*
X97912000Y-87690000D03*
G04 #@! TO.P,DD3,6*
G04 #@! TO.N,/RS_A*
X97912000Y-88960000D03*
G04 #@! TO.P,DD3,7*
G04 #@! TO.N,/RS_B*
X97912000Y-90230000D03*
G04 #@! TO.P,DD3,8*
G04 #@! TO.N,/VCC*
X97912000Y-91500000D03*
G04 #@! TD*
D18*
G04 #@! TO.P,FU1,1*
G04 #@! TO.N,/GND*
X83500000Y-76000000D03*
G04 #@! TO.P,FU1,2*
G04 #@! TO.N,Net-(C3-Pad2)*
X88000000Y-76000000D03*
G04 #@! TD*
D19*
G04 #@! TO.P,HL1,1*
G04 #@! TO.N,Net-(HL1-Pad1)*
X90750000Y-71000000D03*
G04 #@! TO.P,HL1,2*
G04 #@! TO.N,/GND*
X92250000Y-71000000D03*
G04 #@! TD*
G04 #@! TO.P,HL2,2*
G04 #@! TO.N,/GND_LED1*
X114500000Y-91750000D03*
G04 #@! TO.P,HL2,1*
G04 #@! TO.N,Net-(HL2-Pad1)*
X114500000Y-93250000D03*
G04 #@! TD*
G04 #@! TO.P,HL3,1*
G04 #@! TO.N,Net-(HL3-Pad1)*
X117000000Y-93250000D03*
G04 #@! TO.P,HL3,2*
G04 #@! TO.N,/GND_LED1*
X117000000Y-91750000D03*
G04 #@! TD*
G04 #@! TO.P,HL4,1*
G04 #@! TO.N,Net-(HL4-Pad1)*
X119500000Y-93250000D03*
G04 #@! TO.P,HL4,2*
G04 #@! TO.N,/GND_LED1*
X119500000Y-91750000D03*
G04 #@! TD*
G04 #@! TO.P,HL5,1*
G04 #@! TO.N,Net-(HL5-Pad1)*
X122000000Y-93250000D03*
G04 #@! TO.P,HL5,2*
G04 #@! TO.N,/GND_LED1*
X122000000Y-91750000D03*
G04 #@! TD*
G04 #@! TO.P,HL6,2*
G04 #@! TO.N,/GND_LED1*
X124500000Y-91750000D03*
G04 #@! TO.P,HL6,1*
G04 #@! TO.N,Net-(HL6-Pad1)*
X124500000Y-93250000D03*
G04 #@! TD*
G04 #@! TO.P,HL7,1*
G04 #@! TO.N,Net-(HL7-Pad1)*
X127250000Y-93250000D03*
G04 #@! TO.P,HL7,2*
G04 #@! TO.N,/GND_LED1*
X127250000Y-91750000D03*
G04 #@! TD*
G04 #@! TO.P,HL8,1*
G04 #@! TO.N,Net-(HL8-Pad1)*
X129750000Y-93250000D03*
G04 #@! TO.P,HL8,2*
G04 #@! TO.N,/GND_LED1*
X129750000Y-91750000D03*
G04 #@! TD*
G04 #@! TO.P,HL9,2*
G04 #@! TO.N,/GND_LED1*
X132250000Y-91750000D03*
G04 #@! TO.P,HL9,1*
G04 #@! TO.N,Net-(HL9-Pad1)*
X132250000Y-93250000D03*
G04 #@! TD*
G04 #@! TO.P,HL10,2*
G04 #@! TO.N,/GND_LED1*
X134750000Y-91750000D03*
G04 #@! TO.P,HL10,1*
G04 #@! TO.N,Net-(HL10-Pad1)*
X134750000Y-93250000D03*
G04 #@! TD*
G04 #@! TO.P,HL11,2*
G04 #@! TO.N,/GND_LED1*
X137250000Y-91750000D03*
G04 #@! TO.P,HL11,1*
G04 #@! TO.N,Net-(HL11-Pad1)*
X137250000Y-93250000D03*
G04 #@! TD*
G04 #@! TO.P,HL12,1*
G04 #@! TO.N,Net-(HL12-Pad1)*
X114500000Y-66750000D03*
G04 #@! TO.P,HL12,2*
G04 #@! TO.N,/GND_LED2*
X114500000Y-68250000D03*
G04 #@! TD*
G04 #@! TO.P,HL13,1*
G04 #@! TO.N,Net-(HL13-Pad1)*
X117000000Y-66750000D03*
G04 #@! TO.P,HL13,2*
G04 #@! TO.N,/GND_LED2*
X117000000Y-68250000D03*
G04 #@! TD*
G04 #@! TO.P,HL14,2*
G04 #@! TO.N,/GND_LED2*
X119500000Y-68250000D03*
G04 #@! TO.P,HL14,1*
G04 #@! TO.N,Net-(HL14-Pad1)*
X119500000Y-66750000D03*
G04 #@! TD*
G04 #@! TO.P,HL15,2*
G04 #@! TO.N,/GND_LED2*
X122000000Y-68250000D03*
G04 #@! TO.P,HL15,1*
G04 #@! TO.N,Net-(HL15-Pad1)*
X122000000Y-66750000D03*
G04 #@! TD*
G04 #@! TO.P,HL16,1*
G04 #@! TO.N,Net-(HL16-Pad1)*
X124500000Y-66750000D03*
G04 #@! TO.P,HL16,2*
G04 #@! TO.N,/GND_LED2*
X124500000Y-68250000D03*
G04 #@! TD*
G04 #@! TO.P,HL17,2*
G04 #@! TO.N,/GND_LED2*
X127250000Y-68250000D03*
G04 #@! TO.P,HL17,1*
G04 #@! TO.N,Net-(HL17-Pad1)*
X127250000Y-66750000D03*
G04 #@! TD*
G04 #@! TO.P,HL18,1*
G04 #@! TO.N,Net-(HL18-Pad1)*
X129750000Y-66750000D03*
G04 #@! TO.P,HL18,2*
G04 #@! TO.N,/GND_LED2*
X129750000Y-68250000D03*
G04 #@! TD*
G04 #@! TO.P,HL19,2*
G04 #@! TO.N,/GND_LED2*
X132250000Y-68250000D03*
G04 #@! TO.P,HL19,1*
G04 #@! TO.N,Net-(HL19-Pad1)*
X132250000Y-66750000D03*
G04 #@! TD*
G04 #@! TO.P,HL20,1*
G04 #@! TO.N,Net-(HL20-Pad1)*
X134750000Y-66750000D03*
G04 #@! TO.P,HL20,2*
G04 #@! TO.N,/GND_LED2*
X134750000Y-68250000D03*
G04 #@! TD*
G04 #@! TO.P,HL21,2*
G04 #@! TO.N,/GND_LED2*
X137250000Y-68250000D03*
G04 #@! TO.P,HL21,1*
G04 #@! TO.N,Net-(HL21-Pad1)*
X137250000Y-66750000D03*
G04 #@! TD*
D20*
G04 #@! TO.P,L1,2*
G04 #@! TO.N,/VCC_MC*
X100750000Y-82750000D03*
G04 #@! TO.P,L1,1*
G04 #@! TO.N,/VCC*
X98750000Y-82750000D03*
G04 #@! TD*
G04 #@! TO.P,L2,1*
G04 #@! TO.N,Net-(C3-Pad2)*
X98750000Y-78750000D03*
G04 #@! TO.P,L2,2*
G04 #@! TO.N,/GND_MC*
X100750000Y-78750000D03*
G04 #@! TD*
D13*
G04 #@! TO.P,L3,2*
G04 #@! TO.N,/A_VCC_MC*
X133000000Y-72750000D03*
G04 #@! TO.P,L3,1*
G04 #@! TO.N,/VCC_MC*
X133000000Y-74750000D03*
G04 #@! TD*
G04 #@! TO.P,L4,1*
G04 #@! TO.N,/GND_MC*
X140000000Y-74750000D03*
G04 #@! TO.P,L4,2*
G04 #@! TO.N,/A_GND_MC*
X140000000Y-72750000D03*
G04 #@! TD*
D20*
G04 #@! TO.P,R1,2*
G04 #@! TO.N,/VCC*
X86500000Y-71000000D03*
G04 #@! TO.P,R1,1*
G04 #@! TO.N,Net-(HL1-Pad1)*
X88500000Y-71000000D03*
G04 #@! TD*
D13*
G04 #@! TO.P,R7,2*
G04 #@! TO.N,/RES*
X102750000Y-98000000D03*
G04 #@! TO.P,R7,1*
G04 #@! TO.N,/VCC_MC*
X102750000Y-96000000D03*
G04 #@! TD*
D20*
G04 #@! TO.P,R8,2*
G04 #@! TO.N,Net-(R8-Pad2)*
X92500000Y-67250000D03*
G04 #@! TO.P,R8,1*
G04 #@! TO.N,/GND*
X90500000Y-67250000D03*
G04 #@! TD*
G04 #@! TO.P,R9,1*
G04 #@! TO.N,/GND*
X93750000Y-74500000D03*
G04 #@! TO.P,R9,2*
G04 #@! TO.N,Net-(DD2-Pad8)*
X95750000Y-74500000D03*
G04 #@! TD*
D13*
G04 #@! TO.P,R10,2*
G04 #@! TO.N,Net-(DD1-Pad17)*
X140500000Y-88750000D03*
G04 #@! TO.P,R10,1*
G04 #@! TO.N,/VCC_MC*
X140500000Y-86750000D03*
G04 #@! TD*
D20*
G04 #@! TO.P,R11,2*
G04 #@! TO.N,/GND_MC*
X143250000Y-78000000D03*
G04 #@! TO.P,R11,1*
G04 #@! TO.N,/MODE*
X141250000Y-78000000D03*
G04 #@! TD*
G04 #@! TO.P,R12,2*
G04 #@! TO.N,/GND_MC*
X143250000Y-80750000D03*
G04 #@! TO.P,R12,1*
G04 #@! TO.N,Net-(DD1-Pad7)*
X141250000Y-80750000D03*
G04 #@! TD*
D13*
G04 #@! TO.P,R14,1*
G04 #@! TO.N,Net-(HL2-Pad1)*
X114500000Y-95500000D03*
G04 #@! TO.P,R14,2*
G04 #@! TO.N,/PB5*
X114500000Y-97500000D03*
G04 #@! TD*
G04 #@! TO.P,R15,2*
G04 #@! TO.N,/PB6*
X117000000Y-97499998D03*
G04 #@! TO.P,R15,1*
G04 #@! TO.N,Net-(HL3-Pad1)*
X117000000Y-95499998D03*
G04 #@! TD*
G04 #@! TO.P,R16,1*
G04 #@! TO.N,Net-(HL4-Pad1)*
X119500000Y-95500000D03*
G04 #@! TO.P,R16,2*
G04 #@! TO.N,/PB7*
X119500000Y-97500000D03*
G04 #@! TD*
G04 #@! TO.P,R17,1*
G04 #@! TO.N,Net-(HL5-Pad1)*
X122000000Y-95500000D03*
G04 #@! TO.P,R17,2*
G04 #@! TO.N,/PB8*
X122000000Y-97500000D03*
G04 #@! TD*
G04 #@! TO.P,R18,1*
G04 #@! TO.N,Net-(HL6-Pad1)*
X124500000Y-95500000D03*
G04 #@! TO.P,R18,2*
G04 #@! TO.N,/PB9*
X124500000Y-97500000D03*
G04 #@! TD*
G04 #@! TO.P,R19,1*
G04 #@! TO.N,Net-(HL7-Pad1)*
X127250000Y-95500000D03*
G04 #@! TO.P,R19,2*
G04 #@! TO.N,/PB10*
X127250000Y-97500000D03*
G04 #@! TD*
G04 #@! TO.P,R20,1*
G04 #@! TO.N,Net-(HL8-Pad1)*
X129750000Y-95500000D03*
G04 #@! TO.P,R20,2*
G04 #@! TO.N,/PA7*
X129750000Y-97500000D03*
G04 #@! TD*
G04 #@! TO.P,R21,1*
G04 #@! TO.N,Net-(HL9-Pad1)*
X132250000Y-95500000D03*
G04 #@! TO.P,R21,2*
G04 #@! TO.N,/PA6*
X132250000Y-97500000D03*
G04 #@! TD*
G04 #@! TO.P,R22,1*
G04 #@! TO.N,Net-(HL10-Pad1)*
X134750000Y-95500000D03*
G04 #@! TO.P,R22,2*
G04 #@! TO.N,/PA5*
X134750000Y-97500000D03*
G04 #@! TD*
G04 #@! TO.P,R23,1*
G04 #@! TO.N,Net-(HL11-Pad1)*
X137250000Y-95500000D03*
G04 #@! TO.P,R23,2*
G04 #@! TO.N,/PA4*
X137250000Y-97500000D03*
G04 #@! TD*
G04 #@! TO.P,R24,1*
G04 #@! TO.N,Net-(HL12-Pad1)*
X114500000Y-64500000D03*
G04 #@! TO.P,R24,2*
G04 #@! TO.N,/PD5_ADC5*
X114500000Y-62500000D03*
G04 #@! TD*
G04 #@! TO.P,R25,1*
G04 #@! TO.N,Net-(HL13-Pad1)*
X117000001Y-64500000D03*
G04 #@! TO.P,R25,2*
G04 #@! TO.N,/PD6_ADC6*
X117000001Y-62500000D03*
G04 #@! TD*
G04 #@! TO.P,R26,1*
G04 #@! TO.N,Net-(HL14-Pad1)*
X119500000Y-64500000D03*
G04 #@! TO.P,R26,2*
G04 #@! TO.N,/PC2*
X119500000Y-62500000D03*
G04 #@! TD*
G04 #@! TO.P,R27,1*
G04 #@! TO.N,Net-(HL15-Pad1)*
X122000000Y-64500000D03*
G04 #@! TO.P,R27,2*
G04 #@! TO.N,/PC1_SDA1*
X122000000Y-62500000D03*
G04 #@! TD*
G04 #@! TO.P,R28,1*
G04 #@! TO.N,Net-(HL16-Pad1)*
X124500000Y-64500000D03*
G04 #@! TO.P,R28,2*
G04 #@! TO.N,/PC0_SCL1*
X124500000Y-62500000D03*
G04 #@! TD*
G04 #@! TO.P,R30,1*
G04 #@! TO.N,Net-(HL18-Pad1)*
X129750000Y-64500000D03*
G04 #@! TO.P,R30,2*
G04 #@! TO.N,/PE0_T2C1_DAC*
X129750000Y-62500000D03*
G04 #@! TD*
G04 #@! TO.P,R31,2*
G04 #@! TO.N,/PE1_T2nC1*
X132250000Y-62500000D03*
G04 #@! TO.P,R31,1*
G04 #@! TO.N,Net-(HL19-Pad1)*
X132250000Y-64500000D03*
G04 #@! TD*
G04 #@! TO.P,R32,2*
G04 #@! TO.N,/PE2_T2C3*
X134750000Y-62500000D03*
G04 #@! TO.P,R32,1*
G04 #@! TO.N,Net-(HL20-Pad1)*
X134750000Y-64500000D03*
G04 #@! TD*
G04 #@! TO.P,R33,2*
G04 #@! TO.N,/PE3_T2nC3*
X137250000Y-62500000D03*
G04 #@! TO.P,R33,1*
G04 #@! TO.N,Net-(HL21-Pad1)*
X137250000Y-64500000D03*
G04 #@! TD*
D21*
G04 #@! TO.P,VD1,1*
G04 #@! TO.N,/+3\002C3_prog*
X90500000Y-96500000D03*
X90500000Y-94600000D03*
G04 #@! TO.P,VD1,2*
G04 #@! TO.N,/VCC*
X88300000Y-95550000D03*
G04 #@! TD*
G04 #@! TO.P,VD2,2*
G04 #@! TO.N,/VCC*
X84450000Y-71300000D03*
G04 #@! TO.P,VD2,1*
G04 #@! TO.N,/+3\002C3*
X82250000Y-72250000D03*
X82250000Y-70350000D03*
G04 #@! TD*
D22*
G04 #@! TO.P,VD3,1*
G04 #@! TO.N,/VCC*
X92200000Y-82650000D03*
X90300000Y-82650000D03*
G04 #@! TO.P,VD3,2*
G04 #@! TO.N,/+4...30*
X91250000Y-84850000D03*
G04 #@! TD*
G04 #@! TO.P,VD4,2*
G04 #@! TO.N,/VCC*
X91250000Y-80850000D03*
G04 #@! TO.P,VD4,1*
G04 #@! TO.N,Net-(C3-Pad2)*
X90300000Y-78650000D03*
X92200000Y-78650000D03*
G04 #@! TD*
D10*
G04 #@! TO.P,XP1,1*
G04 #@! TO.N,/GND*
X80000000Y-90000000D03*
D11*
G04 #@! TO.P,XP1,2*
G04 #@! TO.N,/USB_D+*
X80000000Y-87460000D03*
G04 #@! TO.P,XP1,3*
G04 #@! TO.N,/USB_D-*
X80000000Y-84920000D03*
G04 #@! TO.P,XP1,4*
G04 #@! TO.N,/+4...30*
X80000000Y-82380000D03*
G04 #@! TO.P,XP1,5*
X80000000Y-79840000D03*
G04 #@! TO.P,XP1,6*
G04 #@! TO.N,/GND*
X80000000Y-77300000D03*
G04 #@! TO.P,XP1,7*
X80000000Y-74760000D03*
G04 #@! TO.P,XP1,8*
G04 #@! TO.N,/+3\002C3*
X80000000Y-72220000D03*
G04 #@! TD*
D10*
G04 #@! TO.P,XP4,1*
G04 #@! TO.N,/RS_A*
X89500000Y-60000000D03*
D11*
G04 #@! TO.P,XP4,2*
G04 #@! TO.N,/RS_B*
X92040000Y-60000000D03*
G04 #@! TO.P,XP4,3*
G04 #@! TO.N,Net-(R8-Pad2)*
X94580000Y-60000000D03*
G04 #@! TO.P,XP4,4*
X97120000Y-60000000D03*
G04 #@! TO.P,XP4,5*
G04 #@! TO.N,/CAN_H*
X99660000Y-60000000D03*
G04 #@! TO.P,XP4,6*
G04 #@! TO.N,/CAN_L*
X102200000Y-60000000D03*
G04 #@! TD*
D10*
G04 #@! TO.P,XP5,1*
G04 #@! TO.N,Net-(XP5-Pad1)*
X110000000Y-100000000D03*
D11*
G04 #@! TO.P,XP5,2*
G04 #@! TO.N,/GND_MC*
X110000000Y-97460000D03*
G04 #@! TO.P,XP5,3*
G04 #@! TO.N,/GND_LED1*
X110000000Y-94920000D03*
G04 #@! TD*
G04 #@! TO.P,XP6,10*
G04 #@! TO.N,/PA4*
X137360000Y-100000000D03*
G04 #@! TO.P,XP6,9*
G04 #@! TO.N,/PA5*
X134820000Y-100000000D03*
G04 #@! TO.P,XP6,8*
G04 #@! TO.N,/PA6*
X132280000Y-100000000D03*
G04 #@! TO.P,XP6,7*
G04 #@! TO.N,/PA7*
X129740000Y-100000000D03*
G04 #@! TO.P,XP6,6*
G04 #@! TO.N,/PB10*
X127200000Y-100000000D03*
G04 #@! TO.P,XP6,5*
G04 #@! TO.N,/PB9*
X124660000Y-100000000D03*
G04 #@! TO.P,XP6,4*
G04 #@! TO.N,/PB8*
X122120000Y-100000000D03*
G04 #@! TO.P,XP6,3*
G04 #@! TO.N,/PB7*
X119580000Y-100000000D03*
G04 #@! TO.P,XP6,2*
G04 #@! TO.N,/PB6*
X117040000Y-100000000D03*
D10*
G04 #@! TO.P,XP6,1*
G04 #@! TO.N,/PB5*
X114500000Y-100000000D03*
G04 #@! TD*
D11*
G04 #@! TO.P,XP7,3*
G04 #@! TO.N,/GND_LED2*
X110000000Y-65080000D03*
G04 #@! TO.P,XP7,2*
G04 #@! TO.N,/GND_MC*
X110000000Y-62540000D03*
D10*
G04 #@! TO.P,XP7,1*
G04 #@! TO.N,Net-(XP7-Pad1)*
X110000000Y-60000000D03*
G04 #@! TD*
G04 #@! TO.P,XP8,1*
G04 #@! TO.N,/PD5_ADC5*
X114500000Y-60000000D03*
D11*
G04 #@! TO.P,XP8,2*
G04 #@! TO.N,/PD6_ADC6*
X117040000Y-60000000D03*
G04 #@! TO.P,XP8,3*
G04 #@! TO.N,/PC2*
X119580000Y-60000000D03*
G04 #@! TO.P,XP8,4*
G04 #@! TO.N,/PC1_SDA1*
X122120000Y-60000000D03*
G04 #@! TO.P,XP8,5*
G04 #@! TO.N,/PC0_SCL1*
X124660000Y-60000000D03*
G04 #@! TO.P,XP8,6*
G04 #@! TO.N,/PD7_ADC7*
X127200000Y-60000000D03*
G04 #@! TO.P,XP8,7*
G04 #@! TO.N,/PE0_T2C1_DAC*
X129740000Y-60000000D03*
G04 #@! TO.P,XP8,8*
G04 #@! TO.N,/PE1_T2nC1*
X132280000Y-60000000D03*
G04 #@! TO.P,XP8,9*
G04 #@! TO.N,/PE2_T2C3*
X134820000Y-60000000D03*
G04 #@! TO.P,XP8,10*
G04 #@! TO.N,/PE3_T2nC3*
X137360000Y-60000000D03*
G04 #@! TD*
D10*
G04 #@! TO.P,ZQ1,2*
G04 #@! TO.N,Net-(C2-Pad1)*
X144500000Y-68100000D03*
G04 #@! TO.P,ZQ1,1*
G04 #@! TO.N,Net-(C1-Pad1)*
X144500000Y-73000000D03*
G04 #@! TD*
D13*
G04 #@! TO.P,R29,2*
G04 #@! TO.N,/PD7_ADC7*
X127250000Y-62500000D03*
G04 #@! TO.P,R29,1*
G04 #@! TO.N,Net-(HL17-Pad1)*
X127250000Y-64500000D03*
G04 #@! TD*
G04 #@! TO.P,R2,2*
G04 #@! TO.N,/TMS_DIO_RX*
X97750000Y-98000000D03*
G04 #@! TO.P,R2,1*
G04 #@! TO.N,/VCC_MC*
X97750000Y-96000000D03*
G04 #@! TD*
G04 #@! TO.P,R3,1*
G04 #@! TO.N,/VCC_MC*
X95250000Y-96000000D03*
G04 #@! TO.P,R3,2*
G04 #@! TO.N,/TCK_CLK_TX*
X95250000Y-98000000D03*
G04 #@! TD*
G04 #@! TO.P,R6,2*
G04 #@! TO.N,/TDO_SWO*
X100250000Y-98000000D03*
G04 #@! TO.P,R6,1*
G04 #@! TO.N,/VCC_MC*
X100250000Y-96000000D03*
G04 #@! TD*
D10*
G04 #@! TO.P,XP2,1*
G04 #@! TO.N,/+4...30*
X87500000Y-100250000D03*
D11*
G04 #@! TO.P,XP2,2*
G04 #@! TO.N,/+3\002C3_prog*
X90040000Y-100250000D03*
G04 #@! TO.P,XP2,3*
G04 #@! TO.N,/GND*
X92580000Y-100250000D03*
G04 #@! TO.P,XP2,4*
G04 #@! TO.N,/TCK_CLK_TX*
X95120000Y-100250000D03*
G04 #@! TO.P,XP2,5*
G04 #@! TO.N,/TMS_DIO_RX*
X97660000Y-100250000D03*
G04 #@! TO.P,XP2,6*
G04 #@! TO.N,/TDO_SWO*
X100200000Y-100250000D03*
G04 #@! TO.P,XP2,7*
G04 #@! TO.N,/RES*
X102740000Y-100250000D03*
G04 #@! TO.P,XP2,8*
G04 #@! TO.N,/GND*
X105280000Y-100250000D03*
G04 #@! TD*
D23*
G04 #@! TO.N,/GND_MC*
X122750000Y-79750000D03*
X123500000Y-83000000D03*
X128750000Y-79000000D03*
X141500000Y-74750000D03*
X143250000Y-82500000D03*
X147250000Y-60250000D03*
X141500000Y-60250000D03*
X128000000Y-82250000D03*
G04 #@! TO.N,/GND*
X103500000Y-69750000D03*
X90500000Y-65500000D03*
X92250000Y-72250000D03*
X82000000Y-76000000D03*
X91500000Y-87750000D03*
X83000000Y-101000000D03*
G04 #@! TO.N,/A_VCC_MC*
X126250000Y-72000000D03*
X123750000Y-72250000D03*
X122250000Y-71000000D03*
X134750000Y-72750000D03*
G04 #@! TO.N,/A_GND_MC*
X126250000Y-71000000D03*
X124250000Y-71000000D03*
X122250000Y-70000000D03*
X141750000Y-72750000D03*
G04 #@! TO.N,/PF0_U2-RX*
X105750000Y-91500000D03*
X133750000Y-84250000D03*
G04 #@! TO.N,/PF1_U2-TX*
X133750000Y-83250000D03*
X105750000Y-87500000D03*
G04 #@! TO.N,/PF2_U2-En*
X133750000Y-82250000D03*
X105750000Y-90250000D03*
G04 #@! TO.N,/PC0_SCL1*
X117497835Y-82165712D03*
G04 #@! TO.N,/PC1_SDA1*
X117510899Y-81165796D03*
G04 #@! TO.N,/USB_D+*
X133750000Y-80250000D03*
X100750000Y-91750000D03*
G04 #@! TO.N,/PC2*
X117445299Y-80167948D03*
G04 #@! TO.N,/USB_D-*
X133750000Y-79250000D03*
X100750000Y-92750000D03*
G04 #@! TO.N,/PD6_ADC6*
X118012653Y-77737347D03*
G04 #@! TO.N,/PD5_ADC5*
X117999839Y-76737428D03*
G04 #@! TO.N,/PE6_C2-TX*
X133750000Y-77250000D03*
X109500000Y-85000000D03*
G04 #@! TO.N,/PE6_C2-RX*
X103500000Y-71000000D03*
X133750000Y-76250000D03*
X109500000Y-82250000D03*
G04 #@! TO.N,Net-(DD1-Pad17)*
X131000000Y-72250000D03*
X142250000Y-88750000D03*
G04 #@! TO.N,/RES*
X130000000Y-72225000D03*
G04 #@! TO.N,/PE3_T2nC3*
X128250000Y-70250000D03*
G04 #@! TO.N,/PE2_T2C3*
X127250000Y-70250000D03*
G04 #@! TO.N,/PE1_T2nC1*
X125500000Y-70000000D03*
G04 #@! TO.N,/PE0_T2C1_DAC*
X124500000Y-70000000D03*
G04 #@! TO.N,/PD7_ADC7*
X123500000Y-70000000D03*
G04 #@! TO.N,/PB9*
X124329742Y-89771479D03*
G04 #@! TO.N,/PB8*
X123307330Y-89768586D03*
G04 #@! TO.N,/PB7*
X122281672Y-89768939D03*
G04 #@! TO.N,/PB6*
X121262653Y-89762653D03*
G04 #@! TO.N,/PB5*
X120250000Y-89750000D03*
G04 #@! TO.N,/RS_A*
X96500000Y-89500000D03*
G04 #@! TO.N,/RS_B*
X96500000Y-90500000D03*
G04 #@! TO.N,/PA4*
X129329475Y-89750000D03*
G04 #@! TO.N,/PA5*
X128329474Y-89750001D03*
G04 #@! TO.N,/PA6*
X127329473Y-89749987D03*
G04 #@! TO.N,/PA7*
X126329472Y-89750160D03*
G04 #@! TO.N,/PB10*
X125329472Y-89748146D03*
G04 #@! TO.N,Net-(DD1-Pad34)*
X118000002Y-75737427D03*
G04 #@! TO.N,Net-(DD1-Pad33)*
X118000000Y-74737426D03*
G04 #@! TO.N,/TDO_SWO*
X116250000Y-74750000D03*
G04 #@! TO.N,/TMS_DIO_RX*
X116250000Y-73500000D03*
G04 #@! TO.N,/TCK_CLK_TX*
X116250000Y-76000000D03*
X107000000Y-87500000D03*
G04 #@! TD*
D24*
G04 #@! TO.N,/GND_MC*
X120250000Y-88500000D02*
X122000000Y-86750000D01*
X122000000Y-86750000D02*
X122000000Y-85500000D01*
X136500000Y-88500000D02*
X131500000Y-88500000D01*
X129500000Y-86500000D02*
X129500000Y-85500000D01*
X131250000Y-88500000D02*
X129500000Y-86750000D01*
X136500000Y-88500000D02*
X131250000Y-88500000D01*
X129500000Y-86750000D02*
X129500000Y-86500000D01*
X121500000Y-79250000D02*
X120250000Y-79250000D01*
X122250000Y-79250000D02*
X121500000Y-79250000D01*
X122750000Y-79750000D02*
X122250000Y-79250000D01*
X122000000Y-85500000D02*
X122000000Y-84500000D01*
X122000000Y-84500000D02*
X123250000Y-83250000D01*
X123250000Y-83250000D02*
X123500000Y-83000000D01*
X129000000Y-78750000D02*
X128750000Y-79000000D01*
X131250000Y-78750000D02*
X129000000Y-78750000D01*
X136500000Y-78750000D02*
X138250000Y-78750000D01*
X140000000Y-77000000D02*
X140000000Y-74750000D01*
X138250000Y-78750000D02*
X140000000Y-77000000D01*
X112750000Y-88500000D02*
X114500000Y-88500000D01*
X114500000Y-88500000D02*
X116000000Y-88500000D01*
X116000000Y-88500000D02*
X120250000Y-88500000D01*
X115000000Y-88500000D02*
X116000000Y-88500000D01*
X117000000Y-79250000D02*
X120250000Y-79250000D01*
X114750000Y-81500000D02*
X117000000Y-79250000D01*
X112750000Y-81500000D02*
X114750000Y-81500000D01*
X110250000Y-81500000D02*
X112750000Y-81500000D01*
X108500000Y-62940000D02*
X108500000Y-79750000D01*
X108900000Y-62540000D02*
X108500000Y-62940000D01*
X108500000Y-79750000D02*
X110250000Y-81500000D01*
X110000000Y-62540000D02*
X108900000Y-62540000D01*
X111000000Y-88500000D02*
X112750000Y-88500000D01*
X110750000Y-88500000D02*
X111000000Y-88500000D01*
X108500000Y-97060000D02*
X108500000Y-90750000D01*
X108500000Y-90750000D02*
X110750000Y-88500000D01*
X108900000Y-97460000D02*
X108500000Y-97060000D01*
X110000000Y-97460000D02*
X108900000Y-97460000D01*
X132500000Y-78750000D02*
X132750000Y-78500000D01*
X131250000Y-78750000D02*
X132500000Y-78750000D01*
X132750000Y-78500000D02*
X134500000Y-78500000D01*
X134500000Y-78500000D02*
X134750000Y-78750000D01*
X134750000Y-78750000D02*
X136500000Y-78750000D01*
X106500000Y-62250000D02*
X108610000Y-62250000D01*
X103136410Y-65613590D02*
X106500000Y-62250000D01*
X99500000Y-65613590D02*
X103136410Y-65613590D01*
X97750000Y-67363590D02*
X99500000Y-65613590D01*
X100750000Y-76750000D02*
X97750000Y-73750000D01*
X108610000Y-62250000D02*
X108900000Y-62540000D01*
X97750000Y-73750000D02*
X97750000Y-67363590D01*
X100750000Y-78750000D02*
X100750000Y-76750000D01*
X140000000Y-74750000D02*
X141500000Y-74750000D01*
X143250000Y-82500000D02*
X143250000Y-80750000D01*
X143250000Y-76500000D02*
X141500000Y-74750000D01*
X143250000Y-78000000D02*
X143250000Y-76500000D01*
X141500000Y-60250000D02*
X147250000Y-60250000D01*
X129500000Y-84250000D02*
X129500000Y-85500000D01*
X129250000Y-84000000D02*
X129500000Y-84250000D01*
X129250000Y-84000000D02*
X129000000Y-84000000D01*
X129000000Y-84000000D02*
X128750000Y-83750000D01*
X128750000Y-83000000D02*
X128000000Y-82250000D01*
X128750000Y-83750000D02*
X128750000Y-83000000D01*
G04 #@! TO.N,Net-(C1-Pad1)*
X145750000Y-71750000D02*
X144500000Y-73000000D01*
X145750000Y-61750000D02*
X145750000Y-71750000D01*
X144500000Y-71000000D02*
X144500000Y-73000000D01*
X143950010Y-70450010D02*
X144500000Y-71000000D01*
X128500000Y-74500000D02*
X128500000Y-73500000D01*
X128500000Y-73500000D02*
X129250000Y-72750000D01*
X129250000Y-71200010D02*
X130000000Y-70450010D01*
X129250000Y-72750000D02*
X129250000Y-71200010D01*
X130000000Y-70450010D02*
X143950010Y-70450010D01*
G04 #@! TO.N,Net-(C2-Pad1)*
X143000000Y-66600000D02*
X144500000Y-68100000D01*
X143000000Y-61750000D02*
X143000000Y-66600000D01*
X144500000Y-69500000D02*
X144500000Y-68100000D01*
X129813600Y-70000000D02*
X144000000Y-70000000D01*
X144000000Y-70000000D02*
X144500000Y-69500000D01*
X128750000Y-71063600D02*
X129813600Y-70000000D01*
X128750000Y-72613590D02*
X128750000Y-71063600D01*
X128000000Y-73363590D02*
X128750000Y-72613590D01*
X128000000Y-74500000D02*
X128000000Y-73363590D01*
G04 #@! TO.N,/VCC*
X90300000Y-82250000D02*
X90300000Y-83050000D01*
X84450000Y-71300000D02*
X84450000Y-71950000D01*
X84450000Y-71950000D02*
X85750000Y-73250000D01*
X85750000Y-78750000D02*
X88250000Y-81250000D01*
X85750000Y-73250000D02*
X85750000Y-78750000D01*
X86500000Y-71000000D02*
X85750000Y-71000000D01*
X85450000Y-71300000D02*
X84450000Y-71300000D01*
X85750000Y-71000000D02*
X85450000Y-71300000D01*
X95250000Y-82500000D02*
X97250000Y-82500000D01*
X97250000Y-82500000D02*
X97500000Y-82750000D01*
X97500000Y-82750000D02*
X98750000Y-82750000D01*
X94500000Y-91500000D02*
X94250000Y-91250000D01*
X97912000Y-91500000D02*
X94500000Y-91500000D01*
X99500000Y-66250000D02*
X106250000Y-66250000D01*
X98250000Y-67500000D02*
X99500000Y-66250000D01*
X98250000Y-73500000D02*
X98250000Y-67500000D01*
X102000000Y-81000000D02*
X103000000Y-80000000D01*
X99500000Y-81000000D02*
X102000000Y-81000000D01*
X103000000Y-78250000D02*
X98250000Y-73500000D01*
X98750000Y-81750000D02*
X99500000Y-81000000D01*
X103000000Y-80000000D02*
X103000000Y-78250000D01*
X98750000Y-82750000D02*
X98750000Y-81750000D01*
X106250000Y-67250000D02*
X106250000Y-66250000D01*
X106250000Y-67500000D02*
X106250000Y-67250000D01*
X101250000Y-68460000D02*
X102236600Y-68460000D01*
X102236600Y-68460000D02*
X102946600Y-67750000D01*
X106000000Y-67750000D02*
X106250000Y-67500000D01*
X102946600Y-67750000D02*
X106000000Y-67750000D01*
X88300000Y-95550000D02*
X88300000Y-92700000D01*
X89750000Y-91250000D02*
X94250000Y-91250000D01*
X88300000Y-92700000D02*
X89750000Y-91250000D01*
X92200000Y-82650000D02*
X93100000Y-82650000D01*
X93250000Y-82500000D02*
X93750000Y-82500000D01*
X93100000Y-82650000D02*
X93250000Y-82500000D01*
X95250000Y-82500000D02*
X93750000Y-82500000D01*
X90300000Y-81750000D02*
X90300000Y-82650000D01*
X90300000Y-81750000D02*
X90300000Y-82250000D01*
X92200000Y-81750000D02*
X92200000Y-82650000D01*
X92200000Y-81750000D02*
X92200000Y-82250000D01*
X91900000Y-80850000D02*
X91250000Y-80850000D01*
X92200000Y-81150000D02*
X91900000Y-80850000D01*
X92200000Y-82650000D02*
X92200000Y-81150000D01*
X90300000Y-81150000D02*
X90300000Y-81750000D01*
X90600000Y-80850000D02*
X90300000Y-81150000D01*
X91250000Y-80850000D02*
X90600000Y-80850000D01*
X88500000Y-81000000D02*
X88250000Y-81250000D01*
X90150000Y-81000000D02*
X88500000Y-81000000D01*
X90300000Y-81150000D02*
X90150000Y-81000000D01*
X88750000Y-96650000D02*
X88300000Y-96200000D01*
X88750000Y-101250000D02*
X88750000Y-96650000D01*
X88250000Y-101750000D02*
X88750000Y-101250000D01*
X78000000Y-79250000D02*
X78000000Y-92750000D01*
X87000000Y-101750000D02*
X88250000Y-101750000D01*
X78750000Y-78500000D02*
X78000000Y-79250000D01*
X78000000Y-92750000D02*
X87000000Y-101750000D01*
X82000000Y-78500000D02*
X78750000Y-78500000D01*
X88300000Y-96200000D02*
X88300000Y-95550000D01*
X82250000Y-78750000D02*
X82000000Y-78500000D01*
X85750000Y-78750000D02*
X82250000Y-78750000D01*
G04 #@! TO.N,Net-(C3-Pad2)*
X90300000Y-78100000D02*
X90300000Y-78900000D01*
X89000000Y-76000000D02*
X90300000Y-77300000D01*
X88000000Y-76000000D02*
X89000000Y-76000000D01*
X90300000Y-77300000D02*
X91550000Y-77300000D01*
X92200000Y-78100000D02*
X92200000Y-78900000D01*
X92200000Y-77950000D02*
X92200000Y-78100000D01*
X91550000Y-77300000D02*
X92200000Y-77950000D01*
X95150000Y-78900000D02*
X95250000Y-79000000D01*
X95250000Y-79000000D02*
X97250000Y-79000000D01*
X97500000Y-78750000D02*
X98750000Y-78750000D01*
X97250000Y-79000000D02*
X97500000Y-78750000D01*
X92200000Y-77950000D02*
X92200000Y-78650000D01*
X90300000Y-77300000D02*
X90300000Y-77750000D01*
X90300000Y-77750000D02*
X90300000Y-78650000D01*
X90300000Y-77750000D02*
X90300000Y-78100000D01*
X93000000Y-78650000D02*
X93250000Y-78900000D01*
X93250000Y-78900000D02*
X95150000Y-78900000D01*
X92200000Y-78650000D02*
X93000000Y-78650000D01*
G04 #@! TO.N,/VCC_MC*
X118750000Y-83750000D02*
X120250000Y-83750000D01*
X117500000Y-85000000D02*
X118750000Y-83750000D01*
X120250000Y-78750000D02*
X123000000Y-78750000D01*
X101500000Y-82750000D02*
X100750000Y-82750000D01*
X119000000Y-86750000D02*
X105500000Y-86750000D01*
X121500000Y-84250000D02*
X119000000Y-86750000D01*
X121500000Y-84250000D02*
X121750000Y-84000000D01*
X105500000Y-86750000D02*
X101500000Y-82750000D01*
X121250000Y-83750000D02*
X120250000Y-83750000D01*
X122500000Y-82750000D02*
X121750000Y-82750000D01*
X121500000Y-83000000D02*
X121500000Y-83500000D01*
X122500000Y-83250000D02*
X122500000Y-82750000D01*
X121750000Y-82750000D02*
X121500000Y-83000000D01*
X121500000Y-83500000D02*
X121250000Y-83750000D01*
X121750000Y-84000000D02*
X122500000Y-83250000D01*
X129636410Y-83750000D02*
X129500000Y-83613590D01*
X131250000Y-83750000D02*
X129636410Y-83750000D01*
X129000000Y-77750000D02*
X131250000Y-77750000D01*
X129500000Y-78250000D02*
X129000000Y-77750000D01*
X131250000Y-78250000D02*
X129500000Y-78250000D01*
X136500000Y-75250000D02*
X134750000Y-75250000D01*
X134250000Y-74750000D02*
X133000000Y-74750000D01*
X134750000Y-75250000D02*
X134250000Y-74750000D01*
X112750000Y-85000000D02*
X115750000Y-85000000D01*
X115750000Y-85000000D02*
X117500000Y-85000000D01*
X115000000Y-85000000D02*
X115750000Y-85000000D01*
X112750000Y-78000000D02*
X115500000Y-78000000D01*
X115500000Y-78000000D02*
X114750000Y-78000000D01*
X95250000Y-96000000D02*
X97750000Y-96000000D01*
X97750000Y-96000000D02*
X100250000Y-96000000D01*
X102750000Y-96000000D02*
X100250000Y-96000000D01*
X116250000Y-78000000D02*
X115500000Y-78000000D01*
X117000000Y-78750000D02*
X116250000Y-78000000D01*
X120250000Y-78750000D02*
X117000000Y-78750000D01*
X136500000Y-76250000D02*
X136500000Y-75250000D01*
X132500000Y-78000000D02*
X134250000Y-78000000D01*
X135500000Y-76750000D02*
X136000000Y-76750000D01*
X134250000Y-78000000D02*
X135500000Y-76750000D01*
X132250000Y-78250000D02*
X132500000Y-78000000D01*
X136000000Y-76750000D02*
X136500000Y-76250000D01*
X131250000Y-78250000D02*
X132250000Y-78250000D01*
X134750000Y-85000000D02*
X136500000Y-85000000D01*
X133125000Y-85000000D02*
X134750000Y-85000000D01*
X131875000Y-83750000D02*
X133125000Y-85000000D01*
X131250000Y-83750000D02*
X131875000Y-83750000D01*
X102000000Y-86000000D02*
X100750000Y-84750000D01*
X102000000Y-93500000D02*
X102000000Y-86000000D01*
X100750000Y-84750000D02*
X100750000Y-82750000D01*
X100250000Y-95250000D02*
X102000000Y-93500000D01*
X100250000Y-96000000D02*
X100250000Y-95250000D01*
X140500000Y-86750000D02*
X140500000Y-85750000D01*
X139750000Y-85000000D02*
X140500000Y-85750000D01*
X136500000Y-85000000D02*
X139750000Y-85000000D01*
X147460000Y-78210000D02*
X146850000Y-78210000D01*
X147750000Y-84250000D02*
X147750000Y-78500000D01*
X141250000Y-85000000D02*
X147000000Y-85000000D01*
X147750000Y-78500000D02*
X147460000Y-78210000D01*
X147000000Y-85000000D02*
X147750000Y-84250000D01*
X146850000Y-78210000D02*
X145750000Y-78210000D01*
X140500000Y-85750000D02*
X141250000Y-85000000D01*
X129500000Y-83250000D02*
X129500000Y-82000000D01*
X129500000Y-83613590D02*
X129500000Y-83250000D01*
X129500000Y-82000000D02*
X129000000Y-81500000D01*
G04 #@! TO.N,/GND*
X103500000Y-69750000D02*
X106230000Y-69730000D01*
X101270000Y-69750000D02*
X101250000Y-69730000D01*
X103500000Y-69750000D02*
X101270000Y-69750000D01*
X90500000Y-65500000D02*
X90500000Y-67250000D01*
X93000000Y-74500000D02*
X93750000Y-74500000D01*
X92250000Y-73750000D02*
X93000000Y-74500000D01*
X92250000Y-72250000D02*
X92250000Y-73750000D01*
X92250000Y-71000000D02*
X92250000Y-72250000D01*
X82000000Y-76000000D02*
X83500000Y-76000000D01*
X91560000Y-87690000D02*
X91500000Y-87750000D01*
X97912000Y-87690000D02*
X91560000Y-87690000D01*
X84250000Y-102250000D02*
X83000000Y-101000000D01*
X91680000Y-102250000D02*
X84250000Y-102250000D01*
X92580000Y-101350000D02*
X91680000Y-102250000D01*
X92580000Y-100250000D02*
X92580000Y-101350000D01*
G04 #@! TO.N,/A_VCC_MC*
X126000000Y-72250000D02*
X126250000Y-72000000D01*
X126000000Y-74500000D02*
X126000000Y-72250000D01*
X124000000Y-72500000D02*
X123750000Y-72250000D01*
X124000000Y-74500000D02*
X124000000Y-72500000D01*
X121250000Y-72000000D02*
X122250000Y-71000000D01*
X115750000Y-72000000D02*
X121250000Y-72000000D01*
X114750000Y-73000000D02*
X115750000Y-72000000D01*
X113250000Y-73000000D02*
X114750000Y-73000000D01*
X112750000Y-73500000D02*
X113250000Y-73000000D01*
X112750000Y-74500000D02*
X112750000Y-73500000D01*
X134750000Y-72750000D02*
X133000000Y-72750000D01*
G04 #@! TO.N,/A_GND_MC*
X126815685Y-71000000D02*
X126250000Y-71000000D01*
X127000000Y-71184315D02*
X126815685Y-71000000D01*
X126500000Y-72823002D02*
X127000000Y-72323002D01*
X127000000Y-72323002D02*
X127000000Y-71184315D01*
X126500000Y-74500000D02*
X126500000Y-72823002D01*
X112750000Y-71000000D02*
X115750000Y-71000000D01*
X114750000Y-71000000D02*
X115750000Y-71000000D01*
X124250000Y-71565685D02*
X124250000Y-71000000D01*
X124500000Y-71815685D02*
X124250000Y-71565685D01*
X124500000Y-74500000D02*
X124500000Y-71815685D01*
X120250000Y-71000000D02*
X121250000Y-70000000D01*
X121250000Y-70000000D02*
X122250000Y-70000000D01*
X112750000Y-71000000D02*
X120250000Y-71000000D01*
X141750000Y-72750000D02*
X140000000Y-72750000D01*
G04 #@! TO.N,/PF0_U2-RX*
X103500000Y-91500000D02*
X105750000Y-91500000D01*
X133676998Y-84250000D02*
X133750000Y-84250000D01*
X132676998Y-83250000D02*
X133676998Y-84250000D01*
X131250000Y-83250000D02*
X132676998Y-83250000D01*
G04 #@! TO.N,/PF1_U2-TX*
X133676998Y-83250000D02*
X133750000Y-83250000D01*
X133176998Y-82750000D02*
X133676998Y-83250000D01*
X131250000Y-82750000D02*
X133176998Y-82750000D01*
X104994315Y-87690000D02*
X104750000Y-87690000D01*
X105184315Y-87500000D02*
X104994315Y-87690000D01*
X105750000Y-87500000D02*
X105184315Y-87500000D01*
X103500000Y-87690000D02*
X104750000Y-87690000D01*
G04 #@! TO.N,/PF2_U2-En*
X133062022Y-82250000D02*
X131250000Y-82250000D01*
X133750000Y-82250000D02*
X133062022Y-82250000D01*
X103520000Y-90250000D02*
X103500000Y-90230000D01*
X105750000Y-90250000D02*
X103520000Y-90250000D01*
X105025685Y-88960000D02*
X103500000Y-88960000D01*
X105750000Y-89684315D02*
X105025685Y-88960000D01*
X105750000Y-90250000D02*
X105750000Y-89684315D01*
G04 #@! TO.N,/MODE*
X145750000Y-79650000D02*
X145750000Y-80750000D01*
X145600000Y-79500000D02*
X145750000Y-79650000D01*
X141750000Y-79500000D02*
X145600000Y-79500000D01*
X141250000Y-79000000D02*
X141750000Y-79500000D01*
X141250000Y-78000000D02*
X141250000Y-79000000D01*
X140000000Y-78250000D02*
X140250000Y-78000000D01*
X140000000Y-80000000D02*
X140000000Y-78250000D01*
X135000000Y-80250000D02*
X139750000Y-80250000D01*
X134274999Y-80975001D02*
X135000000Y-80250000D01*
X140250000Y-78000000D02*
X141250000Y-78000000D01*
X139750000Y-80250000D02*
X140000000Y-80000000D01*
X133401999Y-80975001D02*
X134274999Y-80975001D01*
X132676998Y-80250000D02*
X133401999Y-80975001D01*
X131250000Y-80250000D02*
X132676998Y-80250000D01*
X131250000Y-80250000D02*
X130250000Y-80250000D01*
X130250000Y-80250000D02*
X130000000Y-80500000D01*
X130000000Y-80500000D02*
X130000000Y-81000000D01*
X130250000Y-81250000D02*
X131250000Y-81250000D01*
X130000000Y-81000000D02*
X130250000Y-81250000D01*
G04 #@! TO.N,Net-(DD1-Pad7)*
X134461400Y-81425010D02*
X135136410Y-80750000D01*
X135136410Y-80750000D02*
X139000000Y-80750000D01*
X139000000Y-80750000D02*
X141250000Y-80750000D01*
X133175011Y-81425011D02*
X134461400Y-81425010D01*
X132500000Y-80750000D02*
X133175011Y-81425011D01*
X131250000Y-80750000D02*
X132500000Y-80750000D01*
G04 #@! TO.N,/PC0_SCL1*
X117583985Y-82165712D02*
X117497835Y-82165712D01*
X118999697Y-80750000D02*
X117583985Y-82165712D01*
X120250000Y-80750000D02*
X118999697Y-80750000D01*
X124660000Y-62340000D02*
X124500000Y-62500000D01*
X124660000Y-60000000D02*
X124660000Y-62340000D01*
G04 #@! TO.N,/PC1_SDA1*
X118436249Y-80250000D02*
X117520453Y-81165796D01*
X117520453Y-81165796D02*
X117510899Y-81165796D01*
X120250000Y-80250000D02*
X118436249Y-80250000D01*
X122120000Y-62380000D02*
X122000000Y-62500000D01*
X122120000Y-60000000D02*
X122120000Y-62380000D01*
G04 #@! TO.N,/USB_D+*
X133602998Y-80250000D02*
X133750000Y-80250000D01*
X133102998Y-79750000D02*
X133602998Y-80250000D01*
X131250000Y-79750000D02*
X133102998Y-79750000D01*
X101500000Y-92184315D02*
X101065685Y-91750000D01*
X101065685Y-91750000D02*
X100750000Y-91750000D01*
X101500000Y-92250000D02*
X101500000Y-92184315D01*
X101525001Y-92275001D02*
X101500000Y-92250000D01*
X101525001Y-93224999D02*
X101525001Y-92275001D01*
X99250000Y-93250000D02*
X99750000Y-93750000D01*
X101000000Y-93750000D02*
X101525001Y-93224999D01*
X99750000Y-93750000D02*
X101000000Y-93750000D01*
X99250000Y-90250000D02*
X99250000Y-85750000D01*
X99250000Y-90000000D02*
X99250000Y-90250000D01*
X99250000Y-90250000D02*
X99250000Y-93250000D01*
X99250000Y-85750000D02*
X98500000Y-85000000D01*
X98500000Y-85000000D02*
X93957120Y-85000000D01*
X93957120Y-85000000D02*
X92707110Y-86250010D01*
X92707110Y-86250010D02*
X83249990Y-86250010D01*
X82040000Y-87460000D02*
X80000000Y-87460000D01*
X83249990Y-86250010D02*
X82040000Y-87460000D01*
G04 #@! TO.N,/PC2*
X119580000Y-62420000D02*
X119500000Y-62500000D01*
X119580000Y-60000000D02*
X119580000Y-62420000D01*
X117863247Y-79750000D02*
X117445299Y-80167948D01*
X120250000Y-79750000D02*
X117863247Y-79750000D01*
G04 #@! TO.N,/USB_D-*
X131250000Y-79250000D02*
X133750000Y-79250000D01*
X99974999Y-92540684D02*
X99974999Y-91025001D01*
X100184315Y-92750000D02*
X99974999Y-92540684D01*
X100750000Y-92750000D02*
X100184315Y-92750000D01*
X99974999Y-91025001D02*
X100000000Y-91000000D01*
X100000000Y-91000000D02*
X100000000Y-85500000D01*
X100000000Y-85500000D02*
X99000000Y-84500000D01*
X95000000Y-84500000D02*
X93750000Y-84500000D01*
X99000000Y-84500000D02*
X95000000Y-84500000D01*
X95000000Y-84500000D02*
X94750000Y-84500000D01*
X93750000Y-84500000D02*
X92500000Y-85750000D01*
X92500000Y-85750000D02*
X83250000Y-85750000D01*
X81100000Y-84920000D02*
X80000000Y-84920000D01*
X82420000Y-84920000D02*
X81100000Y-84920000D01*
X83250000Y-85750000D02*
X82420000Y-84920000D01*
G04 #@! TO.N,/PD6_ADC6*
X117040000Y-62460001D02*
X117000001Y-62500000D01*
X117040000Y-60000000D02*
X117040000Y-62460001D01*
X118025306Y-77750000D02*
X118012653Y-77737347D01*
X120250000Y-77750000D02*
X118025306Y-77750000D01*
G04 #@! TO.N,/PD5_ADC5*
X114500000Y-60000000D02*
X114500000Y-62500000D01*
X118085736Y-76737428D02*
X117999839Y-76737428D01*
X118598308Y-77250000D02*
X118085736Y-76737428D01*
X120250000Y-77250000D02*
X118598308Y-77250000D01*
G04 #@! TO.N,/PE6_C2-TX*
X133676998Y-77250000D02*
X133750000Y-77250000D01*
X133176998Y-76750000D02*
X133676998Y-77250000D01*
X131250000Y-76750000D02*
X133176998Y-76750000D01*
X109500000Y-84434315D02*
X109500000Y-85000000D01*
X109500000Y-84113590D02*
X109500000Y-84434315D01*
X98750000Y-73363590D02*
X109500000Y-84113590D01*
X98750000Y-68000000D02*
X98750000Y-73363590D01*
X99560000Y-67190000D02*
X98750000Y-68000000D01*
X101250000Y-67190000D02*
X99560000Y-67190000D01*
G04 #@! TO.N,/PE6_C2-RX*
X101250000Y-71000000D02*
X103500000Y-71000000D01*
X131250000Y-76250000D02*
X133750000Y-76250000D01*
X103500000Y-76250000D02*
X109500000Y-82250000D01*
X103500000Y-71000000D02*
X103500000Y-76250000D01*
G04 #@! TO.N,Net-(DD1-Pad17)*
X131000000Y-72375000D02*
X131000000Y-72250000D01*
X129500000Y-73875000D02*
X131000000Y-72375000D01*
X129500000Y-74500000D02*
X129500000Y-73875000D01*
X142250000Y-88750000D02*
X140500000Y-88750000D01*
G04 #@! TO.N,/RES*
X102740000Y-98010000D02*
X102750000Y-98000000D01*
X102740000Y-100250000D02*
X102740000Y-98010000D01*
X130000000Y-72636410D02*
X130000000Y-72225000D01*
X129000000Y-73636410D02*
X130000000Y-72636410D01*
X129000000Y-74500000D02*
X129000000Y-73636410D01*
G04 #@! TO.N,/PE3_T2nC3*
X137360000Y-62390000D02*
X137250000Y-62500000D01*
X137360000Y-60000000D02*
X137360000Y-62390000D01*
X128250000Y-72477180D02*
X127500000Y-73227180D01*
X128250000Y-70250000D02*
X128250000Y-72477180D01*
X127500000Y-73227180D02*
X127500000Y-74500000D01*
G04 #@! TO.N,/PE2_T2C3*
X134820000Y-62430000D02*
X134750000Y-62500000D01*
X134820000Y-60000000D02*
X134820000Y-62430000D01*
X127750000Y-72340770D02*
X127000000Y-73090770D01*
X127000000Y-73090770D02*
X127000000Y-74500000D01*
X127250000Y-70500000D02*
X127750000Y-71000000D01*
X127750000Y-71000000D02*
X127750000Y-72340770D01*
X127250000Y-70250000D02*
X127250000Y-70500000D01*
G04 #@! TO.N,/PE1_T2nC1*
X132280000Y-62470000D02*
X132250000Y-62500000D01*
X132280000Y-60000000D02*
X132280000Y-62470000D01*
X125500000Y-74500000D02*
X125500000Y-70000000D01*
G04 #@! TO.N,/PE0_T2C1_DAC*
X129740000Y-62490000D02*
X129750000Y-62500000D01*
X129740000Y-60000000D02*
X129740000Y-62490000D01*
X124500000Y-70073002D02*
X124500000Y-70000000D01*
X125000000Y-70573002D02*
X124500000Y-70073002D01*
X125000000Y-74500000D02*
X125000000Y-70573002D01*
G04 #@! TO.N,/PD7_ADC7*
X127200000Y-62450000D02*
X127250000Y-62500000D01*
X127200000Y-60000000D02*
X127200000Y-62450000D01*
X123000000Y-70500000D02*
X123500000Y-70000000D01*
X123000000Y-72573002D02*
X123000000Y-70500000D01*
X123500000Y-73073002D02*
X123000000Y-72573002D01*
X123500000Y-74500000D02*
X123500000Y-73073002D01*
G04 #@! TO.N,/PB9*
X124660000Y-97660000D02*
X124500000Y-97500000D01*
X124660000Y-100000000D02*
X124660000Y-97660000D01*
X124500000Y-89601221D02*
X124329742Y-89771479D01*
X124500000Y-85500000D02*
X124500000Y-89601221D01*
G04 #@! TO.N,/PB8*
X122120000Y-97620000D02*
X122000000Y-97500000D01*
X122120000Y-100000000D02*
X122120000Y-97620000D01*
X124000000Y-89075916D02*
X123307330Y-89768586D01*
X124000000Y-85500000D02*
X124000000Y-89075916D01*
G04 #@! TO.N,/PB7*
X119580000Y-97580000D02*
X119500000Y-97500000D01*
X119580000Y-100000000D02*
X119580000Y-97580000D01*
X123500000Y-88550611D02*
X122281672Y-89768939D01*
X123500000Y-85500000D02*
X123500000Y-88550611D01*
G04 #@! TO.N,/PB6*
X117040000Y-97539998D02*
X117000000Y-97499998D01*
X117040000Y-100000000D02*
X117040000Y-97539998D01*
X123000000Y-88025306D02*
X121262653Y-89762653D01*
X123000000Y-85500000D02*
X123000000Y-88025306D01*
G04 #@! TO.N,/PB5*
X114500000Y-100000000D02*
X114500000Y-97500000D01*
X122500000Y-87500000D02*
X120250000Y-89750000D01*
X122500000Y-85500000D02*
X122500000Y-87500000D01*
G04 #@! TO.N,Net-(DD2-Pad8)*
X95662000Y-74412000D02*
X95750000Y-74500000D01*
X95662000Y-71000000D02*
X95662000Y-74412000D01*
G04 #@! TO.N,/CAN_H*
X94675400Y-69730000D02*
X93750000Y-68804600D01*
X95662000Y-69730000D02*
X94675400Y-69730000D01*
X93750000Y-66363590D02*
X95613590Y-64500000D01*
X93750000Y-68804600D02*
X93750000Y-66363590D01*
X95613590Y-64500000D02*
X98500000Y-64500000D01*
X99660000Y-63340000D02*
X99660000Y-60000000D01*
X98500000Y-64500000D02*
X99660000Y-63340000D01*
G04 #@! TO.N,/CAN_L*
X102200000Y-61100000D02*
X102200000Y-60000000D01*
X102200000Y-61436410D02*
X102200000Y-61100000D01*
X98636410Y-65000000D02*
X102200000Y-61436410D01*
X95750000Y-65000000D02*
X98636410Y-65000000D01*
X94250000Y-66500000D02*
X95750000Y-65000000D01*
X94250000Y-68034600D02*
X94250000Y-66500000D01*
X94675400Y-68460000D02*
X94250000Y-68034600D01*
X95662000Y-68460000D02*
X94675400Y-68460000D01*
G04 #@! TO.N,/RS_A*
X97040000Y-88960000D02*
X96500000Y-89500000D01*
X97912000Y-88960000D02*
X97040000Y-88960000D01*
G04 #@! TO.N,/RS_B*
X96770000Y-90230000D02*
X96500000Y-90500000D01*
X97912000Y-90230000D02*
X96770000Y-90230000D01*
G04 #@! TO.N,/+4...30*
X80000000Y-79840000D02*
X83090000Y-79840000D01*
X83250000Y-80000000D02*
X83250000Y-81250000D01*
X83090000Y-79840000D02*
X83250000Y-80000000D01*
X83250000Y-82350000D02*
X83250000Y-81250000D01*
X83250000Y-82750000D02*
X83250000Y-82350000D01*
X83500000Y-83000000D02*
X83250000Y-82750000D01*
X88350000Y-83000000D02*
X83500000Y-83000000D01*
X81470000Y-82750000D02*
X83250000Y-82750000D01*
X81100000Y-82380000D02*
X81470000Y-82750000D01*
X80000000Y-82380000D02*
X81100000Y-82380000D01*
X78870000Y-82380000D02*
X80000000Y-82380000D01*
X78750000Y-79840000D02*
X80000000Y-79840000D01*
X78500000Y-80090000D02*
X78750000Y-79840000D01*
X78870000Y-82370000D02*
X78500000Y-82000000D01*
X78500000Y-82000000D02*
X78500000Y-80090000D01*
X78870000Y-82380000D02*
X78870000Y-82370000D01*
X90200000Y-84850000D02*
X91250000Y-84850000D01*
X89100000Y-83750000D02*
X90200000Y-84850000D01*
X89100000Y-83750000D02*
X88350000Y-83000000D01*
X78500000Y-91250000D02*
X87500000Y-100250000D01*
X78500000Y-82750000D02*
X78500000Y-91250000D01*
X78870000Y-82380000D02*
X78500000Y-82750000D01*
G04 #@! TO.N,Net-(HL1-Pad1)*
X88500000Y-71000000D02*
X90750000Y-71000000D01*
G04 #@! TO.N,/GND_LED1*
X114500000Y-91750000D02*
X111750000Y-91750000D01*
X110000000Y-93820000D02*
X110000000Y-94920000D01*
X110000000Y-93500000D02*
X110000000Y-93820000D01*
X111750000Y-91750000D02*
X110000000Y-93500000D01*
G04 #@! TO.N,Net-(HL2-Pad1)*
X114500000Y-95500000D02*
X114500000Y-93250000D01*
G04 #@! TO.N,Net-(HL3-Pad1)*
X117000000Y-95499998D02*
X117000000Y-93250000D01*
G04 #@! TO.N,Net-(HL4-Pad1)*
X119500000Y-95500000D02*
X119500000Y-93250000D01*
G04 #@! TO.N,Net-(HL5-Pad1)*
X122000000Y-95500000D02*
X122000000Y-93250000D01*
G04 #@! TO.N,Net-(HL6-Pad1)*
X124500000Y-95500000D02*
X124500000Y-93250000D01*
G04 #@! TO.N,Net-(HL7-Pad1)*
X127250000Y-95500000D02*
X127250000Y-93250000D01*
G04 #@! TO.N,Net-(HL8-Pad1)*
X129750000Y-95500000D02*
X129750000Y-93250000D01*
G04 #@! TO.N,Net-(HL9-Pad1)*
X132250000Y-95500000D02*
X132250000Y-93250000D01*
G04 #@! TO.N,Net-(HL10-Pad1)*
X134750000Y-95500000D02*
X134750000Y-93250000D01*
G04 #@! TO.N,Net-(HL11-Pad1)*
X137250000Y-95500000D02*
X137250000Y-93250000D01*
G04 #@! TO.N,Net-(HL12-Pad1)*
X114500000Y-64500000D02*
X114500000Y-66750000D01*
G04 #@! TO.N,/GND_LED2*
X113750000Y-68250000D02*
X114500000Y-68250000D01*
X112070000Y-68250000D02*
X113750000Y-68250000D01*
X110000000Y-66180000D02*
X112070000Y-68250000D01*
X110000000Y-65080000D02*
X110000000Y-66180000D01*
G04 #@! TO.N,Net-(HL13-Pad1)*
X117000001Y-66749999D02*
X117000000Y-66750000D01*
X117000001Y-64500000D02*
X117000001Y-66749999D01*
G04 #@! TO.N,Net-(HL14-Pad1)*
X119500000Y-64500000D02*
X119500000Y-66750000D01*
G04 #@! TO.N,Net-(HL15-Pad1)*
X122000000Y-64500000D02*
X122000000Y-66750000D01*
G04 #@! TO.N,Net-(HL16-Pad1)*
X124500000Y-64500000D02*
X124500000Y-66750000D01*
G04 #@! TO.N,Net-(HL17-Pad1)*
X127250000Y-64500000D02*
X127250000Y-66750000D01*
G04 #@! TO.N,Net-(HL18-Pad1)*
X129750000Y-64500000D02*
X129750000Y-66750000D01*
G04 #@! TO.N,Net-(HL19-Pad1)*
X132250000Y-64500000D02*
X132250000Y-66750000D01*
G04 #@! TO.N,Net-(HL20-Pad1)*
X134750000Y-64500000D02*
X134750000Y-66750000D01*
G04 #@! TO.N,Net-(HL21-Pad1)*
X137250000Y-64500000D02*
X137250000Y-66750000D01*
G04 #@! TO.N,Net-(R8-Pad2)*
X94580000Y-60000000D02*
X94580000Y-61330000D01*
X94580000Y-61330000D02*
X95000000Y-61750000D01*
X95000000Y-61750000D02*
X96750000Y-61750000D01*
X97120000Y-61380000D02*
X97120000Y-60000000D01*
X96750000Y-61750000D02*
X97120000Y-61380000D01*
X92500000Y-63410000D02*
X94580000Y-61330000D01*
X92500000Y-67250000D02*
X92500000Y-64000000D01*
X92500000Y-64000000D02*
X92500000Y-63410000D01*
G04 #@! TO.N,/+3\002C3_prog*
X90500000Y-96500000D02*
X90500000Y-97500000D01*
X90040000Y-99150000D02*
X90040000Y-100250000D01*
X90040000Y-97960000D02*
X90040000Y-99150000D01*
X90500000Y-97500000D02*
X90040000Y-97960000D01*
X91500000Y-94800000D02*
X91300000Y-94600000D01*
X91250000Y-97500000D02*
X91500000Y-97250000D01*
X91300000Y-94600000D02*
X90500000Y-94600000D01*
X91500000Y-97250000D02*
X91500000Y-94800000D01*
X90500000Y-97500000D02*
X91250000Y-97500000D01*
G04 #@! TO.N,/+3\002C3*
X80030000Y-72250000D02*
X80000000Y-72220000D01*
X82250000Y-72250000D02*
X80030000Y-72250000D01*
X81450000Y-70350000D02*
X82250000Y-70350000D01*
X80000000Y-71120000D02*
X80770000Y-70350000D01*
X80770000Y-70350000D02*
X81450000Y-70350000D01*
X80000000Y-72220000D02*
X80000000Y-71120000D01*
G04 #@! TO.N,/PA4*
X137360000Y-97610000D02*
X137250000Y-97500000D01*
X137360000Y-100000000D02*
X137360000Y-97610000D01*
X129329475Y-89677000D02*
X129329475Y-89750000D01*
X127000000Y-87347525D02*
X129329475Y-89677000D01*
X127000000Y-85500000D02*
X127000000Y-87347525D01*
G04 #@! TO.N,/PA5*
X134820000Y-97570000D02*
X134750000Y-97500000D01*
X134820000Y-100000000D02*
X134820000Y-97570000D01*
X128329474Y-89676986D02*
X128329474Y-89750001D01*
X126500000Y-87847512D02*
X128329474Y-89676986D01*
X126500000Y-85500000D02*
X126500000Y-87847512D01*
G04 #@! TO.N,/PA6*
X132280000Y-97530000D02*
X132250000Y-97500000D01*
X132280000Y-100000000D02*
X132280000Y-97530000D01*
X127329473Y-89677159D02*
X127329473Y-89749987D01*
X126000000Y-88347686D02*
X127329473Y-89677159D01*
X126000000Y-85500000D02*
X126000000Y-88347686D01*
G04 #@! TO.N,/PA7*
X129740000Y-97510000D02*
X129750000Y-97500000D01*
X129740000Y-100000000D02*
X129740000Y-97510000D01*
X126329472Y-89675144D02*
X126329472Y-89750160D01*
X125500000Y-88845672D02*
X126329472Y-89675144D01*
X125500000Y-85500000D02*
X125500000Y-88845672D01*
G04 #@! TO.N,/PB10*
X127200000Y-97550000D02*
X127250000Y-97500000D01*
X127200000Y-100000000D02*
X127200000Y-97550000D01*
X125000000Y-89418674D02*
X125329472Y-89748146D01*
X125000000Y-85500000D02*
X125000000Y-89418674D01*
G04 #@! TO.N,Net-(DD1-Pad34)*
X118072840Y-75737427D02*
X118000002Y-75737427D01*
X119085413Y-76750000D02*
X118072840Y-75737427D01*
X120250000Y-76750000D02*
X119085413Y-76750000D01*
G04 #@! TO.N,Net-(DD1-Pad33)*
X118112426Y-74737426D02*
X118000000Y-74737426D01*
X119625000Y-76250000D02*
X118112426Y-74737426D01*
X120250000Y-76250000D02*
X119625000Y-76250000D01*
G04 #@! TO.N,/TDO_SWO*
X100200000Y-98050000D02*
X100250000Y-98000000D01*
X100200000Y-100250000D02*
X100200000Y-98050000D01*
X116250000Y-74750000D02*
X115500000Y-74000000D01*
X115500000Y-73176998D02*
X115926998Y-72750000D01*
X115500000Y-74000000D02*
X115500000Y-73176998D01*
X115926998Y-72750000D02*
X116176998Y-72500000D01*
X116176998Y-72500000D02*
X116500000Y-72500000D01*
X123000000Y-73403588D02*
X122950009Y-73353597D01*
X122096412Y-72500000D02*
X116500000Y-72500000D01*
X123000000Y-73403588D02*
X122096412Y-72500000D01*
X123000000Y-74500000D02*
X123000000Y-73403588D01*
G04 #@! TO.N,/TMS_DIO_RX*
X97660000Y-98090000D02*
X97750000Y-98000000D01*
X97660000Y-100250000D02*
X97660000Y-98090000D01*
X122500000Y-73750000D02*
X122500000Y-74500000D01*
X122500000Y-73539998D02*
X122500000Y-73750000D01*
X122060003Y-73100001D02*
X122500000Y-73539998D01*
X116649999Y-73100001D02*
X122060003Y-73100001D01*
X116250000Y-73500000D02*
X116649999Y-73100001D01*
G04 #@! TO.N,/TCK_CLK_TX*
X95120000Y-98130000D02*
X95250000Y-98000000D01*
X95120000Y-100250000D02*
X95120000Y-98130000D01*
X117250000Y-75000000D02*
X116250000Y-76000000D01*
X121800011Y-73550011D02*
X117949989Y-73550011D01*
X117250000Y-74250000D02*
X117250000Y-75000000D01*
X117949989Y-73550011D02*
X117250000Y-74250000D01*
X122000000Y-73750000D02*
X121800011Y-73550011D01*
X122000000Y-74500000D02*
X122000000Y-73750000D01*
X95120000Y-101350000D02*
X95120000Y-100250000D01*
X95520000Y-101750000D02*
X95120000Y-101350000D01*
X106250000Y-101750000D02*
X95520000Y-101750000D01*
X107000000Y-101000000D02*
X106250000Y-101750000D01*
X107000000Y-87500000D02*
X107000000Y-101000000D01*
G04 #@! TD*
G04 #@! TO.N,/VCC_MC*
G36*
X129375000Y-78000000D02*
X129073864Y-78000000D01*
X128999999Y-77985307D01*
X128985656Y-77988160D01*
X128953885Y-77975000D01*
X128546115Y-77975000D01*
X128169384Y-78131047D01*
X127881047Y-78419384D01*
X127725000Y-78796115D01*
X127725000Y-79203885D01*
X127881047Y-79580616D01*
X128169384Y-79868953D01*
X128546115Y-80025000D01*
X128953885Y-80025000D01*
X129330616Y-79868953D01*
X129375000Y-79824569D01*
X129375000Y-80085415D01*
X129293516Y-80207366D01*
X129269000Y-80330616D01*
X129235307Y-80500000D01*
X129250000Y-80573865D01*
X129250000Y-80926135D01*
X129235307Y-81000000D01*
X129250000Y-81073865D01*
X129250000Y-81073866D01*
X129293516Y-81292635D01*
X129375000Y-81414584D01*
X129375000Y-82585415D01*
X129290720Y-82459280D01*
X129228099Y-82417438D01*
X129025000Y-82214340D01*
X129025000Y-82046115D01*
X128868953Y-81669384D01*
X128580616Y-81381047D01*
X128203885Y-81225000D01*
X127796115Y-81225000D01*
X127419384Y-81381047D01*
X127131047Y-81669384D01*
X126975000Y-82046115D01*
X126975000Y-82453885D01*
X127131047Y-82830616D01*
X127419384Y-83118953D01*
X127796115Y-83275000D01*
X127964340Y-83275000D01*
X128000000Y-83310660D01*
X128000000Y-83625000D01*
X124324569Y-83625000D01*
X124368953Y-83580616D01*
X124525000Y-83203885D01*
X124525000Y-82796115D01*
X124368953Y-82419384D01*
X124080616Y-82131047D01*
X123703885Y-81975000D01*
X123296115Y-81975000D01*
X122919384Y-82131047D01*
X122631047Y-82419384D01*
X122475000Y-82796115D01*
X122475000Y-82964340D01*
X122125000Y-83314340D01*
X122125000Y-80574569D01*
X122169384Y-80618953D01*
X122546115Y-80775000D01*
X122953885Y-80775000D01*
X123330616Y-80618953D01*
X123618953Y-80330616D01*
X123775000Y-79953885D01*
X123775000Y-79546115D01*
X123618953Y-79169384D01*
X123330616Y-78881047D01*
X122953885Y-78725000D01*
X122801224Y-78725000D01*
X122790720Y-78709280D01*
X122542635Y-78543516D01*
X122323866Y-78500000D01*
X122323865Y-78500000D01*
X122250000Y-78485307D01*
X122176135Y-78500000D01*
X122125000Y-78500000D01*
X122125000Y-76375000D01*
X129375000Y-76375000D01*
X129375000Y-78000000D01*
X129375000Y-78000000D01*
G37*
X129375000Y-78000000D02*
X129073864Y-78000000D01*
X128999999Y-77985307D01*
X128985656Y-77988160D01*
X128953885Y-77975000D01*
X128546115Y-77975000D01*
X128169384Y-78131047D01*
X127881047Y-78419384D01*
X127725000Y-78796115D01*
X127725000Y-79203885D01*
X127881047Y-79580616D01*
X128169384Y-79868953D01*
X128546115Y-80025000D01*
X128953885Y-80025000D01*
X129330616Y-79868953D01*
X129375000Y-79824569D01*
X129375000Y-80085415D01*
X129293516Y-80207366D01*
X129269000Y-80330616D01*
X129235307Y-80500000D01*
X129250000Y-80573865D01*
X129250000Y-80926135D01*
X129235307Y-81000000D01*
X129250000Y-81073865D01*
X129250000Y-81073866D01*
X129293516Y-81292635D01*
X129375000Y-81414584D01*
X129375000Y-82585415D01*
X129290720Y-82459280D01*
X129228099Y-82417438D01*
X129025000Y-82214340D01*
X129025000Y-82046115D01*
X128868953Y-81669384D01*
X128580616Y-81381047D01*
X128203885Y-81225000D01*
X127796115Y-81225000D01*
X127419384Y-81381047D01*
X127131047Y-81669384D01*
X126975000Y-82046115D01*
X126975000Y-82453885D01*
X127131047Y-82830616D01*
X127419384Y-83118953D01*
X127796115Y-83275000D01*
X127964340Y-83275000D01*
X128000000Y-83310660D01*
X128000000Y-83625000D01*
X124324569Y-83625000D01*
X124368953Y-83580616D01*
X124525000Y-83203885D01*
X124525000Y-82796115D01*
X124368953Y-82419384D01*
X124080616Y-82131047D01*
X123703885Y-81975000D01*
X123296115Y-81975000D01*
X122919384Y-82131047D01*
X122631047Y-82419384D01*
X122475000Y-82796115D01*
X122475000Y-82964340D01*
X122125000Y-83314340D01*
X122125000Y-80574569D01*
X122169384Y-80618953D01*
X122546115Y-80775000D01*
X122953885Y-80775000D01*
X123330616Y-80618953D01*
X123618953Y-80330616D01*
X123775000Y-79953885D01*
X123775000Y-79546115D01*
X123618953Y-79169384D01*
X123330616Y-78881047D01*
X122953885Y-78725000D01*
X122801224Y-78725000D01*
X122790720Y-78709280D01*
X122542635Y-78543516D01*
X122323866Y-78500000D01*
X122323865Y-78500000D01*
X122250000Y-78485307D01*
X122176135Y-78500000D01*
X122125000Y-78500000D01*
X122125000Y-76375000D01*
X129375000Y-76375000D01*
X129375000Y-78000000D01*
G04 #@! TO.N,/GND_LED2*
G36*
X113375000Y-68068750D02*
X113531250Y-68225000D01*
X114475000Y-68225000D01*
X114475000Y-68205000D01*
X114525000Y-68205000D01*
X114525000Y-68225000D01*
X115468750Y-68225000D01*
X115625000Y-68068750D01*
X115625000Y-67875000D01*
X115875000Y-67875000D01*
X115875000Y-68068750D01*
X116031250Y-68225000D01*
X116975000Y-68225000D01*
X116975000Y-68205000D01*
X117025000Y-68205000D01*
X117025000Y-68225000D01*
X117968750Y-68225000D01*
X118125000Y-68068750D01*
X118125000Y-67875000D01*
X118375000Y-67875000D01*
X118375000Y-68068750D01*
X118531250Y-68225000D01*
X119475000Y-68225000D01*
X119475000Y-68205000D01*
X119525000Y-68205000D01*
X119525000Y-68225000D01*
X120468750Y-68225000D01*
X120625000Y-68068750D01*
X120625000Y-67875000D01*
X120875000Y-67875000D01*
X120875000Y-68068750D01*
X121031250Y-68225000D01*
X121975000Y-68225000D01*
X121975000Y-68205000D01*
X122025000Y-68205000D01*
X122025000Y-68225000D01*
X122968750Y-68225000D01*
X123125000Y-68068750D01*
X123125000Y-67875000D01*
X123375000Y-67875000D01*
X123375000Y-68068750D01*
X123531250Y-68225000D01*
X124475000Y-68225000D01*
X124475000Y-68205000D01*
X124525000Y-68205000D01*
X124525000Y-68225000D01*
X125468750Y-68225000D01*
X125625000Y-68068750D01*
X125625000Y-67875000D01*
X126125000Y-67875000D01*
X126125000Y-68068750D01*
X126281250Y-68225000D01*
X127225000Y-68225000D01*
X127225000Y-68205000D01*
X127275000Y-68205000D01*
X127275000Y-68225000D01*
X128218750Y-68225000D01*
X128375000Y-68068750D01*
X128375000Y-67875000D01*
X128625000Y-67875000D01*
X128625000Y-68068750D01*
X128781250Y-68225000D01*
X129725000Y-68225000D01*
X129725000Y-68205000D01*
X129775000Y-68205000D01*
X129775000Y-68225000D01*
X130718750Y-68225000D01*
X130875000Y-68068750D01*
X130875000Y-67875000D01*
X131125000Y-67875000D01*
X131125000Y-68068750D01*
X131281250Y-68225000D01*
X132225000Y-68225000D01*
X132225000Y-68205000D01*
X132275000Y-68205000D01*
X132275000Y-68225000D01*
X133218750Y-68225000D01*
X133375000Y-68068750D01*
X133375000Y-67875000D01*
X133625000Y-67875000D01*
X133625000Y-68068750D01*
X133781250Y-68225000D01*
X134725000Y-68225000D01*
X134725000Y-68205000D01*
X134775000Y-68205000D01*
X134775000Y-68225000D01*
X135718750Y-68225000D01*
X135875000Y-68068750D01*
X135875000Y-67875000D01*
X136125000Y-67875000D01*
X136125000Y-68068750D01*
X136281250Y-68225000D01*
X137225000Y-68225000D01*
X137225000Y-68205000D01*
X137275000Y-68205000D01*
X137275000Y-68225000D01*
X138218750Y-68225000D01*
X138375000Y-68068750D01*
X138375000Y-67875000D01*
X138625000Y-67875000D01*
X138625000Y-69250000D01*
X138133883Y-69250000D01*
X138279850Y-69104034D01*
X138375000Y-68874320D01*
X138375000Y-68431250D01*
X138218750Y-68275000D01*
X137275000Y-68275000D01*
X137275000Y-68295000D01*
X137225000Y-68295000D01*
X137225000Y-68275000D01*
X136281250Y-68275000D01*
X136125000Y-68431250D01*
X136125000Y-68874320D01*
X136220150Y-69104034D01*
X136366117Y-69250000D01*
X135633883Y-69250000D01*
X135779850Y-69104034D01*
X135875000Y-68874320D01*
X135875000Y-68431250D01*
X135718750Y-68275000D01*
X134775000Y-68275000D01*
X134775000Y-68295000D01*
X134725000Y-68295000D01*
X134725000Y-68275000D01*
X133781250Y-68275000D01*
X133625000Y-68431250D01*
X133625000Y-68874320D01*
X133720150Y-69104034D01*
X133866117Y-69250000D01*
X133133883Y-69250000D01*
X133279850Y-69104034D01*
X133375000Y-68874320D01*
X133375000Y-68431250D01*
X133218750Y-68275000D01*
X132275000Y-68275000D01*
X132275000Y-68295000D01*
X132225000Y-68295000D01*
X132225000Y-68275000D01*
X131281250Y-68275000D01*
X131125000Y-68431250D01*
X131125000Y-68874320D01*
X131220150Y-69104034D01*
X131366117Y-69250000D01*
X130633883Y-69250000D01*
X130779850Y-69104034D01*
X130875000Y-68874320D01*
X130875000Y-68431250D01*
X130718750Y-68275000D01*
X129775000Y-68275000D01*
X129775000Y-68295000D01*
X129725000Y-68295000D01*
X129725000Y-68275000D01*
X128781250Y-68275000D01*
X128625000Y-68431250D01*
X128625000Y-68874320D01*
X128720150Y-69104034D01*
X128895966Y-69279849D01*
X129125680Y-69375000D01*
X129399015Y-69375000D01*
X129272880Y-69459280D01*
X129231037Y-69521903D01*
X129127941Y-69625000D01*
X129074569Y-69625000D01*
X128830616Y-69381047D01*
X128453885Y-69225000D01*
X128158883Y-69225000D01*
X128279850Y-69104034D01*
X128375000Y-68874320D01*
X128375000Y-68431250D01*
X128218750Y-68275000D01*
X127275000Y-68275000D01*
X127275000Y-68295000D01*
X127225000Y-68295000D01*
X127225000Y-68275000D01*
X126281250Y-68275000D01*
X126125000Y-68431250D01*
X126125000Y-68874320D01*
X126220150Y-69104034D01*
X126395966Y-69279849D01*
X126625680Y-69375000D01*
X126683983Y-69375000D01*
X126669384Y-69381047D01*
X126445719Y-69604712D01*
X126368953Y-69419384D01*
X126080616Y-69131047D01*
X125703885Y-68975000D01*
X125583297Y-68975000D01*
X125625000Y-68874320D01*
X125625000Y-68431250D01*
X125468750Y-68275000D01*
X124525000Y-68275000D01*
X124525000Y-68295000D01*
X124475000Y-68295000D01*
X124475000Y-68275000D01*
X123531250Y-68275000D01*
X123375000Y-68431250D01*
X123375000Y-68874320D01*
X123416703Y-68975000D01*
X123296115Y-68975000D01*
X123039222Y-69081409D01*
X123125000Y-68874320D01*
X123125000Y-68431250D01*
X122968750Y-68275000D01*
X122025000Y-68275000D01*
X122025000Y-68295000D01*
X121975000Y-68295000D01*
X121975000Y-68275000D01*
X121031250Y-68275000D01*
X120875000Y-68431250D01*
X120875000Y-68874320D01*
X120970150Y-69104034D01*
X121126074Y-69259957D01*
X120957364Y-69293516D01*
X120869205Y-69352422D01*
X120709280Y-69459280D01*
X120667437Y-69521904D01*
X120564341Y-69625000D01*
X114311555Y-69625000D01*
X114250000Y-69612756D01*
X113125000Y-69612756D01*
X113125000Y-68431250D01*
X113375000Y-68431250D01*
X113375000Y-68874320D01*
X113470150Y-69104034D01*
X113645966Y-69279849D01*
X113875680Y-69375000D01*
X114318750Y-69375000D01*
X114475000Y-69218750D01*
X114475000Y-68275000D01*
X114525000Y-68275000D01*
X114525000Y-69218750D01*
X114681250Y-69375000D01*
X115124320Y-69375000D01*
X115354034Y-69279849D01*
X115529850Y-69104034D01*
X115625000Y-68874320D01*
X115625000Y-68431250D01*
X115875000Y-68431250D01*
X115875000Y-68874320D01*
X115970150Y-69104034D01*
X116145966Y-69279849D01*
X116375680Y-69375000D01*
X116818750Y-69375000D01*
X116975000Y-69218750D01*
X116975000Y-68275000D01*
X117025000Y-68275000D01*
X117025000Y-69218750D01*
X117181250Y-69375000D01*
X117624320Y-69375000D01*
X117854034Y-69279849D01*
X118029850Y-69104034D01*
X118125000Y-68874320D01*
X118125000Y-68431250D01*
X118375000Y-68431250D01*
X118375000Y-68874320D01*
X118470150Y-69104034D01*
X118645966Y-69279849D01*
X118875680Y-69375000D01*
X119318750Y-69375000D01*
X119475000Y-69218750D01*
X119475000Y-68275000D01*
X119525000Y-68275000D01*
X119525000Y-69218750D01*
X119681250Y-69375000D01*
X120124320Y-69375000D01*
X120354034Y-69279849D01*
X120529850Y-69104034D01*
X120625000Y-68874320D01*
X120625000Y-68431250D01*
X120468750Y-68275000D01*
X119525000Y-68275000D01*
X119475000Y-68275000D01*
X118531250Y-68275000D01*
X118375000Y-68431250D01*
X118125000Y-68431250D01*
X117968750Y-68275000D01*
X117025000Y-68275000D01*
X116975000Y-68275000D01*
X116031250Y-68275000D01*
X115875000Y-68431250D01*
X115625000Y-68431250D01*
X115468750Y-68275000D01*
X114525000Y-68275000D01*
X114475000Y-68275000D01*
X113531250Y-68275000D01*
X113375000Y-68431250D01*
X113125000Y-68431250D01*
X113125000Y-67875000D01*
X113375000Y-67875000D01*
X113375000Y-68068750D01*
X113375000Y-68068750D01*
G37*
X113375000Y-68068750D02*
X113531250Y-68225000D01*
X114475000Y-68225000D01*
X114475000Y-68205000D01*
X114525000Y-68205000D01*
X114525000Y-68225000D01*
X115468750Y-68225000D01*
X115625000Y-68068750D01*
X115625000Y-67875000D01*
X115875000Y-67875000D01*
X115875000Y-68068750D01*
X116031250Y-68225000D01*
X116975000Y-68225000D01*
X116975000Y-68205000D01*
X117025000Y-68205000D01*
X117025000Y-68225000D01*
X117968750Y-68225000D01*
X118125000Y-68068750D01*
X118125000Y-67875000D01*
X118375000Y-67875000D01*
X118375000Y-68068750D01*
X118531250Y-68225000D01*
X119475000Y-68225000D01*
X119475000Y-68205000D01*
X119525000Y-68205000D01*
X119525000Y-68225000D01*
X120468750Y-68225000D01*
X120625000Y-68068750D01*
X120625000Y-67875000D01*
X120875000Y-67875000D01*
X120875000Y-68068750D01*
X121031250Y-68225000D01*
X121975000Y-68225000D01*
X121975000Y-68205000D01*
X122025000Y-68205000D01*
X122025000Y-68225000D01*
X122968750Y-68225000D01*
X123125000Y-68068750D01*
X123125000Y-67875000D01*
X123375000Y-67875000D01*
X123375000Y-68068750D01*
X123531250Y-68225000D01*
X124475000Y-68225000D01*
X124475000Y-68205000D01*
X124525000Y-68205000D01*
X124525000Y-68225000D01*
X125468750Y-68225000D01*
X125625000Y-68068750D01*
X125625000Y-67875000D01*
X126125000Y-67875000D01*
X126125000Y-68068750D01*
X126281250Y-68225000D01*
X127225000Y-68225000D01*
X127225000Y-68205000D01*
X127275000Y-68205000D01*
X127275000Y-68225000D01*
X128218750Y-68225000D01*
X128375000Y-68068750D01*
X128375000Y-67875000D01*
X128625000Y-67875000D01*
X128625000Y-68068750D01*
X128781250Y-68225000D01*
X129725000Y-68225000D01*
X129725000Y-68205000D01*
X129775000Y-68205000D01*
X129775000Y-68225000D01*
X130718750Y-68225000D01*
X130875000Y-68068750D01*
X130875000Y-67875000D01*
X131125000Y-67875000D01*
X131125000Y-68068750D01*
X131281250Y-68225000D01*
X132225000Y-68225000D01*
X132225000Y-68205000D01*
X132275000Y-68205000D01*
X132275000Y-68225000D01*
X133218750Y-68225000D01*
X133375000Y-68068750D01*
X133375000Y-67875000D01*
X133625000Y-67875000D01*
X133625000Y-68068750D01*
X133781250Y-68225000D01*
X134725000Y-68225000D01*
X134725000Y-68205000D01*
X134775000Y-68205000D01*
X134775000Y-68225000D01*
X135718750Y-68225000D01*
X135875000Y-68068750D01*
X135875000Y-67875000D01*
X136125000Y-67875000D01*
X136125000Y-68068750D01*
X136281250Y-68225000D01*
X137225000Y-68225000D01*
X137225000Y-68205000D01*
X137275000Y-68205000D01*
X137275000Y-68225000D01*
X138218750Y-68225000D01*
X138375000Y-68068750D01*
X138375000Y-67875000D01*
X138625000Y-67875000D01*
X138625000Y-69250000D01*
X138133883Y-69250000D01*
X138279850Y-69104034D01*
X138375000Y-68874320D01*
X138375000Y-68431250D01*
X138218750Y-68275000D01*
X137275000Y-68275000D01*
X137275000Y-68295000D01*
X137225000Y-68295000D01*
X137225000Y-68275000D01*
X136281250Y-68275000D01*
X136125000Y-68431250D01*
X136125000Y-68874320D01*
X136220150Y-69104034D01*
X136366117Y-69250000D01*
X135633883Y-69250000D01*
X135779850Y-69104034D01*
X135875000Y-68874320D01*
X135875000Y-68431250D01*
X135718750Y-68275000D01*
X134775000Y-68275000D01*
X134775000Y-68295000D01*
X134725000Y-68295000D01*
X134725000Y-68275000D01*
X133781250Y-68275000D01*
X133625000Y-68431250D01*
X133625000Y-68874320D01*
X133720150Y-69104034D01*
X133866117Y-69250000D01*
X133133883Y-69250000D01*
X133279850Y-69104034D01*
X133375000Y-68874320D01*
X133375000Y-68431250D01*
X133218750Y-68275000D01*
X132275000Y-68275000D01*
X132275000Y-68295000D01*
X132225000Y-68295000D01*
X132225000Y-68275000D01*
X131281250Y-68275000D01*
X131125000Y-68431250D01*
X131125000Y-68874320D01*
X131220150Y-69104034D01*
X131366117Y-69250000D01*
X130633883Y-69250000D01*
X130779850Y-69104034D01*
X130875000Y-68874320D01*
X130875000Y-68431250D01*
X130718750Y-68275000D01*
X129775000Y-68275000D01*
X129775000Y-68295000D01*
X129725000Y-68295000D01*
X129725000Y-68275000D01*
X128781250Y-68275000D01*
X128625000Y-68431250D01*
X128625000Y-68874320D01*
X128720150Y-69104034D01*
X128895966Y-69279849D01*
X129125680Y-69375000D01*
X129399015Y-69375000D01*
X129272880Y-69459280D01*
X129231037Y-69521903D01*
X129127941Y-69625000D01*
X129074569Y-69625000D01*
X128830616Y-69381047D01*
X128453885Y-69225000D01*
X128158883Y-69225000D01*
X128279850Y-69104034D01*
X128375000Y-68874320D01*
X128375000Y-68431250D01*
X128218750Y-68275000D01*
X127275000Y-68275000D01*
X127275000Y-68295000D01*
X127225000Y-68295000D01*
X127225000Y-68275000D01*
X126281250Y-68275000D01*
X126125000Y-68431250D01*
X126125000Y-68874320D01*
X126220150Y-69104034D01*
X126395966Y-69279849D01*
X126625680Y-69375000D01*
X126683983Y-69375000D01*
X126669384Y-69381047D01*
X126445719Y-69604712D01*
X126368953Y-69419384D01*
X126080616Y-69131047D01*
X125703885Y-68975000D01*
X125583297Y-68975000D01*
X125625000Y-68874320D01*
X125625000Y-68431250D01*
X125468750Y-68275000D01*
X124525000Y-68275000D01*
X124525000Y-68295000D01*
X124475000Y-68295000D01*
X124475000Y-68275000D01*
X123531250Y-68275000D01*
X123375000Y-68431250D01*
X123375000Y-68874320D01*
X123416703Y-68975000D01*
X123296115Y-68975000D01*
X123039222Y-69081409D01*
X123125000Y-68874320D01*
X123125000Y-68431250D01*
X122968750Y-68275000D01*
X122025000Y-68275000D01*
X122025000Y-68295000D01*
X121975000Y-68295000D01*
X121975000Y-68275000D01*
X121031250Y-68275000D01*
X120875000Y-68431250D01*
X120875000Y-68874320D01*
X120970150Y-69104034D01*
X121126074Y-69259957D01*
X120957364Y-69293516D01*
X120869205Y-69352422D01*
X120709280Y-69459280D01*
X120667437Y-69521904D01*
X120564341Y-69625000D01*
X114311555Y-69625000D01*
X114250000Y-69612756D01*
X113125000Y-69612756D01*
X113125000Y-68431250D01*
X113375000Y-68431250D01*
X113375000Y-68874320D01*
X113470150Y-69104034D01*
X113645966Y-69279849D01*
X113875680Y-69375000D01*
X114318750Y-69375000D01*
X114475000Y-69218750D01*
X114475000Y-68275000D01*
X114525000Y-68275000D01*
X114525000Y-69218750D01*
X114681250Y-69375000D01*
X115124320Y-69375000D01*
X115354034Y-69279849D01*
X115529850Y-69104034D01*
X115625000Y-68874320D01*
X115625000Y-68431250D01*
X115875000Y-68431250D01*
X115875000Y-68874320D01*
X115970150Y-69104034D01*
X116145966Y-69279849D01*
X116375680Y-69375000D01*
X116818750Y-69375000D01*
X116975000Y-69218750D01*
X116975000Y-68275000D01*
X117025000Y-68275000D01*
X117025000Y-69218750D01*
X117181250Y-69375000D01*
X117624320Y-69375000D01*
X117854034Y-69279849D01*
X118029850Y-69104034D01*
X118125000Y-68874320D01*
X118125000Y-68431250D01*
X118375000Y-68431250D01*
X118375000Y-68874320D01*
X118470150Y-69104034D01*
X118645966Y-69279849D01*
X118875680Y-69375000D01*
X119318750Y-69375000D01*
X119475000Y-69218750D01*
X119475000Y-68275000D01*
X119525000Y-68275000D01*
X119525000Y-69218750D01*
X119681250Y-69375000D01*
X120124320Y-69375000D01*
X120354034Y-69279849D01*
X120529850Y-69104034D01*
X120625000Y-68874320D01*
X120625000Y-68431250D01*
X120468750Y-68275000D01*
X119525000Y-68275000D01*
X119475000Y-68275000D01*
X118531250Y-68275000D01*
X118375000Y-68431250D01*
X118125000Y-68431250D01*
X117968750Y-68275000D01*
X117025000Y-68275000D01*
X116975000Y-68275000D01*
X116031250Y-68275000D01*
X115875000Y-68431250D01*
X115625000Y-68431250D01*
X115468750Y-68275000D01*
X114525000Y-68275000D01*
X114475000Y-68275000D01*
X113531250Y-68275000D01*
X113375000Y-68431250D01*
X113125000Y-68431250D01*
X113125000Y-67875000D01*
X113375000Y-67875000D01*
X113375000Y-68068750D01*
G04 #@! TO.N,/GND_LED1*
G36*
X119669384Y-90618953D02*
X119683983Y-90625000D01*
X119681250Y-90625000D01*
X119525000Y-90781250D01*
X119525000Y-91725000D01*
X120468750Y-91725000D01*
X120625000Y-91568750D01*
X120625000Y-91125680D01*
X120529850Y-90895966D01*
X120408883Y-90775000D01*
X120453885Y-90775000D01*
X120741053Y-90656051D01*
X121058768Y-90787653D01*
X121078464Y-90787653D01*
X120970150Y-90895966D01*
X120875000Y-91125680D01*
X120875000Y-91568750D01*
X121031250Y-91725000D01*
X121975000Y-91725000D01*
X121975000Y-91705000D01*
X122025000Y-91705000D01*
X122025000Y-91725000D01*
X122968750Y-91725000D01*
X123125000Y-91568750D01*
X123125000Y-91125680D01*
X123029850Y-90895966D01*
X122854034Y-90720151D01*
X122758866Y-90680731D01*
X122794927Y-90665794D01*
X123103445Y-90793586D01*
X123511215Y-90793586D01*
X123615888Y-90750229D01*
X123470150Y-90895966D01*
X123375000Y-91125680D01*
X123375000Y-91568750D01*
X123531250Y-91725000D01*
X124475000Y-91725000D01*
X124475000Y-91705000D01*
X124525000Y-91705000D01*
X124525000Y-91725000D01*
X125468750Y-91725000D01*
X125625000Y-91568750D01*
X125625000Y-91125680D01*
X125529850Y-90895966D01*
X125407029Y-90773146D01*
X125533357Y-90773146D01*
X125827041Y-90651498D01*
X126125587Y-90775160D01*
X126340957Y-90775160D01*
X126220150Y-90895966D01*
X126125000Y-91125680D01*
X126125000Y-91568750D01*
X126281250Y-91725000D01*
X127225000Y-91725000D01*
X127225000Y-91705000D01*
X127275000Y-91705000D01*
X127275000Y-91725000D01*
X128218750Y-91725000D01*
X128375000Y-91568750D01*
X128375000Y-91125680D01*
X128279850Y-90895966D01*
X128158884Y-90775001D01*
X128533359Y-90775001D01*
X128829476Y-90652346D01*
X128944569Y-90700019D01*
X128895966Y-90720151D01*
X128720150Y-90895966D01*
X128625000Y-91125680D01*
X128625000Y-91568750D01*
X128781250Y-91725000D01*
X129725000Y-91725000D01*
X129725000Y-91705000D01*
X129775000Y-91705000D01*
X129775000Y-91725000D01*
X130718750Y-91725000D01*
X130875000Y-91568750D01*
X130875000Y-91125680D01*
X131125000Y-91125680D01*
X131125000Y-91568750D01*
X131281250Y-91725000D01*
X132225000Y-91725000D01*
X132225000Y-90781250D01*
X132275000Y-90781250D01*
X132275000Y-91725000D01*
X133218750Y-91725000D01*
X133375000Y-91568750D01*
X133375000Y-91125680D01*
X133625000Y-91125680D01*
X133625000Y-91568750D01*
X133781250Y-91725000D01*
X134725000Y-91725000D01*
X134725000Y-90781250D01*
X134775000Y-90781250D01*
X134775000Y-91725000D01*
X135718750Y-91725000D01*
X135875000Y-91568750D01*
X135875000Y-91125680D01*
X136125000Y-91125680D01*
X136125000Y-91568750D01*
X136281250Y-91725000D01*
X137225000Y-91725000D01*
X137225000Y-90781250D01*
X137275000Y-90781250D01*
X137275000Y-91725000D01*
X138218750Y-91725000D01*
X138375000Y-91568750D01*
X138375000Y-91125680D01*
X138279850Y-90895966D01*
X138104034Y-90720151D01*
X137874320Y-90625000D01*
X137431250Y-90625000D01*
X137275000Y-90781250D01*
X137225000Y-90781250D01*
X137068750Y-90625000D01*
X136625680Y-90625000D01*
X136395966Y-90720151D01*
X136220150Y-90895966D01*
X136125000Y-91125680D01*
X135875000Y-91125680D01*
X135779850Y-90895966D01*
X135604034Y-90720151D01*
X135374320Y-90625000D01*
X134931250Y-90625000D01*
X134775000Y-90781250D01*
X134725000Y-90781250D01*
X134568750Y-90625000D01*
X134125680Y-90625000D01*
X133895966Y-90720151D01*
X133720150Y-90895966D01*
X133625000Y-91125680D01*
X133375000Y-91125680D01*
X133279850Y-90895966D01*
X133104034Y-90720151D01*
X132874320Y-90625000D01*
X132431250Y-90625000D01*
X132275000Y-90781250D01*
X132225000Y-90781250D01*
X132068750Y-90625000D01*
X131625680Y-90625000D01*
X131395966Y-90720151D01*
X131220150Y-90895966D01*
X131125000Y-91125680D01*
X130875000Y-91125680D01*
X130779850Y-90895966D01*
X130604034Y-90720151D01*
X130374320Y-90625000D01*
X129931250Y-90625000D01*
X129775002Y-90781248D01*
X129775002Y-90674909D01*
X129910091Y-90618953D01*
X130154044Y-90375000D01*
X138625000Y-90375000D01*
X138625000Y-92125000D01*
X138375000Y-92125000D01*
X138375000Y-91931250D01*
X138218750Y-91775000D01*
X137275000Y-91775000D01*
X137275000Y-91795000D01*
X137225000Y-91795000D01*
X137225000Y-91775000D01*
X136281250Y-91775000D01*
X136125000Y-91931250D01*
X136125000Y-92125000D01*
X135875000Y-92125000D01*
X135875000Y-91931250D01*
X135718750Y-91775000D01*
X134775000Y-91775000D01*
X134775000Y-91795000D01*
X134725000Y-91795000D01*
X134725000Y-91775000D01*
X133781250Y-91775000D01*
X133625000Y-91931250D01*
X133625000Y-92125000D01*
X133375000Y-92125000D01*
X133375000Y-91931250D01*
X133218750Y-91775000D01*
X132275000Y-91775000D01*
X132275000Y-91795000D01*
X132225000Y-91795000D01*
X132225000Y-91775000D01*
X131281250Y-91775000D01*
X131125000Y-91931250D01*
X131125000Y-92125000D01*
X130875000Y-92125000D01*
X130875000Y-91931250D01*
X130718750Y-91775000D01*
X129775000Y-91775000D01*
X129775000Y-91795000D01*
X129725000Y-91795000D01*
X129725000Y-91775000D01*
X128781250Y-91775000D01*
X128625000Y-91931250D01*
X128625000Y-92125000D01*
X128375000Y-92125000D01*
X128375000Y-91931250D01*
X128218750Y-91775000D01*
X127275000Y-91775000D01*
X127275000Y-91795000D01*
X127225000Y-91795000D01*
X127225000Y-91775000D01*
X126281250Y-91775000D01*
X126125000Y-91931250D01*
X126125000Y-92125000D01*
X125625000Y-92125000D01*
X125625000Y-91931250D01*
X125468750Y-91775000D01*
X124525000Y-91775000D01*
X124525000Y-91795000D01*
X124475000Y-91795000D01*
X124475000Y-91775000D01*
X123531250Y-91775000D01*
X123375000Y-91931250D01*
X123375000Y-92125000D01*
X123125000Y-92125000D01*
X123125000Y-91931250D01*
X122968750Y-91775000D01*
X122025000Y-91775000D01*
X122025000Y-91795000D01*
X121975000Y-91795000D01*
X121975000Y-91775000D01*
X121031250Y-91775000D01*
X120875000Y-91931250D01*
X120875000Y-92125000D01*
X120625000Y-92125000D01*
X120625000Y-91931250D01*
X120468750Y-91775000D01*
X119525000Y-91775000D01*
X119525000Y-91795000D01*
X119475000Y-91795000D01*
X119475000Y-91775000D01*
X118531250Y-91775000D01*
X118375000Y-91931250D01*
X118375000Y-92125000D01*
X118125000Y-92125000D01*
X118125000Y-91931250D01*
X117968750Y-91775000D01*
X117025000Y-91775000D01*
X117025000Y-91795000D01*
X116975000Y-91795000D01*
X116975000Y-91775000D01*
X116031250Y-91775000D01*
X115875000Y-91931250D01*
X115875000Y-92125000D01*
X115625000Y-92125000D01*
X115625000Y-91931250D01*
X115468750Y-91775000D01*
X114525000Y-91775000D01*
X114525000Y-91795000D01*
X114475000Y-91795000D01*
X114475000Y-91775000D01*
X113531250Y-91775000D01*
X113375000Y-91931250D01*
X113375000Y-92125000D01*
X113125000Y-92125000D01*
X113125000Y-91125680D01*
X113375000Y-91125680D01*
X113375000Y-91568750D01*
X113531250Y-91725000D01*
X114475000Y-91725000D01*
X114475000Y-90781250D01*
X114525000Y-90781250D01*
X114525000Y-91725000D01*
X115468750Y-91725000D01*
X115625000Y-91568750D01*
X115625000Y-91125680D01*
X115875000Y-91125680D01*
X115875000Y-91568750D01*
X116031250Y-91725000D01*
X116975000Y-91725000D01*
X116975000Y-90781250D01*
X117025000Y-90781250D01*
X117025000Y-91725000D01*
X117968750Y-91725000D01*
X118125000Y-91568750D01*
X118125000Y-91125680D01*
X118375000Y-91125680D01*
X118375000Y-91568750D01*
X118531250Y-91725000D01*
X119475000Y-91725000D01*
X119475000Y-90781250D01*
X119318750Y-90625000D01*
X118875680Y-90625000D01*
X118645966Y-90720151D01*
X118470150Y-90895966D01*
X118375000Y-91125680D01*
X118125000Y-91125680D01*
X118029850Y-90895966D01*
X117854034Y-90720151D01*
X117624320Y-90625000D01*
X117181250Y-90625000D01*
X117025000Y-90781250D01*
X116975000Y-90781250D01*
X116818750Y-90625000D01*
X116375680Y-90625000D01*
X116145966Y-90720151D01*
X115970150Y-90895966D01*
X115875000Y-91125680D01*
X115625000Y-91125680D01*
X115529850Y-90895966D01*
X115354034Y-90720151D01*
X115124320Y-90625000D01*
X114681250Y-90625000D01*
X114525000Y-90781250D01*
X114475000Y-90781250D01*
X114318750Y-90625000D01*
X113875680Y-90625000D01*
X113645966Y-90720151D01*
X113470150Y-90895966D01*
X113375000Y-91125680D01*
X113125000Y-91125680D01*
X113125000Y-90375000D01*
X119425431Y-90375000D01*
X119669384Y-90618953D01*
X119669384Y-90618953D01*
G37*
X119669384Y-90618953D02*
X119683983Y-90625000D01*
X119681250Y-90625000D01*
X119525000Y-90781250D01*
X119525000Y-91725000D01*
X120468750Y-91725000D01*
X120625000Y-91568750D01*
X120625000Y-91125680D01*
X120529850Y-90895966D01*
X120408883Y-90775000D01*
X120453885Y-90775000D01*
X120741053Y-90656051D01*
X121058768Y-90787653D01*
X121078464Y-90787653D01*
X120970150Y-90895966D01*
X120875000Y-91125680D01*
X120875000Y-91568750D01*
X121031250Y-91725000D01*
X121975000Y-91725000D01*
X121975000Y-91705000D01*
X122025000Y-91705000D01*
X122025000Y-91725000D01*
X122968750Y-91725000D01*
X123125000Y-91568750D01*
X123125000Y-91125680D01*
X123029850Y-90895966D01*
X122854034Y-90720151D01*
X122758866Y-90680731D01*
X122794927Y-90665794D01*
X123103445Y-90793586D01*
X123511215Y-90793586D01*
X123615888Y-90750229D01*
X123470150Y-90895966D01*
X123375000Y-91125680D01*
X123375000Y-91568750D01*
X123531250Y-91725000D01*
X124475000Y-91725000D01*
X124475000Y-91705000D01*
X124525000Y-91705000D01*
X124525000Y-91725000D01*
X125468750Y-91725000D01*
X125625000Y-91568750D01*
X125625000Y-91125680D01*
X125529850Y-90895966D01*
X125407029Y-90773146D01*
X125533357Y-90773146D01*
X125827041Y-90651498D01*
X126125587Y-90775160D01*
X126340957Y-90775160D01*
X126220150Y-90895966D01*
X126125000Y-91125680D01*
X126125000Y-91568750D01*
X126281250Y-91725000D01*
X127225000Y-91725000D01*
X127225000Y-91705000D01*
X127275000Y-91705000D01*
X127275000Y-91725000D01*
X128218750Y-91725000D01*
X128375000Y-91568750D01*
X128375000Y-91125680D01*
X128279850Y-90895966D01*
X128158884Y-90775001D01*
X128533359Y-90775001D01*
X128829476Y-90652346D01*
X128944569Y-90700019D01*
X128895966Y-90720151D01*
X128720150Y-90895966D01*
X128625000Y-91125680D01*
X128625000Y-91568750D01*
X128781250Y-91725000D01*
X129725000Y-91725000D01*
X129725000Y-91705000D01*
X129775000Y-91705000D01*
X129775000Y-91725000D01*
X130718750Y-91725000D01*
X130875000Y-91568750D01*
X130875000Y-91125680D01*
X131125000Y-91125680D01*
X131125000Y-91568750D01*
X131281250Y-91725000D01*
X132225000Y-91725000D01*
X132225000Y-90781250D01*
X132275000Y-90781250D01*
X132275000Y-91725000D01*
X133218750Y-91725000D01*
X133375000Y-91568750D01*
X133375000Y-91125680D01*
X133625000Y-91125680D01*
X133625000Y-91568750D01*
X133781250Y-91725000D01*
X134725000Y-91725000D01*
X134725000Y-90781250D01*
X134775000Y-90781250D01*
X134775000Y-91725000D01*
X135718750Y-91725000D01*
X135875000Y-91568750D01*
X135875000Y-91125680D01*
X136125000Y-91125680D01*
X136125000Y-91568750D01*
X136281250Y-91725000D01*
X137225000Y-91725000D01*
X137225000Y-90781250D01*
X137275000Y-90781250D01*
X137275000Y-91725000D01*
X138218750Y-91725000D01*
X138375000Y-91568750D01*
X138375000Y-91125680D01*
X138279850Y-90895966D01*
X138104034Y-90720151D01*
X137874320Y-90625000D01*
X137431250Y-90625000D01*
X137275000Y-90781250D01*
X137225000Y-90781250D01*
X137068750Y-90625000D01*
X136625680Y-90625000D01*
X136395966Y-90720151D01*
X136220150Y-90895966D01*
X136125000Y-91125680D01*
X135875000Y-91125680D01*
X135779850Y-90895966D01*
X135604034Y-90720151D01*
X135374320Y-90625000D01*
X134931250Y-90625000D01*
X134775000Y-90781250D01*
X134725000Y-90781250D01*
X134568750Y-90625000D01*
X134125680Y-90625000D01*
X133895966Y-90720151D01*
X133720150Y-90895966D01*
X133625000Y-91125680D01*
X133375000Y-91125680D01*
X133279850Y-90895966D01*
X133104034Y-90720151D01*
X132874320Y-90625000D01*
X132431250Y-90625000D01*
X132275000Y-90781250D01*
X132225000Y-90781250D01*
X132068750Y-90625000D01*
X131625680Y-90625000D01*
X131395966Y-90720151D01*
X131220150Y-90895966D01*
X131125000Y-91125680D01*
X130875000Y-91125680D01*
X130779850Y-90895966D01*
X130604034Y-90720151D01*
X130374320Y-90625000D01*
X129931250Y-90625000D01*
X129775002Y-90781248D01*
X129775002Y-90674909D01*
X129910091Y-90618953D01*
X130154044Y-90375000D01*
X138625000Y-90375000D01*
X138625000Y-92125000D01*
X138375000Y-92125000D01*
X138375000Y-91931250D01*
X138218750Y-91775000D01*
X137275000Y-91775000D01*
X137275000Y-91795000D01*
X137225000Y-91795000D01*
X137225000Y-91775000D01*
X136281250Y-91775000D01*
X136125000Y-91931250D01*
X136125000Y-92125000D01*
X135875000Y-92125000D01*
X135875000Y-91931250D01*
X135718750Y-91775000D01*
X134775000Y-91775000D01*
X134775000Y-91795000D01*
X134725000Y-91795000D01*
X134725000Y-91775000D01*
X133781250Y-91775000D01*
X133625000Y-91931250D01*
X133625000Y-92125000D01*
X133375000Y-92125000D01*
X133375000Y-91931250D01*
X133218750Y-91775000D01*
X132275000Y-91775000D01*
X132275000Y-91795000D01*
X132225000Y-91795000D01*
X132225000Y-91775000D01*
X131281250Y-91775000D01*
X131125000Y-91931250D01*
X131125000Y-92125000D01*
X130875000Y-92125000D01*
X130875000Y-91931250D01*
X130718750Y-91775000D01*
X129775000Y-91775000D01*
X129775000Y-91795000D01*
X129725000Y-91795000D01*
X129725000Y-91775000D01*
X128781250Y-91775000D01*
X128625000Y-91931250D01*
X128625000Y-92125000D01*
X128375000Y-92125000D01*
X128375000Y-91931250D01*
X128218750Y-91775000D01*
X127275000Y-91775000D01*
X127275000Y-91795000D01*
X127225000Y-91795000D01*
X127225000Y-91775000D01*
X126281250Y-91775000D01*
X126125000Y-91931250D01*
X126125000Y-92125000D01*
X125625000Y-92125000D01*
X125625000Y-91931250D01*
X125468750Y-91775000D01*
X124525000Y-91775000D01*
X124525000Y-91795000D01*
X124475000Y-91795000D01*
X124475000Y-91775000D01*
X123531250Y-91775000D01*
X123375000Y-91931250D01*
X123375000Y-92125000D01*
X123125000Y-92125000D01*
X123125000Y-91931250D01*
X122968750Y-91775000D01*
X122025000Y-91775000D01*
X122025000Y-91795000D01*
X121975000Y-91795000D01*
X121975000Y-91775000D01*
X121031250Y-91775000D01*
X120875000Y-91931250D01*
X120875000Y-92125000D01*
X120625000Y-92125000D01*
X120625000Y-91931250D01*
X120468750Y-91775000D01*
X119525000Y-91775000D01*
X119525000Y-91795000D01*
X119475000Y-91795000D01*
X119475000Y-91775000D01*
X118531250Y-91775000D01*
X118375000Y-91931250D01*
X118375000Y-92125000D01*
X118125000Y-92125000D01*
X118125000Y-91931250D01*
X117968750Y-91775000D01*
X117025000Y-91775000D01*
X117025000Y-91795000D01*
X116975000Y-91795000D01*
X116975000Y-91775000D01*
X116031250Y-91775000D01*
X115875000Y-91931250D01*
X115875000Y-92125000D01*
X115625000Y-92125000D01*
X115625000Y-91931250D01*
X115468750Y-91775000D01*
X114525000Y-91775000D01*
X114525000Y-91795000D01*
X114475000Y-91795000D01*
X114475000Y-91775000D01*
X113531250Y-91775000D01*
X113375000Y-91931250D01*
X113375000Y-92125000D01*
X113125000Y-92125000D01*
X113125000Y-91125680D01*
X113375000Y-91125680D01*
X113375000Y-91568750D01*
X113531250Y-91725000D01*
X114475000Y-91725000D01*
X114475000Y-90781250D01*
X114525000Y-90781250D01*
X114525000Y-91725000D01*
X115468750Y-91725000D01*
X115625000Y-91568750D01*
X115625000Y-91125680D01*
X115875000Y-91125680D01*
X115875000Y-91568750D01*
X116031250Y-91725000D01*
X116975000Y-91725000D01*
X116975000Y-90781250D01*
X117025000Y-90781250D01*
X117025000Y-91725000D01*
X117968750Y-91725000D01*
X118125000Y-91568750D01*
X118125000Y-91125680D01*
X118375000Y-91125680D01*
X118375000Y-91568750D01*
X118531250Y-91725000D01*
X119475000Y-91725000D01*
X119475000Y-90781250D01*
X119318750Y-90625000D01*
X118875680Y-90625000D01*
X118645966Y-90720151D01*
X118470150Y-90895966D01*
X118375000Y-91125680D01*
X118125000Y-91125680D01*
X118029850Y-90895966D01*
X117854034Y-90720151D01*
X117624320Y-90625000D01*
X117181250Y-90625000D01*
X117025000Y-90781250D01*
X116975000Y-90781250D01*
X116818750Y-90625000D01*
X116375680Y-90625000D01*
X116145966Y-90720151D01*
X115970150Y-90895966D01*
X115875000Y-91125680D01*
X115625000Y-91125680D01*
X115529850Y-90895966D01*
X115354034Y-90720151D01*
X115124320Y-90625000D01*
X114681250Y-90625000D01*
X114525000Y-90781250D01*
X114475000Y-90781250D01*
X114318750Y-90625000D01*
X113875680Y-90625000D01*
X113645966Y-90720151D01*
X113470150Y-90895966D01*
X113375000Y-91125680D01*
X113125000Y-91125680D01*
X113125000Y-90375000D01*
X119425431Y-90375000D01*
X119669384Y-90618953D01*
G04 #@! TD*
M02*
